<?xml version="1.0" encoding="UTF-8" standalone="no"?>
<svg
   xmlns:dc="http://purl.org/dc/elements/1.1/"
   xmlns:cc="http://creativecommons.org/ns#"
   xmlns:rdf="http://www.w3.org/1999/02/22-rdf-syntax-ns#"
   xmlns:svg="http://www.w3.org/2000/svg"
   xmlns="http://www.w3.org/2000/svg"
   xmlns:sodipodi="http://sodipodi.sourceforge.net/DTD/sodipodi-0.dtd"
   xmlns:inkscape="http://www.inkscape.org/namespaces/inkscape"
   width="620.14124"
   height="327.31915"
   id="svg2"
   version="1.1"
   inkscape:version="0.91 r13725"
   sodipodi:docname="alternate_rocket.svg">
  <metadata
     id="metadata22">
    <rdf:RDF>
      <cc:Work
         rdf:about="">
        <dc:format>image/svg+xml</dc:format>
        <dc:type
           rdf:resource="http://purl.org/dc/dcmitype/StillImage" />
        <dc:title></dc:title>
      </cc:Work>
    </rdf:RDF>
  </metadata>
  <defs
     id="defs20" />
  <sodipodi:namedview
     pagecolor="#ffffff"
     bordercolor="#666666"
     borderopacity="1"
     objecttolerance="10"
     gridtolerance="10"
     guidetolerance="10"
     inkscape:pageopacity="0"
     inkscape:pageshadow="2"
     inkscape:window-width="1920"
     inkscape:window-height="1025"
     id="namedview18"
     showgrid="false"
     fit-margin-top="0"
     fit-margin-left="0"
     fit-margin-right="0"
     fit-margin-bottom="0"
     inkscape:zoom="0.69532167"
     inkscape:cx="419.26435"
     inkscape:cy="313.98294"
     inkscape:window-x="0"
     inkscape:window-y="867"
     inkscape:window-maximized="1"
     inkscape:current-layer="g4" />
  <g
     id="g4"
     transform="matrix(-0.72540703,0.68832016,-0.68832016,-0.72540703,649.46437,165.50775)">
    <path
       id="path671"
       d="m 271.33505,360.75732 c 0,0 12.77112,37.85779 27.2442,69.69309 14.47406,31.83633 40.01633,47.32327 43.42224,47.32327 3.40488,0 6.8108,-18.06839 5.95932,-28.39337 -0.8515,-10.32492 -24.69076,-30.97583 16.17701,1.72 40.86682,32.6958 69.81393,46.46271 67.25949,35.27731 4.25741,-27.53384 -43.42121,-85.181 -12.77011,-74.85607 30.65008,10.32492 82.58505,34.41677 50.23202,-3.44199 -32.35306,-37.85779 -65.55755,-55.06668 -37.46091,-54.20618 28.09571,0.86048 55.33988,13.76694 41.71827,-11.18545 -13.62256,-24.95236 -79.16007,-63.75791 -107.25571,-80.1063 -22.13638,11.18546 -65.57764,40.52753 -94.52582,98.17569 z"
       inkscape:connector-curvature="0"
       style="fill:#ff4000;fill-rule:evenodd;stroke-width:3.75" />
    <path
       id="path672"
       d="m 284.05399,339.74301 c 0,0 9.32702,44.94 19.50201,58.50598 10.17499,13.56702 12.71899,11.871 15.263,-6.78299 2.54401,-18.65399 -15.263,-37.30899 15.26199,-16.95801 30.526,20.35001 56.81101,45.78702 41.54901,14.41401 -15.263,-31.37299 -19.50299,-39.004 1.69501,-27.98099 21.198,11.02298 41.54898,19.50198 16.10999,-11.02301 -19.50101,-22.04599 19.50201,-27.982 26.28601,-30.525 16.11099,2.54401 -68.681,-44.94101 -77.16001,-44.94101 -9.328,1.69602 -55.11599,58.50702 -58.50702,65.29102 z"
       inkscape:connector-curvature="0"
       style="fill:#ffff33;fill-opacity:0.696296;fill-rule:evenodd;stroke-width:12.5;stroke-linejoin:round" />
    <path
       id="path663"
       d="M 17.80632,31.099018 C 96.663322,32.79472 295.92432,65.015625 372.2373,260.88571 345.95132,265.97372 281.51031,328.71973 271.33533,363.48373 77.161322,264.27771 22.04592,107.41172 17.806319,31.099018 Z"
       inkscape:connector-curvature="0"
       style="fill:#f7d644;fill-rule:evenodd;stroke:#000000;stroke-width:10;stroke-linejoin:round;fill-opacity:1" />
    <path
       id="path664"
       d="m 163.64932,292.25873 c 0,0 3.39099,86.488 3.39099,87.336 0,0.84799 104.29502,48.332 110.23002,50.876 l -5.08701,-67.83401 c -9.327,0.84799 -92.424,-52.57098 -108.534,-70.37799 z"
       inkscape:connector-curvature="0"
       style="fill:#b57b06;fill-rule:evenodd;stroke:#000000;stroke-width:10;stroke-linejoin:round;fill-opacity:1" />
    <path
       id="path665"
       d="m 304.73349,151.3528 c 0,0 85.53098,3.82004 86.37869,3.84088 0.84775,0.0208 45.7544,105.45125 48.1518,111.44698 l -67.68854,-6.75248 C 362.47681,226.84261 324.68262,171.28806 304.73349,151.3528 Z"
       inkscape:connector-curvature="0"
       style="fill:#b57b06;fill-rule:evenodd;stroke:#000000;stroke-width:10;stroke-linejoin:round;fill-opacity:1" />
    <path
       id="path666"
       d="m 235.31677,210.16905 c 0,0 14.25998,34.12261 16.66716,39.68585 2.95384,3.74834 77.58904,64.65636 83.06761,68.07418 l -3.17886,-21.68073 c -7.99423,-7.69864 -76.80339,-68.01597 -96.55591,-86.0793 z"
       inkscape:connector-curvature="0"
       style="fill:#b57b06;fill-rule:evenodd;stroke:#000000;stroke-width:10;stroke-linejoin:round;fill-opacity:1" />
    <path
       id="path667"
       d="m 232.63654,209.39949 -16.76851,24.28023 20.64479,35.73391 85.75397,67.74439 12.3876,-18.54547 -81.99136,-69.24004 -20.02649,-39.97302 z"
       inkscape:connector-curvature="0"
       style="fill:#b57b06;fill-rule:evenodd;stroke:#000000;stroke-width:10;stroke-linejoin:round;fill-opacity:1" />
    <path
       id="path668"
       d="m 124.645,131.15401 c -28.829799,39.00399 30.52401,87.336 58.506,52.571 33.91699,-42.39601 -24.589,-83.09601 -58.506,-52.571 z"
       inkscape:connector-curvature="0"
       style="fill:#bfbfbf;fill-rule:evenodd;stroke:#000000;stroke-width:12.5;stroke-linejoin:round" />
    <path
       id="path669"
       d="m 132.276,135.393 c 21.198,-20.35 70.377,4.23999 48.332,40.70099 C 156.01801,207.466 105.991,167.615 132.276,135.393 Z"
       inkscape:connector-curvature="0"
       style="fill:#aeffff;fill-rule:evenodd;stroke:#000000;stroke-width:10;stroke-linejoin:round" />
    <path
       id="path670"
       d="m 148.386,134.502 c -6.86088,4.73755 -24.90051,19.62388 -10.175,37.352 12.71899,3.392 30.52499,-35.656 10.175,-37.352 z"
       inkscape:connector-curvature="0"
       style="fill:#ffffff;fill-opacity:0.75;fill-rule:evenodd;stroke-width:12.5;stroke-linejoin:round" />
    <title
       id="title16">Layer 1</title>
  </g>
</svg>
