<?xml version="1.0" encoding="iso-8859-1"?>
<!-- Generator: Adobe Illustrator 19.0.0, SVG Export Plug-In . SVG Version: 6.00 Build 0)  -->
<svg version="1.1" id="Capa_1" xmlns="http://www.w3.org/2000/svg" xmlns:xlink="http://www.w3.org/1999/xlink" x="0px" y="0px"
	 viewBox="0 0 512.001 512.001" style="enable-background:new 0 0 512.001 512.001;" xml:space="preserve">
<path style="fill:#6DC82A;" d="M261.743,92.585c5.799-23.088,29.068-85.117,111.014-79.787
	c12.397,0.806,19.488,14.496,13.178,25.198C367.73,68.87,327.719,119.773,268.26,103.67
	C263.435,102.364,260.525,97.433,261.743,92.585z"/>
<path style="fill:#884D00;" d="M256,161.847c-4.214,0-7.631-3.417-7.631-7.631V7.631C248.369,3.417,251.785,0,256,0
	c4.214,0,7.631,3.417,7.631,7.631v146.585C263.63,158.43,260.214,161.847,256,161.847z"/>
<path style="fill:#FF0C38;" d="M453.58,283.294c-0.926,28.386-9.106,56.172-23.055,81.516l-64.891,117.97
	c-5.514,9.025-13.461,16.33-22.861,21.376c-9.381,5.057-20.216,7.844-31.489,7.844c-20.694,0-39.496-9.37-50.922-24.266
	c-2.218-2.889-6.512-2.889-8.73,0c-3.52,4.578-7.722,8.638-12.474,12.056c-2.971,2.147-6.155,4.039-9.513,5.657
	c-8.719,4.212-18.588,6.552-28.936,6.552c-22.536,0-43.322-11.171-54.351-29.22L81.468,364.81
	c-13.939-25.344-22.119-53.13-23.045-81.516c-0.722-21.936,2.483-43.953,9.767-65.135c23.584-68.564,73.692-84.324,99.067-87.834
	c5.921-0.814,10.5-0.967,13.074-0.967c1.516,0,2.34,0.051,2.34,0.051c12.158,0,23.798,2.045,34.531,5.769
	c10.724,3.734,20.552,9.147,29.088,15.902c2.798,2.391,6.247,3.581,9.706,3.581s6.908-1.19,9.706-3.581
	c5.83-4.609,12.26-8.597,19.168-11.853c3.215-1.516,6.522-2.869,9.93-4.049c1.923-0.672,3.876-1.282,5.85-1.831
	c9.065-2.564,18.69-3.937,28.671-3.937c0,0,82.157-5.23,114.48,88.75C451.098,239.341,454.292,261.359,453.58,283.294z"/>
<path style="fill:#C70024;" d="M238.863,499.791h0.295c-2.971,2.147-6.155,4.039-9.513,5.657C220.926,509.66,211.057,512,200.71,512
	c-22.536,0-43.322-11.171-54.351-29.22l-64.891-117.97c-13.939-25.344-22.119-53.13-23.045-81.516
	c-0.722-21.936,2.483-43.953,9.767-65.135c23.584-68.564,73.692-84.324,99.067-87.834c-22.434,11.761-46.567,33.931-60.913,75.625
	c-7.285,21.183-10.49,43.21-9.777,65.135c0.936,28.386,9.106,56.172,23.055,81.516l64.891,117.97
	c5.514,9.025,13.471,16.33,22.862,21.376C216.765,497.003,227.6,499.791,238.863,499.791z"/>
<g>
</g>
<g>
</g>
<g>
</g>
<g>
</g>
<g>
</g>
<g>
</g>
<g>
</g>
<g>
</g>
<g>
</g>
<g>
</g>
<g>
</g>
<g>
</g>
<g>
</g>
<g>
</g>
<g>
</g>
</svg>
