<?xml version="1.0" encoding="UTF-8" standalone="no"?>
<!-- Created with Inkscape (http://www.inkscape.org/) -->

<svg
   xmlns:dc="http://purl.org/dc/elements/1.1/"
   xmlns:cc="http://creativecommons.org/ns#"
   xmlns:rdf="http://www.w3.org/1999/02/22-rdf-syntax-ns#"
   xmlns:svg="http://www.w3.org/2000/svg"
   xmlns="http://www.w3.org/2000/svg"
   xmlns:xlink="http://www.w3.org/1999/xlink"
   xmlns:sodipodi="http://sodipodi.sourceforge.net/DTD/sodipodi-0.dtd"
   xmlns:inkscape="http://www.inkscape.org/namespaces/inkscape"
   version="1.1"
   width="1000"
   height="1000"
   id="svg10018"
   style="display:inline"
   inkscape:version="0.91 r13725"
   sodipodi:docname="ball.svg">
  <title
     id="title3052">Beachball</title>
  <sodipodi:namedview
     pagecolor="#ffffff"
     bordercolor="#666666"
     borderopacity="1"
     objecttolerance="10"
     gridtolerance="10"
     guidetolerance="10"
     inkscape:pageopacity="0"
     inkscape:pageshadow="2"
     inkscape:window-width="1920"
     inkscape:window-height="1017"
     id="namedview56"
     showgrid="false"
     inkscape:zoom="1.3350176"
     inkscape:cx="341.32562"
     inkscape:cy="651.33593"
     inkscape:window-x="0"
     inkscape:window-y="870"
     inkscape:window-maximized="1"
     inkscape:current-layer="g4209" />
  <defs
     id="defs10020">
    <linearGradient
       id="linearGradient10874">
      <stop
         id="stop10876"
         style="stop-color:#3c1a0f;stop-opacity:1"
         offset="0" />
      <stop
         id="stop10878"
         style="stop-color:#d7bbb3;stop-opacity:1"
         offset="1" />
    </linearGradient>
    <linearGradient
       id="linearGradient10852">
      <stop
         id="stop10854"
         style="stop-color:#391b0f;stop-opacity:1"
         offset="0" />
      <stop
         id="stop10856"
         style="stop-color:#5b2318;stop-opacity:1"
         offset="0.10989064" />
      <stop
         id="stop10858"
         style="stop-color:#5b2318;stop-opacity:1"
         offset="0.2747266" />
      <stop
         id="stop10860"
         style="stop-color:#905036;stop-opacity:1"
         offset="1" />
    </linearGradient>
    <linearGradient
       id="linearGradient10752">
      <stop
         id="stop10754"
         style="stop-color:#905036;stop-opacity:1"
         offset="0" />
      <stop
         id="stop10760"
         style="stop-color:#5b2318;stop-opacity:1"
         offset="0.22499996" />
      <stop
         id="stop10762"
         style="stop-color:#5b2318;stop-opacity:1"
         offset="0.61250001" />
      <stop
         id="stop10756"
         style="stop-color:#905036;stop-opacity:1"
         offset="1" />
    </linearGradient>
    <linearGradient
       x1="498.7532"
       y1="756.47388"
       x2="498.7532"
       y2="349.53339"
       id="linearGradient10758"
       xlink:href="#linearGradient10752"
       gradientUnits="userSpaceOnUse" />
    <linearGradient
       x1="498.7532"
       y1="756.47388"
       x2="498.7532"
       y2="349.53339"
       id="linearGradient10758-3"
       xlink:href="#linearGradient10752-9"
       gradientUnits="userSpaceOnUse" />
    <linearGradient
       id="linearGradient10752-9">
      <stop
         id="stop10754-9"
         style="stop-color:#905036;stop-opacity:1"
         offset="0" />
      <stop
         id="stop10760-7"
         style="stop-color:#5b2318;stop-opacity:1"
         offset="0.22499996" />
      <stop
         id="stop10762-8"
         style="stop-color:#5b2318;stop-opacity:1"
         offset="0.61250001" />
      <stop
         id="stop10756-1"
         style="stop-color:#905036;stop-opacity:1"
         offset="1" />
    </linearGradient>
    <linearGradient
       x1="498.7532"
       y1="750.28534"
       x2="498.7532"
       y2="353.79749"
       id="linearGradient10797"
       xlink:href="#linearGradient10852"
       gradientUnits="userSpaceOnUse"
       gradientTransform="matrix(0.93679084,-0.85929128,0.85927092,0.93681304,-400.209,462.78557)" />
    <linearGradient
       x1="509.97107"
       y1="544.7467"
       x2="509.89749"
       y2="278.81351"
       id="linearGradient10872"
       xlink:href="#linearGradient10874"
       gradientUnits="userSpaceOnUse"
       gradientTransform="matrix(0.93679084,-0.85929128,0.85927092,0.93681304,-400.209,462.78557)" />
    <linearGradient
       x1="498.7532"
       y1="750.28534"
       x2="498.7532"
       y2="353.79749"
       id="linearGradient10933"
       xlink:href="#linearGradient10852"
       gradientUnits="userSpaceOnUse"
       gradientTransform="matrix(0.93679084,-0.85929128,0.85927092,0.93681304,-400.209,462.78557)" />
    <linearGradient
       x1="509.97107"
       y1="544.7467"
       x2="509.89749"
       y2="278.81351"
       id="linearGradient10935"
       xlink:href="#linearGradient10874"
       gradientUnits="userSpaceOnUse"
       gradientTransform="matrix(0.93679084,-0.85929128,0.85927092,0.93681304,-400.209,462.78557)" />
    <linearGradient
       x1="509.97107"
       y1="544.7467"
       x2="509.89749"
       y2="278.81351"
       id="linearGradient10949"
       xlink:href="#linearGradient10874"
       gradientUnits="userSpaceOnUse"
       gradientTransform="matrix(0.93679084,-0.85929128,0.85927092,0.93681304,-400.209,462.78557)" />
    <linearGradient
       x1="498.7532"
       y1="750.28534"
       x2="498.7532"
       y2="353.79749"
       id="linearGradient10954"
       xlink:href="#linearGradient10852"
       gradientUnits="userSpaceOnUse"
       gradientTransform="matrix(0.93679084,-0.85929128,0.85927092,0.93681304,-400.209,462.78557)" />
    <pattern
       id="pattern11050"
       patternTransform="translate(908.49326,821.85024)"
       height="21.849281"
       width="27.389408"
       patternUnits="userSpaceOnUse">
      <path
         style="fill:#8b4c33;fill-opacity:1;stroke:none"
         d="m 11.006939,11.766717 c 3.53863,-1.00734 3.37013,-1.51101 6.74025,0.16789 3.37013,1.6789 2.02208,2.51836 0.67402,4.02937 -1.34805,1.51101 -5.89771,4.86881 -7.58277,3.02202 -1.6850596,-1.84679 -3.7071396,-1.51101 -2.8646096,-3.3578 0.84254,-1.84679 3.0331096,-3.86148 3.0331096,-3.86148 z"
         id="path11012" />
      <path
         style="fill:#8b4c33;fill-opacity:1;stroke:none"
         d="m 19.937769,4.8832268 c -2.6961,1.6789 -4.38116,2.18258 -3.70713,3.69358 0.67402,1.5110202 2.19057,3.0220302 3.37012,3.0220302 1.17955,0 3.70714,2.01467 4.88668,0.50367 1.17954,-1.51102 3.20161,-2.1825702 2.8646,-4.1972602 -0.33701,-2.01468 0,-2.51835 -2.69609,-3.3578 -2.6961,-0.83945 -4.71818,0.33578 -4.71818,0.33578 z"
         id="path11014" />
      <path
         style="fill:#8b4c33;fill-opacity:1;stroke:none"
         d="m 21.117319,14.956637 c -1.68506,2.18257 -3.37013,2.18257 -3.20162,3.52569 0.16851,1.34313 1.17954,3.52569 3.37012,3.35781 2.19059,-0.1679 4.71818,-0.50367 4.88668,-2.51835 0.1685,-2.01469 1.85357,-4.19726 0,-4.86882 -1.85357,-0.67156 -5.05518,0.50367 -5.05518,0.50367 z"
         id="path11016" />
      <path
         style="fill:#8b4c33;fill-opacity:1;stroke:none"
         d="m 8.8163694,8.4089168 c 3.0330996,0.83945 4.0441396,0.33578 4.7181596,-0.16789 0.67403,-0.50367 1.17955,-1.17522 2.35909,-2.68624 1.17954,-1.51101 0.67403,-3.18991 -0.16851,-4.36515 -0.84252,-1.17523001 -0.84252,-1.17523001 -2.69609,-0.50367001 -1.85357,0.67156001 -3.2016196,1.00734001 -3.2016196,3.02203001 0,2.01468 -1.01103,4.70092 -1.01103,4.70092 z"
         id="path11018" />
      <path
         style="fill:#8b4c33;fill-opacity:1;stroke:none"
         d="m 7.8053294,3.2043268 c -0.33701,2.35046 0.84253,3.69358 -1.01104,5.37248 -1.85356,1.6789002 -4.38116,5.3724802 -5.05518,2.5183502 -0.67403,-2.8541302 -2.86461,-4.1972502 -1.01103996,-6.8835002 1.85355996,-2.68624 2.19057996,-4.86881001 4.21265996,-4.02936001 2.02207,0.83945001 2.8646,3.02203001 2.8646,3.02203001 z"
         id="path11020" />
      <path
         style="fill:#8b4c33;fill-opacity:1;stroke:none"
         d="m 7.4683194,10.591487 c 1.85356,-0.50366 2.52759,-1.3431202 1.01103,2.18257 -1.51655,3.5257 -3.37012,7.72295 -4.38115,7.21928 -1.01105,-0.50367 -2.5276,-3.86147 -2.19059,-5.2046 0.33701,-1.34311 2.35909,-1.17523 3.20162,-2.35045 0.84253,-1.17524 2.35909,-1.8468 2.35909,-1.8468 z"
         id="path11022" />
    </pattern>
    <linearGradient
       id="linearGradient5542">
      <stop
         id="stop5544"
         offset="0"
         style="stop-color:#ff8037;stop-opacity:1" />
      <stop
         id="stop5546"
         offset="1"
         style="stop-color:#ffa546;stop-opacity:1" />
    </linearGradient>
    <linearGradient
       id="linearGradient5552">
      <stop
         style="stop-color:#fa8a8d;stop-opacity:1"
         offset="0"
         id="stop5554" />
      <stop
         style="stop-color:#f9353a;stop-opacity:1"
         offset="1"
         id="stop5556" />
    </linearGradient>
    <linearGradient
       id="linearGradient5536">
      <stop
         id="stop5538"
         offset="0"
         style="stop-color:#a8ed81;stop-opacity:1" />
      <stop
         id="stop5540"
         offset="1"
         style="stop-color:#66c430;stop-opacity:1" />
    </linearGradient>
    <linearGradient
       id="linearGradient5518">
      <stop
         id="stop5520"
         offset="0"
         style="stop-color:#ffd05b;stop-opacity:1" />
      <stop
         id="stop5522"
         offset="1"
         style="stop-color:#fff0cb;stop-opacity:1" />
    </linearGradient>
    <linearGradient
       id="linearGradient5524">
      <stop
         id="stop5526"
         offset="0"
         style="stop-color:#bbd5f8;stop-opacity:1" />
      <stop
         id="stop5528"
         offset="1"
         style="stop-color:#5e99ea;stop-opacity:1" />
    </linearGradient>
    <linearGradient
       id="linearGradient5512">
      <stop
         id="stop5514"
         offset="0"
         style="stop-color:#dfa0ed;stop-opacity:1" />
      <stop
         id="stop5516"
         offset="1"
         style="stop-color:#c650df;stop-opacity:1" />
    </linearGradient>
    <radialGradient
       inkscape:collect="always"
       xlink:href="#linearGradient5614"
       id="radialGradient5612"
       gradientUnits="userSpaceOnUse"
       cx="1036"
       cy="130"
       fx="1036"
       fy="130"
       r="19"
       gradientTransform="matrix(0.85031255,-0.15133061,0.02384544,0.89129441,151.97629,170.91025)" />
    <linearGradient
       id="linearGradient5614">
      <stop
         id="stop5616"
         offset="0"
         style="stop-color:#8a8a8a;stop-opacity:1" />
      <stop
         id="stop5618"
         offset="1"
         style="stop-color:#ffffff;stop-opacity:1" />
    </linearGradient>
  </defs>
  <metadata
     id="metadata10023">
    <rdf:RDF>
      <cc:Work
         rdf:about="">
        <dc:format>image/svg+xml</dc:format>
        <dc:type
           rdf:resource="http://purl.org/dc/dcmitype/StillImage" />
        <dc:title>Beachball</dc:title>
        <dc:date>2012-05-12</dc:date>
        <dc:creator>
          <cc:Agent>
            <dc:title>Jason M. Simanek</dc:title>
          </cc:Agent>
        </dc:creator>
        <dc:subject>
          <rdf:Bag>
            <rdf:li>beach ball beachball summer sports</rdf:li>
          </rdf:Bag>
        </dc:subject>
        <cc:license
           rdf:resource="http://creativecommons.org/licenses/publicdomain/" />
      </cc:Work>
      <cc:License
         rdf:about="http://creativecommons.org/licenses/publicdomain/">
        <cc:permits
           rdf:resource="http://creativecommons.org/ns#Reproduction" />
        <cc:permits
           rdf:resource="http://creativecommons.org/ns#Distribution" />
        <cc:permits
           rdf:resource="http://creativecommons.org/ns#DerivativeWorks" />
      </cc:License>
    </rdf:RDF>
  </metadata>
  <g
     id="g4209"
     transform="matrix(-0.28807134,-1.0750969,1.0750969,-0.28807134,140.54365,1169.4956)">
    <path
       style="display:inline;fill:#ad7fa8;fill-opacity:1;stroke:none"
       d="M 781.41811,365.73238 C 725.458,232.34378 623.0571,111.23488 484.85896,59.796348 453.04408,50.947017 418.97998,32.734645 385.89488,44.661603 237.83983,82.526374 114.75028,203.53765 75.728126,351.48398 56.596001,420.95326 54.732047,495.13887 71.088802,565.34314 168.56852,460.95845 302.76921,396.67316 440.44782,364.38203 543.04871,344.689 650.78967,360.42018 746.82925,400.03268 758.359,388.5995 769.88836,377.16472 781.41811,365.73238 Z"
       id="path5460"
       inkscape:connector-curvature="0" />
    <path
       inkscape:connector-curvature="0"
       style="fill:#729fcf;fill-opacity:1;stroke:none"
       d="M 880.72247,678.52399 C 894.37542,548.95764 817.62729,421.35908 817.62729,421.35908 l -58.27309,20.78214 c 0,0 -14.5297,140.84456 -275.42933,277.09488 -114.35543,59.72013 -193.68627,84.88804 -267.4774,83.57948 50.45013,42.36395 111.22111,73.99495 179.67071,90.29689 195.78764,46.62862 392.16941,-46.35216 484.60429,-214.58848 z"
       id="path5462"
       sodipodi:nodetypes="cccscsc" />
    <path
       inkscape:connector-curvature="0"
       style="fill:#fce94f;fill-opacity:1;stroke:none"
       d="m 762.14592,456.0296 -6.53373,-62.6359 c 0,0 -166.95494,-138.75886 -543.33609,-28.32781 -38.60008,11.3256 -102.49366,39.72023 -150.424374,67.79295 C 48.560982,596.98152 129.51652,753.05755 265.97555,838.25705 419.4293,816.4851 675.16654,718.93879 762.14592,456.0296 Z"
       id="path5464" />
    <path
       style="display:inline;fill:#73d216;fill-opacity:1;stroke:none"
       d="M 934.81365,476.79711 C 938.23726,320.80555 857.40984,175.13456 726.11744,94.669153 788.74332,209.87972 792.17297,324.53372 780.15581,380.7017 l 28.70779,33.13554 125.95005,62.95987 z"
       id="path5466"
       inkscape:connector-curvature="0" />
    <path
       style="display:inline;fill:#ef2929;fill-opacity:1;stroke:none"
       d="m 922.91873,568.97745 c 8.85159,-37.11802 12.82185,-75.39506 11.77043,-113.53945 -30.67971,-28.17465 -72.1671,-42.56198 -113.28591,-45.40106 -5.92633,9.61679 -11.85229,19.23395 -17.77825,28.85073 30.60048,56.54536 50.59363,119.75863 52.96808,184.26254 1.48301,39.92912 -5.97727,80.14823 -22.49322,116.58301 -1.84101,5.21774 -9.29977,20.35094 -0.52364,7.8253 43.16467,-51.49708 73.83608,-113.20648 89.34251,-178.58107 z"
       id="path5468"
       inkscape:connector-curvature="0" />
    <path
       style="fill:#f57900;fill-opacity:1;stroke:none"
       d="m 791.29924,350.22703 c 0,0 55.87146,-123.96947 -45.45123,-242.73903 -0.0378,-0.0227 -0.0868,-0.004 -0.11319,-0.0264 C 702.44643,77.610019 652.99362,55.076813 598.77001,42.162989 510.11144,21.048112 421.34124,28.564101 342.14319,58.727923 l 1.09216,0.502498 C 503.44681,56.140486 683.60052,194.37776 747.15219,331.51645 Z"
       id="path5470"
       inkscape:connector-curvature="0"
       sodipodi:nodetypes="cccscccc" />
    <ellipse
       ry="48.100601"
       rx="65.607056"
       cy="-636.66571"
       cx="603.03333"
       style="display:inline;fill:#3465a4;fill-opacity:1;stroke:none"
       id="path5472"
       transform="matrix(0.2771365,0.96083056,-0.95641626,0.29200674,0,0)" />
  </g>
  <circle
     style="opacity:1;fill:none;fill-opacity:1;stroke:#555753;stroke-width:10;stroke-linecap:round;stroke-linejoin:miter;stroke-miterlimit:4;stroke-dasharray:none;stroke-opacity:1"
     id="path4218"
     cx="500"
     cy="500"
     r="491.63629" />
</svg>
