<?xml version="1.0" encoding="iso-8859-1"?>
<!-- Generator: Adobe Illustrator 19.0.0, SVG Export Plug-In . SVG Version: 6.00 Build 0)  -->
<svg version="1.1" id="Capa_1" xmlns="http://www.w3.org/2000/svg" xmlns:xlink="http://www.w3.org/1999/xlink" x="0px" y="0px"
	 viewBox="0 0 386.844 386.844" style="enable-background:new 0 0 386.844 386.844;" xml:space="preserve">
<g>
	<g>
		<path style="fill:#85532E;" d="M232.378,145.832v107.65h46.816c59.454,0,107.65-48.197,107.65-107.65l0,0L232.378,145.832
			L232.378,145.832z"/>
		<path style="fill:#AB6B3B;" d="M232.378,145.832v87.529h38.066c48.34,0,87.528-39.188,87.528-87.529l0,0L232.378,145.832
			L232.378,145.832z"/>
		<path style="fill:#85532E;" d="M232.378,145.832v76.126h33.107c42.043,0,76.126-34.083,76.126-76.126l0,0L232.378,145.832
			L232.378,145.832z"/>
		<path style="fill:#AB6B3B;" d="M232.378,145.832v63.179h27.476c34.893,0,63.179-28.286,63.179-63.179l0,0H232.378z"/>
	</g>
	<g>
		<path style="fill:#85532E;" d="M154.466,145.832v107.65H107.65C48.197,253.483,0,205.286,0,145.833l0,0h154.466V145.832z"/>
		<path style="fill:#AB6B3B;" d="M154.466,145.832v87.529h-38.065c-48.341,0-87.529-39.188-87.529-87.529l0,0L154.466,145.832
			L154.466,145.832z"/>
		<path style="fill:#85532E;" d="M154.466,145.832v76.126h-33.107c-42.044,0-76.126-34.083-76.126-76.126l0,0L154.466,145.832
			L154.466,145.832z"/>
		<path style="fill:#AB6B3B;" d="M154.466,145.832v63.179H126.99c-34.893,0-63.179-28.286-63.179-63.179l0,0H154.466z"/>
	</g>
	<g>
		<path style="fill:#DB9F15;" d="M199.943,321.876h-12.425v-33.071c0-3.129,2.537-5.667,5.667-5.667h1.092
			c3.13,0,5.667,2.537,5.667,5.667v33.071H199.943z"/>
		<path style="fill:#DB9F15;" d="M219.182,331.926h-44.074c-2.531,0-4.584-2.052-4.584-4.583v-0.883
			c0-2.531,2.052-4.583,4.584-4.583h44.074c2.531,0,4.583,2.052,4.583,4.583v0.883C223.766,329.874,221.713,331.926,219.182,331.926
			z"/>
	</g>
	<g>
		<path style="fill:#FFB819;" d="M173.323,321.876h-12.425v-33.071c0-3.129,2.537-5.667,5.667-5.667h1.092
			c3.129,0,5.667,2.537,5.667,5.667v33.071H173.323z"/>
		<path style="fill:#FFB819;" d="M192.562,331.926h-44.074c-2.531,0-4.583-2.052-4.583-4.583v-0.883
			c0-2.531,2.052-4.583,4.583-4.583h44.074c2.531,0,4.583,2.052,4.583,4.583v0.883C197.145,329.874,195.093,331.926,192.562,331.926
			z"/>
	</g>
	<path style="fill:#985F35;" d="M193.422,54.918L193.422,54.918c-29.266,0-52.99,23.724-52.99,52.989v200.629h17.465
		c48.885,0,88.514-39.629,88.514-88.514V107.908C246.412,78.643,222.688,54.918,193.422,54.918z"/>
	<path style="fill:#FFB819;" d="M247.874,98.773h-9.502v38.006h47.507C285.879,115.788,268.864,98.773,247.874,98.773z"/>
	<g>
		<circle style="fill:#FFFFFF;" cx="205.122" cy="101.822" r="15.954"/>
		<circle style="fill:#512C1D;" cx="205.122" cy="101.822" r="7.977"/>
	</g>
	<g>
		<path style="fill:#985F35;" d="M70.268,266.877L70.268,266.877c0,23.008,18.652,41.661,41.661,41.661h28.504v-41.661H70.268z"/>
		<path style="fill:#704627;" d="M86.082,266.877L86.082,266.877c0,17.822,14.448,32.271,32.271,32.271h22.08v-32.271H86.082z"/>
	</g>
	<g>
		<rect x="171.323" y="161.834" style="fill:#704627;" width="4" height="15.588"/>
		<rect x="191.73" y="161.834" style="fill:#704627;" width="4" height="15.588"/>
		<rect x="180.745" y="186.083" style="fill:#704627;" width="4" height="15.588"/>
		<rect x="203.122" y="186.083" style="fill:#704627;" width="4" height="15.588"/>
		<rect x="225.499" y="186.083" style="fill:#704627;" width="4" height="15.588"/>
		<rect x="212.138" y="161.834" style="fill:#704627;" width="4" height="15.588"/>
		<rect x="191.73" y="209.011" style="fill:#704627;" width="4" height="15.588"/>
		<rect x="212.138" y="209.011" style="fill:#704627;" width="4" height="15.588"/>
		<rect x="232.546" y="161.834" style="fill:#704627;" width="4" height="15.588"/>
	</g>
</g>
<g>
</g>
<g>
</g>
<g>
</g>
<g>
</g>
<g>
</g>
<g>
</g>
<g>
</g>
<g>
</g>
<g>
</g>
<g>
</g>
<g>
</g>
<g>
</g>
<g>
</g>
<g>
</g>
<g>
</g>
</svg>
