<?xml version="1.0" encoding="UTF-8" standalone="no"?>
<!-- Created with Inkscape (http://www.inkscape.org/) -->

<svg
   xmlns:dc="http://purl.org/dc/elements/1.1/"
   xmlns:cc="http://creativecommons.org/ns#"
   xmlns:rdf="http://www.w3.org/1999/02/22-rdf-syntax-ns#"
   xmlns:svg="http://www.w3.org/2000/svg"
   xmlns="http://www.w3.org/2000/svg"
   xmlns:sodipodi="http://sodipodi.sourceforge.net/DTD/sodipodi-0.dtd"
   xmlns:inkscape="http://www.inkscape.org/namespaces/inkscape"
   width="353.03125mm"
   height="125.81622mm"
   viewBox="0 0 1250.8981 445.80551"
   id="svg4220"
   version="1.1"
   inkscape:version="0.91 r13725"
   sodipodi:docname="caravan.svg">
  <defs
     id="defs4222" />
  <sodipodi:namedview
     id="base"
     pagecolor="#ffffff"
     bordercolor="#666666"
     borderopacity="1.0"
     inkscape:pageopacity="0.0"
     inkscape:pageshadow="2"
     inkscape:zoom="0.49497475"
     inkscape:cx="543.73639"
     inkscape:cy="270.36852"
     inkscape:document-units="px"
     inkscape:current-layer="layer1"
     showgrid="false"
     fit-margin-top="0"
     fit-margin-left="0"
     fit-margin-right="0"
     fit-margin-bottom="0"
     inkscape:window-width="1920"
     inkscape:window-height="1017"
     inkscape:window-x="0"
     inkscape:window-y="870"
     inkscape:window-maximized="1" />
  <metadata
     id="metadata4225">
    <rdf:RDF>
      <cc:Work
         rdf:about="">
        <dc:format>image/svg+xml</dc:format>
        <dc:type
           rdf:resource="http://purl.org/dc/dcmitype/StillImage" />
        <dc:title></dc:title>
      </cc:Work>
    </rdf:RDF>
  </metadata>
  <g
     inkscape:label="Layer 1"
     inkscape:groupmode="layer"
     id="layer1"
     transform="translate(-21.606037,-156.4314)">
    <g
       id="g4797"
       transform="matrix(3.2137106,0,0,3.2137106,-522.41938,-1567.8665)">
      <path
         style="fill:#b7d855;fill-opacity:1;fill-rule:evenodd;stroke:none;stroke-width:1px;stroke-linecap:butt;stroke-linejoin:miter;stroke-opacity:1"
         d="M 348.44442,646.50827 188.0827,646.25573 c -6.56599,-1.01015 -4.29314,-0.25253 -10.6066,-3.78807 -7.07106,-15.65736 -11.36422,-24.24366 -5.3033,-59.34646 10.35407,-40.65864 41.92133,-45.7094 41.92133,-45.7094 30.30458,-4.54569 75.50891,9.84898 85.86297,18.18274 32.82996,20.96067 38.3858,25.25381 51.77032,54.04316 6.31345,23.99113 5.80837,31.56727 -3.283,36.87057 z"
         id="path5144"
         inkscape:connector-curvature="0"
         sodipodi:nodetypes="cccccccc" />
      <path
         style="fill:#e1709e"
         d="m 181.38898,611.44938 c -2.55458,-0.98629 -4.04109,-2.84778 -4.48476,-5.61607 -0.14375,-0.89692 -0.36818,-1.15548 -1.39696,-1.60938 -0.67413,-0.29742 -1.66823,-0.92932 -2.2091,-1.40422 -1.29567,-1.13761 -2.37472,-3.63958 -2.15463,-4.99588 0.26435,-1.62894 1.87287,-3.83223 3.66732,-5.02331 1.33064,-0.88323 1.62813,-1.23532 1.62813,-1.92694 0,-1.13627 0.7437,-3.17834 1.5143,-4.158 1.48849,-1.89231 4.69052,-2.39571 7.3357,-1.15327 0.825,0.3875 1.76877,1.0065 2.09727,1.37554 0.55182,0.61995 0.76309,0.65546 2.77701,0.46674 1.8855,-0.17669 2.36178,-0.11614 3.5281,0.44846 3.4187,1.65497 4.47437,5.29626 2.64665,9.12903 -0.44669,0.93674 -0.45345,1.11704 -0.0595,1.58826 0.82521,0.98701 1.16044,2.20091 1.16044,4.20211 0,2.57732 -0.6951,3.66509 -3.12292,4.88708 -1.45295,0.73132 -2.14507,0.89237 -3.835,0.89237 -1.95469,0 -2.11649,0.0544 -3.10683,1.04476 -1.81052,1.81051 -4.18822,2.54652 -5.98525,1.85272 z"
         id="path5193"
         inkscape:connector-curvature="0" />
      <path
         style="fill:#e1709e"
         d="m 312.16504,641.73643 c -0.83817,-0.39029 -1.8573,-1.13557 -2.26474,-1.65617 -0.71808,-0.91754 -0.82084,-0.94917 -3.35275,-1.03181 -2.33431,-0.0762 -2.7443,-0.17886 -3.85699,-0.9659 -1.77292,-1.25403 -2.32042,-2.13011 -2.66383,-4.26253 -0.28892,-1.79404 -0.26324,-1.94461 0.59472,-3.48662 l 0.89669,-1.6116 -0.58958,-1.67746 c -1.04661,-2.97778 -0.74938,-5.28561 0.92587,-7.18879 1.53956,-1.74903 2.99113,-2.18673 5.5592,-1.67628 l 1.8923,0.37614 0.99153,-0.97498 c 2.39958,-2.35954 6.04543,-2.80388 8.29993,-1.01156 1.3371,1.06299 2.44159,3.14048 2.44159,4.5925 0,0.78146 0.20912,1.26416 0.75228,1.73643 0.41376,0.35976 0.85251,0.65972 0.975,0.66659 0.1225,0.007 0.71342,0.44648 1.31316,0.97691 1.7661,1.56202 2.40921,3.78733 1.87151,6.47584 -0.23036,1.15183 -1.93472,2.87714 -3.60154,3.64583 -1.25034,0.57662 -1.61041,1.0514 -1.61041,2.12344 0,1.09642 -1.43765,3.44075 -2.60093,4.24124 -2.35883,1.62319 -3.67406,1.77926 -5.97301,0.70878 z"
         id="path5215"
         inkscape:connector-curvature="0" />
      <path
         style="fill:#b7d855"
         d="m 537.95217,611.93216 c 15.47334,8.28325 13.97843,23.24982 14.2867,29.69476 l 0.19344,4.125 -13.22646,0 c -9.38606,2.44812 -154.32113,3.33219 -156.67833,-0.003 -2.3572,-3.33545 10.26299,-60.68634 54.43782,-72.79754 23.54538,-6.45532 64.78913,0.51191 71.84648,37.09654 11.26278,-1.7687 23.05935,-2.25845 29.14035,1.88449 z"
         id="path5073"
         inkscape:connector-curvature="0"
         sodipodi:nodetypes="cccccsccc" />
      <path
         style="fill:#e1709e"
         d="m 496.38898,629.32333 c -0.66,-0.25864 -1.85049,-1.13589 -2.64552,-1.94943 -1.42248,-1.45559 -1.4778,-1.48043 -3.46956,-1.55854 -1.72536,-0.0677 -2.21679,-0.219 -3.3303,-1.02563 -2.01972,-1.46307 -2.53998,-2.49975 -2.5347,-5.05062 0.004,-1.99727 0.0881,-2.28271 1.09662,-3.7298 1.00749,-1.44547 1.06107,-1.62722 0.69078,-2.34324 -0.22077,-0.42692 -0.44772,-1.38101 -0.50436,-2.12019 l -0.10296,-1.34398 7.52964,-0.15 c 5.76606,-0.11487 7.64565,-0.24643 8.025,-0.56173 0.62475,-0.51929 0.64458,-2.23988 0.0454,-3.93827 -0.2475,-0.70149 -0.45,-1.52846 -0.45,-1.83772 0,-1.28856 3.08205,-0.20123 4.47123,1.57741 0.89106,1.14088 1.3074,2.28814 1.50489,4.14691 0.16026,1.50851 0.27954,1.71651 1.52388,2.65765 4.20324,3.17908 3.38265,8.7226 -1.61421,10.90446 -1.64949,0.72026 -1.85169,0.90711 -2.05848,1.90234 -0.36444,1.75414 -1.88841,3.61531 -3.54312,4.32715 -1.68201,0.72358 -2.96007,0.74929 -4.63419,0.0932 z"
         id="path5203"
         inkscape:connector-curvature="0" />
      <path
         style="fill:#e1709e"
         d="m 401.88898,628.68314 c -0.66,-0.30557 -1.55336,-0.94386 -1.98523,-1.41841 -0.74914,-0.82316 -1.76397,-3.28987 -1.76548,-4.29127 -3e-4,-0.26692 -0.71936,-0.84707 -1.6567,-1.33684 -2.87896,-1.50432 -4.23833,-3.8707 -3.73826,-6.50755 0.34572,-1.82297 1.4328,-3.26072 3.52067,-4.65641 1.46053,-0.97631 1.575,-1.13975 1.575,-2.24875 0,-2.02285 1.75806,-4.72874 3.50351,-5.39236 0.8251,-0.3137 3.69377,-0.37699 4.42195,-0.0975 0.63241,0.24267 0.59818,0.9799 -0.11887,2.56014 -0.32638,0.71927 -0.59638,1.87385 -0.6,2.56575 -0.0109,2.0868 0.33726,2.19201 7.25444,2.19201 l 5.92754,0 0.18873,0.75197 c 0.23123,0.9213 -0.0593,2.58031 -0.67984,3.8815 -0.44297,0.92893 -0.42849,1.02929 0.31927,2.21382 0.6337,1.00386 0.78327,1.60773 0.78327,3.16246 0,2.21417 -0.29572,2.9082 -1.93929,4.5513 l -1.18929,1.18895 -2.93641,0.10313 -2.93642,0.10314 -1.02668,1.19944 c -1.68722,1.97114 -4.53861,2.57896 -6.92191,1.47553 z"
         id="path5199"
         inkscape:connector-curvature="0" />
      <path
         style="opacity:1;fill:#708120;fill-opacity:1;stroke:none;stroke-width:10;stroke-linecap:round;stroke-linejoin:miter;stroke-miterlimit:4;stroke-dasharray:none;stroke-opacity:1"
         d="m 529.70054,626.55737 c -3.06905,-1.57978 -4.27634,-5.3484 -2.69656,-8.41745 1.57978,-3.06905 5.34841,-4.27634 8.41746,-2.69656 l 3.55648,1.83069 c 3.06905,1.57978 4.27634,5.3484 2.69656,8.41745 -1.57978,3.06905 -5.34841,4.27634 -8.41746,2.69656 z"
         id="path5141"
         inkscape:connector-curvature="0"
         sodipodi:nodetypes="csccscc" />
      <path
         style="opacity:1;fill:#708120;fill-opacity:1;stroke:none;stroke-width:10;stroke-linecap:round;stroke-linejoin:miter;stroke-miterlimit:4;stroke-dasharray:none;stroke-opacity:1"
         d="m 183.91421,627.7967 c -3.05322,1.61015 -6.83363,0.44031 -8.44378,-2.61292 -1.61015,-3.05323 -0.4403,-6.83364 2.61293,-8.44379 l 3.53815,-1.86587 c 3.05322,-1.61015 6.83363,-0.44031 8.44378,2.61292 1.61015,3.05323 0.4403,6.83364 -2.61293,8.44379 z"
         id="path5141-3"
         inkscape:connector-curvature="0"
         sodipodi:nodetypes="csccscc" />
      <path
         style="fill:#f5e786"
         d="m 485.81398,659.33613 c 0.45375,-0.0687 1.19625,-0.0687 1.65,0 0.45375,0.0687 0.0825,0.12497 -0.825,0.12497 -0.9075,0 -1.27875,-0.0562 -0.825,-0.12497 z m 36,0 c 0.45375,-0.0687 1.19625,-0.0687 1.65,0 0.45375,0.0687 0.0825,0.12497 -0.825,0.12497 -0.9075,0 -1.27875,-0.0562 -0.825,-0.12497 z m -321.975,-21.27354 c -0.23182,-25.02717 -1.05698,-25.23754 0.0729,-52.03731 -0.0768,-30.65684 -0.0747,-30.77878 0.53562,-31.33111 0.58743,-0.53161 1.69758,-0.55148 26.92707,-0.48191 22.44299,0.0619 26.41287,0.13683 26.98377,0.50934 0.65588,0.42796 0.671,0.57427 0.75,7.25853 0.0674,5.7053 0.1503,6.80673 0.5064,6.72984 0.36771,-0.0794 0.36771,-0.0214 0,0.42505 -0.23418,0.28434 -0.43435,0.93321 -0.44481,1.44193 -0.0105,0.50872 -0.0442,17.6312 -0.075,38.04995 l -0.056,37.125 -2.80769,0 -2.8077,0 -0.93605,-1.125 c -0.51482,-0.61875 -1.32328,-1.62392 -1.79658,-2.23371 -1.51721,-1.95479 -6.13944,-5.46098 -7.83198,-5.94096 -0.4235,-0.12009 -0.7329,-0.38183 -0.68757,-0.58164 0.0453,-0.19981 -0.0519,-0.28024 -0.21619,-0.17873 -0.16424,0.10151 -0.70286,-0.0245 -1.19694,-0.27998 -1.40711,-0.72764 -6.71359,-1.66046 -9.41635,-1.65528 -1.34912,0.003 -3.66795,0.26138 -5.15295,0.5751 -2.616,0.55265 -6.97405,2.31009 -8.0061,3.22857 -0.28627,0.25477 -0.67719,0.3516 -0.9,0.22292 -0.21664,-0.12512 -0.29682,-0.12001 -0.17816,0.0113 0.27978,0.30974 -2.1955,2.27438 -2.57219,2.04157 -0.15744,-0.0973 -0.20897,-0.0519 -0.1145,0.10099 0.0945,0.15285 -0.43516,0.88246 -1.17694,1.62135 -0.74178,0.7389 -1.81063,1.96892 -2.3752,2.73337 l -1.02651,1.38992 -3.0002,0.0471 -3.0002,0.0471 0,-7.71344 z m 31.77424,-27.81102 c 9.33667,-0.0631 17.13164,-0.1563 17.32216,-0.20718 0.19052,-0.0509 0.26833,-0.29595 0.17291,-0.54459 -0.12529,-0.32653 0.0432,-0.41499 0.40153,-0.2775 0.45927,0.17624 0.41204,-1.59788 0.34816,-24.10868 l -0.069,-24.31481 -0.70823,-0.57347 c -0.68212,-0.55231 -1.47655,-0.57346 -21.53864,-0.57346 l -20.8304,0 -0.73637,0.73636 -0.73636,0.73637 0,23.57853 c 9.71398,17.75481 -1.52244,25.73689 26.37424,25.54843 z M 473.97971,639.695 c -1.66119,-0.96306 -2.08122,-2.44606 -1.27959,-4.51811 0.13167,-0.34036 0.0599,-0.52851 -0.204,-0.53498 -1.35636,-0.0333 -2.42154,-2.18475 -1.96743,-3.97381 0.33219,-1.30872 1.0044,-1.77124 2.91033,-2.00245 0.99684,-0.12092 1.35099,-0.29556 1.35384,-0.66759 0.003,-0.2771 0.10335,-0.60335 0.225,-0.725 0.12162,-0.12164 0.22209,-0.43492 0.2232,-0.69617 0.003,-0.5547 1.74699,-1.825 2.50641,-1.825 1.32756,0 3.06879,1.4514 3.23919,2.7 0.0941,0.68922 0.21177,0.74301 1.45236,0.6637 1.97199,-0.12606 3.0273,0.80392 3.22296,2.84013 0.13869,1.44323 0.0914,1.56854 -0.94857,2.51491 -0.71868,0.65397 -1.02963,1.1566 -0.90549,1.46363 0.10398,0.2572 0.21711,0.63247 0.2514,0.83395 0.0343,0.20147 0.14694,0.45092 0.25035,0.55433 0.19017,0.19015 0.11886,0.52056 -0.42978,1.99131 -0.55197,1.47979 -3.71553,1.88745 -5.07807,0.65437 -0.30954,-0.28013 -0.5628,-0.36544 -0.5628,-0.18959 0,0.31382 -2.31954,1.5799 -2.86971,1.56637 -0.15417,-0.004 -0.77949,-0.29629 -1.3896,-0.65 z m -165.32782,-0.0843 c -0.44079,-0.32232 -0.45662,-0.41627 -0.0936,-0.55557 0.24028,-0.0922 0.58831,0.0148 0.77338,0.23781 0.46475,0.55999 -0.0313,0.79189 -0.67976,0.31776 z m -2.36912,-0.0638 c 0.21656,-0.0867 0.47531,-0.076 0.575,0.0237 0.0997,0.0997 -0.0775,0.17059 -0.39375,0.15756 -0.34948,-0.0144 -0.42057,-0.0855 -0.18125,-0.18124 z m 4.04354,-4.59322 c -1.47838,-0.71187 -3.08944,-2.85761 -3.08277,-4.1059 0.009,-1.73305 1.22691,-4.19735 1.87583,-3.79629 0.17437,0.10777 0.2234,0.0491 0.11098,-0.13278 -0.38616,-0.62483 1.08425,-1.26688 2.90138,-1.26688 1.495,0 1.95694,0.142 3.07582,0.94552 2.97158,2.13403 2.80973,5.86883 -0.34811,8.03262 -1.38777,0.95091 -2.99256,1.06551 -4.53313,0.32371 z m 120.88093,-5.77685 c -0.53533,-0.37125 -1.08391,-1.08 -1.21905,-1.575 -0.23054,-0.84439 -0.3277,-0.89528 -1.57245,-0.82361 -1.06197,0.0611 -1.49699,-0.0755 -2.18,-0.68494 -0.47959,-0.4279 -0.7819,-0.94736 -0.69028,-1.18611 0.10408,-0.27122 0.0157,-0.36824 -0.24462,-0.26837 -0.90357,0.34674 -0.87054,-2.44616 0.0368,-3.1096 0.46254,-0.33822 0.6118,-0.29794 1.07425,0.28991 0,0 0.32805,-0.55216 1.01021,-0.33622 -0.10118,-1.11833 -0.20142,-0.84569 -0.59215,-1.49883 -0.63205,-1.07896 -1.17265,-3.11816 -0.75884,-2.86241 0.14736,0.0911 0.26793,-0.0196 0.26793,-0.24599 0,-0.22637 0.37125,-0.75602 0.825,-1.17701 0.83812,-0.7776 2.175,-1.29515 2.175,-0.842 0,0.13676 0.50625,0.41043 1.125,0.60815 0.61875,0.19773 1.25325,0.4782 1.41,0.62327 0.50529,0.46763 1.05882,0.29845 0.85472,-0.26124 -0.17567,-0.48171 -0.1394,-0.47933 0.43983,0.0288 0.61372,0.53837 0.65244,0.53837 1.39144,0 0.41809,-0.30458 0.7644,-0.72253 0.76958,-0.92878 0.0188,-0.74607 1.52302,-0.17881 2.50876,0.94605 0.51692,0.58988 0.59592,2.10801 0.1789,3.43789 -0.0737,0.2352 0.28336,0.61756 0.84056,0.9 1.13455,0.57509 1.73117,1.99765 1.45506,3.46943 -0.25913,1.38132 -1.10992,2.03435 -2.87081,2.20355 -1.28493,0.12346 -1.50363,0.23683 -1.50713,0.78125 -0.008,1.26943 -0.38291,1.99166 -1.34042,2.58344 -1.2652,0.78194 -2.18451,0.76251 -3.38727,-0.0716 z M 286.6511,628.95624 c -0.65168,-0.26316 -1.65426,-1.51196 -2.01606,-2.51119 -0.15433,-0.42624 -0.38392,-0.51106 -0.97902,-0.3617 -1.21904,0.30596 -2.7283,-0.34176 -3.25459,-1.39674 -0.77579,-1.55511 -0.59906,-2.73809 0.58612,-3.92327 1.01331,-1.01331 1.03353,-1.07731 0.60185,-1.905 -0.59624,-1.14323 -0.56274,-1.88003 0.13352,-2.93624 1.12361,-1.70449 2.59691,-2.06393 4.37237,-1.06671 l 1.07453,0.60353 0.9596,-0.71871 c 1.35621,-1.01574 2.14511,-1.18881 3.12031,-0.68451 1.75333,0.90668 2.26472,2.14001 1.77416,4.27876 -0.19225,0.83815 -0.12349,0.97004 0.67905,1.30247 1.04294,0.432 1.31597,0.92576 1.41527,2.55946 0.12572,2.06846 -1.15607,3.45548 -3.19331,3.45548 -0.78431,0 -0.88588,0.10319 -0.88588,0.9 0,0.495 -0.135,0.9 -0.3,0.9 -0.165,0 -0.3,0.19261 -0.3,0.42803 0,0.50736 -1.62611,1.38002 -2.52109,1.35295 -0.3459,-0.0105 -0.91597,-0.13493 -1.26683,-0.27661 z M 178.75526,627.5934 c -1.19392,-0.43827 -1.46818,-0.65971 -2.54764,-2.05699 -1.23574,-1.59958 -0.80686,-4.51095 0.89313,-6.06285 1.1016,-1.00563 1.80821,-1.27133 3.39683,-1.27726 1.12981,-0.004 1.77393,0.18818 2.65649,0.79355 1.24212,0.852 2.29585,2.80667 2.27054,4.21189 -0.0185,1.02723 -0.96864,2.92177 -1.41865,2.82873 -0.18994,-0.0393 -0.2753,0.11113 -0.18969,0.33423 0.10003,0.26068 -0.33145,0.63459 -1.20753,1.0464 -1.56031,0.73343 -2.26173,0.76661 -3.85348,0.1823 z m -0.99078,-2.72363 c 0.2814,-0.10798 0.47454,-0.53533 0.47454,-1.05 0,-0.75056 -0.11357,-0.8679 -0.84,-0.8679 -0.79536,0 -1.56,0.46005 -1.56,0.93857 0,0.30168 0.886,1.16143 1.19689,1.16143 0.13972,0 0.46758,-0.0819 0.72857,-0.1821 z m 2.47147,-3.06279 c 0.21119,-0.27781 0.38828,-0.92219 0.39353,-1.43195 0.0112,-1.08705 -1.14303,-1.84489 -2.0326,-1.33459 -1.04699,0.60061 -1.21524,0.78716 -1.41007,1.56344 -0.43084,1.7166 1.94587,2.65438 3.04914,1.2031 z m 354.62807,5.89621 c -0.45375,-0.16573 -0.825,-0.43304 -0.825,-0.59403 0,-0.16098 -0.11433,-0.22203 -0.2541,-0.13566 -0.13974,0.0864 -0.63975,-0.24551 -1.11111,-0.7375 -0.71568,-0.74702 -0.87594,-1.20288 -0.97182,-2.76434 -0.14523,-2.3649 0.25887,-3.42793 1.50975,-3.97157 0.53751,-0.2336 0.77478,-0.4348 0.52728,-0.44711 -1.14222,-0.0568 1.13607,-0.81625 2.59128,-0.8638 2.49456,-0.0815 4.05606,1.02804 4.76583,3.38643 0.38916,1.29312 0.29847,3.47626 0.0489,3.70126 l -0.97572,1.06451 c -1.2981,1.50072 -3.4278,2.04742 -5.30499,1.36181 z m -130.575,-5.89487 c -1.95602,-1.25322 -2.4,-2.03123 -2.4,-4.20562 0,-1.61352 0.13499,-2.19009 0.69734,-2.97851 0.75624,-1.06027 2.85315,-2.17232 4.09617,-2.17232 1.17146,0 3.54312,1.33039 4.09277,2.29585 1.26853,2.2282 0.83277,5.00602 -1.02061,6.50609 -1.46709,1.18741 -4.06627,1.45111 -5.46567,0.55451 z m 90.15,0.32709 c -1.06737,-0.40107 -2.15766,-1.42045 -2.73987,-2.5617 -1.64736,-3.22908 0.84396,-7.12184 4.5579,-7.12184 1.19022,0 3.16959,1.02665 3.61686,1.87598 0.19521,0.37071 0.47328,0.75169 0.61794,0.84663 0.14466,0.0949 0.34668,0.87885 0.44892,1.74205 0.15165,1.28046 0.0774,1.71822 -0.4032,2.37739 -0.324,0.44437 -0.67461,1.0381 -0.77919,1.3194 -0.43572,1.17211 -3.73689,2.11672 -5.31936,1.52209 z m -60.99438,-6.622 c -0.47956,-0.52991 -0.46626,-0.58121 0.24999,-0.96453 0.58516,-0.31317 0.83738,-0.32395 1.11375,-0.0476 0.27636,0.27636 0.21975,0.49479 -0.24999,0.96452 -0.59182,0.59182 -0.62012,0.59303 -1.11375,0.0476 z m -102.65566,-0.56002 c -1.28297,-0.34177 -3.15,-2.79839 -3.15,-4.14475 0,-0.2369 0.70548,-0.43586 1.96141,-0.55314 3.23045,-0.30166 4.30597,-1.32324 3.86543,-3.67156 -0.21243,-1.13235 -0.0905,-1.19733 1.32252,-0.70474 1.47418,0.5139 2.75064,2.48462 2.75064,4.2467 0,1.67638 -0.46436,2.71275 -1.77291,3.95684 -0.77443,0.73627 -1.20963,0.89311 -2.65178,0.95566 -0.94892,0.0412 -1.99531,0.003 -2.32531,-0.085 z m -148.4159,-11.02016 c -2.19427,-1.98123 -2.65271,-4.50699 -1.21929,-6.71764 1.09489,-1.68858 2.37709,-2.26511 4.66886,-2.09934 1.60917,0.11639 1.9095,0.24633 2.78995,1.20708 2.029,2.21402 2.0367,4.66004 0.022,6.9907 -0.98755,1.14243 -1.06975,1.1746 -3.22949,1.26407 -2.00041,0.0829 -2.29556,0.0201 -3.03204,-0.64487 z m 3.33471,-23.07569 c -0.39535,-0.38189 -0.86378,-0.94812 -1.04096,-1.25829 -0.28898,-0.50587 -0.41969,-0.52355 -1.26918,-0.17168 -1.73444,0.71843 -3.61723,-0.28211 -4.27365,-2.27108 -0.28481,-0.863 -0.2415,-1.15422 0.30265,-2.03467 0.34927,-0.56514 0.79868,-1.08522 0.99869,-1.15575 0.2466,-0.087 0.12491,-0.45587 -0.37807,-1.14621 -2.01086,-2.75989 0.40966,-6.13231 3.60252,-5.01927 0.81527,0.28421 1.00838,0.21341 2.0945,-0.76782 1.27773,-1.15436 1.92583,-1.28928 3.48494,-0.7255 1.10529,0.39968 1.68013,1.45972 1.72866,3.18774 0.0265,0.94333 0.1419,1.12183 0.78109,1.20816 1.78744,0.24142 3.03621,2.56362 2.31125,4.29797 -0.53856,1.28842 -1.17626,1.80201 -2.35233,1.89452 -0.88432,0.0696 -0.95221,0.15764 -1.04111,1.35065 -0.0523,0.70192 -0.30977,1.60385 -0.57215,2.00428 -0.92732,1.41527 -3.21204,1.7321 -4.37685,0.60695 z"
         id="path4811"
         inkscape:connector-curvature="0"
         sodipodi:nodetypes="cssccsscccsssssccscccsscccccssccccsscccccccccsccscccccsccsscccscsscccccsscscscccccsccscscssssccccsccccccssscsccscscssscsccsssssssscssssssssscsssscsscssscsssscssssscscsssssscsccssssssssssccsccscscsccsssssscccsssscccscssscssssssscscs" />
      <path
         style="fill:#fefefd"
         d="m 539.02348,624.61254 c -0.60159,-0.91816 -0.60573,-1.18649 -0.0255,-1.66793 0.35313,-0.29307 0.63189,-0.30201 1.20954,-0.0388 0.61836,0.28174 0.73818,0.52743 0.6798,1.39411 -0.0579,0.85947 -0.19062,1.05208 -0.72504,1.05208 -0.36426,0 -0.86889,-0.32771 -1.13868,-0.73944 z"
         id="path5183"
         inkscape:connector-curvature="0" />
      <path
         style="fill:#fefefd"
         d="m 176.31041,624.58064 c -0.25929,-0.25928 -0.47143,-0.56978 -0.47143,-0.69 0,-0.47852 0.76464,-0.93857 1.56,-0.93857 0.72643,0 0.84,0.11734 0.84,0.8679 0,1.20914 -1.06145,1.62779 -1.92857,0.76067 z"
         id="path5181"
         inkscape:connector-curvature="0" />
      <path
         style="fill:#fefefd"
         d="m 177.63898,622.05207 c -0.68595,-0.68595 -0.63424,-1.9852 0.0988,-2.48204 1.09106,-0.73952 1.39692,-0.80705 2.13407,-0.47118 0.586,0.267 0.76489,0.56838 0.7576,1.27638 -0.0193,1.87107 -1.79854,2.86876 -2.99046,1.67684 z"
         id="path5179"
         inkscape:connector-curvature="0" />
      <path
         style="fill:#fefefd"
         d="m 537.60346,622.45288 c -0.26703,-0.0713 -0.72345,-0.57145 -1.0143,-1.11149 -0.73134,-1.35802 -0.24768,-2.28932 1.18896,-2.28932 1.41066,0 2.0673,0.72778 1.85226,2.05293 -0.22332,1.3763 -0.70941,1.69954 -2.02692,1.34788 z"
         id="path5177"
         inkscape:connector-curvature="0" />
      <path
         style="fill:#fefefd"
         d="m 313.16312,605.7769 c -0.76399,-1.5025 -2.24945,-4.25467 -4.41238,-8.175 -0.5462,-0.99 -1.46804,-2.6775 -2.04852,-3.75 -0.58048,-1.0725 -1.99784,-3.6375 -3.14968,-5.7 -1.15185,-2.0625 -2.4167,-4.3575 -2.81078,-5.1 -0.39408,-0.7425 -1.06082,-1.9575 -1.48165,-2.7 -0.42083,-0.7425 -1.34053,-2.4346 -2.04377,-3.76022 -0.70325,-1.32561 -1.52418,-2.78496 -1.82429,-3.24299 -0.50817,-0.77557 -0.51148,-0.86695 -0.0482,-1.33026 0.46331,-0.46331 0.53688,-0.45692 1.07104,0.093 0.31546,0.32476 1.21268,1.80547 1.99382,3.29047 0.78115,1.485 1.5741,2.9025 1.76211,3.15 0.18801,0.2475 0.57464,0.9225 0.85918,1.5 0.28454,0.5775 0.89658,1.725 1.36008,2.55 2.17279,3.86743 2.62026,4.67471 3.99083,7.2 0.80596,1.485 1.74537,3.24 2.08757,3.9 0.65907,1.27117 1.72766,3.2309 3.10806,5.7 2.31131,4.13423 3.77833,7.1758 3.63775,7.54215 -0.34948,0.91072 -1.25731,0.39416 -2.0512,-1.16715 z"
         id="path5175"
         inkscape:connector-curvature="0" />
      <path
         style="fill:#fefefd"
         d="m 439.44185,607.1269 c -0.0729,-0.12375 -0.70579,-1.305 -1.40644,-2.625 -0.70064,-1.32 -1.47698,-2.72649 -1.72519,-3.12553 -0.24821,-0.39905 -0.92177,-1.61405 -1.4968,-2.7 -1.39309,-2.63087 -2.98109,-5.53767 -4.02872,-7.37447 -0.47054,-0.825 -1.11215,-2.05888 -1.4258,-2.74195 -0.31364,-0.68307 -0.71644,-1.33229 -0.89509,-1.4427 -0.49083,-0.30335 -0.38919,-1.65949 0.13958,-1.86239 0.53806,-0.20647 1.00418,0.33066 2.12349,2.44704 0.43633,0.825 1.17332,2.175 1.63775,3 0.46444,0.825 1.16866,2.1075 1.56495,2.85 1.95071,3.65493 2.43478,4.54651 3.82771,7.05 2.49357,4.48167 3.08138,5.7575 2.88655,6.26523 -0.19048,0.49637 -0.96412,0.66357 -1.20199,0.25977 z"
         id="path5173"
         inkscape:connector-curvature="0" />
      <path
         style="fill:#fefefd"
         d="m 480.67072,606.49647 c -0.34746,-0.48796 -0.63174,-0.96339 -0.63174,-1.05653 0,-0.0931 -1.35,-2.62109 -3,-5.61768 -1.65,-2.99659 -3,-5.50098 -3,-5.56532 0,-0.0643 -0.31704,-0.62053 -0.70455,-1.236 -0.67215,-1.0676 -3.09345,-5.51125 -4.04256,-7.41904 -0.24624,-0.495 -0.70897,-1.27601 -1.02827,-1.73557 -0.46485,-0.66907 -0.50786,-0.92314 -0.21584,-1.27501 0.20058,-0.24168 0.51691,-0.4385 0.70294,-0.43737 0.36165,0.002 1.43829,1.46412 1.9869,2.69795 0.18342,0.4125 0.71337,1.425 1.17765,2.25 0.46428,0.825 1.24389,2.2425 1.73244,3.15 0.48858,0.9075 1.242,2.27095 1.67427,3.02989 0.82332,1.44551 1.38024,2.46316 3.51351,6.42011 0.71166,1.32 1.81923,3.33331 2.46126,4.47402 0.64206,1.14071 1.12641,2.28666 1.07637,2.54655 -0.15753,0.81801 -1.04265,0.7005 -1.70238,-0.226 z"
         id="path5171"
         inkscape:connector-curvature="0" />
      <path
         style="fill:#fefefd"
         d="m 317.33367,605.7769 c -0.40632,-0.37125 -1.37976,-1.89 -2.16319,-3.375 -1.44725,-2.74327 -2.25821,-4.24494 -3.52545,-6.52817 -0.38824,-0.69951 -1.21638,-2.21683 -1.84032,-3.37183 -0.62393,-1.155 -1.50624,-2.775 -1.96069,-3.6 -0.45445,-0.825 -1.33782,-2.445 -1.96305,-3.6 -1.10753,-2.04598 -1.38221,-2.55198 -3.41998,-6.3 -0.53825,-0.99 -1.10089,-1.92825 -1.25032,-2.085 -0.77205,-0.80988 0.45951,-2.865 1.71689,-2.865 0.39546,0 2.09909,2.09062 2.44467,3 0.0941,0.2475 1.20937,2.34 2.47848,4.65 1.26911,2.31 2.78016,5.0775 3.3579,6.15 0.57774,1.0725 1.38746,2.5575 1.79938,3.3 0.41191,0.7425 1.32247,2.43 2.02346,3.75 0.70099,1.32 1.58181,2.8725 1.95738,3.45 1.3163,2.02402 3.15015,5.86085 3.15015,6.59083 0,0.6307 -0.9208,1.50917 -1.58189,1.50917 -0.26656,0 -0.8171,-0.30375 -1.22342,-0.675 z"
         id="path5169"
         inkscape:connector-curvature="0" />
      <path
         style="fill:#fefefd"
         d="m 443.10302,606.14972 c -0.38702,-0.22613 -4.31939,-7.06607 -5.17296,-8.99782 -0.10936,-0.2475 -0.51297,-0.99 -0.89691,-1.65 -0.96031,-1.65078 -1.9678,-3.4729 -3.48342,-6.3 -0.70765,-1.32 -1.54853,-2.83543 -1.8686,-3.36762 -0.50997,-0.84792 -0.53285,-1.0706 -0.18493,-1.8 0.30534,-0.64013 0.63906,-0.85239 1.44491,-0.91902 1.2312,-0.1018 1.12377,-0.24263 4.192,5.49582 1.20695,2.25733 4.22799,7.68156 5.00746,8.99082 1.42704,2.39695 3.69841,6.98481 3.69841,7.47028 0,0.45634 -1.26303,1.38483 -1.86445,1.3706 -0.21205,-0.005 -0.60423,-0.1369 -0.87151,-0.29306 z"
         id="path5167"
         inkscape:connector-curvature="0" />
      <path
         style="fill:#fefefd"
         d="m 484.00423,605.3269 c -0.48681,-0.61875 -0.98664,-1.4625 -1.11069,-1.875 -0.12405,-0.4125 -0.40692,-0.95744 -0.62859,-1.21098 -0.2217,-0.25354 -0.61716,-0.92854 -0.87879,-1.5 -0.26163,-0.57146 -0.89346,-1.78152 -1.40406,-2.68902 -0.5106,-0.9075 -1.24977,-2.2575 -1.64259,-3 -0.39285,-0.7425 -1.02579,-1.89 -1.40655,-2.55 -0.66792,-1.15771 -1.79508,-3.20871 -3.43539,-6.25112 -0.72519,-1.34504 -0.74976,-1.50952 -0.33612,-2.25 0.30753,-0.55053 0.73641,-0.82736 1.37964,-0.89048 1.21431,-0.11917 1.39983,0.14741 5.4717,7.86222 0.75945,1.4389 1.28268,2.39492 2.97144,5.42938 0.45915,0.825 1.40061,2.55548 2.09211,3.8455 0.69153,1.29002 1.46103,2.63631 1.71,2.99175 0.66642,0.95148 0.56931,2.19701 -0.21411,2.74574 -1.02321,0.71669 -1.60335,0.56804 -2.568,-0.65799 z"
         id="path5165"
         inkscape:connector-curvature="0" />
      <path
         style="fill:#fefefd"
         d="m 237.6248,605.0269 c -0.37039,-0.61875 -1.15296,-2.0025 -1.73903,-3.075 -0.58607,-1.0725 -1.51204,-2.76 -2.05771,-3.75 -0.54567,-0.99 -1.27307,-2.34 -1.61645,-3 -0.34339,-0.66 -0.99383,-1.875 -1.44545,-2.7 -0.45161,-0.825 -1.33795,-2.445 -1.96963,-3.6 -0.63169,-1.155 -2.09049,-3.7875 -3.24178,-5.85 -1.15129,-2.0625 -2.30246,-4.155 -2.55815,-4.65 -0.2557,-0.495 -1.75953,-3.2625 -3.34186,-6.15 -3.73482,-6.81543 -3.72101,-6.787 -3.48344,-7.17139 0.44945,-0.72723 1.32533,-0.30696 1.97234,0.94639 0.362,0.70125 1.02579,1.95 1.4751,2.775 0.4493,0.825 1.39864,2.58 2.10963,3.9 0.711,1.32 1.39329,2.535 1.5162,2.7 0.12291,0.165 0.62214,1.0425 1.10941,1.95 1.34373,2.5026 3.01501,5.56222 4.62975,8.47571 0.80039,1.44415 1.45525,2.69558 1.45525,2.78096 0,0.0854 0.31607,0.65882 0.70238,1.27429 0.38631,0.61547 1.24533,2.13154 1.90895,3.36904 0.6636,1.2375 1.58399,2.925 2.04528,3.75 0.4613,0.825 1.15572,2.1075 1.54316,2.85 0.38744,0.7425 1.23431,2.32891 1.88194,3.52536 1.10635,2.04389 1.14367,2.19346 0.61762,2.475 -0.78077,0.41786 -0.76374,0.42714 -1.51351,-0.82536 z"
         id="path5163"
         inkscape:connector-curvature="0" />
      <path
         style="fill:#fefefd"
         d="m 241.47209,604.7269 c -0.25294,-0.28875 -0.9714,-1.47 -1.59658,-2.625 -1.35345,-2.50046 -2.34749,-4.31635 -3.36657,-6.15 -0.41266,-0.7425 -1.10346,-2.01178 -1.53512,-2.82062 -0.43166,-0.80885 -1.09141,-2.02385 -1.46611,-2.7 -1.68697,-3.04418 -3.71341,-6.74321 -4.37133,-7.97938 -0.39519,-0.7425 -1.06813,-1.9575 -1.49543,-2.7 -0.4273,-0.7425 -1.10005,-1.9575 -1.495,-2.7 -1.05847,-1.98991 -2.22475,-4.13612 -3.26048,-6 -2.34111,-4.21303 -2.41736,-4.43746 -1.83982,-5.41514 0.90952,-1.53971 2.41143,-1.04596 3.5098,1.15386 0.38755,0.7762 1.05745,2.01878 1.48865,2.76128 0.4312,0.7425 1.12344,2.025 1.5383,2.85 0.41486,0.825 1.06888,2.04 1.45337,2.7 0.38449,0.66 1.28969,2.28 2.01154,3.6 0.72186,1.32 1.75847,3.21 2.30359,4.2 0.54512,0.99 1.27207,2.34 1.61545,3 0.6909,1.32795 1.8301,3.41346 3.11361,5.7 0.4631,0.825 1.20624,2.175 1.65142,3 0.44519,0.825 1.1862,2.175 1.64668,3 2.23879,4.011 3.11892,5.914 2.9545,6.38825 -0.43455,1.2534 -2.04464,1.6681 -2.86047,0.73675 z"
         id="path4813"
         inkscape:connector-curvature="0" />
      <path
         style="fill:#e1709e"
         d="m 520.88635,660.1519 c 0,-0.4125 0.0681,-0.58125 0.15132,-0.375 0.0832,0.20625 0.0832,0.54375 0,0.75 -0.0832,0.20625 -0.15132,0.0375 -0.15132,-0.375 z"
         id="path5219"
         inkscape:connector-curvature="0" />
      <path
         style="fill:#e1709e"
         d="m 391.09213,645.457 c -0.10024,-0.16219 -0.0951,-0.75945 0.0114,-1.32724 0.1734,-0.92425 0.10251,-1.07948 -0.67704,-1.4826 -1.39574,-0.72177 -1.96669,-2.4985 -1.25003,-3.88998 0.72641,-1.41043 1.53453,-2.00528 2.72422,-2.00528 0.83741,0 1.20397,-0.14505 1.3267,-0.525 0.76623,-2.37215 1.61905,-3.075 3.73112,-3.075 1.18964,0 2.36921,0.77718 2.39045,1.575 0.0194,0.72943 1.16151,1.77146 1.8564,1.69375 1.53964,-0.17217 2.53879,0.32305 3.08194,1.52753 0.68948,1.52899 0.41956,2.96586 -0.75347,4.01104 -0.99887,0.88999 -1.09084,1.30997 -0.47215,2.15608 0.29156,0.39873 0.33482,0.74227 0.13944,1.10734 -0.2557,0.47777 -0.84965,0.52926 -6.10499,0.52926 -3.4904,0 -5.89473,-0.11809 -6.004,-0.2949 z"
         id="path5217"
         inkscape:connector-curvature="0" />
      <path
         style="fill:#e1709e"
         d="m 452.83283,640.62907 c -0.46412,-0.50756 -1.15071,-1.23467 -1.52575,-1.6158 -0.66594,-0.67674 -0.67998,-0.82193 -0.6,-6.20217 l 0.0819,-5.5092 1.21047,0.088 c 0.97548,0.0709 1.34963,-0.0601 1.9273,-0.675 1.01938,-1.08509 3.09922,-1.06296 4.36202,0.0464 0.76697,0.67378 0.90301,1.01289 0.92163,2.29734 0.0207,1.42961 0.0796,1.53684 1.14839,2.0915 1.59278,0.82657 2.09847,2.51232 1.37565,4.5858 -0.23377,0.6706 -0.66864,1.01426 -1.8714,1.47892 -1.4462,0.5587 -1.58155,0.69571 -1.75768,1.77928 -0.40865,2.51408 -3.57172,3.49489 -5.27253,1.63491 z"
         id="path5211"
         inkscape:connector-curvature="0" />
      <path
         style="fill:#e1709e"
         d="m 520.84729,639.74684 c -1.23294,-0.98722 -2.35215,-1.79494 -2.48715,-1.79494 -0.135,0 -0.62631,-0.28159 -1.09182,-0.62575 -0.46551,-0.34416 -2.1138,-1.13375 -3.66285,-1.75465 -2.73267,-1.0953 -2.81895,-1.15926 -2.89899,-2.14925 -0.12243,-1.51437 1.32708,-2.97035 2.95713,-2.97035 0.87834,0 1.23516,-0.13886 1.34907,-0.525 0.49101,-1.6644 1.27368,-2.58752 2.5011,-2.94995 1.13592,-0.33539 1.38648,-0.3087 2.45466,0.26146 0.75558,0.40332 1.25595,0.9138 1.37145,1.39923 0.29274,1.2304 0.70155,1.56139 1.66671,1.34941 1.25457,-0.27555 2.46027,0.33697 3.03477,1.5417 0.71184,1.49274 0.61914,2.36385 -0.37158,3.49224 -0.98454,1.12133 -1.12656,1.70739 -0.79845,3.29484 0.18417,0.8909 0.099,1.32637 -0.42552,2.175 -0.36069,0.58359 -0.81351,1.05879 -1.00632,1.05601 -0.19278,-0.003 -1.35927,-0.81279 -2.59221,-1.8 z"
         id="path5209"
         inkscape:connector-curvature="0" />
      <path
         style="fill:#e1709e"
         d="m 270.3722,639.88382 c -0.54591,-0.45936 -0.99017,-1.18043 -1.10527,-1.79395 -0.18173,-0.96871 -0.27592,-1.03693 -1.69056,-1.22459 -1.25116,-0.16597 -1.59184,-0.35243 -2.06663,-1.13106 -0.33494,-0.54927 -0.56897,-1.48697 -0.56963,-2.28232 -9e-4,-1.18389 0.12808,-1.45308 1.04888,-2.18779 0.94791,-0.75634 1.04999,-0.98341 1.04999,-2.33556 0,-1.70628 0.57881,-2.79515 1.82965,-3.44198 1.23782,-0.6401 2.20719,-0.53323 3.26925,0.36044 0.9263,0.77943 0.96542,0.78535 1.9832,0.3 1.46715,-0.69964 2.74771,-0.61986 3.87706,0.24153 1.13802,0.86802 1.4184,1.92903 0.97956,3.7069 -0.28593,1.15842 -0.25649,1.33752 0.28189,1.71462 0.33064,0.23159 0.82224,0.88693 1.09242,1.45631 0.56954,1.20022 0.38068,1.95275 -0.86019,3.42744 -0.70431,0.83703 -0.99162,0.95809 -2.27379,0.95809 -1.31572,0 -1.48712,0.0777 -1.65608,0.75088 -0.5262,2.09657 -3.46241,2.93449 -5.18975,1.48104 z"
         id="path5207"
         inkscape:connector-curvature="0" />
      <path
         style="fill:#e1709e"
         d="m 447.77799,638.48938 c -1.54852,-1.80738 -1.69809,-2.93421 -0.58901,-4.43748 0.7844,-1.0632 0.95887,-1.9355 0.45,-2.25 -0.165,-0.10198 -0.3,-0.83749 -0.3,-1.63447 0,-1.57625 0.61817,-2.61534 1.65,-2.77354 0.58263,-0.0893 0.6,0.0773 0.6,5.75801 0,5.65642 -0.0202,5.8529 -0.61099,5.93748 -0.3482,0.0498 -0.86431,-0.2082 -1.2,-0.6 z"
         id="path5205"
         inkscape:connector-curvature="0" />
      <path
         style="fill:#e1709e"
         d="m 328.8335,621.84667 c -2.33276,-0.59699 -4.21575,-2.85252 -4.64253,-5.56102 -0.1546,-0.98114 -0.34648,-1.1917 -1.5852,-1.73965 -0.77513,-0.34287 -1.72653,-0.92056 -2.11425,-1.28376 -0.79336,-0.74318 -1.63508,-2.53407 -1.38284,-2.94221 0.19787,-0.32016 7.6432,-0.35562 8.09288,-0.0385 0.17192,0.12123 0.49459,0.78601 0.71705,1.47731 0.22245,0.6913 0.86551,1.7038 1.42901,2.25 0.97161,0.94178 1.13891,0.9931 3.23745,0.9931 2.04827,0 2.28337,-0.067 3.16019,-0.9 1.32925,-1.26289 1.79372,-2.29245 1.79372,-3.976 0,-1.93319 -1.27696,-3.74965 -3.05192,-4.34131 -1.16565,-0.38855 -1.26918,-0.52277 -1.92564,-2.49665 -0.38157,-1.14732 -0.83522,-2.32046 -1.0081,-2.60697 -0.17289,-0.28651 -0.31858,-0.69151 -0.32375,-0.9 -0.005,-0.20849 -0.40542,-1.17592 -0.88942,-2.14984 -0.484,-0.97393 -0.8093,-1.88518 -0.72288,-2.025 0.49731,-0.80467 3.34805,0.21567 5.20883,1.86435 0.7272,0.64431 1.22027,0.86381 1.65,0.73453 3.45495,-1.0394 6.29432,0.12932 7.6453,3.14689 0.78904,1.7624 0.77019,2.82099 -0.091,5.11178 l -0.70857,1.88483 0.85857,1.63216 c 1.10283,2.09651 1.11498,3.60582 0.046,5.71856 -1.09609,2.16639 -2.8735,3.10929 -6.01884,3.19295 -2.06416,0.0549 -2.25316,0.11917 -3.30402,1.12351 -2.02046,1.93102 -3.69981,2.43758 -6.07009,1.83098 z"
         id="path5195"
         inkscape:connector-curvature="0" />
      <path
         style="fill:#e1709e"
         d="m 198.15294,562.00314 c -0.36733,-0.17797 -0.79325,-0.83478 -1.00816,-1.5547 -0.43053,-1.44224 -0.71461,-1.68565 -1.97467,-1.69195 -1.48959,-0.007 -2.53113,-1.33218 -2.53113,-3.21934 0,-1.32959 0.1174,-1.6307 0.88892,-2.27989 0.4889,-0.41138 1.05557,-0.80352 1.25927,-0.87142 0.2931,-0.0977 0.29194,-0.31279 -0.006,-1.03102 -0.31585,-0.76253 -0.29541,-1.1088 0.12791,-2.16677 0.86393,-2.15917 3.39634,-2.85497 4.95522,-1.36147 0.76231,0.73034 0.85768,0.7493 1.66641,0.33135 1.69267,-0.87479 3.45375,-0.75386 4.43516,0.30455 1.02245,1.10267 1.25367,2.31849 0.62375,3.27987 -0.29595,0.45168 -0.43067,1.05003 -0.32827,1.45802 0.17024,0.6783 0.12102,0.69403 -2.49351,0.79675 -3.83822,0.15079 -3.9293,0.26208 -3.9293,4.80128 0,3.84385 -0.0745,3.9855 -1.68604,3.20474 z"
         id="path4807"
         inkscape:connector-curvature="0" />
      <path
         style="fill:#b7d855"
         d="m 337.22283,652.4269 -1.03385,-1.125 1.125,1.03385 c 1.04713,0.96228 1.26294,1.21615 1.03385,1.21615 -0.0501,0 -0.55638,-0.50625 -1.125,-1.125 z"
         id="path5131"
         inkscape:connector-curvature="0" />
      <path
         style="fill:#b7d855"
         d="m 334.82283,650.0269 -1.03385,-1.125 1.125,1.03385 c 1.04713,0.96228 1.26294,1.21615 1.03385,1.21615 -0.0501,0 -0.55638,-0.50625 -1.125,-1.125 z"
         id="path5129"
         inkscape:connector-curvature="0" />
      <path
         style="fill:#b7d855"
         d="m 332.71627,647.9269 -0.72729,-0.825 0.825,0.72729 c 0.45375,0.40002 0.825,0.77127 0.825,0.825 0,0.23529 -0.24294,0.0438 -0.92271,-0.72729 z"
         id="path5127"
         inkscape:connector-curvature="0" />
      <path
         style="fill:#b7d855"
         d="m 182.38273,584.64697 c 0.21656,-0.0867 0.47531,-0.076 0.575,0.0237 0.0997,0.0997 -0.0775,0.17059 -0.39375,0.15756 -0.34948,-0.0144 -0.42057,-0.0855 -0.18125,-0.18124 z"
         id="path5107"
         inkscape:connector-curvature="0" />
      <path
         style="fill:#f5e786;fill-opacity:1"
         d="m 189.85922,581.06928 c 0.67554,-0.42833 0.91975,-1.01599 1.10849,-2.66738 0.0566,-0.495 0.11825,-0.97252 0.13706,-1.06116 0.0188,-0.0886 0.27046,-0.17963 0.55921,-0.2022 1.13339,-0.0886 2.19958,-0.71223 2.48038,-1.45079 0.85232,-2.24178 -0.11792,-4.76093 -1.96727,-5.10787 -1.04768,-0.19655 -1.08312,-0.24399 -0.90229,-1.20793 0.57369,-3.058 -3.85178,-4.98355 -5.9056,-2.56956 -0.62784,0.73794 -0.83038,0.79208 -2.63022,0.70307 -1.829,-0.0905 -2.00284,-0.0412 -2.80164,0.79422 -1.04119,1.0889 -1.19966,3.06087 -0.35016,4.35737 0.52633,0.80329 0.52423,0.84949 -0.0754,1.6605 -1.02201,1.38234 -0.99453,3.19962 0.0657,4.3436 1.04664,1.12935 2.04776,1.44179 3.54313,1.10581 0.68865,-0.15473 1.26022,-0.25517 1.27016,-0.22319 0.25711,0.82712 1.01462,1.75439 1.61862,1.98135 0.95029,0.35708 2.9391,0.1216 3.84982,-0.45584 z"
         id="path5105"
         inkscape:connector-curvature="0" />
      <path
         style="fill:#e1709e;fill-opacity:1"
         d="m 272.43898,640.92205 c -0.34115,-0.2431 -0.20675,-0.2786 0.55562,-0.14678 1.17431,0.20305 2.61749,-0.65057 3.05779,-1.80863 0.25345,-0.66663 1.09568,-0.91386 2.55526,-0.75007 0.17526,0.0197 0.71289,-0.37573 1.19473,-0.87865 0.6777,-0.70737 0.78509,-0.97064 0.4743,-1.16272 -0.28069,-0.17348 -0.30171,-0.31014 -0.0697,-0.45351 0.18262,-0.11286 0.33203,-0.0543 0.33203,0.13021 0,0.18448 0.135,0.25198 0.3,0.15 0.3789,-0.23417 0.39794,-3.45 0.0204,-3.45 -0.41242,0 -1.40105,-1.51844 -1.64554,-2.52739 -0.17986,-0.74223 -0.14603,-0.82213 0.21961,-0.51868 0.78295,0.64979 0.78091,-0.653 -0.003,-2.23398 -0.69329,-1.39732 -2.12211,-2.51995 -3.20726,-2.51995 -0.4534,0 -2.28376,0.87334 -2.28376,1.08968 0,0.0802 0.16875,0.0505 0.375,-0.066 0.23695,-0.13378 0.22315,-0.0575 -0.0375,0.2073 -0.31917,0.3242 -0.44361,0.33416 -0.55,0.044 -0.0756,-0.20625 -0.27371,-0.375 -0.44018,-0.375 -0.16648,0 -0.64593,-0.27 -1.06546,-0.6 -0.89749,-0.70597 -2.38853,-0.7724 -3.82887,-0.17058 -1.20015,0.50145 -1.95299,1.9863 -1.95299,3.85191 0,0.9864 -0.19266,1.39517 -1.05,2.22781 -1.21326,1.17829 -1.38403,2.54388 -0.57195,4.57348 0.51976,1.29903 1.10714,1.63253 2.42144,1.37489 0.69122,-0.1355 0.73814,-0.11363 0.25051,0.11679 -0.33,0.15594 -0.43125,0.29302 -0.225,0.30461 0.51842,0.0292 1.4741,1.03058 1.71857,1.80083 0.35594,1.12147 1.70357,2.12068 2.85336,2.11567 0.82861,-0.004 0.95715,-0.0729 0.60307,-0.32526 z"
         id="path5101"
         inkscape:connector-curvature="0" />
      <path
         style="fill:#b7d855"
         d="m 279.18898,637.0519 c 0.10198,-0.165 0.24494,-0.3 0.31771,-0.3 0.0728,0 0.13229,0.135 0.13229,0.3 0,0.165 -0.14297,0.3 -0.31771,0.3 -0.17473,0 -0.23427,-0.135 -0.13229,-0.3 z"
         id="path5099"
         inkscape:connector-curvature="0" />
      <path
         style="fill:#b7d855"
         d="m 264.69747,633.9019 c 0.006,-0.495 0.0734,-0.66118 0.14941,-0.36929 0.0761,0.29189 0.0711,0.69689 -0.0111,0.9 -0.0822,0.20311 -0.14441,-0.0357 -0.13831,-0.53071 z"
         id="path5097"
         inkscape:connector-curvature="0" />
      <path
         style="fill:#b7d855"
         d="m 267.03898,626.88863 c 0,-0.14479 0.2246,-0.44854 0.49912,-0.675 0.45258,-0.37334 0.46558,-0.3488 0.13944,0.26327 -0.37197,0.69809 -0.63856,0.86998 -0.63856,0.41173 z"
         id="path5095"
         inkscape:connector-curvature="0" />
      <path
         style="fill:#b7d855"
         d="m 320.73898,582.31961 c 0,-0.0728 -0.135,-0.21573 -0.3,-0.31771 -0.165,-0.10198 -0.3,-0.0424 -0.3,0.13229 0,0.17474 0.135,0.31771 0.3,0.31771 0.165,0 0.3,-0.0595 0.3,-0.13229 z"
         id="path5093"
         inkscape:connector-curvature="0" />
      <path
         style="fill:#b7d855"
         d="m 302.13898,568.234 c 0,-0.0649 -0.20951,-0.1983 -0.46558,-0.29657 -0.26698,-0.10244 -0.3874,-0.0521 -0.2823,0.11791 0.17618,0.28506 0.74788,0.42163 0.74788,0.17866 z"
         id="path5091"
         inkscape:connector-curvature="0" />
      <path
         style="fill:#b7d855"
         d="m 501.78898,602.5519 c -0.10197,-0.165 -0.31245,-0.3 -0.4677,-0.3 -0.15528,0 -0.2823,0.135 -0.2823,0.3 0,0.165 0.21048,0.3 0.4677,0.3 0.25725,0 0.38427,-0.135 0.2823,-0.3 z"
         id="path5085"
         inkscape:connector-curvature="0" />
      <path
         style="fill:#b7d855"
         d="m 502.53898,598.26075 c 0,-0.0501 -0.50625,-0.55638 -1.125,-1.125 l -1.125,-1.03385 1.03386,1.125 c 0.96228,1.04713 1.21614,1.26294 1.21614,1.03385 z"
         id="path5083"
         inkscape:connector-curvature="0" />
      <path
         style="fill:#b7d855"
         d="m 498.63898,595.5484 c 0,-0.0569 -0.30375,-0.36068 -0.675,-0.675 l -0.675,-0.5715 0.5715,0.675 c 0.53706,0.63433 0.7785,0.81157 0.7785,0.5715 z"
         id="path5079"
         inkscape:connector-curvature="0" />
      <path
         style="fill:#b7d855"
         d="m 206.43898,644.73863 c 0,-0.0623 0.23625,-0.29854 0.525,-0.525 0.47582,-0.37316 0.48643,-0.36255 0.11327,0.11327 -0.39191,0.49973 -0.63827,0.65864 -0.63827,0.41173 z"
         id="path5071"
         inkscape:connector-curvature="0" />
      <path
         style="fill:#b7d855"
         d="m 208.38898,642.4519 c 0.29865,-0.33 0.61049,-0.6 0.69299,-0.6 0.0825,0 -0.0943,0.27 -0.39299,0.6 -0.29865,0.33 -0.61049,0.6 -0.69299,0.6 -0.0825,0 0.0943,-0.27 0.39299,-0.6 z"
         id="path5069"
         inkscape:connector-curvature="0" />
      <path
         style="fill:#b7d855"
         d="m 210.63898,640.23863 c 0,-0.0623 0.23625,-0.29854 0.525,-0.525 0.47582,-0.37316 0.48643,-0.36255 0.11327,0.11327 -0.39191,0.49973 -0.63827,0.65864 -0.63827,0.41173 z"
         id="path5067"
         inkscape:connector-curvature="0" />
      <path
         style="fill:#b7d855"
         d="m 211.83898,639.33863 c 0,-0.0623 0.23625,-0.29854 0.525,-0.525 0.47582,-0.37316 0.48643,-0.36255 0.11327,0.11327 -0.39191,0.49973 -0.63827,0.65864 -0.63827,0.41173 z"
         id="path5065"
         inkscape:connector-curvature="0" />
      <path
         style="fill:#b7d855"
         d="m 231.28273,634.14697 c 0.21656,-0.0867 0.47531,-0.076 0.575,0.0237 0.0997,0.0997 -0.0775,0.17059 -0.39375,0.15756 -0.34948,-0.0144 -0.42057,-0.0855 -0.18125,-0.18124 z"
         id="path5063"
         inkscape:connector-curvature="0" />
      <path
         style="fill:#b7d855"
         d="m 225.58273,633.84697 c 0.21656,-0.0867 0.47531,-0.076 0.575,0.0237 0.0997,0.0997 -0.0775,0.17059 -0.39375,0.15756 -0.34948,-0.0144 -0.42057,-0.0855 -0.18125,-0.18126 z"
         id="path5061"
         inkscape:connector-curvature="0" />
      <path
         style="fill:#b7d855"
         d="m 229.01969,633.84397 c 0.29189,-0.0761 0.69689,-0.0711 0.9,0.0111 0.20311,0.0822 -0.0357,0.14441 -0.53071,0.13829 -0.495,-0.006 -0.66118,-0.0734 -0.36929,-0.14941 z"
         id="path5059"
         inkscape:connector-curvature="0" />
      <path
         style="fill:#b7d855"
         d="m 323.43898,616.71353 c -0.82076,-0.55472 -1.47552,-1.27833 -1.49046,-1.64718 -0.0136,-0.3373 1.29355,0.39365 1.5839,0.88566 0.13389,0.22688 0.37014,0.3342 0.525,0.2385 0.15486,-0.0957 0.28156,0.10395 0.28156,0.44368 0,0.72601 0.0502,0.72158 -0.9,0.0793 z"
         id="path5055"
         inkscape:connector-curvature="0" />
      <path
         style="fill:#b7d855"
         d="m 315.28273,615.24699 c 0.21656,-0.0867 0.47531,-0.076 0.575,0.0237 0.0997,0.0997 -0.0775,0.17059 -0.39375,0.15756 -0.34948,-0.0144 -0.42057,-0.0855 -0.18125,-0.18124 z"
         id="path5053"
         inkscape:connector-curvature="0" />
      <path
         style="fill:#b7d855"
         d="m 393.63898,612.45192 c 0,-0.165 0.14297,-0.3 0.31771,-0.3 0.17473,0 0.23427,0.135 0.13229,0.3 -0.10198,0.165 -0.24494,0.3 -0.31771,0.3 -0.0728,0 -0.13229,-0.135 -0.13229,-0.3 z"
         id="path5051"
         inkscape:connector-curvature="0" />
      <path
         style="fill:#b7d855"
         d="m 318.16064,611.3797 c -0.47941,-0.42473 -1.14166,-0.88867 -1.47166,-1.03099 -0.42955,-0.18525 -0.13127,-0.25567 1.05,-0.24787 1.11487,0.007 1.41288,0.0771 0.91887,0.21506 l -0.73114,0.20416 0.80614,0.63411 c 0.44337,0.34875 0.80613,0.71592 0.80613,0.81593 0,0.3834 -0.54045,0.1519 -1.37834,-0.5904 z"
         id="path5049"
         inkscape:connector-curvature="0" />
      <path
         style="fill:#b7d855"
         d="m 311.57257,610.49026 c -0.84476,-0.37249 -0.799,-0.39068 1.04141,-0.41397 2.07891,-0.0263 2.15664,0.0244 0.75859,0.49506 -0.6743,0.227 -1.14985,0.20558 -1.8,-0.0811 z"
         id="path5043"
         inkscape:connector-curvature="0" />
      <path
         style="fill:#b7d855"
         d="m 308.51398,609.84517 c 0.28875,-0.0755 0.76125,-0.0755 1.05,0 0.28875,0.0755 0.0525,0.1372 -0.525,0.1372 -0.5775,0 -0.81375,-0.0617 -0.525,-0.1372 z"
         id="path5041"
         inkscape:connector-curvature="0" />
      <path
         style="fill:#b7d855"
         d="m 332.43898,609.33866 c 0,-0.0623 0.23625,-0.29854 0.525,-0.525 0.47582,-0.37316 0.48643,-0.36255 0.11327,0.11327 -0.39191,0.49973 -0.63827,0.65864 -0.63827,0.41173 z"
         id="path5039"
         inkscape:connector-curvature="0" />
      <path
         style="fill:#b7d855"
         d="m 330.85898,600.7147 c 0.2035,-0.20502 0.44557,-0.2972 0.53794,-0.20483 0.0924,0.0924 -0.0741,0.26011 -0.37,0.37277 -0.42756,0.16281 -0.46202,0.12835 -0.16794,-0.16794 z"
         id="path5037"
         inkscape:connector-curvature="0" />
      <path
         style="fill:#b7d855"
         d="m 267.00071,582.8269 c -0.37316,-0.47582 -0.36255,-0.48643 0.11327,-0.11327 0.28875,0.22646 0.525,0.46271 0.525,0.525 0,0.24691 -0.24636,0.088 -0.63827,-0.41173 z"
         id="path5033"
         inkscape:connector-curvature="0" />
      <path
         style="fill:#b7d855"
         d="m 265.50071,581.3269 c -0.37316,-0.47582 -0.36255,-0.48643 0.11327,-0.11327 0.49972,0.39191 0.65864,0.63827 0.41173,0.63827 -0.0623,0 -0.29854,-0.23625 -0.525,-0.525 z"
         id="path5029"
         inkscape:connector-curvature="0" />
      <path
         style="fill:#b7d855"
         d="m 199.08898,562.6519 c -0.10198,-0.165 0.0251,-0.3 0.28229,-0.3 0.25724,0 0.46771,0.135 0.46771,0.3 0,0.165 -0.12703,0.3 -0.28229,0.3 -0.15527,0 -0.36573,-0.135 -0.46771,-0.3 z"
         id="path5027"
         inkscape:connector-curvature="0" />
      <path
         style="fill:#b7d855"
         d="m 192.39746,555.9019 c 0.006,-0.495 0.0734,-0.66118 0.14942,-0.36929 0.0761,0.29189 0.0711,0.69689 -0.0111,0.9 -0.0822,0.20311 -0.14441,-0.0357 -0.1383,-0.53071 z"
         id="path4805"
         inkscape:connector-curvature="0" />
      <path
         style="fill:#708120"
         d="m 414.03898,660.0019 0,-0.75 -3.5541,0 c -2.95673,0 -3.65474,-0.0882 -4.1529,-0.525 -0.95171,-0.83439 -1.28243,-1.7077 -1.09173,-2.88282 l 0.17723,-1.09218 -8.05799,0 -8.21989,0 -4.90127,0 c -4.67078,0 -4.75455,-0.0116 -5.78705,-0.7991 -0.57622,-0.4395 -1.24221,-1.17529 -1.47999,-1.6351 -0.94177,-1.8212 -0.19689,-4.44455 1.60878,-5.6658 l 1.10891,-0.75 14.62158,-0.0883 c 13.8454,-0.0836 14.63727,-0.11766 14.91727,-0.64084 0.93978,-1.75599 4.50714,-5.24814 7.17182,-7.02061 3.93199,-2.61544 7.64873,-3.85202 12.84154,-4.27247 1.78646,-0.14465 3.13168,-0.0374 5.62646,0.44849 5.20336,1.01347 9.53863,3.24538 13.20899,6.80032 l 1.66234,1.61007 0,-16.70331 c 0,-12.99147 -0.08,-16.62332 -0.36,-16.34332 -0.26514,0.26514 -2.91333,0.36 -10.05,0.36 -8.16,0 -9.69,-0.0671 -9.69,-0.425 0,-0.23375 0.16875,-0.49309 0.375,-0.57632 0.20625,-0.0832 -0.0638,-0.16197 -0.6,-0.175 -0.7829,-0.019 -0.975,0.0945 -0.975,0.57632 0,0.58912 -0.2,0.6 -11.03325,0.6 -12.57974,0 -12.37184,0.0369 -12.36016,-2.19201 0.004,-0.6919 0.27362,-1.84648 0.6,-2.56575 0.32637,-0.71927 0.59341,-1.46987 0.59341,-1.66801 0,-0.61702 2.05595,-4.56843 3.38344,-6.50275 0.69661,-1.01505 1.41609,-2.10307 1.59885,-2.41781 0.40034,-0.68941 0.609,-0.91602 3.78023,-4.1053 3.8248,-3.84656 7.65573,-6.52755 12.83748,-8.98403 6.28021,-2.97722 13.75264,-4.81499 19.725,-4.85117 l 2.175,-0.0132 0,-3 c 0,-2.46667 0.08,-3 0.45,-3 0.39174,0 0.45,1.41043 0.45,10.89387 l 0,10.89388 -0.9,0.86225 -0.9,0.86225 0,-7.37162 0,-7.37162 -0.79595,-0.52153 c -0.62529,-0.40971 -1.22027,-0.48985 -2.775,-0.37377 -4.02785,0.30072 -9.60741,1.53826 -13.52905,3.00074 -1.90208,0.70933 -6.59429,3.00411 -7.75845,3.79437 -0.43535,0.29552 -1.33155,0.89166 -1.99155,1.32474 -3.15418,2.06974 -7.84138,6.90336 -10.09122,10.40644 -1.00427,1.56369 -1.38341,2.30662 -2.98537,5.85 -0.85838,1.89865 -1.12094,4.6711 -0.49182,5.19322 0.34107,0.28307 4.92711,0.37361 19.69456,0.38884 17.20968,0.0177 19.32806,-0.0313 19.9869,-0.46302 l 0.73695,-0.48287 0,-6.53696 0,-6.53696 0.9,-0.86225 0.9,-0.86225 0,25.58481 c 0,25.38475 0.005,25.59163 0.62043,26.45613 l 0.62043,0.87131 15.56678,0 15.56677,0 0.83781,-1.09857 c 3.93114,-5.15478 9.6657,-8.94695 15.39969,-10.18355 7.60434,-1.63998 15.62433,0.36343 21.83772,5.45509 1.59858,1.30998 4.85037,5.03206 4.85037,5.55185 0,0.16296 5.71977,0.27586 14.025,0.27685 8.60511,9e-4 14.45064,0.11989 15.12639,0.30758 1.49331,0.41477 2.81292,1.7182 3.26409,3.2241 0.51489,1.71858 -0.19263,3.592 -1.76916,4.68455 l -1.12857,0.7821 -12.80889,0 -12.80886,0 0,1.44387 c 0,1.18402 -0.14847,1.58576 -0.825,2.23225 -0.78297,0.74821 -1.00839,0.79309 -4.425,0.88112 l -3.6,0.0928 -0.0736,-1.44309 c -0.16452,-3.22331 -2.27499,-7.75483 -4.74762,-10.19386 -2.95014,-2.91002 -6.24195,-4.34987 -10.56504,-4.62114 -4.85925,-0.30493 -9.05712,1.32793 -12.56613,4.88787 -2.32737,2.36112 -3.55215,4.80835 -4.22664,8.44522 l -0.51465,2.775 -3.54177,0 c -3.36039,0 -3.57948,-0.0377 -4.27815,-0.73637 -0.58764,-0.58765 -0.73635,-1.04271 -0.73635,-2.25336 l 0,-1.517 -12.21917,0.0784 -12.21918,0.0784 0.0906,1.25461 c 0.0499,0.69003 -0.0684,1.55174 -0.26274,1.91491 l -1.01891,0.84709 c -0.13307,0.2153 -1.51403,0.33339 -3.89889,0.33339 l -3.69285,0 -0.14363,-2.175 c -0.22118,-3.34956 -1.91248,-6.6924 -4.84896,-9.58394 -1.83558,-1.80749 -3.90119,-2.97545 -6.78631,-3.83717 -1.89363,-0.56558 -2.7014,-0.64624 -5.1,-0.50926 -2.71598,0.15511 -5.74461,0.88479 -6.63603,1.5988 -0.22769,0.18237 -0.82036,0.53769 -1.31706,0.78959 -1.91496,0.9712 -6.14691,5.80572 -6.14691,7.02215 0,0.16646 -0.20822,0.72003 -0.46271,1.23016 -0.64445,1.29185 -1.07679,4.16868 -0.85504,5.68967 0.10223,0.70125 0.10305,1.275 0.002,1.275 -0.10122,0 -0.18405,-0.3375 -0.18405,-0.75 z"
         id="path5255"
         inkscape:connector-curvature="0" />
      <path
         style="fill:#708120"
         d="m 434.96588,609.2269 c 0.17215,-0.52441 -0.88948,-0.47096 -1.59456,0.0803 -0.54961,0.4297 -0.52462,0.45078 0.44456,0.375 0.56479,-0.0442 1.08229,-0.24904 1.15,-0.4553 z"
         id="path5253"
         inkscape:connector-curvature="0" />
      <path
         style="fill:#708120"
         d="m 243.83899,659.16953 c 0.0795,-0.1278 -0.0863,-1.4103 -0.36838,-2.85 -0.92953,-4.74403 -3.27633,-8.23238 -7.2473,-10.77258 -2.3432,-1.49893 -4.63533,-2.20326 -7.82063,-2.40314 -3.23133,-0.20277 -5.68158,0.31412 -8.59935,1.81407 -2.21715,1.13978 -5.14085,3.99554 -6.39551,6.24689 -0.97706,1.75324 -2.16884,5.71164 -2.16884,7.20363 l 0,0.8435 -3.61364,0 c -3.4367,0 -3.64969,-0.036 -4.34999,-0.73637 -0.75037,-0.75036 -0.83737,-1.07515 -0.74457,-2.77951 l 0.0526,-0.96588 -13.21744,-0.0841 -13.21743,-0.0841 -1.08741,-1.08764 c -0.84105,-0.84123 -1.12237,-1.3979 -1.24176,-2.45715 -0.0849,-0.75323 -0.0706,-1.70322 0.0318,-2.1111 0.23973,-0.95514 1.71442,-2.34355 2.96199,-2.78868 0.68291,-0.24366 5.2089,-0.35757 15.07589,-0.37945 l 14.1,-0.0313 0.59908,-0.81471 c 5.17419,-7.03649 12.79628,-11.01762 21.00092,-10.96908 3.14003,0.0186 7.33321,0.87786 9.80815,2.00993 0.93687,0.42853 1.7773,0.77915 1.86762,0.77915 0.28006,0 4.24741,2.80073 5.31956,3.75531 1.25824,1.12027 4.15467,4.57542 4.15467,4.9561 0,0.17229 19.97006,0.31076 51.83825,0.35943 50.21653,0.0767 51.86599,0.0969 52.725,0.64524 2.98789,1.90741 3.28575,4.89537 0.71915,7.21413 l -1.18413,1.06979 -6.50051,0 -37.78091,0 -30.85662,0 -0.31282,-0.007 -12.43873,0.0784 -12.43874,0.0784 0.0663,1.35 c 0.0493,1.00459 -0.0959,1.54189 -0.56771,2.1 -0.6006,0.71054 -0.83599,0.75789 -4.47348,0.9 -2.11173,0.0825 -3.77448,0.0454 -3.695,-0.0824 z"
         id="path5251"
         inkscape:connector-curvature="0" />
      <path
         style="fill:#708120"
         d="m 367.62924,636.09256 c -0.36285,-0.1753 -0.74483,-0.70616 -0.84883,-1.17969 l -0.1891,-0.86097 -5.40693,0 -5.40692,0 0.16028,-2.025 c 0.0882,-1.11375 0.1695,-2.05875 0.18076,-2.1 0.0113,-0.0412 2.38298,-0.075 5.27048,-0.075 5.06277,0 5.25,-0.0215 5.25,-0.60441 0,-0.75141 1.61951,-1.78662 2.45375,-1.56846 1.16727,0.30525 1.74391,1.79908 1.74513,4.52095 0.001,2.36172 -0.0467,2.54594 -0.8758,3.375 -0.93858,0.93858 -1.29686,1.01807 -2.33282,0.51758 z"
         id="path5247"
         inkscape:connector-curvature="0" />
      <path
         style="fill:#708120"
         d="m 373.30767,636.25111 c -0.82548,-0.33213 -1.26869,-1.86711 -1.26869,-4.39385 0,-2.09965 0.10463,-2.65745 0.62177,-3.3149 1.04306,-1.32603 2.90474,-0.93981 3.42879,0.71132 0.1793,0.56489 0.45812,0.59822 5.00465,0.59822 l 4.81477,0 -0.19053,0.675 c -0.10479,0.37125 -0.33422,1.31625 -0.50985,2.1 l -0.31932,1.425 -4.28874,0 -4.28875,0 -0.37754,0.91147 c -0.52016,1.25578 -1.50542,1.73883 -2.62656,1.28774 z"
         id="path5245"
         inkscape:connector-curvature="0" />
      <path
         style="fill:#708120"
         d="m 458.13898,623.7922 c -1.90578,-1.29366 -2.47898,-3.75796 -1.39269,-5.98741 0.39857,-0.81801 0.90582,-1.25678 1.99423,-1.725 1.3115,-0.56419 2.03984,-0.62794 7.17434,-0.62794 l 5.71464,0 0.94149,0.84121 c 0.81567,0.7288 0.9132,0.97005 0.72975,1.80522 -0.32982,1.50172 -1.41906,1.8979 -5.03324,1.83076 l -3.0363,-0.0564 -0.38599,1.32379 c -0.59357,2.03565 -1.83334,3.04105 -3.93092,3.18782 -1.44382,0.10102 -1.89663,0.004 -2.77531,-0.59204 z"
         id="path5243"
         inkscape:connector-curvature="0" />
      <path
         style="fill:#708120"
         d="m 208.31398,622.61622 c -0.53625,-0.15484 -0.975,-0.40357 -0.975,-0.55273 0,-0.14917 -0.25354,-0.35168 -0.56342,-0.45003 -0.62347,-0.19788 -1.38809,-2.42511 -1.1503,-3.35065 0.0258,-0.80924 0.0515,-1.84155 0.83094,-2.61462 1.60933,-1.79221 1.91161,-1.36574 2.68285,-1.42929 0.77124,-0.0635 0.3916,-0.17352 5.925,-0.20911 5.86515,-0.0377 5.93333,-0.0308 6.75,0.68761 0.98564,0.86702 1.04144,1.59842 0.20323,2.66403 -0.60853,0.77361 -0.69671,0.79046 -4.13778,0.79046 l -3.51601,0 -0.37513,1.40256 c -0.41856,1.56496 -1.49532,2.7378 -2.87744,3.13419 -1.08867,0.31223 -1.50188,0.30153 -2.79687,-0.0724 z"
         id="path5241"
         inkscape:connector-curvature="0" />
      <path
         style="fill:#708120"
         d="m 206.18598,609.35188 -0.65759,-0.69997 0.0803,-24.06103 c 0.0701,-21.00213 0.1375,-24.09719 0.53029,-24.34544 0.27096,-0.17125 7.91565,-0.28623 19.21411,-0.289 l 18.76412,-0.005 1.16373,1.19177 1.16373,1.19177 -18.63776,0.0119 c -10.25077,0.007 -18.8574,0.0961 -19.12583,0.19914 -0.26843,0.10301 -0.61272,0.51517 -0.76508,0.9159 -0.15983,0.42039 -0.27702,9.65847 -0.27702,21.83766 0,18.79004 0.0518,21.16083 0.47143,21.58047 10.20486,0.23739 26.01983,0.17282 38.79868,0.03 0.4249,-0.4248 0.48716,-2.1525 0.54332,-15.0776 l 0.0634,-14.59782 1.06158,-1.06157 1.06157,-1.06158 0,16.73364 0,16.73363 c 0.0628,0.81251 0.35533,1.69655 -1.47273,1.47273 l -17.00037,0 c -9.28846,0.0649 -21.14877,0.51007 -24.9799,-0.69997 z"
         id="path5239"
         inkscape:connector-curvature="0" />
      <path
         style="fill:#708120"
         d="m 266.52854,609.46574 c -1.90899,-1.16745 -1.88956,-1.00642 -1.88956,-15.65988 l 0,-13.27578 1.2,1.17177 1.2,1.17177 0,11.51911 0,11.51912 1.02,1.02 1.02,1.02 29.08954,0 c 28.97485,0 29.09266,-0.002 29.88,-0.62177 0.95133,-0.74832 0.99503,-1.67029 0.21229,-4.47823 -2.13241,-7.64961 -6.54044,-14.88888 -12.81739,-21.04986 -2.96484,-2.91007 -4.52791,-4.2557 -6.56315,-5.65014 -0.60205,-0.4125 -1.53922,-1.12125 -2.08258,-1.575 -0.54335,-0.45375 -1.08426,-0.825 -1.202,-0.825 -0.11775,0 -0.57243,-0.25027 -1.0104,-0.55616 -0.43797,-0.30588 -2.01131,-1.20339 -3.49631,-1.99445 -1.485,-0.79106 -2.9025,-1.54639 -3.15,-1.67851 -1.72505,-0.92083 -8.49977,-3.50723 -9.80377,-3.74279 -0.63043,-0.11389 -1.36899,-0.32183 -1.64125,-0.46209 -1.27006,-0.6543 -9.95577,-2.09919 -13.6578,-2.27201 l -3.95281,-0.18452 -0.92219,0.92219 -0.92218,0.92219 0,8.93396 0,8.93396 -1.2,-1.17177 -1.2,-1.17177 0,-8.80107 c 0,-8.17407 0.0422,-8.88386 0.59294,-9.96331 0.49621,-0.97266 0.80206,-1.2059 1.875,-1.42987 1.62178,-0.33854 7.72389,0.0523 10.88206,0.69697 1.32,0.26945 3.06126,0.604 3.86946,0.74343 1.81401,0.31296 5.08597,1.2308 9.03054,2.53321 2.90628,0.95959 4.28664,1.51183 7.55642,3.02306 0.85604,0.39564 1.61493,0.71935 1.68642,0.71935 0.38159,0 6.08817,3.32238 8.15716,4.74911 10.15517,7.00281 16.25941,13.73785 21.11851,23.30089 1.89416,3.72781 2.06717,4.29432 1.48827,4.87321 -0.25761,0.25762 -0.198,0.30525 0.23905,0.19096 0.49514,-0.12949 0.68841,0.17154 1.29183,2.01214 0.39743,1.21226 0.72118,2.95197 0.73596,3.95468 0.024,1.62792 -0.0504,1.84825 -0.82051,2.42964 l -0.84689,0.63937 -32.00311,0.0756 c -31.31599,0.074 -32.02373,0.063 -32.96355,-0.51173 z"
         id="path5237"
         inkscape:connector-curvature="0" />
      <path
         style="fill:#708120"
         d="m 428.93049,609.60185 c 0.095,-0.2475 0.22574,-0.45 0.29059,-0.45 0.0648,0 0.1179,0.2025 0.1179,0.45 0,0.2475 -0.13076,0.45 -0.29059,0.45 -0.15982,0 -0.21287,-0.2025 -0.1179,-0.45 z"
         id="path5235"
         inkscape:connector-curvature="0" />
      <path
         style="fill:#708120"
         d="m 457.07535,609.31548 -0.73637,-0.73636 0,-10.76134 0,-10.76134 0.73571,-0.69117 0.73571,-0.69116 0.0893,10.83091 c 0.0864,10.47758 0.10947,10.85106 0.70781,11.44905 0.61149,0.61112 0.83714,0.61826 19.85669,0.62831 13.46775,0.007 19.42365,-0.0891 19.85649,-0.32073 0.39336,-0.21052 0.61689,-0.62721 0.61443,-1.14535 -0.008,-1.72622 -2.39277,-7.90396 -3.46461,-8.97578 -0.23733,-0.23734 -0.43152,-0.56589 -0.43152,-0.73011 0,-0.16423 -0.37125,-0.79571 -0.825,-1.40331 -0.45375,-0.60759 -0.96,-1.29246 -1.125,-1.52193 -0.81795,-1.13755 -6.20856,-6.34667 -7.50414,-7.25148 -5.47563,-3.82411 -12.44382,-6.78285 -18.38448,-7.8062 -1.20375,-0.20737 -2.24584,-0.46959 -2.31576,-0.58272 -0.0699,-0.11314 0.17246,-0.48519 0.53863,-0.82678 l 0.66575,-0.62107 2.85,0.70438 c 1.5675,0.3874 3.89064,1.04885 5.16252,1.46988 2.34546,0.77639 8.51577,3.64105 8.78664,4.07931 0.0813,0.13157 0.71727,0.53602 1.41324,0.89878 0.69597,0.36276 1.92822,1.153 2.73831,1.75607 1.71441,1.27632 7.65318,7.04824 8.38194,8.14651 0.27375,0.4125 0.92664,1.35716 1.45089,2.09924 2.33277,3.302 4.76646,9.16612 4.76646,11.48512 0,2.11868 1.15434,2.01564 -22.5804,2.01564 l -21.24687,0 z"
         id="path5233"
         inkscape:connector-curvature="0" />
      <path
         style="fill:#708120"
         d="m 247.53898,570.53529 c 0,-3.48387 -0.0874,-6.58161 -0.19421,-6.88385 -0.11449,-0.32396 0.31652,-0.0627 1.05,0.63634 l 1.24421,1.18589 0,4.68026 0,4.68027 -1.05,1.0177 -1.05,1.0177 z"
         id="path5229"
         inkscape:connector-curvature="0" />
      <path
         style="fill:#708120"
         d="m 246.93898,562.5019 -2.53675,-2.55 2.00669,0 c 2.69181,0 3.23006,0.53434 3.23006,3.20657 0,1.04139 -0.0367,1.89343 -0.0816,1.89343 -0.0449,0 -1.22317,-1.1475 -2.61838,-2.55 z"
         id="path4803"
         inkscape:connector-curvature="0" />
      <path
         style="fill:#016f88"
         d="m 418.43836,608.62271 c -8.11193,-0.0673 -9.61996,-0.14853 -10.01094,-0.53951 -0.63327,-0.63327 -0.38839,-3.14182 0.49601,-5.0813 2.66557,-5.8455 3.7403,-7.45028 7.93604,-11.85 1.32435,-1.38873 3.8778,-3.5705 5.23749,-4.47513 0.60061,-0.39959 1.44822,-0.96657 1.88357,-1.25995 1.17725,-0.79334 5.87164,-3.08684 7.75845,-3.79047 6.15495,-2.29533 13.98818,-3.51868 16.275,-2.54174 l 0.825,0.35244 0,14.07069 c 0,12.28877 -0.0584,14.11913 -0.46087,14.45318 -0.25348,0.21037 -1.43473,0.43416 -2.625,0.4973 -3.26565,0.17326 -16.58435,0.25346 -27.31475,0.16449 z m 22.41514,-1.73653 c 0.0983,-0.25614 -0.007,-0.76239 -0.2339,-1.125 -0.22694,-0.3626 -0.94486,-1.67178 -1.59538,-2.90928 -1.46905,-2.79463 -2.80434,-5.25341 -5.82502,-10.72615 -1.29812,-2.35188 -2.36022,-4.34603 -2.36022,-4.43143 0,-0.55244 -1.67489,-2.54242 -2.13987,-2.54242 -1.05105,0 -0.85182,1.00285 0.77109,3.88142 0.70345,1.24772 1.86135,3.34858 2.5731,4.66858 0.71175,1.32 1.60636,2.94 1.98802,3.6 0.38166,0.66 1.03452,1.84125 1.4508,2.625 0.41627,0.78375 1.12811,2.11993 1.58186,2.9693 0.45375,0.84936 1.00945,1.89561 1.23489,2.325 0.86975,1.65657 1.27361,2.1307 1.81493,2.1307 0.30854,0 0.64141,-0.20957 0.7397,-0.46572 z m 4.31873,-0.90129 c 0.88819,-0.62212 0.84124,-1.30443 -0.23669,-3.43981 -0.49689,-0.98434 -0.89036,-1.87664 -0.87438,-1.9829 0.016,-0.10626 -0.0902,-0.27579 -0.23596,-0.37674 -0.24533,-0.1699 -0.89812,-1.23842 -2.42383,-3.96744 -2.86862,-5.13109 -6.06239,-11.08432 -6.06239,-11.30039 0,-0.45492 -1.77479,-2.16571 -2.24672,-2.16571 -0.52573,0 -1.95328,1.2935 -1.95328,1.76986 0,0.28021 1.7777,3.85615 2.4012,4.83014 0.68947,1.07705 5.0988,9.27239 5.0988,9.47682 0,0.12427 0.18224,0.43906 0.40499,0.69956 0.22274,0.26049 1.04121,1.68862 1.81883,3.17362 1.93267,3.69079 2.79227,4.34565 4.30943,3.28299 z m 14.47572,2.41701 c -1.70188,-0.57853 -1.65196,-0.24318 -1.7484,-11.74526 -0.0774,-9.23501 -0.027,-10.76132 0.376,-11.37635 0.42403,-0.64715 0.42241,-0.69382 -0.0182,-0.52474 -0.42659,0.16369 -0.47093,-0.11909 -0.376,-2.39844 0.14034,-3.36966 0.39352,-3.64579 3.33792,-3.64046 1.19333,0.002 2.5747,0.0795 3.0697,0.17181 0.495,0.0923 1.845,0.33797 3,0.54587 4.80456,0.86478 13.34955,4.12111 14.52225,5.53414 0.22068,0.26589 0.57204,0.48343 0.78081,0.48343 0.42834,0 3.14769,1.81471 4.46694,2.98092 1.48974,1.31694 5.58,5.41721 5.58,5.59366 0,0.0923 0.54,0.80818 1.2,1.59091 0.66,0.78272 1.2,1.57354 1.2,1.75739 0,0.18384 0.19419,0.52845 0.43152,0.76579 1.07184,1.07182 3.45642,7.24956 3.46461,8.97578 0.003,0.51751 -0.22101,0.93479 -0.61296,1.14456 -0.82122,0.4395 -37.40372,0.57287 -38.6742,0.14099 z m 22.68357,-1.50268 c 0.0956,-0.24898 -0.26619,-1.29523 -0.80385,-2.32501 -1.35156,-2.58864 -2.47194,-4.69333 -2.89674,-5.44161 -0.19692,-0.34689 -2.36637,-4.2757 -4.821,-8.7307 -3.36594,-6.10894 -4.61436,-8.12233 -5.07879,-8.19086 -0.88958,-0.13126 -1.09574,0.74802 -0.43367,1.84968 0.31109,0.51765 1.14428,2.02118 1.85156,3.34118 0.70725,1.32 1.67313,3.075 2.14641,3.9 0.47325,0.825 1.14051,2.04 1.48281,2.7 0.34227,0.66 1.00926,1.875 1.48218,2.7 0.47292,0.825 1.18038,2.1075 1.57212,2.85 3.82881,7.25693 4.17081,7.8 4.91235,7.8 0.2271,0 0.49107,-0.20371 0.58662,-0.45268 z m 4.32717,-0.75787 c 0.84627,-0.45291 0.73101,-1.79848 -0.31971,-3.73269 -0.495,-0.91122 -1.32381,-2.43301 -1.84182,-3.38176 -0.51801,-0.94875 -1.48335,-2.7375 -2.14521,-3.975 -0.66186,-1.2375 -1.7328,-3.1906 -2.3799,-4.34023 -0.6471,-1.14963 -1.20051,-2.22963 -1.22982,-2.4 -0.0294,-0.17037 -0.13683,-0.37727 -0.23898,-0.45977 -0.10215,-0.0825 -0.61374,-0.95528 -1.13688,-1.93952 -1.22259,-2.30016 -1.74663,-2.86048 -2.67525,-2.86048 -0.91839,0 -1.85214,0.78784 -1.85214,1.56271 0,0.31335 0.38943,1.27117 0.86541,2.1285 0.47598,0.85734 1.36989,2.50379 1.98642,3.65879 0.61656,1.155 1.82847,3.3825 2.69316,4.95 1.70655,3.09367 3.14001,5.73375 4.64232,8.55 1.34001,2.51206 2.16858,3.02287 3.6324,2.23945 z m -218.59772,0.79254 -1.02199,-1.02199 0,-11.44771 c 0,-9.07108 0.0779,-11.40375 0.375,-11.23598 0.3,0.16937 0.3,0.13091 0,-0.1923 -0.28244,-0.30429 -0.375,-2.59413 -0.375,-9.27726 0,-7.54544 0.0699,-8.97302 0.46701,-9.54 0.25686,-0.36671 0.66186,-0.66675 0.9,-0.66675 0.23815,0 0.43299,-0.135 0.43299,-0.3 0,-0.4407 4.44777,-0.36041 7.99836,0.14439 3.6419,0.51778 9.01046,1.58964 9.67563,1.93179 0.26181,0.13466 0.99181,0.33802 1.62224,0.45191 1.36827,0.24717 8.21556,2.877 9.89676,3.80102 0.29864,0.16414 1.44614,0.78604 2.54999,1.38201 1.83604,0.99125 2.465,1.33864 4.59092,2.53567 0.39385,0.22176 1.0536,0.68173 1.4661,1.02213 0.73781,0.60887 1.17925,0.92163 3.33353,2.36187 0.59594,0.39841 2.16761,1.78072 3.49258,3.0718 1.32498,1.29107 2.72739,2.63812 3.11647,2.99343 1.39526,1.27416 5.35742,6.09021 5.35742,6.51199 0,0.10483 0.46028,0.83216 1.02284,1.6163 0.97537,1.35951 3.55941,6.54568 4.37254,8.77569 0.72126,1.97804 1.47003,4.94993 1.48732,5.90323 0.0124,0.6822 -0.2046,1.12776 -0.76313,1.56711 -0.77393,0.60877 -1.02277,0.61397 -29.87802,0.62376 l -29.09758,0.01 -1.02198,-1.02199 z m 47.16994,-0.0331 c 0.16194,-0.422 -0.4885,-2.02219 -1.52382,-3.7489 -0.24734,-0.4125 -1.51368,-2.7075 -2.81411,-5.1 -1.30042,-2.3925 -2.87802,-5.295 -3.50578,-6.45 -0.62776,-1.155 -1.68076,-3.1125 -2.34,-4.35 -0.65924,-1.2375 -1.73885,-3.195 -2.39914,-4.35 -1.33718,-2.33902 -2.04034,-3.61175 -4.07085,-7.36828 -1.93713,-3.58377 -2.25613,-3.97995 -3.01156,-3.74018 -0.83453,0.26486 -0.80002,0.50227 0.38713,2.66313 0.55758,1.01493 1.5231,2.79033 2.1456,3.94533 0.6225,1.155 1.73851,3.18 2.48004,4.5 0.74153,1.32 1.88781,3.4125 2.54729,4.65 0.65949,1.2375 1.44976,2.60834 1.75617,3.04631 0.3064,0.43797 0.5571,0.89026 0.5571,1.00509 0,0.11483 0.72611,1.51149 1.61358,3.10369 0.88747,1.5922 2.12501,3.83991 2.75008,4.99491 0.62508,1.155 1.46595,2.7075 1.86862,3.45 0.40267,0.7425 1.05741,1.99125 1.45498,2.775 0.74171,1.46219 1.74003,1.92414 2.10467,0.9739 z m 4.43823,-0.8473 c 0.95173,-0.69592 0.60701,-1.83499 -1.96766,-6.50192 -2.5919,-4.69816 -3.01692,-5.47549 -5.49479,-10.04968 -0.80443,-1.485 -1.7763,-3.24 -2.15972,-3.9 -0.82401,-1.41844 -2.09848,-4.08755 -2.13269,-4.46646 -0.0132,-0.14655 -0.14396,-0.34905 -0.29051,-0.45 -0.3343,-0.23026 -1.31884,-1.84512 -2.61723,-4.29281 -1.1727,-2.21071 -2.06869,-2.73661 -3.29431,-1.93355 -0.87467,0.57311 -1.0336,1.78609 -0.36046,2.75107 0.22703,0.32546 1.06444,1.80675 1.86089,3.29175 0.79646,1.485 1.82259,3.375 2.2803,4.2 0.45771,0.825 1.15136,2.1075 1.54144,2.85 0.39008,0.7425 1.04555,1.9575 1.45658,2.7 0.41104,0.7425 1.19,2.16 1.73103,3.15 0.54104,0.99 1.75903,3.2175 2.70667,4.95 0.94763,1.7325 2.22873,4.095 2.84687,5.25 0.61815,1.155 1.3386,2.26875 1.60101,2.475 0.62037,0.48761 1.60751,0.47754 2.29258,-0.0234 z m -105.83242,1.39615 c -0.0287,-0.0287 -1.2501,-0.0897 -2.71416,-0.13559 -1.73715,-0.0544 -2.80264,-0.22408 -3.06701,-0.48845 -0.33394,-0.33394 -0.39294,-4.20091 -0.33584,-22.0136 0.0673,-21.0017 0.0856,-21.62044 0.65161,-22.0343 0.48827,-0.35703 3.62006,-0.42581 19.38753,-0.42581 l 18.80519,0 0.47434,0.975 c 0.39785,0.81778 0.45857,2.01507 0.37658,7.425 -0.0538,3.5475 -0.0816,6.855 -0.0619,7.35 0.0197,0.495 0.0359,7.05225 0.0359,14.57168 0,12.53183 -0.043,13.71469 -0.51619,14.18761 -0.47384,0.47362 -1.84801,0.52106 -16.75001,0.57833 -8.9286,0.0343 -16.25733,0.0389 -16.28606,0.0101 z m 25.60101,-1.74625 c 0.30029,-0.36182 0.27425,-0.59803 -0.13473,-1.2222 -1.12797,-1.7215 -3.13755,-5.75578 -2.95702,-5.9363 0.10615,-0.10615 0.0447,-0.193 -0.13652,-0.193 -0.35497,0 -3.47048,-5.55814 -3.47048,-6.19141 0,-0.21021 -0.0888,-0.32729 -0.19741,-0.26019 -0.19037,0.11766 -1.51956,-2.35471 -1.47381,-2.74139 0.0124,-0.10446 -0.0903,-0.27252 -0.22816,-0.37347 -0.27974,-0.20487 -0.77444,-1.03092 -1.81671,-3.03354 -0.38643,-0.7425 -1.09449,-2.025 -1.57347,-2.85 -0.47899,-0.825 -0.96961,-1.7025 -1.09028,-1.95 -0.12067,-0.2475 -0.78802,-1.4625 -1.48299,-2.7 -0.69498,-1.2375 -1.70155,-3.06 -2.23683,-4.05 -4.59401,-8.49665 -5.17282,-9.45 -5.73744,-9.45 -1.35385,0 -1.16969,0.51236 2.74954,7.65 0.5436,0.99 1.30363,2.4075 1.68894,3.15 0.38531,0.7425 0.83056,1.5525 0.98943,1.8 0.59627,0.92889 3.60919,6.32713 3.60919,6.46658 0,0.0799 0.33919,0.68266 0.75376,1.33938 0.41457,0.65672 0.67538,1.19404 0.57957,1.19404 -0.0958,0 0.0816,0.37125 0.39432,0.825 0.52961,0.76856 1.82505,3.09511 4.13429,7.425 1.6003,3.00061 2.60271,4.78022 2.91494,5.175 0.16312,0.20625 0.20769,0.375 0.099,0.375 -0.10865,0 0.14482,0.50384 0.56326,1.11964 0.41845,0.6158 0.76082,1.22979 0.76082,1.36441 0,0.54377 2.12142,3.51595 2.50954,3.51595 0.22935,0 0.58449,-0.20183 0.78921,-0.4485 z m 4.78203,-1.40628 c 0.49848,-0.8922 0.52825,-0.80587 -1.58453,-4.59522 -0.55198,-0.99 -1.53069,-2.76071 -2.17492,-3.93491 -0.64423,-1.1742 -2.60971,-4.7517 -4.36774,-7.95 -1.75802,-3.1983 -3.52486,-6.42259 -3.9263,-7.16509 -0.40144,-0.7425 -1.31312,-2.43 -2.02594,-3.75 -0.71283,-1.32 -2.28725,-4.19327 -3.4987,-6.38506 -1.21146,-2.19178 -2.20265,-4.07308 -2.20265,-4.18066 0,-0.55761 -1.39791,-1.58428 -2.15715,-1.58428 -0.67556,0 -0.95437,0.21349 -1.34293,1.02832 l -0.49037,1.02832 4.51146,8.19668 c 5.74976,10.44649 6.1987,11.27205 7.8017,14.34668 0.73121,1.4025 1.4342,2.685 1.5622,2.85 0.128,0.165 0.84523,1.4475 1.59384,2.85 0.74861,1.4025 1.84044,3.36 2.4263,4.35 0.58586,0.99 1.28094,2.2725 1.54463,2.85 0.26369,0.5775 0.77664,1.49247 1.13988,2.03327 0.56193,0.83661 0.81565,0.97085 1.70101,0.9 0.76874,-0.0615 1.15804,-0.29351 1.49021,-0.88805 z"
         id="path4801"
         inkscape:connector-curvature="0" />
      <path
         style="fill:#223720"
         d="m 223.67889,674.75684 c -1.24383,-0.2708 -2.77029,-0.79612 -3.39215,-1.16737 -0.62186,-0.37125 -1.24956,-0.675 -1.39489,-0.675 -0.5328,0 -4.71554,-4.39321 -5.5254,-5.80343 -1.03856,-1.80846 -1.92396,-4.83627 -2.16572,-7.40617 -0.22852,-2.42917 0.64618,-6.10348 2.05456,-8.63056 2.02922,-3.64102 5.89586,-6.56307 10.1988,-7.7073 2.50469,-0.66604 6.74434,-0.47945 9.29147,0.40893 2.79247,0.97395 5.80283,3.15362 7.75136,5.61244 2.01889,2.54761 3.45256,7.68234 3.01217,10.78821 -0.41322,2.91423 -1.25618,5.04586 -1.78412,6.13788 -0.52794,1.09202 -0.57599,1.63358 -2.85034,4.01486 -2.47569,2.49674 -4.90914,3.8356 -8.22931,4.52768 -2.67697,0.55801 -4.03343,0.5385 -6.96689,-0.10017 z"
         id="path5281"
         inkscape:connector-curvature="0" />
      <circle
         style="opacity:1;fill:#708120;fill-opacity:1;stroke:none;stroke-width:10;stroke-linecap:round;stroke-linejoin:miter;stroke-miterlimit:4;stroke-dasharray:none;stroke-opacity:1"
         id="path5265"
         cx="227.44711"
         cy="659.13513"
         r="5.9662137" />
      <path
         style="fill:#223720"
         d="m 426.67778,674.82324 c -6.77926,-1.45379 -11.74909,-7.11279 -12.50046,-14.23389 -0.29563,-2.80184 -0.0139,-5.40759 0.75036,-6.93955 0.25449,-0.51013 0.46271,-1.0637 0.46271,-1.23016 0,-1.21643 4.23195,-6.05095 6.14691,-7.02215 0.4967,-0.2519 1.08937,-0.60722 1.31706,-0.78959 0.89142,-0.71401 3.92005,-1.44369 6.63603,-1.5988 2.3986,-0.13698 3.20637,-0.0563 5.1,0.50926 2.88512,0.86172 4.95073,2.02968 6.78631,3.83717 1.86109,1.83261 2.51178,2.75556 3.75733,5.32938 0.99872,2.06378 1.14015,3.76322 1.21173,6.6367 l -0.24111,3.84286 -1.26208,2.66533 c -2.20565,4.65802 -6.39115,8.00429 -11.25933,9.00173 -2.82544,0.5789 -4.1749,0.57728 -6.90552,-0.008 z"
         id="path5279"
         inkscape:connector-curvature="0" />
      <path
         style="fill:#223720"
         d="m 500.74039,674.74524 c -2.17428,-0.5436 -4.85604,-1.76998 -5.82996,-2.66605 -0.30771,-0.28311 -1.01022,-0.91369 -1.56111,-1.40129 -3.75759,-3.32574 -5.7237,-9.65261 -4.61892,-14.86346 0.68925,-3.25094 1.9791,-5.7101 4.1505,-7.91305 3.51615,-3.56724 7.71048,-5.20018 12.57318,-4.89504 3.22053,0.20209 5.56509,0.93048 7.82637,2.43145 3.32217,2.20512 5.37879,4.901 6.69675,8.77829 2.91807,8.58462 -2.6208,18.37728 -11.5848,20.48177 -3.14103,0.73743 -4.84965,0.74801 -7.65201,0.0474 z"
         id="path5277"
         inkscape:connector-curvature="0" />
      <path
         style="fill:#223720"
         d="m 313.65212,580.28944 c -0.37316,-0.47582 -0.36255,-0.48643 0.11327,-0.11327 0.49972,0.39191 0.65864,0.63827 0.41173,0.63827 -0.0623,0 -0.29854,-0.23625 -0.525,-0.525 z"
         id="path5275"
         inkscape:connector-curvature="0" />
      <circle
         r="5.9662137"
         cy="659.22443"
         cx="504.63461"
         id="circle5269"
         style="opacity:1;fill:#708120;fill-opacity:1;stroke:none;stroke-width:10;stroke-linecap:round;stroke-linejoin:miter;stroke-miterlimit:4;stroke-dasharray:none;stroke-opacity:1" />
      <circle
         r="5.9662137"
         cy="659.13513"
         cx="430.08731"
         id="circle5267"
         style="opacity:1;fill:#708120;fill-opacity:1;stroke:none;stroke-width:10;stroke-linecap:round;stroke-linejoin:miter;stroke-miterlimit:4;stroke-dasharray:none;stroke-opacity:1" />
    </g>
  </g>
</svg>
