<?xml version="1.0" encoding="UTF-8" standalone="no"?>
<!-- Generator: Adobe Illustrator 15.1.0, SVG Export Plug-In . SVG Version: 6.00 Build 0)  -->

<svg
   xmlns:dc="http://purl.org/dc/elements/1.1/"
   xmlns:cc="http://creativecommons.org/ns#"
   xmlns:rdf="http://www.w3.org/1999/02/22-rdf-syntax-ns#"
   xmlns:svg="http://www.w3.org/2000/svg"
   xmlns="http://www.w3.org/2000/svg"
   xmlns:sodipodi="http://sodipodi.sourceforge.net/DTD/sodipodi-0.dtd"
   xmlns:inkscape="http://www.inkscape.org/namespaces/inkscape"
   version="1.1"
   id="Calque_1"
   x="0px"
   y="0px"
   width="115px"
   height="115px"
   viewBox="0 0 115 115"
   enable-background="new 0 0 115 115"
   xml:space="preserve"
   inkscape:version="0.91 r13725"
   sodipodi:docname="child-face-boy.svg"><metadata
     id="metadata59"><rdf:RDF><cc:Work
         rdf:about=""><dc:format>image/svg+xml</dc:format><dc:type
           rdf:resource="http://purl.org/dc/dcmitype/StillImage" /><dc:title></dc:title></cc:Work></rdf:RDF></metadata><defs
     id="defs57" /><sodipodi:namedview
     pagecolor="#ffffff"
     bordercolor="#666666"
     borderopacity="1"
     objecttolerance="10"
     gridtolerance="10"
     guidetolerance="10"
     inkscape:pageopacity="0"
     inkscape:pageshadow="2"
     inkscape:window-width="1920"
     inkscape:window-height="1017"
     id="namedview55"
     showgrid="false"
     inkscape:zoom="4.1043478"
     inkscape:cx="35.648871"
     inkscape:cy="42.071529"
     inkscape:window-x="0"
     inkscape:window-y="870"
     inkscape:window-maximized="1"
     inkscape:current-layer="Calque_1" /><g
     id="g3"
     transform="matrix(1.1482523,0,0,1.1482523,-8.7681768,-11.635477)"><path
       d="m 18.337,47.008 c 0,0 -2.941,2.22 -2.529,10.192 0.416,7.97 0.812,12.589 -2.986,16.938 0,0 11.375,1.832 11.353,-7.922 -0.02,-9.749 1.271,-25.164 -5.838,-19.208 z"
       id="path5"
       inkscape:connector-curvature="0"
       style="fill:#ff8346" /><path
       d="M 90.969,60.726 C 91.988,80.413 76.728,97.166 56.875,98.16 37.031,99.147 20.107,83.994 19.079,64.311 18.055,44.636 33.322,27.875 53.164,26.887 73.015,25.892 89.94,41.042 90.969,60.726 Z"
       id="path7"
       inkscape:connector-curvature="0"
       style="fill:#ffcc99" /><path
       d="m 82.697,50.863 c 0,0 -2.718,-1.24 0.086,6.241 2.796,7.464 9.595,6.85 3.566,23.634 0,0 6.458,-4.07 9.319,-13.389 6.222,-20.2 -7.99,-24.326 -12.971,-16.486 z"
       id="path9"
       inkscape:connector-curvature="0"
       style="fill:#ff8346" /><path
       d="m 38.44,39.009 c 0,0 -0.311,5.648 -9.286,9.695 -8.979,4.046 -8.078,0.524 -7.771,-0.449 0,0 -3.986,2.232 -8.132,1.599 -4.142,-0.629 -3.691,-3.53 -2.85,-3.444 0.856,0.079 4.917,-0.849 8.302,-7.852 3.377,-7.006 8.567,-16.618 18.01,-11.819 0,0 1.624,-7.741 17.004,-9.708 15.382,-1.96 22.369,8.831 29.248,13.163 6.884,4.332 10.34,5.832 16.454,2.525 0,0 3.457,3.673 -4.892,8.162 0,0 2.256,7.65 10.633,10.582 0,0 -9.496,6.708 -21.834,1.885 0,0 -12.125,2.37 -22.153,-10.563 0,0 0.065,7.519 -1.695,7.758 -1.759,0.254 -11.722,-11.564 -11.722,-11.564 0,0 -0.233,8.012 -2.308,8.43 -2.074,0.419 -7.008,-8.4 -7.008,-8.4 z"
       id="path11"
       inkscape:connector-curvature="0"
       style="fill:#ff8346" /><g
       id="g13"><path
         d="m 38.44,39.009 c -0.175,0.078 -1.426,-2.308 -2.006,-5.556 -0.613,-3.25 -0.166,-5.94 0.076,-5.901 0.228,0.024 0.166,2.619 0.755,5.757 0.56,3.141 1.423,5.594 1.175,5.7 z"
         id="path15"
         inkscape:connector-curvature="0"
         style="fill:#ffb77a" /><path
         d="m 47.756,38.978 c -0.246,0.21 -2.779,-3.254 -4.392,-8.108 -0.985,-2.264 -1.323,-4.911 -2.716,-5.404 -1.411,-0.44 -2.428,0.431 -2.463,0.242 -0.066,0.049 0.695,-1.146 2.651,-0.813 2.059,0.76 2.294,3.492 3.314,5.686 1.621,4.831 3.713,8.28 3.606,8.397 z"
         id="path17"
         inkscape:connector-curvature="0"
         style="fill:#ffb77a" /><path
         d="m 60.989,42.317 c -0.44,0.242 -3.229,-6.327 -7.274,-13.956 -1.869,-3.944 -4.751,-6.783 -7.678,-6.992 -2.783,-0.365 -4.489,0.485 -4.504,0.335 -0.081,-0.051 1.573,-1.146 4.569,-0.923 3.165,0.012 6.547,3.256 8.35,7.173 4.114,7.758 6.485,14.36 6.537,14.363 z"
         id="path19"
         inkscape:connector-curvature="0"
         style="fill:#ffb77a" /><path
         d="m 104.69,51.967 c 0.058,-0.06 -4.062,1.132 -10.587,-0.254 C 87.522,50.476 79.531,45.365 72.593,38.214 65.475,31.255 60.144,23.687 54.2,20.876 48.25,17.684 44.009,20.243 44.183,20.131 c -0.354,-0.064 4.03,-2.959 10.273,0.203 6.233,2.819 11.672,10.401 18.733,17.279 6.903,7.114 14.64,12.159 21.047,13.517 6.351,1.515 10.465,0.555 10.454,0.837 z"
         id="path21"
         inkscape:connector-curvature="0"
         style="fill:#ffb77a" /><path
         d="M 82.356,53.237 C 82.363,53.289 79.642,52.279 76.411,49.108 73.15,45.995 69.394,41.082 65.209,35.74 60.997,30.439 57.147,25.593 53.512,23.063 49.915,20.237 46.891,20.861 46.961,20.96 c -0.225,-0.317 3.109,-1.188 6.893,1.616 3.842,2.491 7.807,7.343 12.02,12.656 4.206,5.349 7.857,10.294 10.958,13.456 3.061,3.221 5.606,4.38 5.524,4.549 z"
         id="path23"
         inkscape:connector-curvature="0"
         style="fill:#ffb77a" /><path
         d="m 94.527,40.88 c 0.045,-0.003 -2.592,0.614 -6.56,-0.692 -4.048,-1.179 -8.484,-5.062 -12.426,-9.777 -3.938,-4.764 -7.729,-8.856 -11.279,-10.799 -3.44,-2.099 -6.058,-2.146 -6.028,-2.252 -0.059,-0.124 2.691,-0.289 6.327,1.742 3.721,1.866 7.717,6.036 11.622,10.767 3.934,4.698 8.148,8.489 11.991,9.757 3.758,1.408 6.377,1.03 6.353,1.254 z"
         id="path25"
         inkscape:connector-curvature="0"
         style="fill:#ffb77a" /><path
         d="m 21.383,48.254 c -0.092,-0.134 4.749,-3.523 6.465,-10.614 2.097,-7.096 7.807,-10.332 7.873,-9.894 0.089,0.045 -5.039,3.285 -7.075,10.183 -1.708,7.164 -7.199,10.718 -7.263,10.325 z"
         id="path27"
         inkscape:connector-curvature="0"
         style="fill:#ffb77a" /><path
         d="m 23.189,47.4 c -0.193,-0.321 4.719,-1.865 8.62,-6.376 3.946,-4.556 4.222,-9.697 4.423,-9.623 0.273,-0.113 0.368,5.349 -3.777,10.16 -4.131,4.758 -9.315,5.949 -9.266,5.839 z"
         id="path29"
         inkscape:connector-curvature="0"
         style="fill:#ffb77a" /></g><g
       id="g31"><g
         id="g33"><path
           d="m 72.925,58.165 c -0.437,0.385 -1.878,-2.141 -4.234,-2.336 -2.401,-0.05 -4.316,2.126 -4.608,1.738 -0.328,-0.118 1.08,-2.762 4.627,-2.858 3.629,0.467 4.487,3.485 4.215,3.456 z"
           id="path35"
           inkscape:connector-curvature="0"
           style="fill:#e56946" /></g><g
         id="g37"><path
           d="m 40.934,57.311 c -0.403,0.416 -2.113,-1.958 -4.467,-2.002 -2.408,0.098 -4.078,2.311 -4.392,1.938 -0.324,-0.09 0.91,-2.822 4.442,-3.119 3.654,0.242 4.69,3.203 4.417,3.183 z"
           id="path39"
           inkscape:connector-curvature="0"
           style="fill:#e56946" /></g><g
         id="g41"><path
           d="m 49.281,77.729 c 0.071,0.103 -1.306,0.443 -2.585,-0.5 -1.21,-0.939 -1.614,-2.131 -1.488,-2.179 0.137,-0.065 0.728,0.93 1.801,1.762 1.087,0.817 2.261,0.736 2.272,0.917 z"
           id="path43"
           inkscape:connector-curvature="0"
           style="fill:#e29c5d" /></g><path
         d="m 36.337,73.646 c -0.075,1.514 -2.499,2.614 -5.403,2.458 -2.896,-0.165 -5.176,-1.537 -5.091,-3.047 0.083,-1.524 2.499,-2.622 5.401,-2.456 2.899,0.159 5.181,1.527 5.093,3.045 z"
         id="path45"
         inkscape:connector-curvature="0"
         style="fill:#ffa499" /><path
         d="m 77.055,76.708 c -0.085,1.517 -2.505,2.624 -5.407,2.448 -2.897,-0.161 -5.185,-1.517 -5.096,-3.038 0.085,-1.523 2.505,-2.621 5.407,-2.457 2.897,0.162 5.181,1.527 5.096,3.047 z"
         id="path47"
         inkscape:connector-curvature="0"
         style="fill:#ffa499" /><path
         d="m 41.639,82.384 17.172,0.675 c 0,0 0.72,10.759 -8.946,9.137 -6.7,-1.11 -8.226,-9.812 -8.226,-9.812 z"
         id="path49"
         inkscape:connector-curvature="0"
         style="fill:#ffffff" /><path
         d="m 37.825,65.717 c 0.015,1.64 -1.317,2.968 -2.974,2.98 -1.646,0 -3.002,-1.307 -3.006,-2.946 -0.02,-1.64 1.306,-2.972 2.969,-2.983 1.648,-0.011 3.001,1.306 3.011,2.949 z"
         id="path51"
         inkscape:connector-curvature="0" /><path
         d="m 70.951,67.997 c 0.011,1.644 -1.308,2.984 -2.97,2.999 -1.648,-0.003 -2.997,-1.315 -3.01,-2.952 -0.01,-1.643 1.319,-2.984 2.971,-2.99 1.656,-0.011 2.989,1.31 3.009,2.943 z"
         id="path53"
         inkscape:connector-curvature="0" /></g></g></svg>