<?xml version="1.0" encoding="UTF-8" standalone="no"?>
<!-- Created with Inkscape (http://www.inkscape.org/) -->

<svg
   xmlns:dc="http://purl.org/dc/elements/1.1/"
   xmlns:cc="http://creativecommons.org/ns#"
   xmlns:rdf="http://www.w3.org/1999/02/22-rdf-syntax-ns#"
   xmlns:svg="http://www.w3.org/2000/svg"
   xmlns="http://www.w3.org/2000/svg"
   xmlns:sodipodi="http://sodipodi.sourceforge.net/DTD/sodipodi-0.dtd"
   xmlns:inkscape="http://www.inkscape.org/namespaces/inkscape"
   width="51.649559mm"
   height="57.279346mm"
   viewBox="0 0 183.01024 202.95833"
   id="svg2"
   version="1.1"
   inkscape:version="0.91 r13725"
   sodipodi:docname="child_4.svg">
  <defs
     id="defs4" />
  <sodipodi:namedview
     id="base"
     pagecolor="#ffffff"
     bordercolor="#666666"
     borderopacity="1.0"
     inkscape:pageopacity="0.0"
     inkscape:pageshadow="2"
     inkscape:zoom="1.979899"
     inkscape:cx="121.78347"
     inkscape:cy="140.12661"
     inkscape:document-units="px"
     inkscape:current-layer="g4170"
     showgrid="false"
     fit-margin-top="0"
     fit-margin-left="0"
     fit-margin-right="0"
     fit-margin-bottom="0"
     inkscape:window-width="1920"
     inkscape:window-height="1017"
     inkscape:window-x="0"
     inkscape:window-y="870"
     inkscape:window-maximized="1" />
  <metadata
     id="metadata7">
    <rdf:RDF>
      <cc:Work
         rdf:about="">
        <dc:format>image/svg+xml</dc:format>
        <dc:type
           rdf:resource="http://purl.org/dc/dcmitype/StillImage" />
        <dc:title></dc:title>
      </cc:Work>
    </rdf:RDF>
  </metadata>
  <g
     inkscape:label="Layer 1"
     inkscape:groupmode="layer"
     id="layer1"
     transform="translate(276.67196,-88.142868)">
    <g
       id="g3356">
      <g
         id="g3406"
         transform="translate(343.45187,89.903582)">
        <g
           id="g4170"
           transform="matrix(0.97371176,-0.22778369,0.22778371,0.97371176,235.34128,-133.18396)">
          <g
             id="g4182"
             transform="translate(-16.301425,7.5982239)">
            <path
               sodipodi:nodetypes="sssssssss"
               inkscape:connector-curvature="0"
               id="path3384"
               d="m -873.01965,51.467504 c 4.94547,-18.456716 8.80245,-35.332338 27.99907,-43.1522539 19.19662,-7.81992829 44.70821,9.1150429 69.0558,15.6389589 24.34759,6.523917 54.90876,4.613595 67.62355,20.984159 12.71481,16.370559 7.61725,32.913769 2.67179,51.370485 -4.94546,18.456717 -25.82703,31.609077 -45.02366,39.428997 -19.19662,7.81992 -32.21296,11.51191 -56.56055,4.988 -24.34759,-6.52392 -41.46953,-19.69234 -54.18432,-36.06289 -12.7148,-16.370565 -16.52714,-34.738743 -11.58168,-53.195456 z"
               style="fill:#e5ac6c;fill-opacity:1;stroke:#d1b1a1;stroke-width:4.5999999;stroke-miterlimit:4;stroke-dasharray:none;stroke-opacity:1" />
            <path
               style="fill:#a19072;fill-opacity:1;stroke:none;stroke-width:4.5999999;stroke-miterlimit:4;stroke-dasharray:none;stroke-opacity:1"
               d="m -790.61778,95.395795 c -7.34439,-1.56126 1.20986,-31.223148 7.02213,-31.359578 0,0 0.32225,32.920848 -7.02213,31.359578 z"
               id="path6700"
               inkscape:connector-curvature="0"
               sodipodi:nodetypes="zsz" />
            <g
               id="g4145"
               transform="matrix(0.88744983,0.4609043,-0.46090435,0.88744983,-40.91359,370.94392)">
              <path
                 sodipodi:nodetypes="cccc"
                 style="fill:#ffffff;fill-opacity:1;stroke:#a19072;stroke-width:4.5999999;stroke-miterlimit:4;stroke-dasharray:none;stroke-opacity:1"
                 d="m -806.6894,82.234612 c -14.06427,-5.641872 -32.51323,-1.970073 -41.90308,11.407667 4.95728,5.017105 11.85097,7.615831 18.96117,7.147821 10.65773,-0.73076 19.86391,-8.176745 22.94191,-18.555488 z"
                 id="path3396"
                 inkscape:connector-curvature="0" />
              <ellipse
                 ry="6.0527005"
                 rx="5.9821429"
                 cy="90.524513"
                 cx="-826.55396"
                 id="path4143"
                 style="opacity:1;fill:#2e3436;fill-opacity:1;stroke:none;stroke-width:40;stroke-linecap:round;stroke-linejoin:miter;stroke-miterlimit:4;stroke-dasharray:none;stroke-opacity:1" />
            </g>
            <g
               id="g4149"
               transform="matrix(0.88220028,0.47087434,-0.4708744,0.88220027,13.38917,387.36707)">
              <path
                 inkscape:connector-curvature="0"
                 id="path4151"
                 d="m -806.6894,82.234612 c -14.06427,-5.641872 -32.51323,-1.970073 -41.90308,11.407667 4.95728,5.017105 11.85097,7.615831 18.96117,7.147821 10.65773,-0.73076 19.86391,-8.176745 22.94191,-18.555488 z"
                 style="fill:#ffffff;fill-opacity:1;stroke:#a19072;stroke-width:4.5999999;stroke-miterlimit:4;stroke-dasharray:none;stroke-opacity:1"
                 sodipodi:nodetypes="cccc" />
              <ellipse
                 style="opacity:1;fill:#2e3436;fill-opacity:1;stroke:none;stroke-width:40;stroke-linecap:round;stroke-linejoin:miter;stroke-miterlimit:4;stroke-dasharray:none;stroke-opacity:1"
                 id="ellipse4153"
                 cx="-826.55396"
                 cy="90.524513"
                 rx="5.9821429"
                 ry="6.0527005" />
            </g>
            <path
               sodipodi:nodetypes="sscccsssssssssss"
               inkscape:connector-curvature="0"
               id="path3387"
               d="m -792.06611,72.083324 c -11.38557,-4.744067 -19.94067,-36.948432 -29.03063,-42.853184 -9.08998,-5.904762 -37.94564,23.500956 -44.029,17.174869 -7.5198,-14.724158 0.0156,-30.960182 5.7472,-44.3199362 4.94473,-11.5809123 15.72777,-21.3632358 30.23023,-25.2414298 9.15263,-4.795607 41.77928,-4.580891 53.09611,-6.722845 11.31684,-2.14195 -25.65751,-27.527079 20.86841,-20.426117 48.14156,7.347558 -1.54123,22.651716 8.2062,28.553125 9.74741,5.901407 32.87437,24.7913265 39.64176,32.483776 6.76741,7.692451 9.62199,17.111775 12.83391,24.598399 3.21194,7.486629 2.44796,14.5958 1.69971,19.906607 l -2.16341,15.354974 c -0.74826,5.3108 -23.68067,-10.137031 -29.61263,-7.586406 -5.93194,2.550643 -14.33725,7.821924 -23.11271,7.956746 -8.77546,0.134806 -9.71652,-13.4423 -20.30988,-15.739063 -10.59333,-2.29674 -12.67967,21.604566 -24.06527,16.860485 z"
               style="fill:#613c01;fill-opacity:1;stroke:#442a01;stroke-width:4.5999999;stroke-miterlimit:4;stroke-dasharray:none;stroke-opacity:1" />
            <path
               inkscape:connector-curvature="0"
               id="path4151-3"
               d="m -754.1474,117.56758 c -15.89965,-4.37686 -52.9129,-2.80052 -69.53137,-8.4089 3.15227,6.30946 16.84052,17.86329 23.74399,19.62852 10.35695,2.61817 39.63583,-2.31171 45.78738,-11.21962 z"
               style="fill:#e5ac6c;fill-opacity:1;stroke:#962c2c;stroke-width:4.5999999;stroke-miterlimit:4;stroke-dasharray:none;stroke-opacity:1"
               sodipodi:nodetypes="cccc" />
          </g>
        </g>
      </g>
    </g>
  </g>
</svg>
