<?xml version="1.0" encoding="UTF-8" standalone="no"?>
<!-- Created with Inkscape (http://www.inkscape.org/) -->

<svg
   xmlns:dc="http://purl.org/dc/elements/1.1/"
   xmlns:cc="http://creativecommons.org/ns#"
   xmlns:rdf="http://www.w3.org/1999/02/22-rdf-syntax-ns#"
   xmlns:svg="http://www.w3.org/2000/svg"
   xmlns="http://www.w3.org/2000/svg"
   xmlns:sodipodi="http://sodipodi.sourceforge.net/DTD/sodipodi-0.dtd"
   xmlns:inkscape="http://www.inkscape.org/namespaces/inkscape"
   width="52.629887mm"
   height="49.394394mm"
   viewBox="0 0 186.48384 175.01952"
   id="svg2"
   version="1.1"
   inkscape:version="0.91 r13725"
   sodipodi:docname="child_1.svg">
  <defs
     id="defs4" />
  <sodipodi:namedview
     id="base"
     pagecolor="#ffffff"
     bordercolor="#666666"
     borderopacity="1.0"
     inkscape:pageopacity="0.0"
     inkscape:pageshadow="2"
     inkscape:zoom="1.4"
     inkscape:cx="-10.818105"
     inkscape:cy="49.851815"
     inkscape:document-units="px"
     inkscape:current-layer="g4182"
     showgrid="false"
     fit-margin-top="0"
     fit-margin-left="0"
     fit-margin-right="0"
     fit-margin-bottom="0"
     inkscape:window-width="1920"
     inkscape:window-height="1017"
     inkscape:window-x="0"
     inkscape:window-y="870"
     inkscape:window-maximized="1" />
  <metadata
     id="metadata7">
    <rdf:RDF>
      <cc:Work
         rdf:about="">
        <dc:format>image/svg+xml</dc:format>
        <dc:type
           rdf:resource="http://purl.org/dc/dcmitype/StillImage" />
        <dc:title></dc:title>
      </cc:Work>
    </rdf:RDF>
  </metadata>
  <g
     inkscape:label="Layer 1"
     inkscape:groupmode="layer"
     id="layer1"
     transform="translate(276.02752,-116.08167)">
    <g
       id="g3356">
      <g
         id="g3406"
         transform="translate(343.45187,89.903582)">
        <g
           id="g4170"
           transform="matrix(0.97371176,-0.22778369,0.22778371,0.97371176,235.34128,-133.18396)">
          <g
             id="g4182"
             transform="translate(-16.301425,7.5982239)">
            <g
               id="g4218">
              <path
                 style="fill:#f6e3cd;fill-opacity:1;stroke:#d1b1a1;stroke-width:4.5999999;stroke-miterlimit:4;stroke-dasharray:none;stroke-opacity:1"
                 d="m -873.01965,51.467504 c 4.94547,-18.456716 8.80245,-35.332338 27.99907,-43.1522539 19.19662,-7.81992829 44.70821,9.1150429 69.0558,15.6389589 24.34759,6.523917 54.90876,4.613595 67.62355,20.984159 12.71481,16.370559 7.61725,32.913769 2.67179,51.370485 -4.94546,18.456717 -25.82703,31.609077 -45.02366,39.428997 -19.19662,7.81992 -32.21296,11.51191 -56.56055,4.988 -24.34759,-6.52392 -41.46953,-19.69234 -54.18432,-36.06289 -12.7148,-16.370565 -16.52714,-34.738743 -11.58168,-53.195456 z"
                 id="path3384"
                 inkscape:connector-curvature="0"
                 sodipodi:nodetypes="sssssssss" />
              <path
                 sodipodi:nodetypes="sss"
                 inkscape:connector-curvature="0"
                 id="path6700"
                 d="m -795.40499,93.909122 c -7.42814,-1.095582 18.01645,-47.347271 13.70277,-36.398884 0,0 0.84075,38.543918 -13.70277,36.398884 z"
                 style="fill:#a19072;fill-opacity:1;stroke:#a19072;stroke-width:4.5999999;stroke-miterlimit:4;stroke-dasharray:none;stroke-opacity:1" />
              <g
                 transform="matrix(0.88744983,0.4609043,-0.46090435,0.88744983,-47.565575,363.25224)"
                 id="g4145">
                <path
                   inkscape:connector-curvature="0"
                   id="path3396"
                   d="m -806.6894,82.234612 c -14.06427,-5.641872 -32.51323,-1.970073 -41.90308,11.407667 4.95728,5.017105 6.12457,5.387942 13.23477,4.919932 10.65773,-0.73076 25.59031,-5.948856 28.66831,-16.327599 z"
                   style="fill:#ffffff;fill-opacity:1;stroke:#a19072;stroke-width:4.5999999;stroke-miterlimit:4;stroke-dasharray:none;stroke-opacity:1"
                   sodipodi:nodetypes="cccc" />
                <ellipse
                   style="opacity:1;fill:#2e3436;fill-opacity:1;stroke:none;stroke-width:40;stroke-linecap:round;stroke-linejoin:miter;stroke-miterlimit:4;stroke-dasharray:none;stroke-opacity:1"
                   id="path4143"
                   cx="-826.90784"
                   cy="88.771942"
                   rx="5.9821429"
                   ry="6.0527005" />
              </g>
              <g
                 transform="matrix(0.88220028,0.47087434,-0.4708744,0.88220027,19.76205,388.49111)"
                 id="g4149">
                <path
                   sodipodi:nodetypes="cccc"
                   style="fill:#ffffff;fill-opacity:1;stroke:#a19072;stroke-width:4.5999999;stroke-miterlimit:4;stroke-dasharray:none;stroke-opacity:1"
                   d="m -806.6894,82.234612 c -14.06427,-5.641872 -32.51323,-1.970073 -41.90308,11.407667 4.95728,5.017105 8.72229,6.971291 15.83249,6.503281 10.65773,-0.730757 22.99259,-7.532205 26.07059,-17.910948 z"
                   id="path4151"
                   inkscape:connector-curvature="0" />
                <ellipse
                   ry="6.0527005"
                   rx="5.9821429"
                   cy="89.650192"
                   cx="-827.43384"
                   id="ellipse4153"
                   style="opacity:1;fill:#2e3436;fill-opacity:1;stroke:none;stroke-width:40;stroke-linecap:round;stroke-linejoin:miter;stroke-miterlimit:4;stroke-dasharray:none;stroke-opacity:1" />
              </g>
              <path
                 style="fill:#fdb643;fill-opacity:1;stroke:#d58303;stroke-width:4.5999999;stroke-miterlimit:4;stroke-dasharray:none;stroke-opacity:1"
                 d="m -795.99165,55.60364 c -11.38557,-4.744067 -26.48956,-24.475203 -35.57952,-30.379955 -9.08998,-5.904762 -23.77829,20.590623 -29.86165,14.264536 -7.5198,-14.724158 -3.28389,-24.93281 2.05428,-37.4031482 5.33817,-12.4703378 17.46917,-20.9018848 49.51974,-25.6567368 32.05057,-4.754851 69.5598,-5.177773 102.52297,34.303246 12.57365,15.059846 12.95862,36.646932 17.34003,56.354177 1.16397,5.235425 -43.01885,-25.035124 -48.95081,-22.484499 -5.93194,2.550643 1.29664,20.816034 -7.47882,20.950856 -8.77546,0.134806 -22.77637,-26.352968 -33.36973,-28.649731 -10.59333,-2.29674 -4.81089,23.445336 -16.19649,18.701255 z"
                 id="path3387"
                 inkscape:connector-curvature="0"
                 sodipodi:nodetypes="ssczzscssss" />
              <path
                 sodipodi:nodetypes="cczc"
                 style="fill:#f6e3cd;fill-opacity:1;stroke:#962c2c;stroke-width:4.5999999;stroke-linecap:round;stroke-linejoin:round;stroke-miterlimit:4;stroke-dasharray:none;stroke-opacity:1"
                 d="m -831.46215,91.778593 c 16.19127,3.130277 48.66437,20.961807 66.04616,23.307217 -5.62398,4.2564 -21.28023,8.92306 -29.9871,7.05903 -8.70687,-1.86403 -34.49733,-19.65394 -36.05906,-30.366247 z"
                 id="path4151-3"
                 inkscape:connector-curvature="0" />
            </g>
          </g>
        </g>
      </g>
    </g>
  </g>
</svg>
