<?xml version="1.0" encoding="UTF-8" standalone="no"?>
<!-- Created with Inkscape (http://www.inkscape.org/) -->

<svg
   xmlns:dc="http://purl.org/dc/elements/1.1/"
   xmlns:cc="http://creativecommons.org/ns#"
   xmlns:rdf="http://www.w3.org/1999/02/22-rdf-syntax-ns#"
   xmlns:svg="http://www.w3.org/2000/svg"
   xmlns="http://www.w3.org/2000/svg"
   xmlns:sodipodi="http://sodipodi.sourceforge.net/DTD/sodipodi-0.dtd"
   xmlns:inkscape="http://www.inkscape.org/namespaces/inkscape"
   width="66.10553mm"
   height="40.355209mm"
   viewBox="0 0 234.23219 142.99091"
   id="svg2"
   version="1.1"
   inkscape:version="0.91 r13725"
   sodipodi:docname="child_2.svg">
  <defs
     id="defs4" />
  <sodipodi:namedview
     id="base"
     pagecolor="#ffffff"
     bordercolor="#666666"
     borderopacity="1.0"
     inkscape:pageopacity="0.0"
     inkscape:pageshadow="2"
     inkscape:zoom="0.98994949"
     inkscape:cx="42.870265"
     inkscape:cy="89.555884"
     inkscape:document-units="px"
     inkscape:current-layer="g3406"
     showgrid="false"
     fit-margin-top="0"
     fit-margin-left="0"
     fit-margin-right="0"
     fit-margin-bottom="0"
     inkscape:window-width="1920"
     inkscape:window-height="1025"
     inkscape:window-x="0"
     inkscape:window-y="867"
     inkscape:window-maximized="1" />
  <metadata
     id="metadata7">
    <rdf:RDF>
      <cc:Work
         rdf:about="">
        <dc:format>image/svg+xml</dc:format>
        <dc:type
           rdf:resource="http://purl.org/dc/dcmitype/StillImage" />
        <dc:title></dc:title>
      </cc:Work>
    </rdf:RDF>
  </metadata>
  <g
     inkscape:label="Layer 1"
     inkscape:groupmode="layer"
     id="layer1"
     transform="translate(314.95646,-121.08697)">
    <g
       id="g3356">
      <g
         id="g3406"
         transform="translate(343.45187,89.903582)">
        <path
           sodipodi:nodetypes="sssssssss"
           inkscape:connector-curvature="0"
           id="path3384"
           d="m -428.74564,102.67883 c 0,19.1078 0.82791,36.40666 -20.46849,48.92857 -21.29639,12.52192 -58.71708,2.76688 -91.21428,2.76688 -32.4972,0 -69.91789,9.75504 -91.21428,-2.76688 -21.2964,-12.52191 -20.46849,-29.82077 -20.46849,-48.92857 0,-19.107795 -0.82791,-36.406657 20.46849,-48.92857 21.29639,-12.521913 58.71708,-20.266877 91.21428,-20.266877 32.4972,0 69.91789,7.744964 91.21428,20.266877 21.2964,12.521913 20.46849,29.820775 20.46849,48.92857 z"
           style="fill:#7d4e16;fill-opacity:1;stroke:#4f3527;stroke-width:4.5999999;stroke-miterlimit:4;stroke-dasharray:none;stroke-opacity:1" />
        <path
           sodipodi:nodetypes="sssssssssssss"
           inkscape:connector-curvature="0"
           id="path3387"
           d="m -541.2922,50.918044 c 15.902,0 42.05224,26.43657 55.79787,28.390915 13.74564,1.954344 15.08667,-20.573537 25.46317,-17.073868 10.37651,3.499669 18.76527,7.669745 24.5599,12.305717 5.79463,4.635973 8.99513,9.737843 8.99513,15.1011 l 0,53.865332 c 0,21.45304 -51.20804,26.7239 -114.81607,26.7239 -63.60814,0 -114.81613,-5.27086 -114.81613,-26.7239 l 0,-53.865332 c 0,-5.363257 33.20816,0.249159 39.0028,-4.386814 5.79461,-4.635973 -15.8243,-19.520334 -5.44778,-23.020003 10.37651,-3.499669 47.23681,15.456784 60.98246,13.502439 13.74564,-1.954344 4.37661,-24.819486 20.27865,-24.819486 z"
           style="fill:#311e01;fill-opacity:1;stroke:#673f01;stroke-width:4.5999999;stroke-miterlimit:4;stroke-dasharray:none;stroke-opacity:1" />
        <path
           style="fill:#ffffff;fill-opacity:1;stroke:#383936;stroke-width:4.5999999;stroke-miterlimit:4;stroke-dasharray:none;stroke-opacity:1"
           d="m -522.44001,34.75744 c 18.36244,1.679557 37.54314,5.708499 54.02312,11.407667 a 32.324883,25.253811 2.9920396 0 1 -24.44549,7.147818 32.324883,25.253811 2.9920396 0 1 -29.57763,-18.555485 z"
           id="path3394"
           inkscape:connector-curvature="0" />
        <path
           inkscape:connector-curvature="0"
           id="path3396"
           d="m -559.1729,34.75744 c -18.36244,1.679557 -37.54314,5.708499 -54.02312,11.407667 a 25.253811,32.324883 87.00796 0 0 24.44549,7.147818 25.253811,32.324883 87.00796 0 0 29.57763,-18.555485 z"
           style="fill:#ffffff;fill-opacity:1;stroke:#383837;stroke-width:4.5999999;stroke-miterlimit:4;stroke-dasharray:none;stroke-opacity:1" />
        <path
           inkscape:connector-curvature="0"
           id="path3398"
           d="m -509.30803,46.121653 c 7.39815,0.676687 15.12598,2.299931 21.76569,4.596102 a 13.023561,10.174656 2.9920396 0 1 -9.84899,2.879826 13.023561,10.174656 2.9920396 0 1 -11.9167,-7.475928 z"
           style="fill:#2e3436;fill-opacity:1;stroke:none;stroke-width:4.5999999;stroke-miterlimit:4;stroke-dasharray:none;stroke-opacity:1" />
        <path
           style="fill:#2e3436;fill-opacity:1;stroke:none;stroke-width:4.5999999;stroke-miterlimit:4;stroke-dasharray:none;stroke-opacity:1"
           d="m -571.96967,46.121653 c -7.39815,0.676687 -15.12598,2.299931 -21.76569,4.596102 a 10.174656,13.023561 87.00796 0 0 9.84899,2.879826 10.174656,13.023561 87.00796 0 0 11.9167,-7.475928 z"
           id="path3402"
           inkscape:connector-curvature="0" />
      </g>
    </g>
  </g>
</svg>
