<?xml version="1.0" encoding="UTF-8" standalone="no"?>
<!-- Created with Inkscape (http://www.inkscape.org/) -->

<svg
   xmlns:dc="http://purl.org/dc/elements/1.1/"
   xmlns:cc="http://creativecommons.org/ns#"
   xmlns:rdf="http://www.w3.org/1999/02/22-rdf-syntax-ns#"
   xmlns:svg="http://www.w3.org/2000/svg"
   xmlns="http://www.w3.org/2000/svg"
   xmlns:sodipodi="http://sodipodi.sourceforge.net/DTD/sodipodi-0.dtd"
   xmlns:inkscape="http://www.inkscape.org/namespaces/inkscape"
   width="42.512112mm"
   height="66.10553mm"
   viewBox="0 0 150.63347 234.23221"
   id="svg2"
   version="1.1"
   inkscape:version="0.91 r13725"
   sodipodi:docname="child_head.svg">
  <defs
     id="defs4" />
  <sodipodi:namedview
     id="base"
     pagecolor="#ffffff"
     bordercolor="#666666"
     borderopacity="1.0"
     inkscape:pageopacity="0.0"
     inkscape:pageshadow="2"
     inkscape:zoom="2.8"
     inkscape:cx="106.16287"
     inkscape:cy="40.15981"
     inkscape:document-units="px"
     inkscape:current-layer="g3406"
     showgrid="false"
     fit-margin-top="0"
     fit-margin-left="0"
     fit-margin-right="0"
     fit-margin-bottom="0"
     inkscape:window-width="2560"
     inkscape:window-height="1330"
     inkscape:window-x="0"
     inkscape:window-y="54"
     inkscape:window-maximized="1" />
  <metadata
     id="metadata7">
    <rdf:RDF>
      <cc:Work
         rdf:about="">
        <dc:format>image/svg+xml</dc:format>
        <dc:type
           rdf:resource="http://purl.org/dc/dcmitype/StillImage" />
        <dc:title></dc:title>
      </cc:Work>
    </rdf:RDF>
  </metadata>
  <g
     inkscape:label="Layer 1"
     inkscape:groupmode="layer"
     id="layer1"
     transform="translate(277.79995,-74.644743)">
    <g
       id="g3356">
      <g
         id="g3406"
         transform="translate(343.45187,89.903582)">
        <path
           sodipodi:nodetypes="sssssssss"
           inkscape:connector-curvature="0"
           id="path3384"
           d="m -542.1138,214.40385 c -19.1078,0 -36.40666,0.82791 -48.92857,-20.46849 -12.52192,-21.29639 -2.76688,-58.71708 -2.76688,-91.21428 0,-32.497199 -9.75504,-69.917888 2.76688,-91.214279 12.52191,-21.2963995 29.82077,-20.4684895 48.92857,-20.4684895 19.1078,0 36.40666,-0.82791 48.92857,20.4684895 12.52191,21.29639 20.26688,58.71708 20.26688,91.214279 0,32.4972 -7.74497,69.91789 -20.26688,91.21428 -12.52191,21.2964 -29.82077,20.46849 -48.92857,20.46849 z"
           style="fill:#f6e3cd;fill-opacity:1;stroke:#d1b1a1;stroke-width:4.5999999;stroke-miterlimit:4;stroke-dasharray:none;stroke-opacity:1" />
        <path
           sodipodi:nodetypes="sssssssssssss"
           inkscape:connector-curvature="0"
           id="path3387"
           d="m -490.35301,101.85729 c 0,15.902 -26.43657,42.05224 -28.39092,55.79787 -1.95434,13.74564 20.57354,15.08667 17.07387,25.46317 -3.49967,10.37651 -7.66974,18.76527 -12.30572,24.5599 -4.63597,5.79463 -9.73784,8.99513 -15.1011,8.99513 l -53.86533,0 c -21.45304,0 -36.00961,-51.20804 -36.00961,-114.81607 0,-63.608139 14.55657,-114.816129 36.00961,-114.816129 l 53.86533,0 c 5.36326,0 -0.24916,33.20816 4.38682,39.0028 4.63597,5.79461 19.52033,-15.8243 23.02,-5.44778 3.49967,10.37651 -15.45678,47.23681 -13.50244,60.98246 1.95435,13.74564 24.81949,4.37661 24.81949,20.278649 z"
           style="fill:#613c01;fill-opacity:1;stroke:#442a01;stroke-width:4.5999999;stroke-miterlimit:4;stroke-dasharray:none;stroke-opacity:1" />
        <path
           style="fill:#ffffff;fill-opacity:1;stroke:#888a85;stroke-width:4.5999999;stroke-miterlimit:4;stroke-dasharray:none;stroke-opacity:1"
           d="m -474.19241,120.70948 c -1.67956,18.36244 -5.7085,37.54314 -11.40767,54.02312 a 25.253811,32.324883 2.9920396 0 1 -7.14781,-24.44549 25.253811,32.324883 2.9920396 0 1 18.55548,-29.57763 z"
           id="path3394"
           inkscape:connector-curvature="0" />
        <path
           inkscape:connector-curvature="0"
           id="path3396"
           d="m -474.19241,83.976591 c -1.67956,-18.36244 -5.7085,-37.54314 -11.40767,-54.02312 a 32.324883,25.253811 87.00796 0 0 -7.14781,24.44549 32.324883,25.253811 87.00796 0 0 18.55548,29.57763 z"
           style="fill:#ffffff;fill-opacity:1;stroke:#888a85;stroke-width:4.5999999;stroke-miterlimit:4;stroke-dasharray:none;stroke-opacity:1" />
        <path
           inkscape:connector-curvature="0"
           id="path3398"
           d="m -485.55662,133.84146 c -0.67669,7.39815 -2.29993,15.12598 -4.5961,21.76569 a 10.174656,13.023561 2.9920396 0 1 -2.87983,-9.84899 10.174656,13.023561 2.9920396 0 1 7.47593,-11.9167 z"
           style="fill:#2e3436;fill-opacity:1;stroke:none;stroke-width:4.5999999;stroke-miterlimit:4;stroke-dasharray:none;stroke-opacity:1" />
        <path
           style="fill:#2e3436;fill-opacity:1;stroke:none;stroke-width:4.5999999;stroke-miterlimit:4;stroke-dasharray:none;stroke-opacity:1"
           d="m -485.55662,71.179822 c -0.67669,-7.39815 -2.29993,-15.125981 -4.5961,-21.76569 a 13.023561,10.174656 87.00796 0 0 -2.87983,9.84899 13.023561,10.174656 87.00796 0 0 7.47593,11.9167 z"
           id="path3402"
           inkscape:connector-curvature="0" />
      </g>
    </g>
  </g>
</svg>
