<?xml version="1.0" encoding="UTF-8" standalone="no"?>
<!-- Created with Inkscape (http://www.inkscape.org/) -->

<svg
   xmlns:dc="http://purl.org/dc/elements/1.1/"
   xmlns:cc="http://creativecommons.org/ns#"
   xmlns:rdf="http://www.w3.org/1999/02/22-rdf-syntax-ns#"
   xmlns:svg="http://www.w3.org/2000/svg"
   xmlns="http://www.w3.org/2000/svg"
   xmlns:sodipodi="http://sodipodi.sourceforge.net/DTD/sodipodi-0.dtd"
   xmlns:inkscape="http://www.inkscape.org/namespaces/inkscape"
   width="51.686825mm"
   height="50.165768mm"
   viewBox="0 0 183.14229 177.75273"
   id="svg2"
   version="1.1"
   inkscape:version="0.91 r13725"
   sodipodi:docname="child_5.svg">
  <defs
     id="defs4" />
  <sodipodi:namedview
     id="base"
     pagecolor="#ffffff"
     bordercolor="#666666"
     borderopacity="1.0"
     inkscape:pageopacity="0.0"
     inkscape:pageshadow="2"
     inkscape:zoom="0.98994949"
     inkscape:cx="17.821739"
     inkscape:cy="227.46778"
     inkscape:document-units="px"
     inkscape:current-layer="g3406"
     showgrid="false"
     fit-margin-top="0"
     fit-margin-left="0"
     fit-margin-right="0"
     fit-margin-bottom="0"
     inkscape:window-width="1920"
     inkscape:window-height="1025"
     inkscape:window-x="0"
     inkscape:window-y="867"
     inkscape:window-maximized="1" />
  <metadata
     id="metadata7">
    <rdf:RDF>
      <cc:Work
         rdf:about="">
        <dc:format>image/svg+xml</dc:format>
        <dc:type
           rdf:resource="http://purl.org/dc/dcmitype/StillImage" />
        <dc:title></dc:title>
      </cc:Work>
    </rdf:RDF>
  </metadata>
  <g
     inkscape:label="Layer 1"
     inkscape:groupmode="layer"
     id="layer1"
     transform="translate(289.19757,-121.08697)">
    <g
       id="g3356">
      <g
         id="g3406"
         transform="translate(343.45187,89.903582)">
        <path
           sodipodi:nodetypes="sssssssss"
           inkscape:connector-curvature="0"
           id="path3384"
           d="m -453.99537,102.67883 c 0,19.1078 0.64217,36.40666 -15.8764,48.92857 -16.51856,12.52192 -45.54396,2.76688 -70.75044,2.76688 -25.20648,0 -54.23187,9.75504 -70.75043,-2.76688 -16.51858,-12.52191 -15.87641,-29.82077 -15.87641,-48.92857 0,-19.107795 -0.64217,-36.406657 15.87641,-48.92857 16.51856,-12.521913 45.54395,-20.266877 70.75043,-20.266877 25.20648,0 54.23188,7.744964 70.75044,20.266877 16.51857,12.521913 15.8764,29.820775 15.8764,48.92857 z"
           style="fill:#f6e3cd;fill-opacity:1;stroke:#d1b1a1;stroke-width:4.5999999;stroke-miterlimit:4;stroke-dasharray:none;stroke-opacity:1" />
        <path
           sodipodi:nodetypes="sscccsssssssssss"
           inkscape:connector-curvature="0"
           id="path3387"
           d="m -541.29221,50.918044 c 12.3344,0 32.61786,26.43657 43.27967,28.390915 10.66182,1.954344 25.9877,-36.287823 34.03624,-32.788154 12.60455,10.69923 11.89352,28.584565 11.74128,43.121103 2.03275,31.877612 -2.66475,53.186222 -25.90256,71.230602 -8.19555,6.29298 -38.6514,16.46132 -49.43384,20.51073 -10.78244,4.04941 32.32361,24.23714 -14.73095,25.2134 -48.68855,1.01015 -4.84325,-21.22697 -15.45771,-25.37088 -10.61447,-4.14391 -38.82951,-14.43828 -46.81492,-20.85737 -7.98542,-6.41909 -14.42903,-13.50858 -18.87628,-20.33412 -4.44726,-6.82554 -6.89816,-13.38713 -6.89816,-18.75039 l 0,-31.641972 c 0,-5.363257 25.75794,0.249159 30.25256,-4.386814 4.49459,-4.635973 10.22586,-12.734619 18.27442,-16.234288 8.04855,-3.499669 14.13927,8.671069 24.8011,6.716724 10.66182,-1.954344 3.39472,-24.819486 15.72915,-24.819486 z"
           style="fill:#d79c3f;fill-opacity:1;stroke:#daac63;stroke-width:4.5999999;stroke-miterlimit:4;stroke-dasharray:none;stroke-opacity:1" />
        <path
           style="fill:#ffffff;fill-opacity:1;stroke:#888a85;stroke-width:4.5999999;stroke-miterlimit:4;stroke-dasharray:none;stroke-opacity:1"
           d="m -526.66949,34.75744 c 14.24284,1.679557 29.12037,5.708499 41.90308,11.407667 a 25.509989,24.821036 54.147572 0 1 -18.96116,7.147818 25.509989,24.821036 54.147572 0 1 -22.94192,-18.555485 z"
           id="path3394"
           inkscape:connector-curvature="0" />
        <path
           inkscape:connector-curvature="0"
           id="path3396"
           d="m -555.16139,34.75744 c -14.24284,1.679557 -29.12037,5.708499 -41.90308,11.407667 a 24.821036,25.509989 35.852429 0 0 18.96117,7.147818 24.821036,25.509989 35.852429 0 0 22.94191,-18.555485 z"
           style="fill:#ffffff;fill-opacity:1;stroke:#888a85;stroke-width:4.5999999;stroke-miterlimit:4;stroke-dasharray:none;stroke-opacity:1" />
        <path
           inkscape:connector-curvature="0"
           id="path3398"
           d="m -516.48366,46.121653 c 5.73838,0.676687 11.73248,2.299931 16.88258,4.596102 a 10.277869,10.000293 54.147624 0 1 -7.63938,2.879826 10.277869,10.000293 54.147624 0 1 -9.2432,-7.475928 z"
           style="fill:#2e3436;fill-opacity:1;stroke:none;stroke-width:4.5999999;stroke-miterlimit:4;stroke-dasharray:none;stroke-opacity:1" />
        <path
           style="fill:#2e3436;fill-opacity:1;stroke:none;stroke-width:4.5999999;stroke-miterlimit:4;stroke-dasharray:none;stroke-opacity:1"
           d="m -565.08721,46.121653 c -5.73839,0.676687 -11.73248,2.299931 -16.88258,4.596102 a 10.000293,10.277869 35.852376 0 0 7.63938,2.879826 10.000293,10.277869 35.852376 0 0 9.2432,-7.475928 z"
           id="path3402"
           inkscape:connector-curvature="0" />
        <path
           style="fill:#204a87;fill-opacity:1;stroke:#204a87;stroke-width:4.5999999;stroke-miterlimit:4;stroke-dasharray:none;stroke-opacity:1"
           d="m -527.2839,183.11291 c -0.35714,7.5 -31.00994,3.83825 -32.08136,-1.87604 0,0 32.43851,-5.62396 32.08136,1.87604 z"
           id="path6700"
           inkscape:connector-curvature="0"
           sodipodi:nodetypes="zsz" />
      </g>
    </g>
  </g>
</svg>
