<?xml version="1.0" encoding="UTF-8" standalone="no"?>
<!-- Generator: Adobe Illustrator 15.1.0, SVG Export Plug-In . SVG Version: 6.00 Build 0)  -->

<svg
   xmlns:dc="http://purl.org/dc/elements/1.1/"
   xmlns:cc="http://creativecommons.org/ns#"
   xmlns:rdf="http://www.w3.org/1999/02/22-rdf-syntax-ns#"
   xmlns:svg="http://www.w3.org/2000/svg"
   xmlns="http://www.w3.org/2000/svg"
   xmlns:sodipodi="http://sodipodi.sourceforge.net/DTD/sodipodi-0.dtd"
   xmlns:inkscape="http://www.inkscape.org/namespaces/inkscape"
   version="1.1"
   id="Calque_1"
   x="0px"
   y="0px"
   width="115px"
   height="115px"
   viewBox="0 0 115 115"
   enable-background="new 0 0 115 115"
   xml:space="preserve"
   inkscape:version="0.91 r13725"
   sodipodi:docname="child-face-girl.svg"><metadata
     id="metadata67"><rdf:RDF><cc:Work
         rdf:about=""><dc:format>image/svg+xml</dc:format><dc:type
           rdf:resource="http://purl.org/dc/dcmitype/StillImage" /><dc:title></dc:title></cc:Work></rdf:RDF></metadata><defs
     id="defs65" /><sodipodi:namedview
     pagecolor="#ffffff"
     bordercolor="#666666"
     borderopacity="1"
     objecttolerance="10"
     gridtolerance="10"
     guidetolerance="10"
     inkscape:pageopacity="0"
     inkscape:pageshadow="2"
     inkscape:window-width="1920"
     inkscape:window-height="1017"
     id="namedview63"
     showgrid="false"
     inkscape:zoom="5.8044244"
     inkscape:cx="38.883361"
     inkscape:cy="49.944424"
     inkscape:window-x="0"
     inkscape:window-y="870"
     inkscape:window-maximized="1"
     inkscape:current-layer="Calque_1" /><g
     id="g3"
     transform="matrix(1.1519373,-0.30866068,0.30866068,1.1519373,-31.570059,6.696278)"><path
       d="m 92.218,75.755 c 0,0 3.557,-2.958 4.577,-1.922 1.021,1.035 0.815,2.57 0.815,2.57 0,0 3.806,-0.681 2.905,2.432 0,0 5.613,3.713 0.596,6.164 0,0 1.823,5.661 -2.975,4.519 0,0 -0.021,1.421 -2.687,0.632 0,0 -0.892,3.75 -2.169,3.127 -1.277,-0.622 -1.522,-2.261 -1.522,-2.261 0,0 -1.133,2.104 -2.757,0.926 -1.619,-1.178 -1.229,-2.823 -1.229,-2.823 0,0 -3.111,-0.901 -2.471,-3.6 0.642,-2.7 6.917,-9.764 6.917,-9.764 z"
       id="path5"
       inkscape:connector-curvature="0"
       style="fill:#2d0f1d" /><path
       d="m 28.08,57.847 c 0,0 -1.564,-4.948 -3.158,-4.588 -1.593,0.357 -2.329,1.936 -2.329,1.936 0,0 -3.183,-2.952 -4.222,0.533 0,0 -7.55,0.104 -4.297,5.461 0,0 -5.155,4.242 0.07,6.073 0,0 -0.842,1.354 2.154,2.222 0,0 -1.432,4.08 0.153,4.271 1.583,0.188 2.81,-1.215 2.81,-1.215 0,0 -0.208,2.678 2.039,2.549 2.244,-0.129 2.875,-1.924 2.875,-1.924 0,0 3.486,1.038 4.517,-1.901 1.03,-2.938 -0.612,-13.417 -0.612,-13.417 z"
       id="path7"
       inkscape:connector-curvature="0"
       style="fill:#2d0f1d" /><path
       d="m 96.228,77.352 c 0.627,-1.097 0.637,-2.366 0.17,-3.436 1.41,0.082 2.812,-0.611 3.556,-1.924 0.904,-1.589 0.547,-3.543 -0.748,-4.721 0.824,-0.306 1.555,-0.871 2.017,-1.691 0.947,-1.655 0.518,-3.705 -0.911,-4.868 0.954,-0.261 1.803,-0.881 2.332,-1.807 1.05,-1.845 0.405,-4.188 -1.44,-5.239 -0.318,-0.179 -0.651,-0.291 -0.99,-0.377 0.249,-0.241 0.477,-0.511 0.659,-0.83 1.05,-1.843 0.406,-4.19 -1.438,-5.242 -0.396,-0.218 -0.806,-0.35 -1.228,-0.425 0.186,-0.203 0.35,-0.42 0.491,-0.671 1.05,-1.842 0.407,-4.187 -1.439,-5.238 -0.498,-0.281 -1.034,-0.434 -1.57,-0.484 0.08,-1.397 -0.608,-2.795 -1.92,-3.543 -1.195,-0.679 -2.601,-0.64 -3.726,-0.024 0.004,-0.014 0.018,-0.024 0.024,-0.038 1.052,-1.846 0.408,-4.19 -1.438,-5.242 -1.224,-0.696 -2.661,-0.631 -3.807,0.022 0.741,-1.77 0.081,-3.84 -1.627,-4.81 -1.25,-0.712 -2.722,-0.628 -3.869,0.061 -0.104,-1.217 -0.781,-2.368 -1.929,-3.018 -1.342,-0.764 -2.943,-0.619 -4.125,0.219 -0.009,-1.328 -0.688,-2.618 -1.928,-3.325 -1.308,-0.745 -2.857,-0.622 -4.027,0.161 -0.311,-0.436 -0.716,-0.82 -1.218,-1.105 -1.842,-1.05 -4.188,-0.402 -5.234,1.441 -0.013,0.018 -0.016,0.036 -0.023,0.054 -0.969,-0.368 -2.013,-0.325 -2.916,0.075 -0.32,-0.457 -0.729,-0.855 -1.243,-1.15 -1.791,-1.017 -4.036,-0.428 -5.128,1.285 -1.587,-0.469 -3.319,0.137 -4.264,1.545 -0.307,-0.401 -0.692,-0.75 -1.159,-1.012 -1.844,-1.049 -4.19,-0.404 -5.238,1.437 -0.577,1.008 -0.626,2.163 -0.269,3.174 -1.327,0.012 -2.61,0.693 -3.316,1.927 -0.539,0.946 -0.622,2.026 -0.333,2.998 -1.674,-0.492 -3.521,0.196 -4.42,1.775 -0.578,1.016 -0.629,2.174 -0.259,3.194 -1.549,-0.264 -3.162,0.435 -3.98,1.873 -0.661,1.159 -0.656,2.514 -0.097,3.622 -0.944,0.266 -1.793,0.889 -2.315,1.808 -0.624,1.1 -0.636,2.371 -0.16,3.448 -1.024,0.23 -1.948,0.854 -2.504,1.834 -0.932,1.64 -0.526,3.666 0.87,4.834 -0.536,0.331 -1.001,0.778 -1.336,1.358 -1.051,1.847 -0.405,4.193 1.441,5.24 -0.39,0.302 -0.729,0.684 -0.987,1.14 -1.049,1.845 -0.404,4.19 1.437,5.236 -1.048,1.845 -0.405,4.188 1.442,5.238 0.31,0.183 0.647,0.295 0.98,0.376 -0.41,1.631 0.277,3.399 1.812,4.272 0.709,0.403 1.479,0.557 2.233,0.488 -0.088,1.418 0.602,2.825 1.917,3.567 1.342,0.771 2.949,0.625 4.132,-0.217 0.007,1.329 0.682,2.619 1.923,3.322 1.705,0.976 3.824,0.477 4.968,-1.056 0.021,1.31 0.703,2.582 1.93,3.278 1.523,0.873 3.382,0.562 4.576,-0.606 0.121,1.19 0.793,2.304 1.914,2.943 1.447,0.824 3.194,0.594 4.389,-0.435 0.259,0.272 0.545,0.521 0.888,0.717 1.598,0.909 3.576,0.546 4.755,-0.777 0.328,0.671 0.851,1.249 1.547,1.644 1.432,0.815 3.158,0.599 4.353,-0.395 0.327,0.485 0.747,0.918 1.295,1.229 1.846,1.052 4.19,0.407 5.237,-1.44 0.029,-0.046 0.043,-0.102 0.064,-0.153 0.33,0.514 0.764,0.968 1.331,1.29 1.844,1.045 4.188,0.402 5.24,-1.44 0.028,-0.062 0.049,-0.13 0.082,-0.189 0.27,0.291 0.575,0.564 0.944,0.777 1.845,1.048 4.189,0.402 5.239,-1.442 0.554,-0.979 0.62,-2.096 0.301,-3.089 1.608,0.371 3.333,-0.319 4.196,-1.831 0.68,-1.188 0.642,-2.579 0.042,-3.705 1.497,0.194 3.037,-0.509 3.832,-1.907 z"
       id="path9"
       inkscape:connector-curvature="0"
       style="fill:#2d0f1d" /><path
       d="M 90.477,70.606 C 87.83,86.925 72.449,98.005 56.129,95.354 39.812,92.7 28.734,77.319 31.379,61 34.038,44.685 49.412,33.607 65.732,36.26 c 16.32,2.653 27.397,18.025 24.745,34.346 z"
       id="path11"
       inkscape:connector-curvature="0"
       style="fill:#bc8871" /><path
       d="m 92.21,76.803 c 0.821,-0.229 1.552,-0.776 2,-1.587 0.606,-1.106 0.515,-2.391 -0.105,-3.361 0.189,-0.203 0.368,-0.418 0.507,-0.673 0.649,-1.177 0.512,-2.567 -0.229,-3.555 0.243,-0.231 0.476,-0.498 0.645,-0.811 0.724,-1.308 0.469,-2.871 -0.51,-3.864 0.204,-0.209 0.396,-0.441 0.55,-0.712 0.863,-1.566 0.336,-3.513 -1.167,-4.38 0.416,-1.43 -0.166,-2.991 -1.493,-3.725 -0.274,-0.148 -0.568,-0.241 -0.856,-0.302 0.671,-1.535 0.12,-3.334 -1.334,-4.137 -0.42,-0.233 -0.866,-0.347 -1.319,-0.374 0.06,-0.086 0.124,-0.166 0.177,-0.255 0.873,-1.584 0.331,-3.562 -1.213,-4.414 -0.639,-0.351 -1.341,-0.445 -2.01,-0.335 0.633,-1.521 0.075,-3.285 -1.357,-4.076 -0.871,-0.479 -1.866,-0.481 -2.732,-0.128 0.116,-1.247 -0.47,-2.489 -1.611,-3.118 -1.067,-0.59 -2.328,-0.472 -3.3,0.17 -0.241,-0.73 -0.732,-1.373 -1.45,-1.771 -1.275,-0.699 -2.816,-0.41 -3.814,0.597 0.101,-1.232 -0.487,-2.456 -1.611,-3.078 -1.246,-0.683 -2.754,-0.421 -3.752,0.531 -0.229,-0.261 -0.496,-0.491 -0.817,-0.668 -1.377,-0.761 -3.086,-0.358 -4.057,0.863 -0.28,-0.496 -0.682,-0.925 -1.212,-1.216 -1.546,-0.854 -3.506,-0.259 -4.382,1.326 -0.021,0.042 -0.034,0.092 -0.06,0.138 -0.259,-0.358 -0.595,-0.674 -1.01,-0.902 -1.545,-0.849 -3.505,-0.256 -4.381,1.333 -0.047,0.086 -0.075,0.181 -0.119,0.274 -0.207,-0.217 -0.438,-0.416 -0.717,-0.567 -1.542,-0.849 -3.5,-0.258 -4.375,1.327 -0.239,0.434 -0.362,0.888 -0.399,1.346 -1.5,-0.657 -3.294,-0.061 -4.121,1.44 -0.313,0.563 -0.439,1.185 -0.408,1.78 -1.378,-0.342 -2.882,0.28 -3.621,1.616 -0.454,0.82 -0.519,1.747 -0.268,2.567 -1.356,-0.299 -2.813,0.321 -3.542,1.627 -0.518,0.948 -0.521,2.024 -0.126,2.929 -1.043,0.093 -2.037,0.696 -2.583,1.699 -0.608,1.091 -0.522,2.364 0.089,3.332 -0.805,0.236 -1.534,0.782 -1.975,1.587 -0.605,1.089 -0.524,2.364 0.088,3.331 -0.807,0.234 -1.532,0.779 -1.971,1.582 -0.876,1.589 -0.333,3.567 1.211,4.418 1.544,0.848 3.507,0.257 4.378,-1.332 0.606,-1.089 0.524,-2.362 -0.085,-3.33 0.806,-0.234 1.526,-0.786 1.969,-1.586 0.609,-1.094 0.52,-2.365 -0.09,-3.332 0.811,-0.234 1.528,-0.781 1.972,-1.586 0.525,-0.943 0.53,-2.027 0.135,-2.925 1.042,-0.097 2.034,-0.7 2.585,-1.704 0.454,-0.822 0.52,-1.747 0.27,-2.569 1.354,0.299 2.817,-0.315 3.537,-1.628 0.312,-0.568 0.437,-1.181 0.406,-1.782 1.386,0.343 2.883,-0.275 3.622,-1.612 0.237,-0.428 0.361,-0.885 0.401,-1.344 1.499,0.659 3.293,0.061 4.119,-1.437 0.044,-0.089 0.077,-0.188 0.122,-0.275 0.206,0.215 0.432,0.411 0.708,0.566 1.553,0.849 3.508,0.254 4.383,-1.332 0.027,-0.044 0.037,-0.091 0.059,-0.137 0.264,0.352 0.603,0.672 1.011,0.896 1.383,0.765 3.091,0.367 4.063,-0.864 0.276,0.499 0.68,0.932 1.213,1.225 1.243,0.687 2.749,0.423 3.749,-0.539 0.231,0.261 0.493,0.498 0.814,0.676 1.273,0.697 2.817,0.408 3.812,-0.599 -0.108,1.231 0.483,2.455 1.613,3.078 1.069,0.592 2.33,0.475 3.301,-0.174 0.242,0.737 0.731,1.38 1.451,1.774 0.871,0.481 1.861,0.487 2.729,0.132 -0.118,1.244 0.474,2.483 1.612,3.113 0.634,0.352 1.341,0.445 2.011,0.338 -0.632,1.518 -0.081,3.285 1.355,4.072 0.42,0.233 0.87,0.35 1.317,0.372 -0.055,0.089 -0.123,0.165 -0.174,0.259 -0.874,1.587 -0.33,3.564 1.212,4.414 0.277,0.152 0.57,0.244 0.861,0.305 -0.671,1.512 -0.135,3.287 1.284,4.101 -0.33,1.139 -0.021,2.354 0.79,3.175 -0.209,0.209 -0.399,0.438 -0.548,0.711 -0.648,1.176 -0.517,2.566 0.228,3.554 -0.244,0.233 -0.476,0.497 -0.643,0.812 -0.61,1.101 -0.521,2.385 0.104,3.355 -0.191,0.2 -0.364,0.421 -0.509,0.672 -0.58,1.061 -0.521,2.285 0.027,3.242 -0.608,0.239 -1.157,0.681 -1.5,1.309 -0.771,1.405 -0.295,3.156 1.076,3.914 1.367,0.755 3.11,0.227 3.876,-1.181 0.468,-0.837 0.473,-1.799 0.114,-2.601 z"
       id="path13"
       inkscape:connector-curvature="0"
       style="fill:#2d0f1d" /><path
       d="m 86.018,43.621 c 0,0 -2.619,2.092 -4.213,1.986 -1.597,-0.106 -0.045,2.083 0.989,2.456 1.034,0.369 3.869,-0.711 4.841,-2.116 0.967,-1.4 -0.607,-2.551 -1.617,-2.326 z"
       id="path15"
       inkscape:connector-curvature="0"
       style="fill:#74bb3d" /><path
       d="m 89.048,49.487 c 0,0 -2.616,2.094 -4.211,1.99 -1.595,-0.107 -0.053,2.082 0.981,2.451 1.034,0.375 3.875,-0.709 4.84,-2.115 0.974,-1.398 -0.603,-2.545 -1.61,-2.326 z"
       id="path17"
       inkscape:connector-curvature="0"
       style="fill:#74bb3d" /><g
       id="g19"><g
         id="g21"><path
           d="m 82.805,58.541 c -0.41,0.253 -1.314,-1.691 -3.213,-2.194 -1.962,-0.382 -3.76,0.776 -3.943,0.417 -0.245,-0.144 1.297,-2.125 4.216,-1.687 2.895,0.905 3.156,3.524 2.94,3.464 z"
           id="path23"
           inkscape:connector-curvature="0"
           style="fill:#361926" /></g><g
         id="g25"><path
           d="m 52.959,51.639 c -0.409,0.258 -1.313,-1.691 -3.213,-2.192 -1.958,-0.381 -3.758,0.776 -3.94,0.417 -0.246,-0.148 1.296,-2.124 4.214,-1.68 2.895,0.903 3.157,3.521 2.939,3.455 z"
           id="path27"
           inkscape:connector-curvature="0"
           style="fill:#361926" /></g><g
         id="g29"><path
           d="m 62.003,74.704 c 0.083,0.058 -0.86,0.764 -2.148,0.443 -1.23,-0.339 -1.924,-1.128 -1.835,-1.202 0.077,-0.102 0.85,0.481 1.941,0.78 1.101,0.292 1.971,-0.154 2.042,-0.021 z"
           id="path31"
           inkscape:connector-curvature="0"
           style="fill:#88543d" /></g><ellipse
         transform="matrix(0.9732,0.2299,-0.2299,0.9732,16.4857,-7.8892)"
         cx="42.095001"
         cy="66.793999"
         rx="4.3730001"
         ry="2.312"
         id="ellipse33"
         style="fill:#bc6271" /><path
         d="m 82.258,77.071 c -0.291,1.245 -2.435,1.801 -4.79,1.246 -2.347,-0.559 -4.008,-2.013 -3.723,-3.256 0.293,-1.239 2.439,-1.796 4.79,-1.242 2.348,0.556 4.013,2.013 3.723,3.252 z"
         id="path35"
         inkscape:connector-curvature="0"
         style="fill:#bc6271" /><path
         d="m 49.052,76.671 c 0,0 4.139,1.641 8.595,2.79 4.078,1.057 8.51,1.628 8.51,1.628 0,0 -3.111,7.548 -11.343,4.612 -5.708,-2.034 -5.762,-9.03 -5.762,-9.03 z"
         id="path37"
         inkscape:connector-curvature="0"
         style="fill:#ffffff" /><path
         d="m 49.921,61.987 c -0.234,1.352 -1.516,2.265 -2.88,2.031 -1.354,-0.23 -2.261,-1.518 -2.026,-2.871 0.228,-1.356 1.512,-2.27 2.869,-2.038 1.354,0.232 2.262,1.519 2.037,2.878 z"
         id="path39"
         inkscape:connector-curvature="0" /><path
         d="m 79.017,70.189 c -0.22,1.359 -1.513,2.268 -2.861,2.041 -1.361,-0.233 -2.268,-1.521 -2.038,-2.874 0.236,-1.357 1.519,-2.269 2.876,-2.037 1.353,0.231 2.266,1.516 2.023,2.87 z"
         id="path41"
         inkscape:connector-curvature="0" /></g><g
       id="g43"><path
         d="m 96.811,63.1 c -0.242,-0.19 0.646,-1.041 0.717,-2.383 0.212,-1.34 -0.21,-2.472 -0.015,-2.533 0.096,-0.074 0.828,1.046 0.604,2.598 -0.097,1.564 -1.362,2.412 -1.306,2.318 z"
         id="path45"
         inkscape:connector-curvature="0"
         style="fill:#624c56" /><path
         d="m 95.247,50.557 c -0.196,-0.097 0.567,-1.32 -0.141,-2.813 -0.657,-1.449 -1.65,-2.417 -1.531,-2.542 0.081,-0.125 1.32,0.676 2.077,2.314 0.817,1.778 -0.356,3.205 -0.405,3.041 z"
         id="path47"
         inkscape:connector-curvature="0"
         style="fill:#624c56" /><path
         d="m 32.442,47.732 c -0.002,0.126 -1.432,-0.784 -1.369,-2.672 0.165,-1.79 1.252,-2.818 1.346,-2.708 0.148,0.095 -0.633,1.222 -0.756,2.741 -0.071,1.533 0.952,2.491 0.779,2.639 z"
         id="path49"
         inkscape:connector-curvature="0"
         style="fill:#624c56" /><path
         d="m 27.168,60.43 c 0.08,0.19 -1.153,-0.617 -0.82,-1.872 0.136,-1.177 0.67,-1.97 0.809,-1.899 0.155,0.064 -0.108,0.933 -0.22,1.956 -0.258,1.087 0.398,1.562 0.231,1.815 z"
         id="path51"
         inkscape:connector-curvature="0"
         style="fill:#624c56" /><path
         d="m 58.844,31.071 c 0.099,0.109 -1.363,0.441 -2.365,-0.837 -0.844,-1.243 -0.745,-2.46 -0.595,-2.453 0.166,-0.024 0.363,1.072 1.067,2.096 0.752,1.001 1.902,0.978 1.893,1.194 z"
         id="path53"
         inkscape:connector-curvature="0"
         style="fill:#624c56" /><path
         d="m 74.725,33.387 c -0.248,-0.052 0.67,-1.454 -0.721,-2.493 -1.178,-1.021 -2.502,-1.468 -2.437,-1.637 0.027,-0.136 1.468,0.039 2.838,1.206 1.701,1.356 0.317,3.202 0.32,2.924 z"
         id="path55"
         inkscape:connector-curvature="0"
         style="fill:#624c56" /><path
         d="m 86.062,41.296 c -0.002,-0.101 0.191,-1.968 -2.377,-2.438 -2.121,-0.615 -3.979,-0.74 -3.963,-0.918 -0.002,-0.145 1.885,-0.296 4.133,0.354 2.855,0.423 2.644,3.284 2.207,3.002 z"
         id="path57"
         inkscape:connector-curvature="0"
         style="fill:#624c56" /><path
         d="m 93.232,73.833 c -0.196,-0.136 0.691,-1.009 0.732,-2.236 0.021,-1.255 -1.01,-2.019 -0.858,-2.145 -0.004,-0.146 1.405,0.448 1.451,2.138 -0.102,1.64 -1.313,2.328 -1.325,2.243 z"
         id="path59"
         inkscape:connector-curvature="0"
         style="fill:#624c56" /><path
         d="m 40.05,36.761 c -0.049,-0.193 2.356,0.894 2.575,-1.882 0.36,-2.194 0.094,-4.097 0.288,-4.108 0.122,-0.026 0.679,1.834 0.29,4.22 -0.321,3.282 -3.67,1.939 -3.153,1.77 z"
         id="path61"
         inkscape:connector-curvature="0"
         style="fill:#624c56" /></g></g></svg>