<?xml version="1.0" encoding="iso-8859-1"?>
<!-- Generator: Adobe Illustrator 19.0.0, SVG Export Plug-In . SVG Version: 6.00 Build 0)  -->
<svg version="1.1" id="Capa_1" xmlns="http://www.w3.org/2000/svg" xmlns:xlink="http://www.w3.org/1999/xlink" x="0px" y="0px"
	 viewBox="0 0 511.999 511.999" style="enable-background:new 0 0 511.999 511.999;" xml:space="preserve">
<g transform="matrix(1.25 0 0 -1.25 0 45)">
	<g>
		<path style="fill:#5C913B;" d="M201.577,13.994c-9.975,29.926-29.926,9.975-29.926,9.975
			c-19.938-19.95-79.789-99.727-49.863-169.552c29.913-69.814,70.844-26.844,89.752,29.913
			C221.515-85.746,221.515-45.845,201.577,13.994z"/>
		<path style="fill:#5C913B;" d="M393.115-177.549c-59.839,19.95-99.727,19.938-129.652,9.963
			c-56.782-18.919-99.738-59.826-29.926-89.752c69.813-29.926,149.614,29.926,169.552,49.863
			C403.09-207.475,423.028-187.525,393.115-177.549z"/>
	</g>
	<g>
		<path style="fill:#F4900C;" d="M374.768-39.519c0,0-1.738,20.705-9.364,27.012c-5.228,6.546-24.195,6.546-24.195,6.546
			c-19.95,0-249.353-29.913-289.241-229.391c-7.134-35.644,1.031-55.942,9.903-68.303c-0.18-0.683-0.216-1.235,0.072-1.499
			c1.439-1.451,3.153-3.165,5.132-4.952c1.738-1.906,3.405-3.597,4.832-5.035c0.264-0.24,0.803-0.18,1.366-0.06
			c12.841-9.531,34.169-18.955,70.269-11.726C343.033-287.05,374.756-59.457,374.768-39.519"/>
		<g>
			<path style="fill:#F7B82D;" d="M284.298-69.483l-19.386,19.386c-5.359,5.359-14.051,5.359-19.399,0
				c-5.359-5.359-5.359-14.04,0-19.386l19.399-19.399c5.335-5.348,14.04-5.348,19.386,0
				C289.645-83.522,289.645-74.843,284.298-69.483z"/>
			<path style="fill:#F7B82D;" d="M167.95-88.881c5.348-5.348,14.04-5.348,19.386,0c5.359,5.359,5.359,14.04,0,19.399l-9.263,9.263
				c-7.834-4.775-15.605-9.951-23.226-15.56L167.95-88.881z"/>
			<path style="fill:#F7B82D;" d="M197.038-59.786c5.359-5.359,14.027-5.359,19.386,0c5.348,5.348,5.348,14.027,0,19.386
				l-0.309,0.309c-8.534-3.897-17.166-8.22-25.78-12.998L197.038-59.786z"/>
			<path style="fill:#F7B82D;" d="M138.848-117.97c5.371-5.348,14.051-5.348,19.41,0c5.348,5.359,5.348,14.04,0,19.399
				l-14.362,14.345c-7.027-5.687-13.88-11.775-20.49-18.283L138.848-117.97z"/>
			<path style="fill:#F7B82D;" d="M274.607-21.012c-5.371-5.348-5.371-14.027,0-19.386l19.386-19.386
				c5.359-5.359,14.04-5.359,19.386,0c5.348,5.348,5.348,14.027,0,19.386l-19.386,19.386
				C288.635-15.653,279.966-15.653,274.607-21.012z"/>
			<path style="fill:#F7B82D;" d="M303.408-11.465c0.085-0.09,0.16-0.185,0.248-0.273l19.386-19.386
				c5.359-5.359,14.04-5.359,19.386,0c5.348,5.348,5.348,14.027,0,19.386l-5.553,5.553C330.349-6.721,318.585-8.269,303.408-11.465z
				"/>
			<path style="fill:#F7B82D;" d="M255.215-117.97c5.348,5.359,5.348,14.04,0,19.399l-19.399,19.386
				c-5.348,5.359-14.04,5.359-19.386,0c-5.371-5.348-5.371-14.04,0-19.386l19.386-19.399
				C241.163-123.317,249.856-123.317,255.215-117.97z"/>
			<path style="fill:#F7B82D;" d="M226.107-147.053c5.359,5.359,5.359,14.04,0,19.399l-19.386,19.386
				c-5.348,5.359-14.027,5.359-19.386,0c-5.348-5.359-5.348-14.04,0-19.386l19.386-19.399
				C212.08-152.401,220.772-152.401,226.107-147.053z"/>
			<path style="fill:#F7B82D;" d="M167.947-205.227c5.359,5.359,5.348,14.027,0,19.399l-19.399,19.386
				c-5.348,5.348-14.027,5.359-19.386,0s-5.359-14.04,0-19.386l19.386-19.399C153.908-210.574,162.588-210.574,167.947-205.227z"/>
			<path style="fill:#F7B82D;" d="M158.262-137.358c-5.371-5.348-5.371-14.04,0-19.399l19.375-19.386
				c5.359-5.348,14.04-5.348,19.399,0c5.359,5.359,5.359,14.04,0,19.386l-19.399,19.399
				C172.29-131.999,163.61-131.999,158.262-137.358z"/>
		</g>
	</g>
	<path style="fill:#77B255;" d="M321.436-246.416c-85.424,28.462-181.002-7.805-232.808-42.874
		c35.069,51.806,71.336,147.396,42.874,232.808C120.316-22.912,64.35,10.67,30.769-22.9c-11.198-11.198-22.384-22.396,0-22.396
		s55.954-33.57,44.78-67.14c-10.023-30.033-82.594-104.81-49.803-184.335c-3.225-1.379-6.271-3.345-8.908-5.982l-8.572-8.56
		c-11.018-11.018-11.018-28.882-0.012-39.912l8.585-8.585c11.03-11.03,28.882-11.03,39.9,0l8.585,8.585
		c1.475,1.475,2.71,3.093,3.789,4.772c83.913-46.039,164.816,33.558,196.372,44.084c33.57,11.186,67.14-22.396,67.14-44.768
		c0-22.396,11.186-11.198,22.384,0C388.588-313.58,354.995-257.59,321.436-246.416z"/>
</g>
<g>
</g>
<g>
</g>
<g>
</g>
<g>
</g>
<g>
</g>
<g>
</g>
<g>
</g>
<g>
</g>
<g>
</g>
<g>
</g>
<g>
</g>
<g>
</g>
<g>
</g>
<g>
</g>
<g>
</g>
</svg>
