<?xml version="1.0" encoding="UTF-8" standalone="no"?>
<svg
   xmlns:dc="http://purl.org/dc/elements/1.1/"
   xmlns:cc="http://creativecommons.org/ns#"
   xmlns:rdf="http://www.w3.org/1999/02/22-rdf-syntax-ns#"
   xmlns:svg="http://www.w3.org/2000/svg"
   xmlns="http://www.w3.org/2000/svg"
   xmlns:sodipodi="http://sodipodi.sourceforge.net/DTD/sodipodi-0.dtd"
   xmlns:inkscape="http://www.inkscape.org/namespaces/inkscape"
   width="1792"
   height="1792"
   viewBox="0 0 1792 1792"
   id="svg2"
   version="1.1"
   inkscape:version="0.91 r13725"
   sodipodi:docname="eraser_selected.svg">
  <metadata
     id="metadata10">
    <rdf:RDF>
      <cc:Work
         rdf:about="">
        <dc:format>image/svg+xml</dc:format>
        <dc:type
           rdf:resource="http://purl.org/dc/dcmitype/StillImage" />
        <dc:title></dc:title>
      </cc:Work>
    </rdf:RDF>
  </metadata>
  <defs
     id="defs8" />
  <sodipodi:namedview
     pagecolor="#3b3b3b"
     bordercolor="#666666"
     borderopacity="1"
     objecttolerance="10"
     gridtolerance="10"
     guidetolerance="10"
     inkscape:pageopacity="0"
     inkscape:pageshadow="2"
     inkscape:window-width="1920"
     inkscape:window-height="1017"
     id="namedview6"
     showgrid="false"
     inkscape:zoom="0.26339286"
     inkscape:cx="1609.2202"
     inkscape:cy="975.62769"
     inkscape:window-x="0"
     inkscape:window-y="870"
     inkscape:window-maximized="1"
     inkscape:current-layer="svg2" />
  <path
     style="fill:#d3d7cf;fill-opacity:1;fill-rule:evenodd;stroke:none;stroke-width:0.99999994px;stroke-linecap:butt;stroke-linejoin:miter;stroke-opacity:1"
     d="M 1031.6216,240.36429 C 942.59126,240.33019 856.03653,282.45393 796.69024,348.02602 672.71054,479.34759 541.31499,603.35918 414.6285,732.01388 356.93724,790.59172 299.79569,849.80206 245.42893,911.48461 c -38.63587,52.89184 -54.32953,120.34789 -49.88839,185.16329 4.75364,65.4217 31.9372,129.2286 77.14506,176.9392 37.61108,41.8527 80.8268,78.2596 119.10226,119.418 42.71184,42.4448 84.89891,85.9085 132.87421,122.4826 31.25194,16.2616 67.60723,15.1705 101.82579,14.2169 120.48192,-1.5649 241.10362,4.7841 361.48372,-1.9687 25.47222,-8.7156 41.24032,-32.0435 60.26152,-49.5459 163.8799,-164.7991 331.0266,-326.3915 491.3354,-494.71255 69.9265,-91.71942 76.5128,-226.65307 15.5169,-324.59748 -15.5633,-24.40973 -35.0602,-46.01639 -54.3454,-67.50334 -46.705,-50.63242 -98.2817,-96.44955 -146.1052,-145.99217 -51.547,-51.71692 -101.3446,-105.67831 -158.7719,-151.06075 -46.9832,-35.28712 -105.4588,-54.59793 -164.2413,-53.95942 z"
     id="path4584"
     inkscape:connector-curvature="0" />
  <g
     id="g4577"
     transform="matrix(0.8125653,0,0,0.8125653,162.99882,212.90688)">
    <path
       inkscape:connector-curvature="0"
       id="path4160"
       d="m 275.2494,1025.2996 241.70163,255.7764 220.22476,65.1691 217.92155,-51.0498 191.07546,-179.911 L 922.81792,895.14316 699.46303,675.00201 487.35622,850.15081 Z"
       style="fill:#a598d9;fill-opacity:1;fill-rule:evenodd;stroke:#000000;stroke-width:1.23067021px;stroke-linecap:butt;stroke-linejoin:miter;stroke-opacity:1"
       sodipodi:nodetypes="ccccccccc" />
    <path
       style="fill:#d99898;fill-opacity:1;fill-rule:evenodd;stroke:#000000;stroke-width:1.23067021px;stroke-linecap:butt;stroke-linejoin:miter;stroke-opacity:1"
       d="M 660.89816,639.65085 1142.9591,1137.7805 1531.8216,729.63557 1085.1118,289.35328 Z"
       id="path4158"
       inkscape:connector-curvature="0" />
    <path
       inkscape:connector-curvature="0"
       d="m 939.5062,1415.8806 c 60.8689,-60.7432 142.3424,-142.0489 224.7603,-224.2992 82.4179,-82.2503 165.7803,-165.4452 230.4273,-229.96667 64.6469,-64.52148 110.5784,-110.36955 118.1344,-117.92622 61.1942,-61.19418 61.1942,-160.76439 0,-221.95592 L 1176.8899,285.79164 c -61.1942,-61.19154 -160.7591,-61.18625 -221.95594,0.003 L 290.9527,949.77819 c -61.33177,61.33181 -61.345,160.61621 0,221.95591 l 244.47918,242.4657 z m 97.9214,-1047.59005 c 15.7033,-15.70337 41.2574,-15.71131 56.9687,0 l 335.9356,335.93565 c 15.706,15.70601 15.706,41.26004 0,56.9687 L 1139.5881,1051.9387 746.68375,659.03437 Z M 570.94484,1289.4237 373.44632,1089.2405 c -15.74306,-15.7351 -15.74571,-41.2203 0,-56.9687 L 664.19014,741.52798 1057.0945,1134.4323 890.24571,1290.5427 Z"
       id="path9"
       sodipodi:nodetypes="cssccccscccssscccsccccccc" />
  </g>
  <g
     id="g4178"
     transform="matrix(2.642077,0,0,2.642077,1536.5963,-543.94972)"
     style="fill:#a40000" />
  <g
     id="g4354"
     transform="matrix(3.1124595,0,0,3.1124595,309.402,434.77577)" />
</svg>
