<?xml version="1.0" encoding="UTF-8" standalone="no"?>
<svg
   xmlns:dc="http://purl.org/dc/elements/1.1/"
   xmlns:cc="http://creativecommons.org/ns#"
   xmlns:rdf="http://www.w3.org/1999/02/22-rdf-syntax-ns#"
   xmlns:svg="http://www.w3.org/2000/svg"
   xmlns="http://www.w3.org/2000/svg"
   xmlns:sodipodi="http://sodipodi.sourceforge.net/DTD/sodipodi-0.dtd"
   xmlns:inkscape="http://www.inkscape.org/namespaces/inkscape"
   width="1792"
   height="1792"
   viewBox="0 0 1792 1792"
   id="svg2"
   version="1.1"
   inkscape:version="0.91 r13725"
   sodipodi:docname="eraser.svg">
  <metadata
     id="metadata10">
    <rdf:RDF>
      <cc:Work
         rdf:about="">
        <dc:format>image/svg+xml</dc:format>
        <dc:type
           rdf:resource="http://purl.org/dc/dcmitype/StillImage" />
        <dc:title></dc:title>
      </cc:Work>
    </rdf:RDF>
  </metadata>
  <defs
     id="defs8" />
  <sodipodi:namedview
     pagecolor="#3b3b3b"
     bordercolor="#666666"
     borderopacity="1"
     objecttolerance="10"
     gridtolerance="10"
     guidetolerance="10"
     inkscape:pageopacity="0"
     inkscape:pageshadow="2"
     inkscape:window-width="1920"
     inkscape:window-height="1017"
     id="namedview6"
     showgrid="false"
     inkscape:zoom="0.18624688"
     inkscape:cx="1745.5995"
     inkscape:cy="576.03918"
     inkscape:window-x="0"
     inkscape:window-y="870"
     inkscape:window-maximized="1"
     inkscape:current-layer="g3" />
  <g
     transform="matrix(3.1257728,0,0,3.1257728,123.66119,69.228041)"
     id="g3">
    <path
       id="path4162"
       style="opacity:1;fill:#eeeeec;fill-opacity:1;stroke:none;stroke-width:12.79683495;stroke-linecap:round;stroke-linejoin:miter;stroke-miterlimit:4;stroke-dasharray:none;stroke-opacity:1"
       d="m 300.84146,457.96071 a 89.203812,73.856569 0.63465344 0 1 -90.0164,72.86397 89.203812,73.856569 0.63465344 0 1 -88.38027,-74.84011 89.203812,73.856569 0.63465344 0 1 90.01642,-72.86397 89.203812,73.856569 0.63465344 0 1 88.38025,74.84011 z m 91.54844,-4.6675 a 89.203812,73.856569 0.63465344 0 1 -90.01642,72.86396 89.203812,73.856569 0.63465344 0 1 -88.38027,-74.84011 89.203812,73.856569 0.63465344 0 1 90.01642,-72.86397 89.203812,73.856569 0.63465344 0 1 88.38027,74.84012 z M 518.539,422.49472 a 89.203812,73.856569 0.63465344 0 1 -90.01641,72.86397 89.203812,73.856569 0.63465344 0 1 -88.38026,-74.84011 89.203812,73.856569 0.63465344 0 1 90.01641,-72.86397 89.203812,73.856569 0.63465344 0 1 88.38026,74.84011 z M 363.53809,373.43089 a 89.203812,73.856569 0.63465344 0 1 -90.0164,72.86397 89.203812,73.856569 0.63465344 0 1 -88.38027,-74.84011 89.203812,73.856569 0.63465344 0 1 90.01642,-72.86398 89.203812,73.856569 0.63465344 0 1 88.38025,74.84012 z m 139.76708,-21.17827 a 89.203812,73.856569 0.63465344 0 1 -90.01643,72.86398 89.203812,73.856569 0.63465344 0 1 -88.38025,-74.84012 89.203812,73.856569 0.63465344 0 1 90.0164,-72.86396 89.203812,73.856569 0.63465344 0 1 88.38028,74.8401 z"
       inkscape:connector-curvature="0" />
    <path
       inkscape:connector-curvature="0"
       id="path4160"
       d="M -2.8853563,293.55294 169.83157,472.02709 309.15654,325.79343 149.10554,168.04531 Z"
       style="fill:#a598d9;fill-opacity:1;fill-rule:evenodd;stroke:#000000;stroke-width:0.31992087px;stroke-linecap:butt;stroke-linejoin:miter;stroke-opacity:1" />
    <path
       style="fill:#d99898;fill-opacity:1;fill-rule:evenodd;stroke:#000000;stroke-width:0.31992087px;stroke-linecap:butt;stroke-linejoin:miter;stroke-opacity:1"
       d="M 135.28819,155.3794 308.00511,333.85355 447.33008,187.61989 287.27908,29.871778 Z"
       id="path4158"
       inkscape:connector-curvature="0" />
    <g
       id="g5"
       transform="matrix(0.94799276,0,0,0.94799276,-13.741793,4.8095996)">
      <g
         id="g7">
        <path
           inkscape:connector-curvature="0"
           d="m 372.586,460.16 -117.612,0 c 10.961,-10.961 212.791,-212.791 224.214,-224.215 23.128,-23.128 23.128,-60.76 0,-83.887 L 352.222,25.091 C 329.094,1.964 291.464,1.966 268.335,25.092 L 17.387,276.041 c -23.18,23.18 -23.185,60.704 0,83.887 l 126.965,126.965 0,0.001 c 11.442,11.441 26.432,17.211 41.46,17.333 0.162,0.003 0.32,0.025 0.484,0.025 l 186.291,0 c 12.175,0 22.046,-9.871 22.046,-22.046 -10e-4,-12.175 -9.872,-22.046 -22.047,-22.046 z M 299.513,56.271 c 5.935,-5.935 15.593,-5.938 21.531,0 l 126.965,126.965 c 5.936,5.936 5.936,15.594 0,21.531 L 338.124,314.652 189.628,166.156 299.513,56.271 Z M 175.53,455.715 48.565,328.75 c -5.95,-5.947 -5.951,-15.579 0,-21.531 L 158.45,197.334 306.946,345.83 197.061,455.715 c -5.913,5.913 -15.587,5.945 -21.531,0 z"
           id="path9" />
        <path
           inkscape:connector-curvature="0"
           d="m 489.953,460.16 -37.27,0 c -12.176,0 -22.046,9.871 -22.046,22.046 0,12.175 9.871,22.046 22.046,22.046 l 37.27,0 c 12.175,0 22.046,-9.871 22.046,-22.046 0,-12.175 -9.869,-22.046 -22.046,-22.046 z"
           id="path11" />
        <path
           inkscape:connector-curvature="0"
           d="m 452.297,407.454 c 0,-12.175 -9.871,-22.046 -22.046,-22.046 l -37.27,0 c -12.175,0 -22.046,9.871 -22.046,22.046 0,12.175 9.871,22.046 22.046,22.046 l 37.27,0 c 12.176,10e-4 22.046,-9.87 22.046,-22.046 z"
           id="path13" />
      </g>
    </g>
  </g>
</svg>
