<?xml version="1.0" encoding="UTF-8" standalone="no"?>
<!-- Generator: Adobe Illustrator 19.0.0, SVG Export Plug-In . SVG Version: 6.00 Build 0)  -->

<svg
   xmlns:dc="http://purl.org/dc/elements/1.1/"
   xmlns:cc="http://creativecommons.org/ns#"
   xmlns:rdf="http://www.w3.org/1999/02/22-rdf-syntax-ns#"
   xmlns:svg="http://www.w3.org/2000/svg"
   xmlns="http://www.w3.org/2000/svg"
   xmlns:sodipodi="http://sodipodi.sourceforge.net/DTD/sodipodi-0.dtd"
   xmlns:inkscape="http://www.inkscape.org/namespaces/inkscape"
   version="1.1"
   id="Layer_1"
   x="0px"
   y="0px"
   viewBox="0 0 512.002 512.002"
   style="enable-background:new 0 0 512.002 512.002;"
   xml:space="preserve"
   sodipodi:docname="fly.svg"
   inkscape:version="0.92.2 (5c3e80d, 2017-08-06)"><metadata
     id="metadata77"><rdf:RDF><cc:Work
         rdf:about=""><dc:format>image/svg+xml</dc:format><dc:type
           rdf:resource="http://purl.org/dc/dcmitype/StillImage" /></cc:Work></rdf:RDF></metadata><defs
     id="defs75" /><sodipodi:namedview
     pagecolor="#ffffff"
     bordercolor="#666666"
     borderopacity="1"
     objecttolerance="10"
     gridtolerance="10"
     guidetolerance="10"
     inkscape:pageopacity="0"
     inkscape:pageshadow="2"
     inkscape:window-width="2560"
     inkscape:window-height="1011"
     id="namedview73"
     showgrid="false"
     inkscape:zoom="0.46093569"
     inkscape:cx="530.65991"
     inkscape:cy="350.30064"
     inkscape:window-x="0"
     inkscape:window-y="873"
     inkscape:window-maximized="1"
     inkscape:current-layer="Layer_1" /><g
     id="g10"
     style="fill:#512c1d;fill-opacity:1"><circle
       style="fill:#512c1d;stroke-width:1;fill-opacity:1"
       cx="210.67825"
       cy="49.276134"
       r="30.627174"
       id="circle6" /><circle
       style="fill:#512c1d;stroke-width:1;fill-opacity:1"
       cx="299.70175"
       cy="46.723869"
       r="30.627174"
       id="circle8" /></g><path
     inkscape:connector-curvature="0"
     id="path4975"
     d="m 198.3939,124.2613 -23.1406,-23.1406 c -4.20913,-4.209132 -11.84969,-7.829263 -17.7727,-8.421013 L 94.797045,86.431332 c -2.894636,-0.289464 -7.77796,-2.2809 -10.048783,-4.099208 l -33.01992,-26.41447 c -3.159367,-2.526394 -7.771548,-2.016169 -10.30069,1.14503 -2.528227,3.159367 -2.016169,7.771548 1.14503,10.299775 l 33.017171,26.414468 c 4.448213,3.55876 12.077777,6.669573 17.74705,7.236593 l 62.683557,6.26835 c 2.61616,0.26199 7.00941,2.34411 8.86803,4.20272 l 31.5268,31.52772 m -27.43194,67.91402 -86.189649,14.36509 c -6.604534,1.10106 -13.572729,6.24728 -16.568127,12.23625 l -16.477441,32.9558 c -1.352052,2.70318 -5.006988,6.84453 -7.521474,8.52085 l -16.966597,11.31015 c -3.367305,2.24518 -4.277833,6.79507 -2.032658,10.16237 1.412509,2.11877 3.735546,3.2638 6.104385,3.2638 1.396936,0 2.808529,-0.39939 4.057986,-1.23206 l 16.965682,-11.31106 c 4.635998,-3.08975 10.010311,-9.17856 12.50098,-14.1599 l 16.477441,-32.9558 c 0.872971,-1.74502 3.9444,-4.01402 5.868966,-4.33371 l 76.794906,-12.79869 m -13.66067,32.1552 -19.28963,4.82286 c -6.42317,1.60579 -13.01121,7.17339 -15.66493,13.23838 L 64.877186,388.03775 c -1.169762,2.67479 -4.571876,6.73369 -6.99934,8.35139 l -16.965681,11.31015 c -3.367305,2.24426 -4.277833,6.79415 -2.032658,10.16237 1.412509,2.11877 3.735547,3.2638 6.104385,3.2638 1.396936,0 2.808529,-0.39939 4.057986,-1.23206 L 66.00756,408.58325 c 4.730348,-3.15295 10.016723,-9.46069 12.296707,-14.67195 L 126.81052,283.03941 c 0.80701,-1.84487 3.83814,-4.40699 5.79293,-4.89523 l 8.91017,-2.22777 m 229.51349,0.002 8.91017,2.22777 c 1.95388,0.48824 4.985,3.05036 5.79293,4.89523 l 48.50626,110.87281 c 2.27999,5.21034 7.56636,11.51717 12.29671,14.67104 l 16.96568,11.31015 c 1.24946,0.83266 2.66105,1.23205 4.05799,1.23205 2.36792,0 4.69279,-1.14595 6.10438,-3.2638 2.24518,-3.36822 1.33556,-7.91811 -2.03266,-10.16237 l -16.96568,-11.31015 c -2.42746,-1.61861 -5.82957,-5.6766 -6.99934,-8.35139 L 399.15729,277.16769 c -2.65372,-6.06499 -9.24176,-11.63258 -15.66492,-13.23837 l -19.28964,-4.82287 m -13.66066,-32.15519 76.79487,12.79868 c 1.92457,0.32061 4.99695,2.58869 5.86901,4.3328 l 16.47744,32.95671 c 2.49067,4.98134 7.86498,11.07015 12.50098,14.1599 l 16.96568,11.31107 c 1.24945,0.83266 2.66105,1.23205 4.05798,1.23205 2.36793,0 4.69188,-1.14595 6.10439,-3.2638 2.24609,-3.36913 1.33556,-7.91902 -2.03174,-10.1642 L 470.315,279.00341 c -2.51541,-1.67633 -6.17034,-5.81767 -7.52148,-8.51994 l -16.47744,-32.95672 c -2.9954,-5.98896 -9.96359,-11.13518 -16.56908,-12.23625 l -86.18962,-14.36509 m -29.43194,-67.91401 31.5268,-31.52772 c 1.85953,-1.85862 6.25278,-3.94074 8.86803,-4.20272 l 62.68445,-6.26835 c 5.66839,-0.56702 13.29795,-3.678763 17.74617,-7.236593 l 33.01808,-26.414474 c 3.16029,-2.528231 3.67234,-7.140408 1.14503,-10.299775 -2.52822,-3.161199 -7.13949,-3.671424 -10.30069,-1.14503 l -33.01808,26.41447 c -2.27083,1.817392 -7.15415,3.808828 -10.04791,4.099208 l -62.68444,6.268351 c -5.92301,0.59175 -13.56357,4.2128 -17.7727,8.421013 l -23.13968,23.14061"
     sodipodi:nodetypes="cscsccccccccccccccccscccccccccccccsccccccccccccscccccccccccccsccccccccccccsccccccc"
     style="stroke-width:0.99999994" /><path
     style="fill:#F0EBE1;"
     d="M418.925,407.994c-2.145-43.967-79.353-223.047-97.582-249.854  c-10.948,38.005-39.263,57.577-65.341,70.312c-26.078-12.734-54.393-32.307-65.342-70.312  c-18.229,26.808-95.438,205.888-97.583,249.854c-2.145,43.965,20.375,100.799,42.894,94.365  c14.935-4.267,74.292-68.967,120.031-138.359c45.738,69.393,105.096,134.093,120.03,138.359  C398.55,508.793,421.069,451.959,418.925,407.994z"
     id="path2" /><ellipse
     style="fill:#5c6670;fill-opacity:1"
     cx="256.07"
     cy="270.77"
     rx="80"
     ry="132"
     id="ellipse4" /><ellipse
     style="fill:#5c6670;fill-opacity:1"
     cx="256.07"
     cy="89"
     rx="63.21"
     ry="48"
     id="ellipse12" /><path
     style="fill:#7d868c;fill-opacity:1"
     d="M320.067,138.767c0,53.019-28.654,112-64,112s-64-58.981-64-112c0-53.02,28.654-72,64-72  S320.067,85.747,320.067,138.767z"
     id="path14" /><g
     id="g42" /><g
     id="g44" /><g
     id="g46" /><g
     id="g48" /><g
     id="g50" /><g
     id="g52" /><g
     id="g54" /><g
     id="g56" /><g
     id="g58" /><g
     id="g60" /><g
     id="g62" /><g
     id="g64" /><g
     id="g66" /><g
     id="g68" /><g
     id="g70" /></svg>