<?xml version="1.0" encoding="UTF-8" standalone="no"?>
<!-- Created with Inkscape (http://www.inkscape.org/) -->

<svg
   xmlns:dc="http://purl.org/dc/elements/1.1/"
   xmlns:cc="http://creativecommons.org/ns#"
   xmlns:rdf="http://www.w3.org/1999/02/22-rdf-syntax-ns#"
   xmlns:svg="http://www.w3.org/2000/svg"
   xmlns="http://www.w3.org/2000/svg"
   xmlns:xlink="http://www.w3.org/1999/xlink"
   xmlns:sodipodi="http://sodipodi.sourceforge.net/DTD/sodipodi-0.dtd"
   xmlns:inkscape="http://www.inkscape.org/namespaces/inkscape"
   sodipodi:docname="map.svg"
   inkscape:version="0.91 r13725"
   version="1.1"
   id="svg16054"
   viewBox="0 0 2125.9843 1187.0078"
   height="33.5cm"
   width="60cm">
  <defs
     id="defs16056">
    <inkscape:path-effect
       effect="spiro"
       id="path-effect5341"
       is_visible="true" />
    <inkscape:path-effect
       effect="spiro"
       id="path-effect17606"
       is_visible="true" />
    <inkscape:path-effect
       is_visible="true"
       id="path-effect16830"
       effect="spiro" />
    <inkscape:path-effect
       is_visible="true"
       id="path-effect16826"
       effect="spiro" />
    <inkscape:path-effect
       is_visible="true"
       id="path-effect16822"
       effect="spiro" />
    <inkscape:path-effect
       is_visible="true"
       id="path-effect16818"
       effect="spiro" />
    <inkscape:path-effect
       is_visible="true"
       id="path-effect16814"
       effect="spiro" />
    <inkscape:path-effect
       is_visible="true"
       id="path-effect16810"
       effect="spiro" />
    <inkscape:path-effect
       is_visible="true"
       id="path-effect16806"
       effect="spiro" />
    <inkscape:path-effect
       is_visible="true"
       id="path-effect16802"
       effect="spiro" />
    <inkscape:path-effect
       is_visible="true"
       id="path-effect16798"
       effect="spiro" />
    <inkscape:path-effect
       effect="spiro"
       id="path-effect16794"
       is_visible="true" />
    <inkscape:path-effect
       effect="spiro"
       id="path-effect16790"
       is_visible="true" />
    <inkscape:path-effect
       effect="spiro"
       id="path-effect16786"
       is_visible="true" />
    <inkscape:path-effect
       effect="spiro"
       id="path-effect16782"
       is_visible="true" />
    <inkscape:path-effect
       effect="spiro"
       id="path-effect16778"
       is_visible="true" />
    <inkscape:path-effect
       effect="spiro"
       id="path-effect16774"
       is_visible="true" />
    <pattern
       id="pattern6063"
       height="17.8516"
       width="24.8174"
       y="0"
       x="0"
       patternUnits="userSpaceOnUse"
       patternTransform="matrix(1,0,0,-1,-4171.3001,1094.5068)">
      <g
         id="g6065">
        <g
           id="g6067"
           clip-path="url(#clipPath6059)">
          <g
             id="g6069"
             transform="translate(1.834,14.3574)">
            <path
               id="path6071"
               style="fill:none;stroke:#ffffff;stroke-opacity:1;stroke-width:0.5;stroke-linecap:round;stroke-linejoin:round;stroke-miterlimit:10;stroke-dasharray:none"
               d="M 0,0 C 0,0 3,2.5 6.75,1.5" />
          </g>
          <g
             id="g6073"
             transform="translate(8.5029,10.9883)">
            <path
               id="path6075"
               style="fill:none;stroke:#ffffff;stroke-opacity:1;stroke-width:0.5;stroke-linecap:round;stroke-linejoin:round;stroke-miterlimit:10;stroke-dasharray:none"
               d="M 0,0 C 0,0 3.285,2.112 6.883,0.657" />
          </g>
          <g
             id="g6077"
             transform="translate(0.25,5.2002)">
            <path
               id="path6079"
               style="fill:none;stroke:#ffffff;stroke-opacity:1;stroke-width:0.5;stroke-linecap:round;stroke-linejoin:round;stroke-miterlimit:10;stroke-dasharray:none"
               d="M 0,0 C 0,0 3.285,2.111 6.883,0.657" />
          </g>
          <g
             id="g6081"
             transform="translate(16.8125,5.2002)">
            <path
               id="path6083"
               style="fill:none;stroke:#ffffff;stroke-opacity:1;stroke-width:0.5;stroke-linecap:round;stroke-linejoin:round;stroke-miterlimit:10;stroke-dasharray:none"
               d="M 0,0 C 0,0 3.285,2.111 6.883,0.657" />
          </g>
          <g
             id="g6085"
             transform="translate(17.6528,16.8242)">
            <path
               id="path6087"
               style="fill:none;stroke:#ffffff;stroke-opacity:1;stroke-width:0.5;stroke-linecap:round;stroke-linejoin:round;stroke-miterlimit:10;stroke-dasharray:none"
               d="M 0,0 C 0,0 3.48,1.771 6.915,-0.035" />
          </g>
          <g
             id="g6089"
             transform="translate(8.5029,0.25)">
            <path
               id="path6091"
               style="fill:none;stroke:#ffffff;stroke-opacity:1;stroke-width:0.5;stroke-linecap:round;stroke-linejoin:round;stroke-miterlimit:10;stroke-dasharray:none"
               d="M 0,0 C 0,0 3.285,2.112 6.883,0.657" />
          </g>
        </g>
      </g>
    </pattern>
    <clipPath
       id="clipPath6059"
       clipPathUnits="userSpaceOnUse">
      <path
         inkscape:connector-curvature="0"
         id="path6061"
         d="m 0,17.852 24.817,0 L 24.817,0 0,0 0,17.852 Z" />
    </clipPath>
    <pattern
       patternUnits="userSpaceOnUse"
       width="62.722197"
       height="13.940232"
       patternTransform="translate(311.76476,-798.75088)"
       id="pattern17603">
      <path
         style="fill:none;fill-rule:evenodd;stroke:#c6d8ec;stroke-width:5;stroke-linecap:round;stroke-linejoin:miter;stroke-miterlimit:4;stroke-dasharray:none;stroke-opacity:1"
         d="m 2.5190187,11.046121 c 1.9676214,-3.1412 4.9178048,-5.6570028 8.3303473,-7.1037997 3.412544,-1.446797 7.271953,-1.8180194 10.897703,-1.0482102 3.417441,0.7255816 6.54272,2.4109455 9.61403,4.076005 3.07131,1.6650595 6.196589,3.3504229 9.61403,4.0760049 3.62575,0.769809 7.485159,0.398587 10.897702,-1.0482102 3.412543,-1.446797 6.362727,-3.9625997 8.330348,-7.1037997"
         id="path16841"
         inkscape:path-effect="#path-effect17606"
         inkscape:original-d="m 2.5190187,11.046121 c 4.7295,-7.9737299 12.4985203,-20.3940399 19.2280503,-8.1520099 3.08913,6.29503 7.11407,10.7969399 19.22806,8.1520099 8.07439,-1.7629299 17.66593,-23.93629 19.22805,-8.1520099"
         inkscape:connector-curvature="0"
         sodipodi:nodetypes="ccsc" />
    </pattern>
    <linearGradient
       id="linearGradient10874">
      <stop
         offset="0"
         style="stop-color:#3c1a0f;stop-opacity:1"
         id="stop10876" />
      <stop
         offset="1"
         style="stop-color:#d7bbb3;stop-opacity:1"
         id="stop10878" />
    </linearGradient>
    <linearGradient
       id="linearGradient10852">
      <stop
         offset="0"
         style="stop-color:#391b0f;stop-opacity:1"
         id="stop10854" />
      <stop
         offset="0.10989064"
         style="stop-color:#5b2318;stop-opacity:1"
         id="stop10856" />
      <stop
         offset="0.2747266"
         style="stop-color:#5b2318;stop-opacity:1"
         id="stop10858" />
      <stop
         offset="1"
         style="stop-color:#905036;stop-opacity:1"
         id="stop10860" />
    </linearGradient>
    <linearGradient
       id="linearGradient10752">
      <stop
         offset="0"
         style="stop-color:#905036;stop-opacity:1"
         id="stop10754" />
      <stop
         offset="0.22499996"
         style="stop-color:#5b2318;stop-opacity:1"
         id="stop10760" />
      <stop
         offset="0.61250001"
         style="stop-color:#5b2318;stop-opacity:1"
         id="stop10762" />
      <stop
         offset="1"
         style="stop-color:#905036;stop-opacity:1"
         id="stop10756" />
    </linearGradient>
    <linearGradient
       gradientUnits="userSpaceOnUse"
       xlink:href="#linearGradient10752"
       id="linearGradient10758"
       y2="349.53339"
       x2="498.7532"
       y1="756.47388"
       x1="498.7532" />
    <linearGradient
       gradientTransform="matrix(0.93679084,-0.85929128,0.85927092,0.93681304,-400.209,462.78557)"
       gradientUnits="userSpaceOnUse"
       xlink:href="#linearGradient10852"
       id="linearGradient10797"
       y2="353.79749"
       x2="498.7532"
       y1="750.28534"
       x1="498.7532" />
    <linearGradient
       gradientTransform="matrix(0.93679084,-0.85929128,0.85927092,0.93681304,-400.209,462.78557)"
       gradientUnits="userSpaceOnUse"
       xlink:href="#linearGradient10874"
       id="linearGradient10872"
       y2="278.81351"
       x2="509.89749"
       y1="544.7467"
       x1="509.97107" />
    <pattern
       patternUnits="userSpaceOnUse"
       width="27.389408"
       height="21.849281"
       patternTransform="translate(908.49326,821.85024)"
       id="pattern11050">
      <path
         id="path11012"
         d="m 11.006939,11.766717 c 3.53863,-1.00734 3.37013,-1.51101 6.74025,0.16789 3.37013,1.6789 2.02208,2.51836 0.67402,4.02937 -1.34805,1.51101 -5.89771,4.86881 -7.58277,3.02202 -1.6850596,-1.84679 -3.7071396,-1.51101 -2.8646096,-3.3578 0.84254,-1.84679 3.0331096,-3.86148 3.0331096,-3.86148 z"
         style="fill:#8b4c33;fill-opacity:1;stroke:none" />
      <path
         id="path11014"
         d="m 19.937769,4.8832268 c -2.6961,1.6789 -4.38116,2.18258 -3.70713,3.69358 0.67402,1.5110202 2.19057,3.0220302 3.37012,3.0220302 1.17955,0 3.70714,2.01467 4.88668,0.50367 1.17954,-1.51102 3.20161,-2.1825702 2.8646,-4.1972602 -0.33701,-2.01468 0,-2.51835 -2.69609,-3.3578 -2.6961,-0.83945 -4.71818,0.33578 -4.71818,0.33578 z"
         style="fill:#8b4c33;fill-opacity:1;stroke:none" />
      <path
         id="path11016"
         d="m 21.117319,14.956637 c -1.68506,2.18257 -3.37013,2.18257 -3.20162,3.52569 0.16851,1.34313 1.17954,3.52569 3.37012,3.35781 2.19059,-0.1679 4.71818,-0.50367 4.88668,-2.51835 0.1685,-2.01469 1.85357,-4.19726 0,-4.86882 -1.85357,-0.67156 -5.05518,0.50367 -5.05518,0.50367 z"
         style="fill:#8b4c33;fill-opacity:1;stroke:none" />
      <path
         id="path11018"
         d="m 8.8163694,8.4089168 c 3.0330996,0.83945 4.0441396,0.33578 4.7181596,-0.16789 0.67403,-0.50367 1.17955,-1.17522 2.35909,-2.68624 1.17954,-1.51101 0.67403,-3.18991 -0.16851,-4.36515 -0.84252,-1.17523001 -0.84252,-1.17523001 -2.69609,-0.50367001 -1.85357,0.67156001 -3.2016196,1.00734001 -3.2016196,3.02203001 0,2.01468 -1.01103,4.70092 -1.01103,4.70092 z"
         style="fill:#8b4c33;fill-opacity:1;stroke:none" />
      <path
         id="path11020"
         d="m 7.8053294,3.2043268 c -0.33701,2.35046 0.84253,3.69358 -1.01104,5.37248 -1.85356,1.6789002 -4.38116,5.3724802 -5.05518,2.5183502 -0.67403,-2.8541302 -2.86461,-4.1972502 -1.01103996,-6.8835002 1.85355996,-2.68624 2.19057996,-4.86881001 4.21265996,-4.02936001 2.02207,0.83945001 2.8646,3.02203001 2.8646,3.02203001 z"
         style="fill:#8b4c33;fill-opacity:1;stroke:none" />
      <path
         id="path11022"
         d="m 7.4683194,10.591487 c 1.85356,-0.50366 2.52759,-1.3431202 1.01103,2.18257 -1.51655,3.5257 -3.37012,7.72295 -4.38115,7.21928 -1.01105,-0.50367 -2.5276,-3.86147 -2.19059,-5.2046 0.33701,-1.34311 2.35909,-1.17523 3.20162,-2.35045 0.84253,-1.17524 2.35909,-1.8468 2.35909,-1.8468 z"
         style="fill:#8b4c33;fill-opacity:1;stroke:none" />
    </pattern>
    <linearGradient
       id="linearGradient5542">
      <stop
         style="stop-color:#ff8037;stop-opacity:1"
         offset="0"
         id="stop5544" />
      <stop
         style="stop-color:#ffa546;stop-opacity:1"
         offset="1"
         id="stop5546" />
    </linearGradient>
    <linearGradient
       id="linearGradient5552">
      <stop
         id="stop5554"
         offset="0"
         style="stop-color:#fa8a8d;stop-opacity:1" />
      <stop
         id="stop5556"
         offset="1"
         style="stop-color:#f9353a;stop-opacity:1" />
    </linearGradient>
    <linearGradient
       id="linearGradient5536">
      <stop
         style="stop-color:#a8ed81;stop-opacity:1"
         offset="0"
         id="stop5538" />
      <stop
         style="stop-color:#66c430;stop-opacity:1"
         offset="1"
         id="stop5540" />
    </linearGradient>
    <linearGradient
       id="linearGradient5518">
      <stop
         style="stop-color:#ffd05b;stop-opacity:1"
         offset="0"
         id="stop5520" />
      <stop
         style="stop-color:#fff0cb;stop-opacity:1"
         offset="1"
         id="stop5522" />
    </linearGradient>
    <linearGradient
       id="linearGradient5524">
      <stop
         style="stop-color:#bbd5f8;stop-opacity:1"
         offset="0"
         id="stop5526" />
      <stop
         style="stop-color:#5e99ea;stop-opacity:1"
         offset="1"
         id="stop5528" />
    </linearGradient>
    <linearGradient
       id="linearGradient5512">
      <stop
         style="stop-color:#dfa0ed;stop-opacity:1"
         offset="0"
         id="stop5514" />
      <stop
         style="stop-color:#c650df;stop-opacity:1"
         offset="1"
         id="stop5516" />
    </linearGradient>
    <radialGradient
       gradientTransform="matrix(0.85031255,-0.15133061,0.02384544,0.89129441,151.97629,170.91025)"
       r="19"
       fy="130"
       fx="1036"
       cy="130"
       cx="1036"
       gradientUnits="userSpaceOnUse"
       id="radialGradient5612"
       xlink:href="#linearGradient5614"
       inkscape:collect="always" />
    <linearGradient
       id="linearGradient5614">
      <stop
         style="stop-color:#8a8a8a;stop-opacity:1"
         offset="0"
         id="stop5616" />
      <stop
         style="stop-color:#ffffff;stop-opacity:1"
         offset="1"
         id="stop5618" />
    </linearGradient>
  </defs>
  <sodipodi:namedview
     units="cm"
     fit-margin-bottom="0"
     fit-margin-right="0"
     fit-margin-left="0"
     fit-margin-top="0"
     inkscape:window-maximized="1"
     inkscape:window-y="24"
     inkscape:window-x="65"
     inkscape:window-height="1056"
     inkscape:window-width="1855"
     borderlayer="true"
     showgrid="false"
     inkscape:current-layer="layer4"
     inkscape:document-units="cm"
     inkscape:cy="385.43576"
     inkscape:cx="1380.7186"
     inkscape:zoom="0.5"
     inkscape:pageshadow="2"
     inkscape:pageopacity="0.0"
     borderopacity="1.0"
     bordercolor="#666666"
     pagecolor="#ffffff"
     id="base" />
  <metadata
     id="metadata16059">
    <rdf:RDF>
      <cc:Work
         rdf:about="">
        <dc:format>image/svg+xml</dc:format>
        <dc:type
           rdf:resource="http://purl.org/dc/dcmitype/StillImage" />
        <dc:title />
      </cc:Work>
    </rdf:RDF>
  </metadata>
  <g
     inkscape:groupmode="layer"
     id="layer2"
     inkscape:label="background"
     style="display:inline">
    <rect
       style="opacity:1;fill:#73d216;fill-opacity:1;stroke:#3465a4;stroke-width:0;stroke-miterlimit:4;stroke-dasharray:none;stroke-dashoffset:0;stroke-opacity:1"
       id="rect16686"
       width="1614.2858"
       height="2128.5715"
       x="-1189.1292"
       y="0.40406665"
       transform="matrix(0,-1,1,0,0,0)" />
    <path
       style="display:inline;fill:#fce94f;fill-opacity:1"
       d="m 532.72715,1170.1562 c 6.81887,-16.456 24.60132,-31.2758 32.68389,-49.043 12.54241,-31.0774 14.7447,-65.1075 22.23777,-97.5767 10.95032,-54.56851 23.34889,-109.78958 49.73367,-159.29439 14.44495,-43.81694 33.32288,-86.40259 45.54727,-130.97505 2.78088,-14.66782 12.0419,-30.6077 26.34761,-37.7249 7.15743,-4.50123 14.3423,6.34732 21.22162,8.39226 17.08724,12.38836 25.40804,33.06141 34.34736,51.46089 7.31046,26.42069 4.2512,54.41342 4.6122,81.53521 -2.29908,39.70256 -12.79594,78.40131 -20.28344,117.33907 -6.42873,31.6915 -13.69162,64.71861 -35.63997,89.75621 -26.49147,32.7879 -56.89767,62.6758 -92.53818,85.4528 -21.51394,15.4068 -43.92311,30.2187 -69.81022,37.0689 -5.71283,0.076 -13.54242,7.8291 -18.45958,3.6087 z"
       id="path4859"
       inkscape:connector-curvature="0" />
    <path
       style="display:inline;fill:#fce94f;fill-opacity:1"
       d="m 84.049988,706.15739 c -12.851661,-23.2245 -6.127211,-50.55828 -5.155711,-75.63404 3.215131,-24.65546 12.838462,-48.28301 25.256213,-69.62401 19.21616,-27.26511 51.18369,-40.62635 80.15246,-54.74608 22.01313,-8.58543 45.28678,-14.85217 69.09899,-14.27814 23.43908,-2.21912 47.33604,-2.07713 70.23573,3.84081 30.36296,3.54437 54.42077,23.96393 78.60492,40.76324 17.11723,14.22288 31.48581,32.53422 40.26869,53.07501 4.20874,18.64219 16.21865,36.01183 13.6097,55.80321 0.52972,15.17043 -20.11558,19.00764 -22.59214,2.47471 -7.20671,-19.54851 -29.25637,-25.62297 -45.39792,-36.02234 -46.98114,-23.10138 -98.86669,-44.75877 -152.38178,-38.00137 -47.65699,6.2583 -86.21812,40.70802 -111.35661,79.88835 -7.34512,12.18401 -16.36049,24.33567 -20.78373,37.66445 -0.0382,9.41956 -9.544511,21.40475 -19.558812,14.7962 z M 224.3226,495.91308 c -1.16891,-1.37008 -0.88737,0.9372 0,0 z m 57.09099,-2.49874 -2.38688,0.004 2.38688,-0.004 z"
       id="path4325"
       inkscape:connector-curvature="0" />
    <g
       id="g5306"
       transform="translate(273.18636,662.85603)"
       style="fill:#d3bc5f">
      <path
         sodipodi:nodetypes="aaaaaaaaaaaaaaaaaaaaaa"
         inkscape:connector-curvature="0"
         id="path17612"
         d="m -196.50757,303.87617 c 38.33538,79.10457 120.03395,136.16657 200.7267198,171.03505 79.5493852,34.3744 184.3397902,73.549 258.4026202,28.55565 91.78483,-55.75951 70.29848,-203.40627 116.17574,-300.50856 49.52243,-104.817537 67.15416,-251.235189 170.94803,-302.868703 68.23968,-33.946657 151.29486,18.792152 226.60999,30.482336 99.95593,15.514852 198.16758,43.000237 298.86247,52.61476 168.9836,16.13484495 351.6617,-55.040244 509.1901,8.2098531 120.565,48.4086929 187.2867,349.6110039 285.8467,264.9632039 115.3989,-99.10992 -121.7695,-306.382343 -256.1371,-377.69167 -145.7507,-77.35031 -331.8634,24.211009 -495.0119,-0.46466 -135.38606,-20.47669 -349.53569,8.89443 -392.51815,-121.11017 -10.51262,-31.79642 52.20452,-48.30712 59.42509,-81.00866 39.96111,-180.98156 42.33921,-438.87648 -109.52101,-545.12942 -102.56931,-71.76528 -330.46703,-61.67237 -371.24601,56.68216 -59.93346,173.94738 382.55003,217.77877 378.51102,401.71735 -1.99729,90.95773 -134.33899,123.08169 -195.71337,190.24182 C 403.60323,-128.00319 376.59382,65.516499 251.55533,71.289823 195.1272,73.895243 182.80887,-23.018378 133.1555,-49.952836 72.880702,-82.648884 -5.0657539,-115.99983 -68.589023,-90.175871 -142.39116,-60.173263 -181.70467,30.326658 -203.88675,106.84377 c -18.29961,63.12451 -21.28314,137.88807 7.37918,197.0324 z"
         style="fill:#d3bc5f;fill-opacity:1;fill-rule:evenodd;stroke:none;stroke-width:1px;stroke-linecap:butt;stroke-linejoin:miter;stroke-opacity:1" />
    </g>
  </g>
  <g
     inkscape:groupmode="layer"
     id="layer7"
     inkscape:label="detail" />
  <g
     inkscape:groupmode="layer"
     id="layer3"
     inkscape:label="terrains"
     style="display:inline">
    <path
       d="m 459.5918,140.03906 a 153.196,138.37059 40.309028 0 0 -95.38282,45.50196 153.196,138.37059 40.309028 0 0 -29.75781,95.48437 153.196,138.37059 40.309028 0 0 -118.27344,44.63672 153.196,138.37059 40.309028 0 0 -30.01757,91.63281 153.196,138.37059 40.309028 0 0 -23.8125,21.47461 153.196,138.37059 40.309028 0 0 12.74218,190.4668 153.196,138.37059 40.309028 0 0 48.32422,169.1582 153.196,138.37059 40.309028 0 0 196.19336,4.15235 153.196,138.37059 40.309028 0 0 201.23438,-10.4668 153.196,138.37059 40.309028 0 0 21.42968,-36.5957 A 153.196,138.37059 40.309028 0 0 745.58203,709.96875 153.196,138.37059 40.309028 0 0 730.53906,516.93945 153.196,138.37059 40.309028 0 0 688.45703,334.24023 153.196,138.37059 40.309028 0 0 628.01953,301.52344 153.196,138.37059 40.309028 0 0 570.54492,179.12891 153.196,138.37059 40.309028 0 0 459.5918,140.03906 Z"
       id="path16717"
       style="opacity:1;fill:#008000;fill-opacity:1;stroke:#3465a4;stroke-width:0;stroke-miterlimit:4;stroke-dasharray:none;stroke-dashoffset:0;stroke-opacity:1"
       inkscape:original="M 459.5918 140.03906 A 153.196 138.37059 40.309028 0 0 364.20898 185.54102 A 153.196 138.37059 40.309028 0 0 334.45117 281.02539 A 153.196 138.37059 40.309028 0 0 216.17773 325.66211 A 153.196 138.37059 40.309028 0 0 186.16016 417.29492 A 153.196 138.37059 40.309028 0 0 162.34766 438.76953 A 153.196 138.37059 40.309028 0 0 175.08984 629.23633 A 153.196 138.37059 40.309028 0 0 223.41406 798.39453 A 153.196 138.37059 40.309028 0 0 419.60742 802.54688 A 153.196 138.37059 40.309028 0 0 620.8418 792.08008 A 153.196 138.37059 40.309028 0 0 642.27148 755.48438 A 153.196 138.37059 40.309028 0 0 745.58203 709.96875 A 153.196 138.37059 40.309028 0 0 730.53906 516.93945 A 153.196 138.37059 40.309028 0 0 688.45703 334.24023 A 153.196 138.37059 40.309028 0 0 628.01953 301.52344 A 153.196 138.37059 40.309028 0 0 570.54492 179.12891 A 153.196 138.37059 40.309028 0 0 459.5918 140.03906 z "
       inkscape:radius="0"
       sodipodi:type="inkscape:offset"
       transform="matrix(0,-1,1,0,1090.698,1451.7869)" />
    <g
       id="g16729"
       transform="matrix(2.0618409,0.87069381,-1.0293747,1.7440025,827.96369,165.59654)">
      <path
         style="opacity:1;fill:#fce94f;fill-opacity:1;stroke:#3465a4;stroke-width:0;stroke-miterlimit:4;stroke-dasharray:none;stroke-dashoffset:0;stroke-opacity:1"
         d="m 163.37351,-232.87655 a 64.680682,71.61075 41.047501 0 0 1.75433,96.48107 64.680682,71.61075 41.047501 0 0 44.45016,14.48393 64.680682,71.61075 41.047501 0 0 20.15098,55.550961 64.680682,71.61075 41.047501 0 0 42.64934,14.582602 64.680682,71.61075 41.047501 0 0 9.89325,11.259013 64.680682,71.61075 41.047501 0 0 89.10227,-4.808243 64.680682,71.61075 41.047501 0 0 79.35729,-21.567534 64.680682,71.61075 41.047501 0 0 3.12293,-91.677249 64.680682,71.61075 41.047501 0 0 -3.68041,-94.12122 64.680682,71.61075 41.047501 0 0 -16.97584,-10.23688 64.680682,71.61075 41.047501 0 0 -20.65198,-48.56234 64.680682,71.61075 41.047501 0 0 -90.31395,5.86796 64.680682,71.61075 41.047501 0 0 -85.64766,18.56936 64.680682,71.61075 41.047501 0 0 -15.65618,28.05105 64.680682,71.61075 41.047501 0 0 -57.55453,26.12752 z"
         id="path16731"
         inkscape:connector-curvature="0" />
    </g>
    <path
       style="fill:#fce94f;fill-opacity:1"
       d=""
       id="path4327"
       inkscape:connector-curvature="0"
       transform="translate(0,-1.2207033e-4)" />
    <path
       style="fill:#fce94f;fill-opacity:1"
       d=""
       id="path4331"
       inkscape:connector-curvature="0"
       transform="translate(0,-1.2207033e-4)" />
  </g>
  <g
     inkscape:groupmode="layer"
     id="layer5"
     inkscape:label="castle_wall" />
  <g
     inkscape:groupmode="layer"
     id="layer6"
     inkscape:label="castle_fort" />
  <g
     inkscape:label="paths"
     inkscape:groupmode="layer"
     id="layer1"
     transform="translate(325.7143,386.07425)"
     style="display:inline">
    <g
       id="g16741"
       transform="matrix(0,-0.4819911,0.48199102,0,1400.1038,17.126232)" />
  </g>
  <g
     inkscape:groupmode="layer"
     id="layer4"
     inkscape:label="bushes"
     style="display:inline">
    <path
       style="opacity:1;fill:#008000;fill-opacity:1;stroke:#3465a4;stroke-width:0;stroke-miterlimit:4;stroke-dasharray:none;stroke-dashoffset:0;stroke-opacity:1"
       d="m 1296.3454,146.82726 a 34.51574,31.175511 64.596092 0 0 42.9681,17.80401 34.51574,31.175511 64.596092 0 0 14.9594,-16.85125 34.51574,31.175511 64.596092 0 0 28.4258,1.79359 34.51574,31.175511 64.596092 0 0 14.6562,-16.03655 34.51574,31.175511 64.596092 0 0 6.8799,-2.20322 34.51574,31.175511 64.596092 0 0 15.0337,-40.295906 34.51574,31.175511 64.596092 0 0 5.7521,-39.217384 34.51574,31.175511 64.596092 0 0 -39.9064,-19.03397 34.51574,31.175511 64.596092 0 0 -42.2964,-16.49853 34.51574,31.175511 64.596092 0 0 -7.7921,5.52951 34.51574,31.175511 64.596092 0 0 -25.4343,-0.22643 34.51574,31.175511 64.596092 0 0 -14.7988,41.03536 34.51574,31.175511 64.596092 0 0 -8.2881,41.41944 34.51574,31.175511 64.596092 0 0 9.3795,12.31944 34.51574,31.175511 64.596092 0 0 0.4614,30.46189 z"
       id="path16743"
       inkscape:connector-curvature="0" />
    <path
       style="opacity:1;fill:#008000;fill-opacity:1;stroke:#3465a4;stroke-width:0;stroke-miterlimit:4;stroke-dasharray:none;stroke-dashoffset:0;stroke-opacity:1"
       d="m 702.20465,353.31345 a 30.708335,27.736554 66.711786 0 0 -37.61751,-17.24049 30.708335,27.736554 66.711786 0 0 -13.85361,14.49086 30.708335,27.736554 66.711786 0 0 -25.21402,-2.52825 30.708335,27.736554 66.711786 0 0 -13.55728,13.77649 30.708335,27.736554 66.711786 0 0 -6.18917,1.73289 30.708335,27.736554 66.711786 0 0 -14.68967,35.3327 30.708335,27.736554 66.711786 0 0 -6.40214,34.67866 30.708335,27.736554 66.711786 0 0 34.85501,18.23347 30.708335,27.736554 66.711786 0 0 37.06318,16.05773 30.708335,27.736554 66.711786 0 0 7.10944,-4.66027 30.708335,27.736554 66.711786 0 0 22.60578,1.03666 30.708335,27.736554 66.711786 0 0 14.50511,-35.99785 30.708335,27.736554 66.711786 0 0 8.72918,-36.55318 30.708335,27.736554 66.711786 0 0 -7.93455,-11.26108 30.708335,27.736554 66.711786 0 0 0.59025,-27.09834 z"
       id="path4365"
       inkscape:connector-curvature="0" />
    <path
       style="opacity:1;fill:#008000;fill-opacity:1;stroke:#3465a4;stroke-width:0;stroke-miterlimit:4;stroke-dasharray:none;stroke-dashoffset:0;stroke-opacity:1"
       d="m 579.89571,155.05207 a 34.51574,31.175511 64.596092 0 0 42.9681,17.80401 34.51574,31.175511 64.596092 0 0 14.9594,-16.85125 34.51574,31.175511 64.596092 0 0 28.4258,1.79359 34.51574,31.175511 64.596092 0 0 14.6562,-16.03655 34.51574,31.175511 64.596092 0 0 6.8799,-2.20322 34.51574,31.175511 64.596092 0 0 15.0337,-40.295906 34.51574,31.175511 64.596092 0 0 5.7521,-39.217391 34.51574,31.175511 64.596092 0 0 -39.9064,-19.03397 34.51574,31.175511 64.596092 0 0 -42.2964,-16.49853 34.51574,31.175511 64.596092 0 0 -7.7921,5.52951 34.51574,31.175511 64.596092 0 0 -25.4343,-0.22643 34.51574,31.175511 64.596092 0 0 -14.7988,41.03536 34.51574,31.175511 64.596092 0 0 -8.28811,41.419447 34.51574,31.175511 64.596092 0 0 9.37951,12.31944 34.51574,31.175511 64.596092 0 0 0.4614,30.46189 z"
       id="path4367"
       inkscape:connector-curvature="0" />
    <path
       inkscape:connector-curvature="0"
       id="path4361"
       d="m 496.09435,489.38408 a 27.736566,30.708322 77.265622 0 0 -23.83893,33.82333 27.736566,30.708322 77.265622 0 0 11.70826,16.27344 27.736566,30.708322 77.265622 0 0 -7.10375,24.32439 27.736566,30.708322 77.265622 0 0 11.06024,15.85128 27.736566,30.708322 77.265622 0 0 0.56996,6.40187 27.736566,30.708322 77.265622 0 0 32.04435,20.91279 27.736566,30.708322 77.265622 0 0 32.91933,12.64565 27.736566,30.708322 77.265622 0 0 24.30913,-30.92568 27.736566,30.708322 77.265622 0 0 22.57465,-33.49502 27.736566,30.708322 77.265622 0 0 -3.27925,-7.84276 27.736566,30.708322 77.265622 0 0 5.15965,-22.03349 27.736566,30.708322 77.265622 0 0 -32.73206,-20.85319 27.736566,30.708322 77.265622 0 0 -34.33592,-15.27667 27.736566,30.708322 77.265622 0 0 -12.52387,5.73773 27.736566,30.708322 77.265622 0 0 -26.53179,-5.54367 z"
       style="opacity:1;fill:#008000;fill-opacity:1;stroke:#3465a4;stroke-width:0;stroke-miterlimit:4;stroke-dasharray:none;stroke-dashoffset:0;stroke-opacity:1" />
    <path
       style="display:inline;opacity:1;fill:#008000;fill-opacity:1;stroke:#3465a4;stroke-width:0;stroke-miterlimit:4;stroke-dasharray:none;stroke-dashoffset:0;stroke-opacity:1"
       d="m 440.58505,541.37069 a 34.515744,31.175515 64.596092 0 0 42.9681,17.80402 34.515744,31.175515 64.596092 0 0 14.95941,-16.85126 34.515744,31.175515 64.596092 0 0 28.4258,1.79359 34.515744,31.175515 64.596092 0 0 14.65619,-16.03655 34.515744,31.175515 64.596092 0 0 6.8799,-2.20322 34.515744,31.175515 64.596092 0 0 15.03371,-40.29591 34.515744,31.175515 64.596092 0 0 5.7521,-39.21739 34.515744,31.175515 64.596092 0 0 -39.90641,-19.03397 34.515744,31.175515 64.596092 0 0 -42.2964,-16.49853 34.515744,31.175515 64.596092 0 0 -7.7921,5.52951 34.515744,31.175515 64.596092 0 0 -25.4343,-0.22643 34.515744,31.175515 64.596092 0 0 -14.7988,41.03536 34.515744,31.175515 64.596092 0 0 -8.28811,41.41945 34.515744,31.175515 64.596092 0 0 9.37951,12.31944 34.515744,31.175515 64.596092 0 0 0.4614,30.46189 z"
       id="path4367-3"
       inkscape:connector-curvature="0" />
    <path
       style="display:inline;opacity:1;fill:#008000;fill-opacity:1;stroke:#3465a4;stroke-width:0;stroke-miterlimit:4;stroke-dasharray:none;stroke-dashoffset:0;stroke-opacity:1"
       d="m 87.059088,190.30104 a 47.285186,35.433402 7.8350792 0 0 63.597652,18.72967 47.285186,35.433402 7.8350792 0 0 22.14162,-17.72738 47.285186,35.433402 7.8350792 0 0 42.0734,1.88684 47.285186,35.433402 7.8350792 0 0 21.69281,-16.87031 47.285186,35.433402 7.8350792 0 0 10.18303,-2.31777 47.285186,35.433402 7.8350792 0 0 22.25159,-42.39095 47.285186,35.433402 7.8350792 0 0 8.51376,-41.25636 47.285186,35.433402 7.8350792 0 0 -59.066,-20.023573 47.285186,35.433402 7.8350792 0 0 -62.60345,-17.356311 47.285186,35.433402 7.8350792 0 0 -11.53319,5.816997 47.285186,35.433402 7.8350792 0 0 -37.64564,-0.238203 47.285186,35.433402 7.8350792 0 0 -21.903902,43.16885 47.285186,35.433402 7.8350792 0 0 -12.26734,43.5729 47.285186,35.433402 7.8350792 0 0 13.882735,12.95995 47.285186,35.433402 7.8350792 0 0 0.682925,32.04565 z"
       id="path4367-6"
       inkscape:connector-curvature="0" />
    <path
       style="display:inline;opacity:1;fill:#008000;fill-opacity:1;stroke:#3465a4;stroke-width:0;stroke-miterlimit:4;stroke-dasharray:none;stroke-dashoffset:0;stroke-opacity:1"
       d="m 64.584999,257.37066 a 34.515748,31.175519 64.596092 0 0 42.968101,17.80403 34.515748,31.175519 64.596092 0 0 14.95942,-16.85127 34.515748,31.175519 64.596092 0 0 28.42579,1.79359 34.515748,31.175519 64.596092 0 0 14.65619,-16.03655 34.515748,31.175519 64.596092 0 0 6.8799,-2.20322 34.515748,31.175519 64.596092 0 0 15.03372,-40.29592 34.515748,31.175519 64.596092 0 0 5.7521,-39.21739 34.515748,31.175519 64.596092 0 0 -39.90642,-19.03397 34.515748,31.175519 64.596092 0 0 -42.2964,-16.49853 34.515748,31.175519 64.596092 0 0 -7.7921,5.52951 34.515748,31.175519 64.596092 0 0 -25.4343,-0.22643 34.515748,31.175519 64.596092 0 0 -14.798802,41.03536 34.515748,31.175519 64.596092 0 0 -8.288111,41.41946 34.515748,31.175519 64.596092 0 0 9.379512,12.31944 34.515748,31.175519 64.596092 0 0 0.4614,30.46189 z"
       id="path4367-3-7"
       inkscape:connector-curvature="0" />
    <path
       style="display:inline;opacity:1;fill:#008000;fill-opacity:1;stroke:#3465a4;stroke-width:0;stroke-miterlimit:4;stroke-dasharray:none;stroke-dashoffset:0;stroke-opacity:1"
       d="m 118.58501,245.37066 a 34.515748,31.175519 64.596092 0 0 42.9681,17.80403 34.515748,31.175519 64.596092 0 0 14.95941,-16.85127 34.515748,31.175519 64.596092 0 0 28.42581,1.79359 34.515748,31.175519 64.596092 0 0 14.65618,-16.03655 34.515748,31.175519 64.596092 0 0 6.8799,-2.20322 34.515748,31.175519 64.596092 0 0 15.03372,-40.29592 34.515748,31.175519 64.596092 0 0 5.7521,-39.21739 34.515748,31.175519 64.596092 0 0 -39.90642,-19.03398 34.515748,31.175519 64.596092 0 0 -42.2964,-16.49853 34.515748,31.175519 64.596092 0 0 -7.7921,5.52951 34.515748,31.175519 64.596092 0 0 -25.4343,-0.22643 34.515748,31.175519 64.596092 0 0 -14.7988,41.03537 34.515748,31.175519 64.596092 0 0 -8.28811,41.41945 34.515748,31.175519 64.596092 0 0 9.37951,12.31945 34.515748,31.175519 64.596092 0 0 0.4614,30.46189 z"
       id="path4367-3-5"
       inkscape:connector-curvature="0" />
    <path
       style="display:inline;opacity:1;fill:#008000;fill-opacity:1;stroke:#3465a4;stroke-width:0;stroke-miterlimit:4;stroke-dasharray:none;stroke-dashoffset:0;stroke-opacity:1"
       d="m 151.55525,435.13103 a 15.550414,14.178733 29.352653 0 0 20.57086,7.62009 15.550414,14.178733 29.352653 0 0 7.16178,-7.21232 15.550414,14.178733 29.352653 0 0 13.60877,0.76766 15.550414,14.178733 29.352653 0 0 7.01662,-6.86362 15.550414,14.178733 29.352653 0 0 3.29373,-0.94297 15.550414,14.178733 29.352653 0 0 7.19735,-17.24659 15.550414,14.178733 29.352653 0 0 2.7538,-16.78498 15.550414,14.178733 29.352653 0 0 -19.10509,-8.14651 15.550414,14.178733 29.352653 0 0 -20.24929,-7.06135 15.550414,14.178733 29.352653 0 0 -3.73044,2.36662 15.550414,14.178733 29.352653 0 0 -12.17661,-0.0969 15.550414,14.178733 29.352653 0 0 -7.08488,17.56307 15.550414,14.178733 29.352653 0 0 -3.96791,17.72746 15.550414,14.178733 29.352653 0 0 4.49041,5.2727 15.550414,14.178733 29.352653 0 0 0.2209,13.03765 z"
       id="path4367-35"
       inkscape:connector-curvature="0" />
    <path
       style="display:inline;opacity:1;fill:#008000;fill-opacity:1;stroke:#3465a4;stroke-width:0;stroke-miterlimit:4;stroke-dasharray:none;stroke-dashoffset:0;stroke-opacity:1"
       d="m 337.10496,315.64706 a 28.884369,26.267037 28.083997 0 0 38.25299,14.10075 28.884369,26.267037 28.083997 0 0 13.31782,-13.34616 28.884369,26.267037 28.083997 0 0 25.30649,1.42052 28.884369,26.267037 28.083997 0 0 13.0479,-12.70091 28.884369,26.267037 28.083997 0 0 6.12493,-1.74495 28.884369,26.267037 28.083997 0 0 13.38398,-31.91427 28.884369,26.267037 28.083997 0 0 5.12089,-31.06008 28.884369,26.267037 28.083997 0 0 -35.52727,-15.07487 28.884369,26.267037 28.083997 0 0 -37.65499,-13.0668 28.884369,26.267037 28.083997 0 0 -6.93703,4.37936 28.884369,26.267037 28.083997 0 0 -22.64326,-0.17933 28.884369,26.267037 28.083997 0 0 -13.17486,32.49992 28.884369,26.267037 28.083997 0 0 -7.37861,32.80411 28.884369,26.267037 28.083997 0 0 8.35025,9.75697 28.884369,26.267037 28.083997 0 0 0.41077,24.12574 z"
       id="path4367-62"
       inkscape:connector-curvature="0" />
    <path
       style="display:inline;opacity:1;fill:#aca793;fill-opacity:1;stroke:#3465a4;stroke-width:0;stroke-miterlimit:4;stroke-dasharray:none;stroke-dashoffset:0;stroke-opacity:1"
       d="m 502.58505,325.37066 a 34.515748,31.175519 64.596092 0 0 42.96811,17.80403 34.515748,31.175519 64.596092 0 0 14.95941,-16.85127 34.515748,31.175519 64.596092 0 0 28.4258,1.79359 34.515748,31.175519 64.596092 0 0 14.65619,-16.03655 34.515748,31.175519 64.596092 0 0 6.8799,-2.20322 34.515748,31.175519 64.596092 0 0 15.03372,-40.29591 34.515748,31.175519 64.596092 0 0 5.7521,-39.2174 34.515748,31.175519 64.596092 0 0 -39.90642,-19.03397 34.515748,31.175519 64.596092 0 0 -42.2964,-16.49853 34.515748,31.175519 64.596092 0 0 -7.7921,5.52951 34.515748,31.175519 64.596092 0 0 -25.43431,-0.22643 34.515748,31.175519 64.596092 0 0 -14.7988,41.03536 34.515748,31.175519 64.596092 0 0 -8.28811,41.41946 34.515748,31.175519 64.596092 0 0 9.37951,12.31944 34.515748,31.175519 64.596092 0 0 0.4614,30.46189 z"
       id="path4367-3-70"
       inkscape:connector-curvature="0" />
    <path
       style="display:inline;opacity:1;fill:#aca793;fill-opacity:1;stroke:#3465a4;stroke-width:0;stroke-miterlimit:4;stroke-dasharray:none;stroke-dashoffset:0;stroke-opacity:1"
       d="m 1101.6916,621.73964 a 41.96267,38.328968 30.302055 0 0 -55.4622,-20.617 41.96267,38.328968 30.302055 0 0 -19.3093,19.5138 41.96267,38.328968 30.302055 0 0 -36.69131,-2.077 41.96267,38.328968 30.302055 0 0 -18.9179,18.5703 41.96267,38.328968 30.302055 0 0 -8.8804,2.5514 41.96267,38.328968 30.302055 0 0 -19.4052,46.6626 41.96267,38.328968 30.302055 0 0 -7.4247,45.4136 41.96267,38.328968 30.302055 0 0 51.5103,22.0413 41.96267,38.328968 30.302055 0 0 54.59521,19.1053 41.96267,38.328968 30.302055 0 0 10.0579,-6.4031 41.96267,38.328968 30.302055 0 0 32.83,0.2622 41.96267,38.328968 30.302055 0 0 19.102,-47.5189 41.96267,38.328968 30.302055 0 0 10.6981,-47.9637 41.96267,38.328968 30.302055 0 0 -12.1069,-14.2659 41.96267,38.328968 30.302055 0 0 -0.5956,-35.2749 z"
       id="path4367-3-70-3"
       inkscape:connector-curvature="0" />
    <path
       style="display:inline;opacity:1;fill:#aca793;fill-opacity:1;stroke:#3465a4;stroke-width:0;stroke-miterlimit:4;stroke-dasharray:none;stroke-dashoffset:0;stroke-opacity:1"
       d="m 530.58504,1067.3708 a 34.515752,31.175523 64.596092 0 0 42.96812,17.804 34.515752,31.175523 64.596092 0 0 14.95941,-16.8513 34.515752,31.175523 64.596092 0 0 28.4258,1.7936 34.515752,31.175523 64.596092 0 0 14.65619,-16.0365 34.515752,31.175523 64.596092 0 0 6.8799,-2.2033 34.515752,31.175523 64.596092 0 0 15.03373,-40.2959 34.515752,31.175523 64.596092 0 0 5.7521,-39.21738 34.515752,31.175523 64.596092 0 0 -39.90643,-19.03398 34.515752,31.175523 64.596092 0 0 -42.2964,-16.49853 34.515752,31.175523 64.596092 0 0 -7.7921,5.52951 34.515752,31.175523 64.596092 0 0 -25.43432,-0.22643 34.515752,31.175523 64.596092 0 0 -14.7988,41.03537 34.515752,31.175523 64.596092 0 0 -8.28811,41.41944 34.515752,31.175523 64.596092 0 0 9.37951,12.3195 34.515752,31.175523 64.596092 0 0 0.4614,30.4619 z"
       id="path4367-3-70-6"
       inkscape:connector-curvature="0" />
    <use
       id="use5348"
       xlink:href="#path4367-3-5"
       x="0"
       y="0"
       width="100%"
       height="100%"
       transform="translate(94.839216,454.10068)" />
    <use
       id="use5350"
       xlink:href="#path4367-3-5"
       x="0"
       y="0"
       width="100%"
       height="100%"
       transform="translate(2.1799628,452.76249)" />
    <use
       id="use5352"
       xlink:href="#path4367-3-5"
       x="0"
       y="0"
       width="100%"
       height="100%"
       transform="translate(-2.0392832,444.77076)" />
    <use
       id="use5368"
       xlink:href="#path4367-3-5"
       x="0"
       y="0"
       width="100%"
       height="100%"
       transform="translate(87.547646,416.75445)" />
    <use
       id="use5370"
       xlink:href="#path4367-3-5"
       x="0"
       y="0"
       width="100%"
       height="100%"
       transform="translate(162.95552,770.99169)" />
    <use
       id="use5380"
       xlink:href="#path4367-3-5"
       x="0"
       y="0"
       width="100%"
       height="100%"
       transform="translate(660.60827,663.50301)" />
  </g>
  <g
     inkscape:groupmode="layer"
     id="layer8"
     inkscape:label="Objects"
     style="display:inline" />
</svg>
