<?xml version="1.0" encoding="UTF-8" standalone="no"?>
<!-- Created with Inkscape (http://www.inkscape.org/) -->

<svg
   xmlns:dc="http://purl.org/dc/elements/1.1/"
   xmlns:cc="http://creativecommons.org/ns#"
   xmlns:rdf="http://www.w3.org/1999/02/22-rdf-syntax-ns#"
   xmlns:svg="http://www.w3.org/2000/svg"
   xmlns="http://www.w3.org/2000/svg"
   xmlns:sodipodi="http://sodipodi.sourceforge.net/DTD/sodipodi-0.dtd"
   xmlns:inkscape="http://www.inkscape.org/namespaces/inkscape"
   sodipodi:docname="map.svg"
   inkscape:version="0.91 r13725"
   version="1.1"
   id="svg16054"
   viewBox="0 0 2125.9843 1187.0078"
   height="33.5cm"
   width="60cm">
  <defs
     id="defs16056">
    <inkscape:path-effect
       effect="spiro"
       id="path-effect5341"
       is_visible="true" />
    <inkscape:path-effect
       effect="spiro"
       id="path-effect17606"
       is_visible="true" />
    <inkscape:path-effect
       is_visible="true"
       id="path-effect16830"
       effect="spiro" />
    <inkscape:path-effect
       is_visible="true"
       id="path-effect16826"
       effect="spiro" />
    <inkscape:path-effect
       is_visible="true"
       id="path-effect16822"
       effect="spiro" />
    <inkscape:path-effect
       is_visible="true"
       id="path-effect16818"
       effect="spiro" />
    <inkscape:path-effect
       is_visible="true"
       id="path-effect16814"
       effect="spiro" />
    <inkscape:path-effect
       is_visible="true"
       id="path-effect16810"
       effect="spiro" />
    <inkscape:path-effect
       is_visible="true"
       id="path-effect16806"
       effect="spiro" />
    <inkscape:path-effect
       is_visible="true"
       id="path-effect16802"
       effect="spiro" />
    <inkscape:path-effect
       is_visible="true"
       id="path-effect16798"
       effect="spiro" />
    <inkscape:path-effect
       effect="spiro"
       id="path-effect16794"
       is_visible="true" />
    <inkscape:path-effect
       effect="spiro"
       id="path-effect16790"
       is_visible="true" />
    <inkscape:path-effect
       effect="spiro"
       id="path-effect16786"
       is_visible="true" />
    <inkscape:path-effect
       effect="spiro"
       id="path-effect16782"
       is_visible="true" />
    <inkscape:path-effect
       effect="spiro"
       id="path-effect16778"
       is_visible="true" />
    <inkscape:path-effect
       effect="spiro"
       id="path-effect16774"
       is_visible="true" />
    <pattern
       id="pattern6063"
       height="17.8516"
       width="24.8174"
       y="0"
       x="0"
       patternUnits="userSpaceOnUse"
       patternTransform="matrix(1,0,0,-1,-4171.3001,1094.5068)">
      <g
         id="g6065">
        <g
           id="g6067"
           clip-path="url(#clipPath6059)">
          <g
             id="g6069"
             transform="translate(1.834,14.3574)">
            <path
               id="path6071"
               style="fill:none;stroke:#ffffff;stroke-opacity:1;stroke-width:0.5;stroke-linecap:round;stroke-linejoin:round;stroke-miterlimit:10;stroke-dasharray:none"
               d="M 0,0 C 0,0 3,2.5 6.75,1.5" />
          </g>
          <g
             id="g6073"
             transform="translate(8.5029,10.9883)">
            <path
               id="path6075"
               style="fill:none;stroke:#ffffff;stroke-opacity:1;stroke-width:0.5;stroke-linecap:round;stroke-linejoin:round;stroke-miterlimit:10;stroke-dasharray:none"
               d="M 0,0 C 0,0 3.285,2.112 6.883,0.657" />
          </g>
          <g
             id="g6077"
             transform="translate(0.25,5.2002)">
            <path
               id="path6079"
               style="fill:none;stroke:#ffffff;stroke-opacity:1;stroke-width:0.5;stroke-linecap:round;stroke-linejoin:round;stroke-miterlimit:10;stroke-dasharray:none"
               d="M 0,0 C 0,0 3.285,2.111 6.883,0.657" />
          </g>
          <g
             id="g6081"
             transform="translate(16.8125,5.2002)">
            <path
               id="path6083"
               style="fill:none;stroke:#ffffff;stroke-opacity:1;stroke-width:0.5;stroke-linecap:round;stroke-linejoin:round;stroke-miterlimit:10;stroke-dasharray:none"
               d="M 0,0 C 0,0 3.285,2.111 6.883,0.657" />
          </g>
          <g
             id="g6085"
             transform="translate(17.6528,16.8242)">
            <path
               id="path6087"
               style="fill:none;stroke:#ffffff;stroke-opacity:1;stroke-width:0.5;stroke-linecap:round;stroke-linejoin:round;stroke-miterlimit:10;stroke-dasharray:none"
               d="M 0,0 C 0,0 3.48,1.771 6.915,-0.035" />
          </g>
          <g
             id="g6089"
             transform="translate(8.5029,0.25)">
            <path
               id="path6091"
               style="fill:none;stroke:#ffffff;stroke-opacity:1;stroke-width:0.5;stroke-linecap:round;stroke-linejoin:round;stroke-miterlimit:10;stroke-dasharray:none"
               d="M 0,0 C 0,0 3.285,2.112 6.883,0.657" />
          </g>
        </g>
      </g>
    </pattern>
    <clipPath
       id="clipPath6059"
       clipPathUnits="userSpaceOnUse">
      <path
         inkscape:connector-curvature="0"
         id="path6061"
         d="m 0,17.852 24.817,0 L 24.817,0 0,0 0,17.852 Z" />
    </clipPath>
    <pattern
       patternUnits="userSpaceOnUse"
       width="62.722197"
       height="13.940232"
       patternTransform="translate(311.76476,-798.75088)"
       id="pattern17603">
      <path
         style="fill:none;fill-rule:evenodd;stroke:#c6d8ec;stroke-width:5;stroke-linecap:round;stroke-linejoin:miter;stroke-miterlimit:4;stroke-dasharray:none;stroke-opacity:1"
         d="m 2.5190187,11.046121 c 1.9676214,-3.1412 4.9178048,-5.6570028 8.3303473,-7.1037997 3.412544,-1.446797 7.271953,-1.8180194 10.897703,-1.0482102 3.417441,0.7255816 6.54272,2.4109455 9.61403,4.076005 3.07131,1.6650595 6.196589,3.3504229 9.61403,4.0760049 3.62575,0.769809 7.485159,0.398587 10.897702,-1.0482102 3.412543,-1.446797 6.362727,-3.9625997 8.330348,-7.1037997"
         id="path16841"
         inkscape:path-effect="#path-effect17606"
         inkscape:original-d="m 2.5190187,11.046121 c 4.7295,-7.9737299 12.4985203,-20.3940399 19.2280503,-8.1520099 3.08913,6.29503 7.11407,10.7969399 19.22806,8.1520099 8.07439,-1.7629299 17.66593,-23.93629 19.22805,-8.1520099"
         inkscape:connector-curvature="0"
         sodipodi:nodetypes="ccsc" />
    </pattern>
  </defs>
  <sodipodi:namedview
     units="cm"
     fit-margin-bottom="0"
     fit-margin-right="0"
     fit-margin-left="0"
     fit-margin-top="0"
     inkscape:window-maximized="1"
     inkscape:window-y="867"
     inkscape:window-x="0"
     inkscape:window-height="1025"
     inkscape:window-width="1920"
     borderlayer="true"
     showgrid="false"
     inkscape:current-layer="layer1"
     inkscape:document-units="cm"
     inkscape:cy="338.1628"
     inkscape:cx="592.8366"
     inkscape:zoom="0.35"
     inkscape:pageshadow="2"
     inkscape:pageopacity="0.0"
     borderopacity="1.0"
     bordercolor="#666666"
     pagecolor="#ffffff"
     id="base" />
  <metadata
     id="metadata16059">
    <rdf:RDF>
      <cc:Work
         rdf:about="">
        <dc:format>image/svg+xml</dc:format>
        <dc:type
           rdf:resource="http://purl.org/dc/dcmitype/StillImage" />
        <dc:title></dc:title>
      </cc:Work>
    </rdf:RDF>
  </metadata>
  <g
     inkscape:label="Layer 1"
     inkscape:groupmode="layer"
     id="layer1"
     transform="translate(325.7143,386.07425)">
    <rect
       style="opacity:1;fill:#89d8a2;fill-opacity:1;stroke:#3465a4;stroke-width:0;stroke-miterlimit:4;stroke-dasharray:none;stroke-dashoffset:0;stroke-opacity:1"
       id="rect16686"
       width="1614.2858"
       height="2128.5715"
       x="-800.93365"
       y="-325.71429"
       transform="matrix(0,-1,1,0,0,0)" />
    <g
       id="g5306"
       transform="translate(-52.527939,276.78183)">
      <path
         sodipodi:nodetypes="aaaaaaaaaaaaaaaaaaaaaa"
         inkscape:connector-curvature="0"
         id="path17612"
         d="m -196.50757,303.87617 c 38.33538,79.10457 120.03395,136.16657 200.7267198,171.03505 79.5493852,34.3744 184.3397902,73.549 258.4026202,28.55565 91.78483,-55.75951 70.29848,-203.40627 116.17574,-300.50856 49.52243,-104.817537 67.15416,-251.235189 170.94803,-302.868703 68.23968,-33.946657 151.29486,18.792152 226.60999,30.482336 99.95593,15.514852 198.16758,43.000237 298.86247,52.61476 168.9836,16.13484495 351.6617,-55.040244 509.1901,8.2098531 120.565,48.4086929 187.2867,349.6110039 285.8467,264.9632039 115.3989,-99.10992 -121.7695,-306.382343 -256.1371,-377.69167 -145.7507,-77.35031 -331.8634,24.211009 -495.0119,-0.46466 -135.38606,-20.47669 -349.53569,8.89443 -392.51815,-121.11017 -10.51262,-31.79642 52.20452,-48.30712 59.42509,-81.00866 39.96111,-180.98156 42.33921,-438.87648 -109.52101,-545.12942 -102.56931,-71.76528 -330.46703,-61.67237 -371.24601,56.68216 -59.93346,173.94738 382.55003,217.77877 378.51102,401.71735 -1.99729,90.95773 -134.33899,123.08169 -195.71337,190.24182 C 403.60323,-128.00319 376.59382,65.516499 251.55533,71.289823 195.1272,73.895243 182.80887,-23.018378 133.1555,-49.952836 72.880702,-82.648884 -5.0657539,-115.99983 -68.589023,-90.175871 -142.39116,-60.173263 -181.70467,30.326658 -203.88675,106.84377 c -18.29961,63.12451 -21.28314,137.88807 7.37918,197.0324 z"
         style="fill:#489be2;fill-opacity:1;fill-rule:evenodd;stroke:none;stroke-width:1px;stroke-linecap:butt;stroke-linejoin:miter;stroke-opacity:1" />
      <g
         id="g5285">
        <g
           style="fill:none;stroke:#3465a4;stroke-linecap:round;stroke-linejoin:round"
           id="g5226"
           transform="matrix(0,-1,1,0,351.41226,782.15558)">
          <path
             sodipodi:nodetypes="ccccccc"
             inkscape:connector-curvature="0"
             id="path5228"
             transform="matrix(0,1.0000001,-1.0000001,0,1003.4366,-608.35208)"
             d="m 476.42773,633.65625 c -3.10072,-1.07971 -6.35927,-1.63677 -9.64257,-1.64844 -6.60815,0.004 -13.0254,2.21643 -18.23243,6.28516 -5.197,-4.06091 -11.59988,-6.27264 -18.19531,-6.28516 -7.0712,0.0128 -13.90488,2.55305 -19.26758,7.16211 -5.37239,-4.61737 -12.22071,-7.15812 -19.30468,-7.16211 -3.53858,0.0121 -7.04641,0.65772 -10.35743,1.90625"
             style="fill:none;fill-opacity:1;stroke:#3465a4;stroke-width:10;stroke-linecap:round;stroke-linejoin:round;stroke-miterlimit:4;stroke-dasharray:none;stroke-opacity:1" />
        </g>
        <g
           style="fill:none;stroke:#3465a4;stroke-linecap:round;stroke-linejoin:round"
           id="g5230"
           transform="matrix(0,-1,1,0,147.94594,685.54498)">
          <path
             sodipodi:nodetypes="ccccccc"
             inkscape:connector-curvature="0"
             id="path5232"
             transform="matrix(0,1.0000001,-1.0000001,0,1003.4366,-608.35208)"
             d="m 476.42773,633.65625 c -3.10072,-1.07971 -6.35927,-1.63677 -9.64257,-1.64844 -6.60815,0.004 -13.0254,2.21643 -18.23243,6.28516 -5.197,-4.06091 -11.59988,-6.27264 -18.19531,-6.28516 -7.0712,0.0128 -13.90488,2.55305 -19.26758,7.16211 -5.37239,-4.61737 -12.22071,-7.15812 -19.30468,-7.16211 -3.53858,0.0121 -7.04641,0.65772 -10.35743,1.90625"
             style="fill:none;fill-opacity:1;stroke:#3465a4;stroke-width:10;stroke-linecap:round;stroke-linejoin:round;stroke-miterlimit:4;stroke-dasharray:none;stroke-opacity:1" />
        </g>
        <g
           style="fill:none;stroke:#3465a4;stroke-linecap:round;stroke-linejoin:round"
           id="g5234"
           transform="matrix(0,-1,1,0,393.63563,573.81181)">
          <path
             sodipodi:nodetypes="ccccccc"
             inkscape:connector-curvature="0"
             id="path5236"
             transform="matrix(0,1.0000001,-1.0000001,0,1003.4366,-608.35208)"
             d="m 476.42773,633.65625 c -3.10072,-1.07971 -6.35927,-1.63677 -9.64257,-1.64844 -6.60815,0.004 -13.0254,2.21643 -18.23243,6.28516 -5.197,-4.06091 -11.59988,-6.27264 -18.19531,-6.28516 -7.0712,0.0128 -13.90488,2.55305 -19.26758,7.16211 -5.37239,-4.61737 -12.22071,-7.15812 -19.30468,-7.16211 -3.53858,0.0121 -7.04641,0.65772 -10.35743,1.90625"
             style="fill:none;fill-opacity:1;stroke:#3465a4;stroke-width:10;stroke-linecap:round;stroke-linejoin:round;stroke-miterlimit:4;stroke-dasharray:none;stroke-opacity:1" />
        </g>
        <g
           style="fill:none;stroke:#3465a4;stroke-linecap:round;stroke-linejoin:round"
           id="g5238"
           transform="matrix(0,-1,1,0,173.17002,534.01486)">
          <path
             sodipodi:nodetypes="ccccccc"
             inkscape:connector-curvature="0"
             id="path5240"
             transform="matrix(0,1.0000001,-1.0000001,0,1003.4366,-608.35208)"
             d="m 476.42773,633.65625 c -3.10072,-1.07971 -6.35927,-1.63677 -9.64257,-1.64844 -6.60815,0.004 -13.0254,2.21643 -18.23243,6.28516 -5.197,-4.06091 -11.59988,-6.27264 -18.19531,-6.28516 -7.0712,0.0128 -13.90488,2.55305 -19.26758,7.16211 -5.37239,-4.61737 -12.22071,-7.15812 -19.30468,-7.16211 -3.53858,0.0121 -7.04641,0.65772 -10.35743,1.90625"
             style="fill:none;fill-opacity:1;stroke:#3465a4;stroke-width:10;stroke-linecap:round;stroke-linejoin:round;stroke-miterlimit:4;stroke-dasharray:none;stroke-opacity:1" />
        </g>
        <g
           style="fill:none;stroke:#3465a4;stroke-linecap:round;stroke-linejoin:round"
           id="g5242"
           transform="matrix(0,-1,1,0,244.81908,427.27809)">
          <path
             sodipodi:nodetypes="ccccccc"
             inkscape:connector-curvature="0"
             id="path5244"
             transform="matrix(0,1.0000001,-1.0000001,0,1003.4366,-608.35208)"
             d="m 476.42773,633.65625 c -3.10072,-1.07971 -6.35927,-1.63677 -9.64257,-1.64844 -6.60815,0.004 -13.0254,2.21643 -18.23243,6.28516 -5.197,-4.06091 -11.59988,-6.27264 -18.19531,-6.28516 -7.0712,0.0128 -13.90488,2.55305 -19.26758,7.16211 -5.37239,-4.61737 -12.22071,-7.15812 -19.30468,-7.16211 -3.53858,0.0121 -7.04641,0.65772 -10.35743,1.90625"
             style="fill:none;fill-opacity:1;stroke:#3465a4;stroke-width:10;stroke-linecap:round;stroke-linejoin:round;stroke-miterlimit:4;stroke-dasharray:none;stroke-opacity:1" />
        </g>
        <path
           style="fill:none;fill-opacity:1;stroke:#3465a4;stroke-width:10;stroke-linecap:round;stroke-linejoin:round;stroke-miterlimit:4;stroke-dasharray:none;stroke-opacity:1"
           d="m 664.89051,-202.56469 c -3.10072,-1.07971 -6.35927,-1.63677 -9.64257,-1.64844 -6.60815,0.004 -13.0254,2.21643 -18.23243,6.28516 -5.197,-4.06091 -11.59988,-6.27264 -18.19531,-6.28516 -7.0712,0.0128 -13.90488,2.55305 -19.26758,7.16211 -5.37239,-4.61737 -12.22071,-7.15812 -19.30468,-7.16211 -3.53859,0.0121 -7.04642,0.65772 -10.35744,1.90625"
           id="path5251"
           inkscape:connector-curvature="0"
           sodipodi:nodetypes="ccccccc" />
        <path
           style="fill:none;fill-opacity:1;stroke:#3465a4;stroke-width:10;stroke-linecap:round;stroke-linejoin:round;stroke-miterlimit:4;stroke-dasharray:none;stroke-opacity:1"
           d="m 1099.2562,-71.24484 c -3.1008,-1.07971 -6.3593,-1.63677 -9.6426,-1.64844 -6.6082,0.004 -13.0254,2.21643 -18.2324,6.28516 -5.197,-4.06091 -11.5999,-6.27264 -18.1954,-6.28516 -7.0711,0.0128 -13.9048,2.55305 -19.2675,7.16211 -5.3724,-4.61737 -12.2208,-7.15812 -19.3047,-7.16211 -3.5386,0.0121 -7.0464,0.65772 -10.3575,1.90625"
           id="path5253"
           inkscape:connector-curvature="0"
           sodipodi:nodetypes="ccccccc" />
        <path
           style="fill:none;fill-opacity:1;stroke:#3465a4;stroke-width:10;stroke-linecap:round;stroke-linejoin:round;stroke-miterlimit:4;stroke-dasharray:none;stroke-opacity:1"
           d="m 1545.7436,-91.4479 c -3.1007,-1.07971 -6.3592,-1.63677 -9.6425,-1.64844 -6.6082,0.004 -13.0254,2.21643 -18.2325,6.28516 -5.197,-4.06091 -11.5998,-6.27264 -18.1953,-6.28516 -7.0712,0.0128 -13.9049,2.55305 -19.2676,7.16211 -5.3723,-4.61737 -12.2207,-7.15812 -19.3046,-7.16211 -3.5386,0.0121 -7.0464,0.65772 -10.3575,1.90625"
           id="path5255"
           inkscape:connector-curvature="0"
           sodipodi:nodetypes="ccccccc" />
        <path
           style="fill:none;fill-opacity:1;stroke:#3465a4;stroke-width:10;stroke-linecap:round;stroke-linejoin:round;stroke-miterlimit:4;stroke-dasharray:none;stroke-opacity:1"
           d="m 1761.9163,25.72981 c -3.1007,-1.07971 -6.3592,-1.63677 -9.6425,-1.64844 -6.6082,0.004 -13.0254,2.21643 -18.2325,6.28516 -5.197,-4.06091 -11.5998,-6.27264 -18.1953,-6.28516 -7.0712,0.0128 -13.9049,2.55305 -19.2676,7.16211 -5.3723,-4.61737 -12.2207,-7.15812 -19.3046,-7.16211 -3.5386,0.0121 -7.0464,0.65772 -10.3575,1.90625"
           id="path5257"
           inkscape:connector-curvature="0"
           sodipodi:nodetypes="ccccccc" />
        <path
           style="fill:none;fill-opacity:1;stroke:#3465a4;stroke-width:10;stroke-linecap:round;stroke-linejoin:round;stroke-miterlimit:4;stroke-dasharray:none;stroke-opacity:1"
           d="m 759.84486,-578.34144 c -3.10072,-1.0797 -6.35927,-1.6368 -9.64257,-1.6485 -6.60815,0 -13.0254,2.2165 -18.23243,6.2852 -5.197,-4.0609 -11.59988,-6.2727 -18.19531,-6.2852 -7.0712,0.013 -13.90488,2.5531 -19.26758,7.1621 -5.37239,-4.6173 -12.22071,-7.1581 -19.30468,-7.1621 -3.53858,0.012 -7.04641,0.6577 -10.35743,1.9063"
           id="path5259"
           inkscape:connector-curvature="0"
           sodipodi:nodetypes="ccccccc" />
        <path
           style="fill:none;fill-opacity:1;stroke:#3465a4;stroke-width:10;stroke-linecap:round;stroke-linejoin:round;stroke-miterlimit:4;stroke-dasharray:none;stroke-opacity:1"
           d="m 618.42349,-634.91004 c -3.10072,-1.0797 -6.35927,-1.6368 -9.64257,-1.6484 -6.60815,0 -13.0254,2.2164 -18.23243,6.2851 -5.197,-4.0609 -11.59988,-6.2726 -18.19531,-6.2851 -7.0712,0.013 -13.90488,2.553 -19.26758,7.1621 -5.3724,-4.6174 -12.22072,-7.1581 -19.30469,-7.1621 -3.53858,0.012 -7.04641,0.6577 -10.35743,1.9062"
           id="path5261"
           inkscape:connector-curvature="0"
           sodipodi:nodetypes="ccccccc" />
        <path
           style="fill:none;fill-opacity:1;stroke:#3465a4;stroke-width:10;stroke-linecap:round;stroke-linejoin:round;stroke-miterlimit:4;stroke-dasharray:none;stroke-opacity:1"
           d="m 703.27631,-754.10794 c -3.10072,-1.0797 -6.35927,-1.6368 -9.64257,-1.6485 -6.60815,0 -13.0254,2.2165 -18.23243,6.2852 -5.197,-4.0609 -11.59988,-6.2726 -18.19531,-6.2852 -7.0712,0.013 -13.90488,2.5531 -19.26758,7.1621 -5.37239,-4.6173 -12.22071,-7.1581 -19.30468,-7.1621 -3.53858,0.012 -7.04641,0.6578 -10.35744,1.9063"
           id="path5263"
           inkscape:connector-curvature="0"
           sodipodi:nodetypes="ccccccc" />
        <path
           style="fill:none;fill-opacity:1;stroke:#3465a4;stroke-width:10;stroke-linecap:round;stroke-linejoin:round;stroke-miterlimit:4;stroke-dasharray:none;stroke-opacity:1"
           d="m 503.26609,-816.73744 c -3.10072,-1.0797 -6.35927,-1.6368 -9.64257,-1.6485 -6.60815,0 -13.0254,2.2165 -18.23244,6.2852 -5.197,-4.0609 -11.59988,-6.2726 -18.19531,-6.2852 -7.0712,0.013 -13.90488,2.5531 -19.26758,7.1621 -5.37239,-4.6173 -12.22071,-7.1581 -19.30468,-7.1621 -3.53858,0.012 -7.04641,0.6578 -10.35743,1.9063"
           id="path5265"
           inkscape:connector-curvature="0"
           sodipodi:nodetypes="ccccccc" />
        <path
           sodipodi:nodetypes="ccccccc"
           inkscape:connector-curvature="0"
           id="path5206"
           d="m 373.96655,116.64362 c -3.10072,-1.0797 -6.35927,-1.6368 -9.64257,-1.6485 -6.60816,0 -13.02541,2.2165 -18.23244,6.2852 -5.197,-4.0609 -11.59988,-6.2726 -18.19531,-6.2852 -7.0712,0.013 -13.90488,2.5531 -19.26758,7.1621 -5.37239,-4.6173 -12.22071,-7.1581 -19.30468,-7.1621 -3.53858,0.012 -7.04641,0.6578 -10.35743,1.9063"
           style="fill:none;fill-opacity:1;stroke:#3465a4;stroke-width:10;stroke-linecap:round;stroke-linejoin:round;stroke-miterlimit:4;stroke-dasharray:none;stroke-opacity:1" />
      </g>
    </g>
    <path
       style="fill:#a99573;fill-opacity:1;fill-rule:evenodd;stroke:none;stroke-width:1px;stroke-linecap:butt;stroke-linejoin:miter;stroke-opacity:1"
       d="m 980.47852,-557.2793 c -15.71903,1.78092 -25.12136,17.47179 -31.29102,30.71875 -15.6929,34.41731 -2.31625,62.00777 -8.3387,99.271 -1.93686,35.23158 -3.41654,77.4867 -2.85824,112.82979 5.43043,40.95769 5.81114,84.12959 -2.67686,125.96093 -7.78348,32.53102 -36.30144,55.98457 -66.74339,66.85821 -47.46119,17.61741 -99.24452,12.84331 -148.44882,7.22898 -128.51986,-15.31059 -269.95899,-30.02664 -375.39058,-106.44119 -26.62108,-19.52047 -46.87907,-62.45193 -68.12705,-87.8643 -20.46935,-30.37495 -13.63912,-73.32172 -21.80094,-107.9214 -2.82934,-12.68153 -5.79807,-26.74963 -15.93769,-35.66616 -12.74553,-5.14606 -26.41858,4.39865 -33.33398,14.72266 -13.58506,20.7141 -13.47495,46.69738 -13.06836,70.54101 1.99074,41.78415 11.65896,83.13588 27.87332,121.73301 16.95968,36.01047 50.69789,60.23101 83.98606,80.15176 27.39527,15.46065 55.62749,29.80676 85.4431,39.88756 99.84323,32.646104 207.64696,22.32379 308.62722,50.77835 42.4037,11.639805 92.39523,20.163228 129.76429,43.126354 26.53748,16.549842 68.07642,44.616907 76.74233,75.250025 13.15117,45.990993 -24.46885,102.035791 -39.43833,146.417551 -16.22879,46.39869 -36.38727,91.31708 -56.49604,136.13391 -35.76641,77.49464 -81.88526,150.91359 -140.94531,212.83203 -23.80602,24.39013 -48.82414,48.38108 -79.125,64.58008 -55.95526,31.72278 -119.90405,45.73003 -176.05087,76.93381 -26.40047,14.78647 -49.83883,34.54068 -70.48316,56.65309 -29.66187,28.79273 -60.19317,59.43261 -73.66323,99.50685 -7.18915,23.82148 -0.16851,50.19725 14.17578,69.94336 23.83523,36.20473 61.62589,63.80971 103.79635,74.24572 19.18199,4.05224 41.17068,3.62526 57.07279,-9.09924 12.61992,-12.75014 10.42284,-32.36919 9.32617,-48.67578 -3.88991,-39.28021 -48.79511,-85.95118 -40.71479,-125.66024 5.19952,-27.33535 39.88962,-51.17738 60.57774,-68.50925 46.6655,-38.03448 101.74856,-54.20947 154.74124,-80.86736 29.88105,-14.71401 69.33373,-40.02826 90.30029,-66.095 34.93877,-41.82331 67.52372,-76.66903 97.30178,-122.05718 34.17442,-55.97475 59.02453,-114.03576 85.11796,-174.30344 17.3048,-45.55489 37.01369,-93.66717 68.54633,-132.33013 21.4724,-26.76438 55.30429,-42.00028 89.34559,-43.0438 40.0511,-3.02658 80.3592,-0.0967 120.2485,-5.50184 96.9103,-8.660278 187.9359,12.08122 286.9321,14.21332 43.9847,9.18114 89.4384,18.73409 126.4645,43.65099 43.178,28.28438 85.7425,58.81758 135.0802,75.19143 45.3875,17.57064 86.5055,47.40843 135.7031,53.08789 10.399,0.45201 23.9453,-4.18751 26.291,-15.51367 -2.1113,-7.86102 -11.374,-10.52721 -17.2843,-15.02841 -19.4425,-11.29052 -40.0983,-21.01931 -57.9428,-35.00895 C 1731.354,170.55721 1642.4944,121.2386 1544.8477,100.17188 1437.6686,79.313157 1329.7658,86.851381 1222.7434,63.525343 1172.3891,51.411792 1064.67,67.58898 1016.818,46.544085 c -26.31356,-11.4631 -41.85253,-49.5637524 -56.39333,-74.718752 -17.5551,-28.539004 20.28258,-46.327726 21.80556,-79.361643 2.33559,-72.96561 17.80287,-147.38363 18.64737,-220.32442 0.3668,-22.81 11.995,-40.53947 14.4667,-63.33103 3.2067,-46.27957 11.4555,-93.40655 -0.5338,-138.99965 -5.0814,-14.29804 -18.21758,-27.62678 -34.33198,-27.08789 z"
       id="path5339"
       inkscape:connector-curvature="0"
       sodipodi:nodetypes="ccccccccccccccccccccccccccccccccccccccccccccccccccccccc" />
    <path
       d="m 459.5918,140.03906 a 153.196,138.37059 40.309028 0 0 -95.38282,45.50196 153.196,138.37059 40.309028 0 0 -29.75781,95.48437 153.196,138.37059 40.309028 0 0 -118.27344,44.63672 153.196,138.37059 40.309028 0 0 -30.01757,91.63281 153.196,138.37059 40.309028 0 0 -23.8125,21.47461 153.196,138.37059 40.309028 0 0 12.74218,190.4668 153.196,138.37059 40.309028 0 0 48.32422,169.1582 153.196,138.37059 40.309028 0 0 196.19336,4.15235 153.196,138.37059 40.309028 0 0 201.23438,-10.4668 153.196,138.37059 40.309028 0 0 21.42968,-36.5957 A 153.196,138.37059 40.309028 0 0 745.58203,709.96875 153.196,138.37059 40.309028 0 0 730.53906,516.93945 153.196,138.37059 40.309028 0 0 688.45703,334.24023 153.196,138.37059 40.309028 0 0 628.01953,301.52344 153.196,138.37059 40.309028 0 0 570.54492,179.12891 153.196,138.37059 40.309028 0 0 459.5918,140.03906 Z"
       id="path16717"
       style="opacity:1;fill:#e3ded8;fill-opacity:1;stroke:#3465a4;stroke-width:0;stroke-miterlimit:4;stroke-dasharray:none;stroke-dashoffset:0;stroke-opacity:1"
       inkscape:original="M 459.5918 140.03906 A 153.196 138.37059 40.309028 0 0 364.20898 185.54102 A 153.196 138.37059 40.309028 0 0 334.45117 281.02539 A 153.196 138.37059 40.309028 0 0 216.17773 325.66211 A 153.196 138.37059 40.309028 0 0 186.16016 417.29492 A 153.196 138.37059 40.309028 0 0 162.34766 438.76953 A 153.196 138.37059 40.309028 0 0 175.08984 629.23633 A 153.196 138.37059 40.309028 0 0 223.41406 798.39453 A 153.196 138.37059 40.309028 0 0 419.60742 802.54688 A 153.196 138.37059 40.309028 0 0 620.8418 792.08008 A 153.196 138.37059 40.309028 0 0 642.27148 755.48438 A 153.196 138.37059 40.309028 0 0 745.58203 709.96875 A 153.196 138.37059 40.309028 0 0 730.53906 516.93945 A 153.196 138.37059 40.309028 0 0 688.45703 334.24023 A 153.196 138.37059 40.309028 0 0 628.01953 301.52344 A 153.196 138.37059 40.309028 0 0 570.54492 179.12891 A 153.196 138.37059 40.309028 0 0 459.5918 140.03906 z "
       inkscape:radius="0"
       sodipodi:type="inkscape:offset"
       transform="matrix(0,-1,1,0,764.98374,1065.7126)" />
    <path
       sodipodi:type="inkscape:offset"
       inkscape:radius="-58.690468"
       inkscape:original="M 459.5918 140.03906 A 153.196 138.37059 40.309028 0 0 364.20898 185.54102 A 153.196 138.37059 40.309028 0 0 334.45117 281.02539 A 153.196 138.37059 40.309028 0 0 216.17773 325.66211 A 153.196 138.37059 40.309028 0 0 186.16016 417.29492 A 153.196 138.37059 40.309028 0 0 162.34766 438.76953 A 153.196 138.37059 40.309028 0 0 175.08984 629.23633 A 153.196 138.37059 40.309028 0 0 223.41406 798.39453 A 153.196 138.37059 40.309028 0 0 419.60742 802.54688 A 153.196 138.37059 40.309028 0 0 620.8418 792.08008 A 153.196 138.37059 40.309028 0 0 642.27148 755.48438 A 153.196 138.37059 40.309028 0 0 745.58203 709.96875 A 153.196 138.37059 40.309028 0 0 730.53906 516.93945 A 153.196 138.37059 40.309028 0 0 688.45703 334.24023 A 153.196 138.37059 40.309028 0 0 628.01953 301.52344 A 153.196 138.37059 40.309028 0 0 570.54492 179.12891 A 153.196 138.37059 40.309028 0 0 459.5918 140.03906 z "
       style="opacity:1;fill:#b2a594;fill-opacity:1;stroke:#3465a4;stroke-width:0;stroke-miterlimit:4;stroke-dasharray:none;stroke-dashoffset:0;stroke-opacity:1"
       id="path16719"
       d="m 462.26758,198.66797 c -22.36088,1.02072 -41.07021,10.44947 -53.26953,24.80859 -11.47308,13.60996 -17.65306,32.17466 -16.03321,52.9961 a 58.696337,58.696337 0 0 1 -64.86328,62.89843 c -27.98465,-3.04571 -52.47833,7.0404 -67.16797,24.26758 -11.03757,13.10746 -17.16829,30.77287 -16.1582,50.6836 a 58.696337,58.696337 0 0 1 -25.16601,51.19921 c -4.71516,3.27029 -8.91359,7.06785 -12.57813,11.31836 -22.57748,26.87514 -21.31069,77.51741 11.10937,112.50586 a 58.696337,58.696337 0 0 1 11.54688,61.42188 c -11.80852,29.94222 -0.63325,75.35348 31.68359,102.86133 0.004,0.003 0.008,0.006 0.0117,0.01 37.30714,31.623 91.88,30.51188 118.21094,5.97266 a 58.696337,58.696337 0 0 1 76.23437,-3.24414 c 40.06802,31.42654 95.92031,26.20684 120.17188,-2.16992 4.79322,-5.72138 8.64098,-12.25227 11.38477,-19.49805 a 58.696337,58.696337 0 0 1 55.41406,-37.90234 c 24.34325,0.21875 44.97002,-9.47922 58.04297,-24.81836 23.05381,-27.2629 21.21159,-79.31792 -12.53321,-114.28321 a 58.696337,58.696337 0 0 1 -9.48242,-68.51172 C 695.0083,459.03374 685.55453,408.82894 650.5,379.00781 638.91893,369.22235 625.30151,361.90444 611.44336,357.82422 a 58.696337,58.696337 0 0 1 -42.10547,-57.35547 c 0.46723,-25.9877 -13.06792,-56.41596 -36.78711,-76.60547 -20.36968,-17.26825 -47.06366,-26.25545 -70.28125,-25.19531 a 58.696337,58.696337 0 0 1 -0.002,0 z"
       transform="matrix(0,-1,1,0,758.92283,1055.6111)" />
    <g
       id="g16725"
       transform="matrix(0,-1,1,0,744.78069,732.36223)">
      <path
         inkscape:connector-curvature="0"
         id="ellipse16690"
         d="m 163.37351,-232.87655 a 64.680682,71.61075 41.047501 0 0 1.75433,96.48107 64.680682,71.61075 41.047501 0 0 44.45016,14.48393 64.680682,71.61075 41.047501 0 0 20.15098,55.550961 64.680682,71.61075 41.047501 0 0 42.64934,14.582602 64.680682,71.61075 41.047501 0 0 9.89325,11.259013 64.680682,71.61075 41.047501 0 0 89.10227,-4.808243 64.680682,71.61075 41.047501 0 0 79.35729,-21.567534 64.680682,71.61075 41.047501 0 0 3.12293,-91.677249 64.680682,71.61075 41.047501 0 0 -3.68041,-94.12122 64.680682,71.61075 41.047501 0 0 -16.97584,-10.23688 64.680682,71.61075 41.047501 0 0 -20.65198,-48.56234 64.680682,71.61075 41.047501 0 0 -90.31395,5.86796 64.680682,71.61075 41.047501 0 0 -85.64766,18.56936 64.680682,71.61075 41.047501 0 0 -15.65618,28.05105 64.680682,71.61075 41.047501 0 0 -57.55453,26.12752 z"
         style="opacity:1;fill:#73b236;fill-opacity:1;stroke:#3465a4;stroke-width:0;stroke-miterlimit:4;stroke-dasharray:none;stroke-dashoffset:0;stroke-opacity:1" />
      <path
         d="m 370.95117,-300.15234 c -10.46521,0.36214 -22.05018,5.13402 -30.9082,13.46484 a 26.000715,26.000715 0 0 1 -30.39844,3.80859 c -14.63127,-8.09723 -38.91222,-3.76212 -53.45312,12.89844 -4.76996,5.50116 -8.37176,11.99548 -10.42188,18.64063 a 26.000715,26.000715 0 0 1 -25.64453,18.32226 c -12.60222,-0.38912 -27.30926,5.95517 -37.1543,17.22461 -16.53054,18.99628 -14.94338,47.42199 -0.78906,59.77149 6.58472,5.70034 15.6178,8.82096 25.71289,8.16601 a 26.000715,26.000715 0 0 1 27.49024,29.08985 c -1.64349,13.48192 3.08182,25.491362 11.4082,32.785151 6.3427,5.490918 14.94251,8.587966 24.60351,8.222657 a 26.000715,26.000715 0 0 1 22.53321,11.439453 c 1.5631,2.31678 3.39056,4.38769 5.43945,6.203125 12.99331,11.236243 37.55663,10.860981 54.58008,-4.509766 a 26.000715,26.000715 0 0 1 27.27344,-4.763672 c 14.53832,5.951671 36.48901,0.778065 49.90234,-14.582031 15.41991,-17.724967 15.31397,-44.095067 3.48242,-57.123047 a 26.000715,26.000715 0 0 1 -1.00195,-33.78516 c 15.35229,-19.06263 13.26002,-46.15214 -0.48438,-58.18164 -2.76511,-2.37521 -5.92903,-4.29387 -9.4414,-5.67578 a 26.000715,26.000715 0 0 1 -16.47461,-24.76172 c 0.25741,-11.7667 -4.32188,-21.90232 -11.74219,-28.39257 -6.31727,-5.48691 -14.88199,-8.59378 -24.50977,-8.26172 l -0.002,0 z"
         id="path16723"
         style="opacity:1;fill:#b6dd8f;fill-opacity:1;stroke:#3465a4;stroke-width:0;stroke-miterlimit:4;stroke-dasharray:none;stroke-dashoffset:0;stroke-opacity:1"
         inkscape:original="M 370.05469 -326.13477 A 64.680682 71.61075 41.047501 0 0 322.23242 -305.625 A 64.680682 71.61075 41.047501 0 0 236.58398 -287.05469 A 64.680682 71.61075 41.047501 0 0 220.92773 -259.00391 A 64.680682 71.61075 41.047501 0 0 163.37305 -232.87695 A 64.680682 71.61075 41.047501 0 0 165.12695 -136.39453 A 64.680682 71.61075 41.047501 0 0 209.57812 -121.91211 A 64.680682 71.61075 41.047501 0 0 229.72852 -66.361328 A 64.680682 71.61075 41.047501 0 0 272.37891 -51.777344 A 64.680682 71.61075 41.047501 0 0 282.27148 -40.519531 A 64.680682 71.61075 41.047501 0 0 371.37305 -45.328125 A 64.680682 71.61075 41.047501 0 0 450.73047 -66.894531 A 64.680682 71.61075 41.047501 0 0 453.85352 -158.57227 A 64.680682 71.61075 41.047501 0 0 450.17383 -252.69336 A 64.680682 71.61075 41.047501 0 0 433.19727 -262.92969 A 64.680682 71.61075 41.047501 0 0 412.54492 -311.49219 A 64.680682 71.61075 41.047501 0 0 370.05469 -326.13477 z "
         inkscape:radius="-25.998116"
         sodipodi:type="inkscape:offset" />
    </g>
    <g
       id="g16729"
       transform="matrix(2.0618409,0.87069381,-1.0293747,1.7440025,739.17696,-178.91787)">
      <path
         style="opacity:1;fill:#e5d1b1;fill-opacity:1;stroke:#3465a4;stroke-width:0;stroke-miterlimit:4;stroke-dasharray:none;stroke-dashoffset:0;stroke-opacity:1"
         d="m 163.37351,-232.87655 a 64.680682,71.61075 41.047501 0 0 1.75433,96.48107 64.680682,71.61075 41.047501 0 0 44.45016,14.48393 64.680682,71.61075 41.047501 0 0 20.15098,55.550961 64.680682,71.61075 41.047501 0 0 42.64934,14.582602 64.680682,71.61075 41.047501 0 0 9.89325,11.259013 64.680682,71.61075 41.047501 0 0 89.10227,-4.808243 64.680682,71.61075 41.047501 0 0 79.35729,-21.567534 64.680682,71.61075 41.047501 0 0 3.12293,-91.677249 64.680682,71.61075 41.047501 0 0 -3.68041,-94.12122 64.680682,71.61075 41.047501 0 0 -16.97584,-10.23688 64.680682,71.61075 41.047501 0 0 -20.65198,-48.56234 64.680682,71.61075 41.047501 0 0 -90.31395,5.86796 64.680682,71.61075 41.047501 0 0 -85.64766,18.56936 64.680682,71.61075 41.047501 0 0 -15.65618,28.05105 64.680682,71.61075 41.047501 0 0 -57.55453,26.12752 z"
         id="path16731"
         inkscape:connector-curvature="0" />
      <path
         sodipodi:type="inkscape:offset"
         inkscape:radius="-25.998116"
         inkscape:original="M 370.05469 -326.13477 A 64.680682 71.61075 41.047501 0 0 322.23242 -305.625 A 64.680682 71.61075 41.047501 0 0 236.58398 -287.05469 A 64.680682 71.61075 41.047501 0 0 220.92773 -259.00391 A 64.680682 71.61075 41.047501 0 0 163.37305 -232.87695 A 64.680682 71.61075 41.047501 0 0 165.12695 -136.39453 A 64.680682 71.61075 41.047501 0 0 209.57812 -121.91211 A 64.680682 71.61075 41.047501 0 0 229.72852 -66.361328 A 64.680682 71.61075 41.047501 0 0 272.37891 -51.777344 A 64.680682 71.61075 41.047501 0 0 282.27148 -40.519531 A 64.680682 71.61075 41.047501 0 0 371.37305 -45.328125 A 64.680682 71.61075 41.047501 0 0 450.73047 -66.894531 A 64.680682 71.61075 41.047501 0 0 453.85352 -158.57227 A 64.680682 71.61075 41.047501 0 0 450.17383 -252.69336 A 64.680682 71.61075 41.047501 0 0 433.19727 -262.92969 A 64.680682 71.61075 41.047501 0 0 412.54492 -311.49219 A 64.680682 71.61075 41.047501 0 0 370.05469 -326.13477 z "
         style="opacity:1;fill:#f1e79e;fill-opacity:1;stroke:#3465a4;stroke-width:0;stroke-miterlimit:4;stroke-dasharray:none;stroke-dashoffset:0;stroke-opacity:1"
         id="path16733"
         d="m 370.95117,-300.15234 c -10.46521,0.36214 -22.05018,5.13402 -30.9082,13.46484 a 26.000715,26.000715 0 0 1 -30.39844,3.80859 c -14.63127,-8.09723 -38.91222,-3.76212 -53.45312,12.89844 -4.76996,5.50116 -8.37176,11.99548 -10.42188,18.64063 a 26.000715,26.000715 0 0 1 -25.64453,18.32226 c -12.60222,-0.38912 -27.30926,5.95517 -37.1543,17.22461 -16.53054,18.99628 -14.94338,47.42199 -0.78906,59.77149 6.58472,5.70034 15.6178,8.82096 25.71289,8.16601 a 26.000715,26.000715 0 0 1 27.49024,29.08985 c -1.64349,13.48192 3.08182,25.491362 11.4082,32.785151 6.3427,5.490918 14.94251,8.587966 24.60351,8.222657 a 26.000715,26.000715 0 0 1 22.53321,11.439453 c 1.5631,2.31678 3.39056,4.38769 5.43945,6.203125 12.99331,11.236243 37.55663,10.860981 54.58008,-4.509766 a 26.000715,26.000715 0 0 1 27.27344,-4.763672 c 14.53832,5.951671 36.48901,0.778065 49.90234,-14.582031 15.41991,-17.724967 15.31397,-44.095067 3.48242,-57.123047 a 26.000715,26.000715 0 0 1 -1.00195,-33.78516 c 15.35229,-19.06263 13.26002,-46.15214 -0.48438,-58.18164 -2.76511,-2.37521 -5.92903,-4.29387 -9.4414,-5.67578 a 26.000715,26.000715 0 0 1 -16.47461,-24.76172 c 0.25741,-11.7667 -4.32188,-21.90232 -11.74219,-28.39257 -6.31727,-5.48691 -14.88199,-8.59378 -24.50977,-8.26172 l -0.002,0 z"
         transform="matrix(1.0732793,0,0,1.0732793,-23.586165,12.170277)" />
    </g>
    <g
       id="g16735"
       transform="matrix(0,-1,1,0,744.78069,732.36223)">
      <path
         inkscape:connector-curvature="0"
         id="path16737"
         d="m 163.37351,-232.87655 a 64.680682,71.61075 41.047501 0 0 1.75433,96.48107 64.680682,71.61075 41.047501 0 0 44.45016,14.48393 64.680682,71.61075 41.047501 0 0 20.15098,55.550961 64.680682,71.61075 41.047501 0 0 42.64934,14.582602 64.680682,71.61075 41.047501 0 0 9.89325,11.259013 64.680682,71.61075 41.047501 0 0 89.10227,-4.808243 64.680682,71.61075 41.047501 0 0 79.35729,-21.567534 64.680682,71.61075 41.047501 0 0 3.12293,-91.677249 64.680682,71.61075 41.047501 0 0 -3.68041,-94.12122 64.680682,71.61075 41.047501 0 0 -16.97584,-10.23688 64.680682,71.61075 41.047501 0 0 -20.65198,-48.56234 64.680682,71.61075 41.047501 0 0 -90.31395,5.86796 64.680682,71.61075 41.047501 0 0 -85.64766,18.56936 64.680682,71.61075 41.047501 0 0 -15.65618,28.05105 64.680682,71.61075 41.047501 0 0 -57.55453,26.12752 z"
         style="opacity:1;fill:#73b236;fill-opacity:1;stroke:#3465a4;stroke-width:0;stroke-miterlimit:4;stroke-dasharray:none;stroke-dashoffset:0;stroke-opacity:1" />
      <path
         d="m 370.95117,-300.15234 c -10.46521,0.36214 -22.05018,5.13402 -30.9082,13.46484 a 26.000715,26.000715 0 0 1 -30.39844,3.80859 c -14.63127,-8.09723 -38.91222,-3.76212 -53.45312,12.89844 -4.76996,5.50116 -8.37176,11.99548 -10.42188,18.64063 a 26.000715,26.000715 0 0 1 -25.64453,18.32226 c -12.60222,-0.38912 -27.30926,5.95517 -37.1543,17.22461 -16.53054,18.99628 -14.94338,47.42199 -0.78906,59.77149 6.58472,5.70034 15.6178,8.82096 25.71289,8.16601 a 26.000715,26.000715 0 0 1 27.49024,29.08985 c -1.64349,13.48192 3.08182,25.491362 11.4082,32.785151 6.3427,5.490918 14.94251,8.587966 24.60351,8.222657 a 26.000715,26.000715 0 0 1 22.53321,11.439453 c 1.5631,2.31678 3.39056,4.38769 5.43945,6.203125 12.99331,11.236243 37.55663,10.860981 54.58008,-4.509766 a 26.000715,26.000715 0 0 1 27.27344,-4.763672 c 14.53832,5.951671 36.48901,0.778065 49.90234,-14.582031 15.41991,-17.724967 15.31397,-44.095067 3.48242,-57.123047 a 26.000715,26.000715 0 0 1 -1.00195,-33.78516 c 15.35229,-19.06263 13.26002,-46.15214 -0.48438,-58.18164 -2.76511,-2.37521 -5.92903,-4.29387 -9.4414,-5.67578 a 26.000715,26.000715 0 0 1 -16.47461,-24.76172 c 0.25741,-11.7667 -4.32188,-21.90232 -11.74219,-28.39257 -6.31727,-5.48691 -14.88199,-8.59378 -24.50977,-8.26172 l -0.002,0 z"
         id="path16739"
         style="opacity:1;fill:#b6dd8f;fill-opacity:1;stroke:#3465a4;stroke-width:0;stroke-miterlimit:4;stroke-dasharray:none;stroke-dashoffset:0;stroke-opacity:1"
         inkscape:original="M 370.05469 -326.13477 A 64.680682 71.61075 41.047501 0 0 322.23242 -305.625 A 64.680682 71.61075 41.047501 0 0 236.58398 -287.05469 A 64.680682 71.61075 41.047501 0 0 220.92773 -259.00391 A 64.680682 71.61075 41.047501 0 0 163.37305 -232.87695 A 64.680682 71.61075 41.047501 0 0 165.12695 -136.39453 A 64.680682 71.61075 41.047501 0 0 209.57812 -121.91211 A 64.680682 71.61075 41.047501 0 0 229.72852 -66.361328 A 64.680682 71.61075 41.047501 0 0 272.37891 -51.777344 A 64.680682 71.61075 41.047501 0 0 282.27148 -40.519531 A 64.680682 71.61075 41.047501 0 0 371.37305 -45.328125 A 64.680682 71.61075 41.047501 0 0 450.73047 -66.894531 A 64.680682 71.61075 41.047501 0 0 453.85352 -158.57227 A 64.680682 71.61075 41.047501 0 0 450.17383 -252.69336 A 64.680682 71.61075 41.047501 0 0 433.19727 -262.92969 A 64.680682 71.61075 41.047501 0 0 412.54492 -311.49219 A 64.680682 71.61075 41.047501 0 0 370.05469 -326.13477 z "
         inkscape:radius="-25.998116"
         sodipodi:type="inkscape:offset" />
    </g>
    <g
       id="g16741"
       transform="matrix(0,-0.4819911,0.48199102,0,1400.1038,17.126232)">
      <path
         style="opacity:1;fill:#466c21;fill-opacity:1;stroke:#3465a4;stroke-width:0;stroke-miterlimit:4;stroke-dasharray:none;stroke-dashoffset:0;stroke-opacity:1"
         d="m 476.70949,-413.22586 a 64.680686,71.610745 64.596056 0 0 -36.93845,89.14721 64.680686,71.610745 64.596056 0 0 34.96173,31.03673 64.680686,71.610745 64.596056 0 0 -3.7212,58.97562 64.680686,71.610745 64.596056 0 0 33.27146,30.40771 64.680686,71.610745 64.596056 0 0 4.57109,14.274 64.680686,71.610745 64.596056 0 0 83.60302,31.19085 64.680686,71.610745 64.596056 0 0 81.36535,11.93387 64.680686,71.610745 64.596056 0 0 39.49029,-82.79485 64.680686,71.610745 64.596056 0 0 34.22995,-87.7534 64.680686,71.610745 64.596056 0 0 -11.47222,-16.16666 64.680686,71.610745 64.596056 0 0 0.46978,-52.76917 64.680686,71.610745 64.596056 0 0 -85.13717,-30.70348 64.680686,71.610745 64.596056 0 0 -85.93403,-17.19553 64.680686,71.610745 64.596056 0 0 -25.55948,19.45996 64.680686,71.610745 64.596056 0 0 -63.20012,0.95714 z"
         id="path16743"
         inkscape:connector-curvature="0" />
      <path
         inkscape:connector-curvature="0"
         id="path5329"
         d="m -308.72301,493.72653 a 64.680686,71.610745 64.596056 0 0 -36.93845,89.14721 64.680686,71.610745 64.596056 0 0 34.96173,31.03673 64.680686,71.610745 64.596056 0 0 -3.7212,58.97562 64.680686,71.610745 64.596056 0 0 33.27146,30.40771 64.680686,71.610745 64.596056 0 0 4.57109,14.274 64.680686,71.610745 64.596056 0 0 83.60302,31.19085 64.680686,71.610745 64.596056 0 0 81.36535,11.93387 64.680686,71.610745 64.596056 0 0 39.490291,-82.79485 64.680686,71.610745 64.596056 0 0 34.22995,-87.7534 64.680686,71.610745 64.596056 0 0 -11.47222,-16.16666 64.680686,71.610745 64.596056 0 0 0.46978,-52.76917 64.680686,71.610745 64.596056 0 0 -85.137171,-30.70348 64.680686,71.610745 64.596056 0 0 -85.93403,-17.19553 64.680686,71.610745 64.596056 0 0 -25.55948,19.45996 64.680686,71.610745 64.596056 0 0 -63.20012,0.95714 z"
         style="opacity:1;fill:#466c21;fill-opacity:1;stroke:#3465a4;stroke-width:0;stroke-miterlimit:4;stroke-dasharray:none;stroke-dashoffset:0;stroke-opacity:1" />
      <path
         style="opacity:1;fill:#466c21;fill-opacity:1;stroke:#3465a4;stroke-width:0;stroke-miterlimit:4;stroke-dasharray:none;stroke-dashoffset:0;stroke-opacity:1"
         d="m -1369.7979,-1355.745 a 64.680686,71.610745 64.596056 0 0 -36.9384,89.1472 64.680686,71.610745 64.596056 0 0 34.9617,31.0367 64.680686,71.610745 64.596056 0 0 -3.7212,58.9756 64.680686,71.610745 64.596056 0 0 33.2715,30.4078 64.680686,71.610745 64.596056 0 0 4.5711,14.274 64.680686,71.610745 64.596056 0 0 83.603,31.1908 64.680686,71.610745 64.596056 0 0 81.3653,11.9339 64.680686,71.610745 64.596056 0 0 39.4903,-82.7949 64.680686,71.610745 64.596056 0 0 34.23,-87.7534 64.680686,71.610745 64.596056 0 0 -11.4722,-16.1666 64.680686,71.610745 64.596056 0 0 0.4697,-52.7692 64.680686,71.610745 64.596056 0 0 -85.1371,-30.7035 64.680686,71.610745 64.596056 0 0 -85.9341,-17.1955 64.680686,71.610745 64.596056 0 0 -25.5594,19.4599 64.680686,71.610745 64.596056 0 0 -63.2002,0.9572 z"
         id="path5331"
         inkscape:connector-curvature="0" />
      <path
         inkscape:connector-curvature="0"
         id="path5333"
         d="m -172.38382,-3433.4366 a 64.680686,71.610745 64.596056 0 0 -36.9384,89.1472 64.680686,71.610745 64.596056 0 0 34.9617,31.0367 64.680686,71.610745 64.596056 0 0 -3.7212,58.9756 64.680686,71.610745 64.596056 0 0 33.2715,30.4078 64.680686,71.610745 64.596056 0 0 4.5711,14.274 64.680686,71.610745 64.596056 0 0 83.602999,31.1908 64.680686,71.610745 64.596056 0 0 81.3653,11.9339 64.680686,71.610745 64.596056 0 0 39.4903,-82.7949 64.680686,71.610745 64.596056 0 0 34.23,-87.7534 64.680686,71.610745 64.596056 0 0 -11.4722,-16.1666 64.680686,71.610745 64.596056 0 0 0.4697,-52.7692 64.680686,71.610745 64.596056 0 0 -85.1371003,-30.7035 64.680686,71.610745 64.596056 0 0 -85.9340997,-17.1955 64.680686,71.610745 64.596056 0 0 -25.559399,19.4599 64.680686,71.610745 64.596056 0 0 -63.2002,0.9572 z"
         style="opacity:1;fill:#466c21;fill-opacity:1;stroke:#3465a4;stroke-width:0;stroke-miterlimit:4;stroke-dasharray:none;stroke-dashoffset:0;stroke-opacity:1" />
      <path
         style="opacity:1;fill:#466c21;fill-opacity:1;stroke:#3465a4;stroke-width:0;stroke-miterlimit:4;stroke-dasharray:none;stroke-dashoffset:0;stroke-opacity:1"
         d="m -373.5434,-3442.554 a 71.610745,64.680686 26.790779 0 0 -93.07752,25.4606 71.610745,64.680686 26.790779 0 0 -3.09117,46.648 71.610745,64.680686 26.790779 0 0 -48.87751,33.2108 71.610745,64.680686 26.790779 0 0 -3.63034,44.9272 71.610745,64.680686 26.790779 0 0 -8.47586,12.3613 71.610745,64.680686 26.790779 0 0 26.60326,85.1739 71.610745,64.680686 26.790779 0 0 40.44643,71.6018 71.610745,64.680686 26.790779 0 0 89.62285,-19.5505 71.610745,64.680686 26.790779 0 0 90.31609,-26.7461 71.610745,64.680686 26.790779 0 0 5.74095,-18.974 71.610745,64.680686 26.790779 0 0 41.98074,-31.9754 71.610745,64.680686 26.790779 0 0 -27.92865,-86.0873 71.610745,64.680686 26.790779 0 0 -39.08983,-78.4368 71.610745,64.680686 26.790779 0 0 -31.04264,-8.2659 71.610745,64.680686 26.790779 0 0 -39.4968,-49.3476 z"
         id="path5335"
         inkscape:connector-curvature="0" />
      <path
         style="opacity:1;fill:#466c21;fill-opacity:1;stroke:#3465a4;stroke-width:0;stroke-miterlimit:4;stroke-dasharray:none;stroke-dashoffset:0;stroke-opacity:1"
         d="m -351.69981,-3015.3435 a 64.680679,71.610753 24.625128 0 0 28.95955,92.049 64.680679,71.610753 24.625128 0 0 46.73155,1.3262 64.680679,71.610753 24.625128 0 0 35.03404,47.5877 64.680679,71.610753 24.625128 0 0 45.03223,1.9301 64.680679,71.610753 24.625128 0 0 12.67275,8.0027 64.680679,71.610753 24.625128 0 0 84.107803,-29.8028 64.680679,71.610753 24.625128 0 0 70.022288,-43.1232 64.680679,71.610753 24.625128 0 0 -22.923138,-88.8201 64.680679,71.610753 24.625128 0 0 -30.139811,-89.2409 64.680679,71.610753 24.625128 0 0 -19.177362,-5.0199 64.680679,71.610753 24.625128 0 0 -33.5389,-40.7425 64.680679,71.610753 24.625128 0 0 -84.97045,31.1617 64.680679,71.610753 24.625128 0 0 -76.90373,42.0259 64.680679,71.610753 24.625128 0 0 -7.08695,31.3328 64.680679,71.610753 24.625128 0 0 -47.81987,41.3333 z"
         id="path5337"
         inkscape:connector-curvature="0" />
    </g>
    <g
       id="g16747"
       transform="matrix(-1.1103533,-1.5274414,1.5274457,-1.1103535,484.59099,-18.426969)">
      <path
         inkscape:connector-curvature="0"
         id="path16749"
         d="m 163.37351,-232.87655 a 64.680682,71.61075 41.047501 0 0 1.75433,96.48107 64.680682,71.61075 41.047501 0 0 44.45016,14.48393 64.680682,71.61075 41.047501 0 0 20.15098,55.550961 64.680682,71.61075 41.047501 0 0 42.64934,14.582602 64.680682,71.61075 41.047501 0 0 9.89325,11.259013 64.680682,71.61075 41.047501 0 0 89.10227,-4.808243 64.680682,71.61075 41.047501 0 0 79.35729,-21.567534 64.680682,71.61075 41.047501 0 0 3.12293,-91.677249 64.680682,71.61075 41.047501 0 0 -3.68041,-94.12122 64.680682,71.61075 41.047501 0 0 -16.97584,-10.23688 64.680682,71.61075 41.047501 0 0 -20.65198,-48.56234 64.680682,71.61075 41.047501 0 0 -90.31395,5.86796 64.680682,71.61075 41.047501 0 0 -85.64766,18.56936 64.680682,71.61075 41.047501 0 0 -15.65618,28.05105 64.680682,71.61075 41.047501 0 0 -57.55453,26.12752 z"
         style="opacity:1;fill:#73b236;fill-opacity:1;stroke:#3465a4;stroke-width:0;stroke-miterlimit:4;stroke-dasharray:none;stroke-dashoffset:0;stroke-opacity:1" />
      <path
         d="m 370.95117,-300.15234 c -10.46521,0.36214 -22.05018,5.13402 -30.9082,13.46484 a 26.000715,26.000715 0 0 1 -30.39844,3.80859 c -14.63127,-8.09723 -38.91222,-3.76212 -53.45312,12.89844 -4.76996,5.50116 -8.37176,11.99548 -10.42188,18.64063 a 26.000715,26.000715 0 0 1 -25.64453,18.32226 c -12.60222,-0.38912 -27.30926,5.95517 -37.1543,17.22461 -16.53054,18.99628 -14.94338,47.42199 -0.78906,59.77149 6.58472,5.70034 15.6178,8.82096 25.71289,8.16601 a 26.000715,26.000715 0 0 1 27.49024,29.08985 c -1.64349,13.48192 3.08182,25.491362 11.4082,32.785151 6.3427,5.490918 14.94251,8.587966 24.60351,8.222657 a 26.000715,26.000715 0 0 1 22.53321,11.439453 c 1.5631,2.31678 3.39056,4.38769 5.43945,6.203125 12.99331,11.236243 37.55663,10.860981 54.58008,-4.509766 a 26.000715,26.000715 0 0 1 27.27344,-4.763672 c 14.53832,5.951671 36.48901,0.778065 49.90234,-14.582031 15.41991,-17.724967 15.31397,-44.095067 3.48242,-57.123047 a 26.000715,26.000715 0 0 1 -1.00195,-33.78516 c 15.35229,-19.06263 13.26002,-46.15214 -0.48438,-58.18164 -2.76511,-2.37521 -5.92903,-4.29387 -9.4414,-5.67578 a 26.000715,26.000715 0 0 1 -16.47461,-24.76172 c 0.25741,-11.7667 -4.32188,-21.90232 -11.74219,-28.39257 -6.31727,-5.48691 -14.88199,-8.59378 -24.50977,-8.26172 l -0.002,0 z"
         id="path16751"
         style="opacity:1;fill:#b6dd8f;fill-opacity:1;stroke:#3465a4;stroke-width:0;stroke-miterlimit:4;stroke-dasharray:none;stroke-dashoffset:0;stroke-opacity:1"
         inkscape:original="M 370.05469 -326.13477 A 64.680682 71.61075 41.047501 0 0 322.23242 -305.625 A 64.680682 71.61075 41.047501 0 0 236.58398 -287.05469 A 64.680682 71.61075 41.047501 0 0 220.92773 -259.00391 A 64.680682 71.61075 41.047501 0 0 163.37305 -232.87695 A 64.680682 71.61075 41.047501 0 0 165.12695 -136.39453 A 64.680682 71.61075 41.047501 0 0 209.57812 -121.91211 A 64.680682 71.61075 41.047501 0 0 229.72852 -66.361328 A 64.680682 71.61075 41.047501 0 0 272.37891 -51.777344 A 64.680682 71.61075 41.047501 0 0 282.27148 -40.519531 A 64.680682 71.61075 41.047501 0 0 371.37305 -45.328125 A 64.680682 71.61075 41.047501 0 0 450.73047 -66.894531 A 64.680682 71.61075 41.047501 0 0 453.85352 -158.57227 A 64.680682 71.61075 41.047501 0 0 450.17383 -252.69336 A 64.680682 71.61075 41.047501 0 0 433.19727 -262.92969 A 64.680682 71.61075 41.047501 0 0 412.54492 -311.49219 A 64.680682 71.61075 41.047501 0 0 370.05469 -326.13477 z "
         inkscape:radius="-25.998116"
         sodipodi:type="inkscape:offset"
         transform="matrix(1.1031851,0,0,1.1031851,-34.101756,18.79332)" />
    </g>
    <g
       id="g5411">
      <circle
         style="opacity:0.506;fill:#e8c68d;fill-opacity:1;stroke:none;stroke-width:10;stroke-linecap:round;stroke-linejoin:round;stroke-miterlimit:4;stroke-dasharray:none;stroke-opacity:1"
         id="circle5409"
         cx="937.34088"
         cy="-80.591339"
         r="12.36182" />
      <circle
         style="opacity:0.506;fill:#e8c68d;fill-opacity:1;stroke:none;stroke-width:10;stroke-linecap:round;stroke-linejoin:round;stroke-miterlimit:4;stroke-dasharray:none;stroke-opacity:1"
         id="circle5415"
         cx="942.3916"
         cy="1.2310234"
         r="12.36182" />
      <circle
         style="opacity:0.506;fill:#e8c68d;fill-opacity:1;stroke:none;stroke-width:10;stroke-linecap:round;stroke-linejoin:round;stroke-miterlimit:4;stroke-dasharray:none;stroke-opacity:1"
         id="circle5417"
         cx="829.25452"
         cy="-67.459358"
         r="12.36182" />
      <circle
         style="opacity:0.506;fill:#e8c68d;fill-opacity:1;stroke:none;stroke-width:10;stroke-linecap:round;stroke-linejoin:round;stroke-miterlimit:4;stroke-dasharray:none;stroke-opacity:1"
         id="circle5419"
         cx="618.13257"
         cy="-92.713173"
         r="12.36182" />
      <circle
         r="12.36182"
         cy="-333.84741"
         cx="980.401"
         id="circle5423"
         style="opacity:0.506;fill:#e8c68d;fill-opacity:1;stroke:none;stroke-width:10;stroke-linecap:round;stroke-linejoin:round;stroke-miterlimit:4;stroke-dasharray:none;stroke-opacity:1" />
      <circle
         r="12.36182"
         cy="-256.70453"
         cx="963.25818"
         id="circle5425"
         style="opacity:0.506;fill:#e8c68d;fill-opacity:1;stroke:none;stroke-width:10;stroke-linecap:round;stroke-linejoin:round;stroke-miterlimit:4;stroke-dasharray:none;stroke-opacity:1" />
      <circle
         r="12.36182"
         cy="-99.561661"
         cx="714.68671"
         id="circle5427"
         style="opacity:0.506;fill:#e8c68d;fill-opacity:1;stroke:none;stroke-width:10;stroke-linecap:round;stroke-linejoin:round;stroke-miterlimit:4;stroke-dasharray:none;stroke-opacity:1" />
      <circle
         r="12.36182"
         cy="-130.99023"
         cx="531.82953"
         id="circle5429"
         style="opacity:0.506;fill:#e8c68d;fill-opacity:1;stroke:none;stroke-width:10;stroke-linecap:round;stroke-linejoin:round;stroke-miterlimit:4;stroke-dasharray:none;stroke-opacity:1" />
      <circle
         r="12.36182"
         cy="-150.99023"
         cx="426.11523"
         id="circle5431"
         style="opacity:0.506;fill:#e8c68d;fill-opacity:1;stroke:none;stroke-width:10;stroke-linecap:round;stroke-linejoin:round;stroke-miterlimit:4;stroke-dasharray:none;stroke-opacity:1" />
      <circle
         r="12.36182"
         cy="-193.84738"
         cx="311.82953"
         id="circle5433"
         style="opacity:0.506;fill:#e8c68d;fill-opacity:1;stroke:none;stroke-width:10;stroke-linecap:round;stroke-linejoin:round;stroke-miterlimit:4;stroke-dasharray:none;stroke-opacity:1" />
      <circle
         r="12.36182"
         cy="-276.70453"
         cx="294.68668"
         id="circle5435"
         style="opacity:0.506;fill:#e8c68d;fill-opacity:1;stroke:none;stroke-width:10;stroke-linecap:round;stroke-linejoin:round;stroke-miterlimit:4;stroke-dasharray:none;stroke-opacity:1" />
      <circle
         r="12.36182"
         cy="-299.56168"
         cx="226.11522"
         id="circle5437"
         style="opacity:0.506;fill:#e8c68d;fill-opacity:1;stroke:none;stroke-width:10;stroke-linecap:round;stroke-linejoin:round;stroke-miterlimit:4;stroke-dasharray:none;stroke-opacity:1" />
      <circle
         r="12.36182"
         cy="-359.56171"
         cx="186.11522"
         id="circle5439"
         style="opacity:0.506;fill:#e8c68d;fill-opacity:1;stroke:none;stroke-width:10;stroke-linecap:round;stroke-linejoin:round;stroke-miterlimit:4;stroke-dasharray:none;stroke-opacity:1" />
      <circle
         r="12.36182"
         cy="91.86692"
         cx="1366.1154"
         id="circle5441"
         style="opacity:0.506;fill:#e8c68d;fill-opacity:1;stroke:none;stroke-width:10;stroke-linecap:round;stroke-linejoin:round;stroke-miterlimit:4;stroke-dasharray:none;stroke-opacity:1" />
      <circle
         r="12.36182"
         cy="423.29553"
         cx="814.68671"
         id="circle5443"
         style="opacity:0.506;fill:#e8c68d;fill-opacity:1;stroke:none;stroke-width:10;stroke-linecap:round;stroke-linejoin:round;stroke-miterlimit:4;stroke-dasharray:none;stroke-opacity:1" />
      <circle
         r="12.36182"
         cy="320.43839"
         cx="854.68671"
         id="circle5445"
         style="opacity:0.506;fill:#e8c68d;fill-opacity:1;stroke:none;stroke-width:10;stroke-linecap:round;stroke-linejoin:round;stroke-miterlimit:4;stroke-dasharray:none;stroke-opacity:1" />
      <circle
         r="12.36182"
         cy="263.29553"
         cx="854.68671"
         id="circle5447"
         style="opacity:0.506;fill:#e8c68d;fill-opacity:1;stroke:none;stroke-width:10;stroke-linecap:round;stroke-linejoin:round;stroke-miterlimit:4;stroke-dasharray:none;stroke-opacity:1" />
      <circle
         r="12.36182"
         cy="197.58124"
         cx="928.97247"
         id="circle5449"
         style="opacity:0.506;fill:#e8c68d;fill-opacity:1;stroke:none;stroke-width:10;stroke-linecap:round;stroke-linejoin:round;stroke-miterlimit:4;stroke-dasharray:none;stroke-opacity:1" />
      <circle
         r="12.36182"
         cy="91.866936"
         cx="920.401"
         id="circle5451"
         style="opacity:0.506;fill:#e8c68d;fill-opacity:1;stroke:none;stroke-width:10;stroke-linecap:round;stroke-linejoin:round;stroke-miterlimit:4;stroke-dasharray:none;stroke-opacity:1" />
      <circle
         r="12.36182"
         cy="83.295502"
         cx="1114.6868"
         id="circle5453"
         style="opacity:0.506;fill:#e8c68d;fill-opacity:1;stroke:none;stroke-width:10;stroke-linecap:round;stroke-linejoin:round;stroke-miterlimit:4;stroke-dasharray:none;stroke-opacity:1" />
      <circle
         r="12.36182"
         cy="100.43836"
         cx="1274.6868"
         id="circle5455"
         style="opacity:0.506;fill:#e8c68d;fill-opacity:1;stroke:none;stroke-width:10;stroke-linecap:round;stroke-linejoin:round;stroke-miterlimit:4;stroke-dasharray:none;stroke-opacity:1" />
      <circle
         r="12.36182"
         cy="91.866936"
         cx="1423.2582"
         id="circle5457"
         style="opacity:0.506;fill:#e8c68d;fill-opacity:1;stroke:none;stroke-width:10;stroke-linecap:round;stroke-linejoin:round;stroke-miterlimit:4;stroke-dasharray:none;stroke-opacity:1" />
      <circle
         r="12.36182"
         cy="109.0098"
         cx="1557.5439"
         id="circle5459"
         style="opacity:0.506;fill:#e8c68d;fill-opacity:1;stroke:none;stroke-width:10;stroke-linecap:round;stroke-linejoin:round;stroke-miterlimit:4;stroke-dasharray:none;stroke-opacity:1" />
      <circle
         r="12.36182"
         cy="217.58124"
         cx="1723.2583"
         id="circle5461"
         style="opacity:0.506;fill:#e8c68d;fill-opacity:1;stroke:none;stroke-width:10;stroke-linecap:round;stroke-linejoin:round;stroke-miterlimit:4;stroke-dasharray:none;stroke-opacity:1" />
      <circle
         r="12.36182"
         cy="251.86696"
         cx="1803.2583"
         id="circle5463"
         style="opacity:0.506;fill:#e8c68d;fill-opacity:1;stroke:none;stroke-width:10;stroke-linecap:round;stroke-linejoin:round;stroke-miterlimit:4;stroke-dasharray:none;stroke-opacity:1" />
      <circle
         r="12.36182"
         cy="289.00983"
         cx="1777.5439"
         id="circle5465"
         style="opacity:0.506;fill:#e8c68d;fill-opacity:1;stroke:none;stroke-width:10;stroke-linecap:round;stroke-linejoin:round;stroke-miterlimit:4;stroke-dasharray:none;stroke-opacity:1" />
      <circle
         r="12.36182"
         cy="500.43842"
         cx="740.401"
         id="circle5467"
         style="opacity:0.506;fill:#e8c68d;fill-opacity:1;stroke:none;stroke-width:10;stroke-linecap:round;stroke-linejoin:round;stroke-miterlimit:4;stroke-dasharray:none;stroke-opacity:1" />
      <circle
         r="12.36182"
         cy="591.867"
         cx="691.82959"
         id="circle5469"
         style="opacity:0.506;fill:#e8c68d;fill-opacity:1;stroke:none;stroke-width:10;stroke-linecap:round;stroke-linejoin:round;stroke-miterlimit:4;stroke-dasharray:none;stroke-opacity:1" />
      <circle
         r="12.36182"
         cy="614.72412"
         cx="626.1153"
         id="circle5471"
         style="opacity:0.506;fill:#e8c68d;fill-opacity:1;stroke:none;stroke-width:10;stroke-linecap:round;stroke-linejoin:round;stroke-miterlimit:4;stroke-dasharray:none;stroke-opacity:1" />
      <circle
         r="12.36182"
         cy="674.72412"
         cx="551.82953"
         id="circle5473"
         style="opacity:0.506;fill:#e8c68d;fill-opacity:1;stroke:none;stroke-width:10;stroke-linecap:round;stroke-linejoin:round;stroke-miterlimit:4;stroke-dasharray:none;stroke-opacity:1" />
      <circle
         r="12.36182"
         cy="677.5813"
         cx="466.11526"
         id="circle5475"
         style="opacity:0.506;fill:#e8c68d;fill-opacity:1;stroke:none;stroke-width:10;stroke-linecap:round;stroke-linejoin:round;stroke-miterlimit:4;stroke-dasharray:none;stroke-opacity:1" />
      <circle
         r="12.36182"
         cy="734.72418"
         cx="417.54382"
         id="circle5477"
         style="opacity:0.506;fill:#e8c68d;fill-opacity:1;stroke:none;stroke-width:10;stroke-linecap:round;stroke-linejoin:round;stroke-miterlimit:4;stroke-dasharray:none;stroke-opacity:1" />
      <circle
         r="12.36182"
         cy="749.00989"
         cx="363.25809"
         id="circle5479"
         style="opacity:0.506;fill:#e8c68d;fill-opacity:1;stroke:none;stroke-width:10;stroke-linecap:round;stroke-linejoin:round;stroke-miterlimit:4;stroke-dasharray:none;stroke-opacity:1" />
      <circle
         r="12.36182"
         cy="86.152649"
         cx="1000.4011"
         id="circle5481"
         style="opacity:0.506;fill:#e8c68d;fill-opacity:1;stroke:none;stroke-width:10;stroke-linecap:round;stroke-linejoin:round;stroke-miterlimit:4;stroke-dasharray:none;stroke-opacity:1" />
      <circle
         r="12.36182"
         cy="-153.84738"
         cx="951.82959"
         id="circle5483"
         style="opacity:0.506;fill:#e8c68d;fill-opacity:1;stroke:none;stroke-width:10;stroke-linecap:round;stroke-linejoin:round;stroke-miterlimit:4;stroke-dasharray:none;stroke-opacity:1" />
      <circle
         r="12.36182"
         cy="-22.418795"
         cx="880.401"
         id="circle5485"
         style="opacity:0.506;fill:#e8c68d;fill-opacity:1;stroke:none;stroke-width:10;stroke-linecap:round;stroke-linejoin:round;stroke-miterlimit:4;stroke-dasharray:none;stroke-opacity:1" />
      <circle
         r="12.36182"
         cy="-342.41882"
         cx="920.401"
         id="circle5487"
         style="opacity:0.506;fill:#e8c68d;fill-opacity:1;stroke:none;stroke-width:10;stroke-linecap:round;stroke-linejoin:round;stroke-miterlimit:4;stroke-dasharray:none;stroke-opacity:1" />
      <circle
         style="opacity:0.506;fill:#e8c68d;fill-opacity:1;stroke:none;stroke-width:10;stroke-linecap:round;stroke-linejoin:round;stroke-miterlimit:4;stroke-dasharray:none;stroke-opacity:1"
         id="circle5421"
         cx="266.11523"
         cy="-348.13312"
         r="12.36182" />
      <circle
         r="12.36182"
         cy="21.434076"
         cx="1008.0515"
         id="path5343"
         style="opacity:0.506;fill:#e8c68d;fill-opacity:1;stroke:none;stroke-width:10;stroke-linecap:round;stroke-linejoin:round;stroke-miterlimit:4;stroke-dasharray:none;stroke-opacity:1" />
    </g>
  </g>
</svg>
