<?xml version="1.0" encoding="UTF-8" standalone="no"?>
<!-- Created with Inkscape (http://www.inkscape.org/) -->

<svg
   xmlns:dc="http://purl.org/dc/elements/1.1/"
   xmlns:cc="http://creativecommons.org/ns#"
   xmlns:rdf="http://www.w3.org/1999/02/22-rdf-syntax-ns#"
   xmlns:svg="http://www.w3.org/2000/svg"
   xmlns="http://www.w3.org/2000/svg"
   xmlns:xlink="http://www.w3.org/1999/xlink"
   xmlns:sodipodi="http://sodipodi.sourceforge.net/DTD/sodipodi-0.dtd"
   xmlns:inkscape="http://www.inkscape.org/namespaces/inkscape"
   width="600.73016mm"
   height="455.58731mm"
   viewBox="0 0 2128.5715 1614.2857"
   id="svg16054"
   version="1.1"
   inkscape:version="0.91 r13725"
   sodipodi:docname="map.svg">
  <defs
     id="defs16056">
    <pattern
       inkscape:collect="always"
       xlink:href="#pattern6063"
       id="pattern3404"
       patternTransform="matrix(0,-1,-1,0,786.92529,4903.6623)" />
    <inkscape:path-effect
       effect="spiro"
       id="path-effect17606"
       is_visible="true" />
    <inkscape:path-effect
       is_visible="true"
       id="path-effect16830"
       effect="spiro" />
    <inkscape:path-effect
       is_visible="true"
       id="path-effect16826"
       effect="spiro" />
    <inkscape:path-effect
       is_visible="true"
       id="path-effect16822"
       effect="spiro" />
    <inkscape:path-effect
       is_visible="true"
       id="path-effect16818"
       effect="spiro" />
    <inkscape:path-effect
       is_visible="true"
       id="path-effect16814"
       effect="spiro" />
    <inkscape:path-effect
       is_visible="true"
       id="path-effect16810"
       effect="spiro" />
    <inkscape:path-effect
       is_visible="true"
       id="path-effect16806"
       effect="spiro" />
    <inkscape:path-effect
       is_visible="true"
       id="path-effect16802"
       effect="spiro" />
    <inkscape:path-effect
       is_visible="true"
       id="path-effect16798"
       effect="spiro" />
    <inkscape:path-effect
       effect="spiro"
       id="path-effect16794"
       is_visible="true" />
    <inkscape:path-effect
       effect="spiro"
       id="path-effect16790"
       is_visible="true" />
    <inkscape:path-effect
       effect="spiro"
       id="path-effect16786"
       is_visible="true" />
    <inkscape:path-effect
       effect="spiro"
       id="path-effect16782"
       is_visible="true" />
    <inkscape:path-effect
       effect="spiro"
       id="path-effect16778"
       is_visible="true" />
    <inkscape:path-effect
       effect="spiro"
       id="path-effect16774"
       is_visible="true" />
    <pattern
       id="pattern6063"
       height="17.8516"
       width="24.8174"
       y="0"
       x="0"
       patternUnits="userSpaceOnUse"
       patternTransform="matrix(1,0,0,-1,-4171.3001,1094.5068)">
      <g
         id="g6065">
        <g
           id="g6067"
           clip-path="url(#clipPath6059)">
          <g
             id="g6069"
             transform="translate(1.834,14.3574)">
            <path
               id="path6071"
               style="fill:none;stroke:#ffffff;stroke-opacity:1;stroke-width:0.5;stroke-linecap:round;stroke-linejoin:round;stroke-miterlimit:10;stroke-dasharray:none"
               d="M 0,0 C 0,0 3,2.5 6.75,1.5" />
          </g>
          <g
             id="g6073"
             transform="translate(8.5029,10.9883)">
            <path
               id="path6075"
               style="fill:none;stroke:#ffffff;stroke-opacity:1;stroke-width:0.5;stroke-linecap:round;stroke-linejoin:round;stroke-miterlimit:10;stroke-dasharray:none"
               d="M 0,0 C 0,0 3.285,2.112 6.883,0.657" />
          </g>
          <g
             id="g6077"
             transform="translate(0.25,5.2002)">
            <path
               id="path6079"
               style="fill:none;stroke:#ffffff;stroke-opacity:1;stroke-width:0.5;stroke-linecap:round;stroke-linejoin:round;stroke-miterlimit:10;stroke-dasharray:none"
               d="M 0,0 C 0,0 3.285,2.111 6.883,0.657" />
          </g>
          <g
             id="g6081"
             transform="translate(16.8125,5.2002)">
            <path
               id="path6083"
               style="fill:none;stroke:#ffffff;stroke-opacity:1;stroke-width:0.5;stroke-linecap:round;stroke-linejoin:round;stroke-miterlimit:10;stroke-dasharray:none"
               d="M 0,0 C 0,0 3.285,2.111 6.883,0.657" />
          </g>
          <g
             id="g6085"
             transform="translate(17.6528,16.8242)">
            <path
               id="path6087"
               style="fill:none;stroke:#ffffff;stroke-opacity:1;stroke-width:0.5;stroke-linecap:round;stroke-linejoin:round;stroke-miterlimit:10;stroke-dasharray:none"
               d="M 0,0 C 0,0 3.48,1.771 6.915,-0.035" />
          </g>
          <g
             id="g6089"
             transform="translate(8.5029,0.25)">
            <path
               id="path6091"
               style="fill:none;stroke:#ffffff;stroke-opacity:1;stroke-width:0.5;stroke-linecap:round;stroke-linejoin:round;stroke-miterlimit:10;stroke-dasharray:none"
               d="M 0,0 C 0,0 3.285,2.112 6.883,0.657" />
          </g>
        </g>
      </g>
    </pattern>
    <clipPath
       id="clipPath6059"
       clipPathUnits="userSpaceOnUse">
      <path
         inkscape:connector-curvature="0"
         id="path6061"
         d="m 0,17.852 24.817,0 L 24.817,0 0,0 0,17.852 Z" />
    </clipPath>
    <pattern
       patternUnits="userSpaceOnUse"
       width="62.722197"
       height="13.940232"
       patternTransform="translate(311.76476,-798.75088)"
       id="pattern17603">
      <path
         style="fill:none;fill-rule:evenodd;stroke:#c6d8ec;stroke-width:5;stroke-linecap:round;stroke-linejoin:miter;stroke-miterlimit:4;stroke-dasharray:none;stroke-opacity:1"
         d="m 2.5190187,11.046121 c 1.9676214,-3.1412 4.9178048,-5.6570028 8.3303473,-7.1037997 3.412544,-1.446797 7.271953,-1.8180194 10.897703,-1.0482102 3.417441,0.7255816 6.54272,2.4109455 9.61403,4.076005 3.07131,1.6650595 6.196589,3.3504229 9.61403,4.0760049 3.62575,0.769809 7.485159,0.398587 10.897702,-1.0482102 3.412543,-1.446797 6.362727,-3.9625997 8.330348,-7.1037997"
         id="path16841"
         inkscape:path-effect="#path-effect17606"
         inkscape:original-d="m 2.5190187,11.046121 c 4.7295,-7.9737299 12.4985203,-20.3940399 19.2280503,-8.1520099 3.08913,6.29503 7.11407,10.7969399 19.22806,8.1520099 8.07439,-1.7629299 17.66593,-23.93629 19.22805,-8.1520099"
         inkscape:connector-curvature="0"
         sodipodi:nodetypes="ccsc" />
    </pattern>
  </defs>
  <sodipodi:namedview
     id="base"
     pagecolor="#ffffff"
     bordercolor="#666666"
     borderopacity="1.0"
     inkscape:pageopacity="0.0"
     inkscape:pageshadow="2"
     inkscape:zoom="0.175"
     inkscape:cx="2076.065"
     inkscape:cy="292.10387"
     inkscape:document-units="px"
     inkscape:current-layer="layer1"
     showgrid="false"
     borderlayer="true"
     inkscape:window-width="1920"
     inkscape:window-height="1025"
     inkscape:window-x="0"
     inkscape:window-y="867"
     inkscape:window-maximized="1"
     fit-margin-top="0"
     fit-margin-left="0"
     fit-margin-right="0"
     fit-margin-bottom="0" />
  <metadata
     id="metadata16059">
    <rdf:RDF>
      <cc:Work
         rdf:about="">
        <dc:format>image/svg+xml</dc:format>
        <dc:type
           rdf:resource="http://purl.org/dc/dcmitype/StillImage" />
        <dc:title></dc:title>
      </cc:Work>
    </rdf:RDF>
  </metadata>
  <g
     inkscape:label="Layer 1"
     inkscape:groupmode="layer"
     id="layer1"
     transform="translate(325.7143,813.35212)">
    <rect
       style="opacity:1;fill:#a0e0bf;fill-opacity:1;stroke:#3465a4;stroke-width:0;stroke-miterlimit:4;stroke-dasharray:none;stroke-dashoffset:0;stroke-opacity:1"
       id="rect16686"
       width="1614.2858"
       height="2128.5715"
       x="-800.93365"
       y="-325.71429"
       transform="matrix(0,-1,1,0,0,0)" />
    <path
       d="m 459.5918,140.03906 a 153.196,138.37059 40.309028 0 0 -95.38282,45.50196 153.196,138.37059 40.309028 0 0 -29.75781,95.48437 153.196,138.37059 40.309028 0 0 -118.27344,44.63672 153.196,138.37059 40.309028 0 0 -30.01757,91.63281 153.196,138.37059 40.309028 0 0 -23.8125,21.47461 153.196,138.37059 40.309028 0 0 12.74218,190.4668 153.196,138.37059 40.309028 0 0 48.32422,169.1582 153.196,138.37059 40.309028 0 0 196.19336,4.15235 153.196,138.37059 40.309028 0 0 201.23438,-10.4668 153.196,138.37059 40.309028 0 0 21.42968,-36.5957 A 153.196,138.37059 40.309028 0 0 745.58203,709.96875 153.196,138.37059 40.309028 0 0 730.53906,516.93945 153.196,138.37059 40.309028 0 0 688.45703,334.24023 153.196,138.37059 40.309028 0 0 628.01953,301.52344 153.196,138.37059 40.309028 0 0 570.54492,179.12891 153.196,138.37059 40.309028 0 0 459.5918,140.03906 Z"
       id="path16717"
       style="opacity:1;fill:#e3ded8;fill-opacity:1;stroke:#3465a4;stroke-width:0;stroke-miterlimit:4;stroke-dasharray:none;stroke-dashoffset:0;stroke-opacity:1"
       inkscape:original="M 459.5918 140.03906 A 153.196 138.37059 40.309028 0 0 364.20898 185.54102 A 153.196 138.37059 40.309028 0 0 334.45117 281.02539 A 153.196 138.37059 40.309028 0 0 216.17773 325.66211 A 153.196 138.37059 40.309028 0 0 186.16016 417.29492 A 153.196 138.37059 40.309028 0 0 162.34766 438.76953 A 153.196 138.37059 40.309028 0 0 175.08984 629.23633 A 153.196 138.37059 40.309028 0 0 223.41406 798.39453 A 153.196 138.37059 40.309028 0 0 419.60742 802.54688 A 153.196 138.37059 40.309028 0 0 620.8418 792.08008 A 153.196 138.37059 40.309028 0 0 642.27148 755.48438 A 153.196 138.37059 40.309028 0 0 745.58203 709.96875 A 153.196 138.37059 40.309028 0 0 730.53906 516.93945 A 153.196 138.37059 40.309028 0 0 688.45703 334.24023 A 153.196 138.37059 40.309028 0 0 628.01953 301.52344 A 153.196 138.37059 40.309028 0 0 570.54492 179.12891 A 153.196 138.37059 40.309028 0 0 459.5918 140.03906 z "
       inkscape:radius="0"
       sodipodi:type="inkscape:offset"
       transform="matrix(0,-1,1,0,764.98374,738.42314)" />
    <path
       sodipodi:type="inkscape:offset"
       inkscape:radius="-58.690468"
       inkscape:original="M 459.5918 140.03906 A 153.196 138.37059 40.309028 0 0 364.20898 185.54102 A 153.196 138.37059 40.309028 0 0 334.45117 281.02539 A 153.196 138.37059 40.309028 0 0 216.17773 325.66211 A 153.196 138.37059 40.309028 0 0 186.16016 417.29492 A 153.196 138.37059 40.309028 0 0 162.34766 438.76953 A 153.196 138.37059 40.309028 0 0 175.08984 629.23633 A 153.196 138.37059 40.309028 0 0 223.41406 798.39453 A 153.196 138.37059 40.309028 0 0 419.60742 802.54688 A 153.196 138.37059 40.309028 0 0 620.8418 792.08008 A 153.196 138.37059 40.309028 0 0 642.27148 755.48438 A 153.196 138.37059 40.309028 0 0 745.58203 709.96875 A 153.196 138.37059 40.309028 0 0 730.53906 516.93945 A 153.196 138.37059 40.309028 0 0 688.45703 334.24023 A 153.196 138.37059 40.309028 0 0 628.01953 301.52344 A 153.196 138.37059 40.309028 0 0 570.54492 179.12891 A 153.196 138.37059 40.309028 0 0 459.5918 140.03906 z "
       style="opacity:1;fill:#b2a594;fill-opacity:1;stroke:#3465a4;stroke-width:0;stroke-miterlimit:4;stroke-dasharray:none;stroke-dashoffset:0;stroke-opacity:1"
       id="path16719"
       d="m 462.26758,198.66797 c -22.36088,1.02072 -41.07021,10.44947 -53.26953,24.80859 -11.47308,13.60996 -17.65306,32.17466 -16.03321,52.9961 a 58.696337,58.696337 0 0 1 -64.86328,62.89843 c -27.98465,-3.04571 -52.47833,7.0404 -67.16797,24.26758 -11.03757,13.10746 -17.16829,30.77287 -16.1582,50.6836 a 58.696337,58.696337 0 0 1 -25.16601,51.19921 c -4.71516,3.27029 -8.91359,7.06785 -12.57813,11.31836 -22.57748,26.87514 -21.31069,77.51741 11.10937,112.50586 a 58.696337,58.696337 0 0 1 11.54688,61.42188 c -11.80852,29.94222 -0.63325,75.35348 31.68359,102.86133 0.004,0.003 0.008,0.006 0.0117,0.01 37.30714,31.623 91.88,30.51188 118.21094,5.97266 a 58.696337,58.696337 0 0 1 76.23437,-3.24414 c 40.06802,31.42654 95.92031,26.20684 120.17188,-2.16992 4.79322,-5.72138 8.64098,-12.25227 11.38477,-19.49805 a 58.696337,58.696337 0 0 1 55.41406,-37.90234 c 24.34325,0.21875 44.97002,-9.47922 58.04297,-24.81836 23.05381,-27.2629 21.21159,-79.31792 -12.53321,-114.28321 a 58.696337,58.696337 0 0 1 -9.48242,-68.51172 C 695.0083,459.03374 685.55453,408.82894 650.5,379.00781 638.91893,369.22235 625.30151,361.90444 611.44336,357.82422 a 58.696337,58.696337 0 0 1 -42.10547,-57.35547 c 0.46723,-25.9877 -13.06792,-56.41596 -36.78711,-76.60547 -20.36968,-17.26825 -47.06366,-26.25545 -70.28125,-25.19531 a 58.696337,58.696337 0 0 1 -0.002,0 z"
       transform="matrix(0,-1,1,0,744.78069,732.36223)" />
    <g
       id="g16725"
       transform="matrix(0,-1,1,0,744.78069,732.36223)">
      <path
         inkscape:connector-curvature="0"
         id="ellipse16690"
         d="m 163.37351,-232.87655 a 64.680682,71.61075 41.047501 0 0 1.75433,96.48107 64.680682,71.61075 41.047501 0 0 44.45016,14.48393 64.680682,71.61075 41.047501 0 0 20.15098,55.550961 64.680682,71.61075 41.047501 0 0 42.64934,14.582602 64.680682,71.61075 41.047501 0 0 9.89325,11.259013 64.680682,71.61075 41.047501 0 0 89.10227,-4.808243 64.680682,71.61075 41.047501 0 0 79.35729,-21.567534 64.680682,71.61075 41.047501 0 0 3.12293,-91.677249 64.680682,71.61075 41.047501 0 0 -3.68041,-94.12122 64.680682,71.61075 41.047501 0 0 -16.97584,-10.23688 64.680682,71.61075 41.047501 0 0 -20.65198,-48.56234 64.680682,71.61075 41.047501 0 0 -90.31395,5.86796 64.680682,71.61075 41.047501 0 0 -85.64766,18.56936 64.680682,71.61075 41.047501 0 0 -15.65618,28.05105 64.680682,71.61075 41.047501 0 0 -57.55453,26.12752 z"
         style="opacity:1;fill:#73b236;fill-opacity:1;stroke:#3465a4;stroke-width:0;stroke-miterlimit:4;stroke-dasharray:none;stroke-dashoffset:0;stroke-opacity:1" />
      <path
         d="m 370.95117,-300.15234 c -10.46521,0.36214 -22.05018,5.13402 -30.9082,13.46484 a 26.000715,26.000715 0 0 1 -30.39844,3.80859 c -14.63127,-8.09723 -38.91222,-3.76212 -53.45312,12.89844 -4.76996,5.50116 -8.37176,11.99548 -10.42188,18.64063 a 26.000715,26.000715 0 0 1 -25.64453,18.32226 c -12.60222,-0.38912 -27.30926,5.95517 -37.1543,17.22461 -16.53054,18.99628 -14.94338,47.42199 -0.78906,59.77149 6.58472,5.70034 15.6178,8.82096 25.71289,8.16601 a 26.000715,26.000715 0 0 1 27.49024,29.08985 c -1.64349,13.48192 3.08182,25.491362 11.4082,32.785151 6.3427,5.490918 14.94251,8.587966 24.60351,8.222657 a 26.000715,26.000715 0 0 1 22.53321,11.439453 c 1.5631,2.31678 3.39056,4.38769 5.43945,6.203125 12.99331,11.236243 37.55663,10.860981 54.58008,-4.509766 a 26.000715,26.000715 0 0 1 27.27344,-4.763672 c 14.53832,5.951671 36.48901,0.778065 49.90234,-14.582031 15.41991,-17.724967 15.31397,-44.095067 3.48242,-57.123047 a 26.000715,26.000715 0 0 1 -1.00195,-33.78516 c 15.35229,-19.06263 13.26002,-46.15214 -0.48438,-58.18164 -2.76511,-2.37521 -5.92903,-4.29387 -9.4414,-5.67578 a 26.000715,26.000715 0 0 1 -16.47461,-24.76172 c 0.25741,-11.7667 -4.32188,-21.90232 -11.74219,-28.39257 -6.31727,-5.48691 -14.88199,-8.59378 -24.50977,-8.26172 l -0.002,0 z"
         id="path16723"
         style="opacity:1;fill:#b6dd8f;fill-opacity:1;stroke:#3465a4;stroke-width:0;stroke-miterlimit:4;stroke-dasharray:none;stroke-dashoffset:0;stroke-opacity:1"
         inkscape:original="M 370.05469 -326.13477 A 64.680682 71.61075 41.047501 0 0 322.23242 -305.625 A 64.680682 71.61075 41.047501 0 0 236.58398 -287.05469 A 64.680682 71.61075 41.047501 0 0 220.92773 -259.00391 A 64.680682 71.61075 41.047501 0 0 163.37305 -232.87695 A 64.680682 71.61075 41.047501 0 0 165.12695 -136.39453 A 64.680682 71.61075 41.047501 0 0 209.57812 -121.91211 A 64.680682 71.61075 41.047501 0 0 229.72852 -66.361328 A 64.680682 71.61075 41.047501 0 0 272.37891 -51.777344 A 64.680682 71.61075 41.047501 0 0 282.27148 -40.519531 A 64.680682 71.61075 41.047501 0 0 371.37305 -45.328125 A 64.680682 71.61075 41.047501 0 0 450.73047 -66.894531 A 64.680682 71.61075 41.047501 0 0 453.85352 -158.57227 A 64.680682 71.61075 41.047501 0 0 450.17383 -252.69336 A 64.680682 71.61075 41.047501 0 0 433.19727 -262.92969 A 64.680682 71.61075 41.047501 0 0 412.54492 -311.49219 A 64.680682 71.61075 41.047501 0 0 370.05469 -326.13477 z "
         inkscape:radius="-25.998116"
         sodipodi:type="inkscape:offset" />
    </g>
    <g
       id="g16729"
       transform="matrix(0.51811035,-0.85531378,0.85531378,0.51811035,1359.9643,-89.682082)">
      <path
         style="opacity:1;fill:#73b236;fill-opacity:1;stroke:#3465a4;stroke-width:0;stroke-miterlimit:4;stroke-dasharray:none;stroke-dashoffset:0;stroke-opacity:1"
         d="m 163.37351,-232.87655 a 64.680682,71.61075 41.047501 0 0 1.75433,96.48107 64.680682,71.61075 41.047501 0 0 44.45016,14.48393 64.680682,71.61075 41.047501 0 0 20.15098,55.550961 64.680682,71.61075 41.047501 0 0 42.64934,14.582602 64.680682,71.61075 41.047501 0 0 9.89325,11.259013 64.680682,71.61075 41.047501 0 0 89.10227,-4.808243 64.680682,71.61075 41.047501 0 0 79.35729,-21.567534 64.680682,71.61075 41.047501 0 0 3.12293,-91.677249 64.680682,71.61075 41.047501 0 0 -3.68041,-94.12122 64.680682,71.61075 41.047501 0 0 -16.97584,-10.23688 64.680682,71.61075 41.047501 0 0 -20.65198,-48.56234 64.680682,71.61075 41.047501 0 0 -90.31395,5.86796 64.680682,71.61075 41.047501 0 0 -85.64766,18.56936 64.680682,71.61075 41.047501 0 0 -15.65618,28.05105 64.680682,71.61075 41.047501 0 0 -57.55453,26.12752 z"
         id="path16731"
         inkscape:connector-curvature="0" />
      <path
         sodipodi:type="inkscape:offset"
         inkscape:radius="-25.998116"
         inkscape:original="M 370.05469 -326.13477 A 64.680682 71.61075 41.047501 0 0 322.23242 -305.625 A 64.680682 71.61075 41.047501 0 0 236.58398 -287.05469 A 64.680682 71.61075 41.047501 0 0 220.92773 -259.00391 A 64.680682 71.61075 41.047501 0 0 163.37305 -232.87695 A 64.680682 71.61075 41.047501 0 0 165.12695 -136.39453 A 64.680682 71.61075 41.047501 0 0 209.57812 -121.91211 A 64.680682 71.61075 41.047501 0 0 229.72852 -66.361328 A 64.680682 71.61075 41.047501 0 0 272.37891 -51.777344 A 64.680682 71.61075 41.047501 0 0 282.27148 -40.519531 A 64.680682 71.61075 41.047501 0 0 371.37305 -45.328125 A 64.680682 71.61075 41.047501 0 0 450.73047 -66.894531 A 64.680682 71.61075 41.047501 0 0 453.85352 -158.57227 A 64.680682 71.61075 41.047501 0 0 450.17383 -252.69336 A 64.680682 71.61075 41.047501 0 0 433.19727 -262.92969 A 64.680682 71.61075 41.047501 0 0 412.54492 -311.49219 A 64.680682 71.61075 41.047501 0 0 370.05469 -326.13477 z "
         style="opacity:1;fill:#b6dd8f;fill-opacity:1;stroke:#3465a4;stroke-width:0;stroke-miterlimit:4;stroke-dasharray:none;stroke-dashoffset:0;stroke-opacity:1"
         id="path16733"
         d="m 370.95117,-300.15234 c -10.46521,0.36214 -22.05018,5.13402 -30.9082,13.46484 a 26.000715,26.000715 0 0 1 -30.39844,3.80859 c -14.63127,-8.09723 -38.91222,-3.76212 -53.45312,12.89844 -4.76996,5.50116 -8.37176,11.99548 -10.42188,18.64063 a 26.000715,26.000715 0 0 1 -25.64453,18.32226 c -12.60222,-0.38912 -27.30926,5.95517 -37.1543,17.22461 -16.53054,18.99628 -14.94338,47.42199 -0.78906,59.77149 6.58472,5.70034 15.6178,8.82096 25.71289,8.16601 a 26.000715,26.000715 0 0 1 27.49024,29.08985 c -1.64349,13.48192 3.08182,25.491362 11.4082,32.785151 6.3427,5.490918 14.94251,8.587966 24.60351,8.222657 a 26.000715,26.000715 0 0 1 22.53321,11.439453 c 1.5631,2.31678 3.39056,4.38769 5.43945,6.203125 12.99331,11.236243 37.55663,10.860981 54.58008,-4.509766 a 26.000715,26.000715 0 0 1 27.27344,-4.763672 c 14.53832,5.951671 36.48901,0.778065 49.90234,-14.582031 15.41991,-17.724967 15.31397,-44.095067 3.48242,-57.123047 a 26.000715,26.000715 0 0 1 -1.00195,-33.78516 c 15.35229,-19.06263 13.26002,-46.15214 -0.48438,-58.18164 -2.76511,-2.37521 -5.92903,-4.29387 -9.4414,-5.67578 a 26.000715,26.000715 0 0 1 -16.47461,-24.76172 c 0.25741,-11.7667 -4.32188,-21.90232 -11.74219,-28.39257 -6.31727,-5.48691 -14.88199,-8.59378 -24.50977,-8.26172 l -0.002,0 z" />
    </g>
    <g
       id="g16735"
       transform="matrix(0,-1,1,0,744.78069,732.36223)">
      <path
         inkscape:connector-curvature="0"
         id="path16737"
         d="m 163.37351,-232.87655 a 64.680682,71.61075 41.047501 0 0 1.75433,96.48107 64.680682,71.61075 41.047501 0 0 44.45016,14.48393 64.680682,71.61075 41.047501 0 0 20.15098,55.550961 64.680682,71.61075 41.047501 0 0 42.64934,14.582602 64.680682,71.61075 41.047501 0 0 9.89325,11.259013 64.680682,71.61075 41.047501 0 0 89.10227,-4.808243 64.680682,71.61075 41.047501 0 0 79.35729,-21.567534 64.680682,71.61075 41.047501 0 0 3.12293,-91.677249 64.680682,71.61075 41.047501 0 0 -3.68041,-94.12122 64.680682,71.61075 41.047501 0 0 -16.97584,-10.23688 64.680682,71.61075 41.047501 0 0 -20.65198,-48.56234 64.680682,71.61075 41.047501 0 0 -90.31395,5.86796 64.680682,71.61075 41.047501 0 0 -85.64766,18.56936 64.680682,71.61075 41.047501 0 0 -15.65618,28.05105 64.680682,71.61075 41.047501 0 0 -57.55453,26.12752 z"
         style="opacity:1;fill:#73b236;fill-opacity:1;stroke:#3465a4;stroke-width:0;stroke-miterlimit:4;stroke-dasharray:none;stroke-dashoffset:0;stroke-opacity:1" />
      <path
         d="m 370.95117,-300.15234 c -10.46521,0.36214 -22.05018,5.13402 -30.9082,13.46484 a 26.000715,26.000715 0 0 1 -30.39844,3.80859 c -14.63127,-8.09723 -38.91222,-3.76212 -53.45312,12.89844 -4.76996,5.50116 -8.37176,11.99548 -10.42188,18.64063 a 26.000715,26.000715 0 0 1 -25.64453,18.32226 c -12.60222,-0.38912 -27.30926,5.95517 -37.1543,17.22461 -16.53054,18.99628 -14.94338,47.42199 -0.78906,59.77149 6.58472,5.70034 15.6178,8.82096 25.71289,8.16601 a 26.000715,26.000715 0 0 1 27.49024,29.08985 c -1.64349,13.48192 3.08182,25.491362 11.4082,32.785151 6.3427,5.490918 14.94251,8.587966 24.60351,8.222657 a 26.000715,26.000715 0 0 1 22.53321,11.439453 c 1.5631,2.31678 3.39056,4.38769 5.43945,6.203125 12.99331,11.236243 37.55663,10.860981 54.58008,-4.509766 a 26.000715,26.000715 0 0 1 27.27344,-4.763672 c 14.53832,5.951671 36.48901,0.778065 49.90234,-14.582031 15.41991,-17.724967 15.31397,-44.095067 3.48242,-57.123047 a 26.000715,26.000715 0 0 1 -1.00195,-33.78516 c 15.35229,-19.06263 13.26002,-46.15214 -0.48438,-58.18164 -2.76511,-2.37521 -5.92903,-4.29387 -9.4414,-5.67578 a 26.000715,26.000715 0 0 1 -16.47461,-24.76172 c 0.25741,-11.7667 -4.32188,-21.90232 -11.74219,-28.39257 -6.31727,-5.48691 -14.88199,-8.59378 -24.50977,-8.26172 l -0.002,0 z"
         id="path16739"
         style="opacity:1;fill:#b6dd8f;fill-opacity:1;stroke:#3465a4;stroke-width:0;stroke-miterlimit:4;stroke-dasharray:none;stroke-dashoffset:0;stroke-opacity:1"
         inkscape:original="M 370.05469 -326.13477 A 64.680682 71.61075 41.047501 0 0 322.23242 -305.625 A 64.680682 71.61075 41.047501 0 0 236.58398 -287.05469 A 64.680682 71.61075 41.047501 0 0 220.92773 -259.00391 A 64.680682 71.61075 41.047501 0 0 163.37305 -232.87695 A 64.680682 71.61075 41.047501 0 0 165.12695 -136.39453 A 64.680682 71.61075 41.047501 0 0 209.57812 -121.91211 A 64.680682 71.61075 41.047501 0 0 229.72852 -66.361328 A 64.680682 71.61075 41.047501 0 0 272.37891 -51.777344 A 64.680682 71.61075 41.047501 0 0 282.27148 -40.519531 A 64.680682 71.61075 41.047501 0 0 371.37305 -45.328125 A 64.680682 71.61075 41.047501 0 0 450.73047 -66.894531 A 64.680682 71.61075 41.047501 0 0 453.85352 -158.57227 A 64.680682 71.61075 41.047501 0 0 450.17383 -252.69336 A 64.680682 71.61075 41.047501 0 0 433.19727 -262.92969 A 64.680682 71.61075 41.047501 0 0 412.54492 -311.49219 A 64.680682 71.61075 41.047501 0 0 370.05469 -326.13477 z "
         inkscape:radius="-25.998116"
         sodipodi:type="inkscape:offset" />
    </g>
    <g
       id="g16741"
       transform="matrix(0,-1,1,0,744.78069,732.36223)">
      <path
         style="opacity:1;fill:#73b236;fill-opacity:1;stroke:#3465a4;stroke-width:0;stroke-miterlimit:4;stroke-dasharray:none;stroke-dashoffset:0;stroke-opacity:1"
         d="m 163.37351,-232.87655 a 64.680682,71.61075 41.047501 0 0 1.75433,96.48107 64.680682,71.61075 41.047501 0 0 44.45016,14.48393 64.680682,71.61075 41.047501 0 0 20.15098,55.550961 64.680682,71.61075 41.047501 0 0 42.64934,14.582602 64.680682,71.61075 41.047501 0 0 9.89325,11.259013 64.680682,71.61075 41.047501 0 0 89.10227,-4.808243 64.680682,71.61075 41.047501 0 0 79.35729,-21.567534 64.680682,71.61075 41.047501 0 0 3.12293,-91.677249 64.680682,71.61075 41.047501 0 0 -3.68041,-94.12122 64.680682,71.61075 41.047501 0 0 -16.97584,-10.23688 64.680682,71.61075 41.047501 0 0 -20.65198,-48.56234 64.680682,71.61075 41.047501 0 0 -90.31395,5.86796 64.680682,71.61075 41.047501 0 0 -85.64766,18.56936 64.680682,71.61075 41.047501 0 0 -15.65618,28.05105 64.680682,71.61075 41.047501 0 0 -57.55453,26.12752 z"
         id="path16743"
         inkscape:connector-curvature="0" />
      <path
         sodipodi:type="inkscape:offset"
         inkscape:radius="-25.998116"
         inkscape:original="M 370.05469 -326.13477 A 64.680682 71.61075 41.047501 0 0 322.23242 -305.625 A 64.680682 71.61075 41.047501 0 0 236.58398 -287.05469 A 64.680682 71.61075 41.047501 0 0 220.92773 -259.00391 A 64.680682 71.61075 41.047501 0 0 163.37305 -232.87695 A 64.680682 71.61075 41.047501 0 0 165.12695 -136.39453 A 64.680682 71.61075 41.047501 0 0 209.57812 -121.91211 A 64.680682 71.61075 41.047501 0 0 229.72852 -66.361328 A 64.680682 71.61075 41.047501 0 0 272.37891 -51.777344 A 64.680682 71.61075 41.047501 0 0 282.27148 -40.519531 A 64.680682 71.61075 41.047501 0 0 371.37305 -45.328125 A 64.680682 71.61075 41.047501 0 0 450.73047 -66.894531 A 64.680682 71.61075 41.047501 0 0 453.85352 -158.57227 A 64.680682 71.61075 41.047501 0 0 450.17383 -252.69336 A 64.680682 71.61075 41.047501 0 0 433.19727 -262.92969 A 64.680682 71.61075 41.047501 0 0 412.54492 -311.49219 A 64.680682 71.61075 41.047501 0 0 370.05469 -326.13477 z "
         style="opacity:1;fill:#b6dd8f;fill-opacity:1;stroke:#3465a4;stroke-width:0;stroke-miterlimit:4;stroke-dasharray:none;stroke-dashoffset:0;stroke-opacity:1"
         id="path16745"
         d="m 370.95117,-300.15234 c -10.46521,0.36214 -22.05018,5.13402 -30.9082,13.46484 a 26.000715,26.000715 0 0 1 -30.39844,3.80859 c -14.63127,-8.09723 -38.91222,-3.76212 -53.45312,12.89844 -4.76996,5.50116 -8.37176,11.99548 -10.42188,18.64063 a 26.000715,26.000715 0 0 1 -25.64453,18.32226 c -12.60222,-0.38912 -27.30926,5.95517 -37.1543,17.22461 -16.53054,18.99628 -14.94338,47.42199 -0.78906,59.77149 6.58472,5.70034 15.6178,8.82096 25.71289,8.16601 a 26.000715,26.000715 0 0 1 27.49024,29.08985 c -1.64349,13.48192 3.08182,25.491362 11.4082,32.785151 6.3427,5.490918 14.94251,8.587966 24.60351,8.222657 a 26.000715,26.000715 0 0 1 22.53321,11.439453 c 1.5631,2.31678 3.39056,4.38769 5.43945,6.203125 12.99331,11.236243 37.55663,10.860981 54.58008,-4.509766 a 26.000715,26.000715 0 0 1 27.27344,-4.763672 c 14.53832,5.951671 36.48901,0.778065 49.90234,-14.582031 15.41991,-17.724967 15.31397,-44.095067 3.48242,-57.123047 a 26.000715,26.000715 0 0 1 -1.00195,-33.78516 c 15.35229,-19.06263 13.26002,-46.15214 -0.48438,-58.18164 -2.76511,-2.37521 -5.92903,-4.29387 -9.4414,-5.67578 a 26.000715,26.000715 0 0 1 -16.47461,-24.76172 c 0.25741,-11.7667 -4.32188,-21.90232 -11.74219,-28.39257 -6.31727,-5.48691 -14.88199,-8.59378 -24.50977,-8.26172 l -0.002,0 z" />
    </g>
    <g
       id="g16747"
       transform="matrix(-0.26724812,-0.96362775,0.96362775,-0.26724812,353.9032,-49.137342)">
      <path
         inkscape:connector-curvature="0"
         id="path16749"
         d="m 163.37351,-232.87655 a 64.680682,71.61075 41.047501 0 0 1.75433,96.48107 64.680682,71.61075 41.047501 0 0 44.45016,14.48393 64.680682,71.61075 41.047501 0 0 20.15098,55.550961 64.680682,71.61075 41.047501 0 0 42.64934,14.582602 64.680682,71.61075 41.047501 0 0 9.89325,11.259013 64.680682,71.61075 41.047501 0 0 89.10227,-4.808243 64.680682,71.61075 41.047501 0 0 79.35729,-21.567534 64.680682,71.61075 41.047501 0 0 3.12293,-91.677249 64.680682,71.61075 41.047501 0 0 -3.68041,-94.12122 64.680682,71.61075 41.047501 0 0 -16.97584,-10.23688 64.680682,71.61075 41.047501 0 0 -20.65198,-48.56234 64.680682,71.61075 41.047501 0 0 -90.31395,5.86796 64.680682,71.61075 41.047501 0 0 -85.64766,18.56936 64.680682,71.61075 41.047501 0 0 -15.65618,28.05105 64.680682,71.61075 41.047501 0 0 -57.55453,26.12752 z"
         style="opacity:1;fill:#73b236;fill-opacity:1;stroke:#3465a4;stroke-width:0;stroke-miterlimit:4;stroke-dasharray:none;stroke-dashoffset:0;stroke-opacity:1" />
      <path
         d="m 370.95117,-300.15234 c -10.46521,0.36214 -22.05018,5.13402 -30.9082,13.46484 a 26.000715,26.000715 0 0 1 -30.39844,3.80859 c -14.63127,-8.09723 -38.91222,-3.76212 -53.45312,12.89844 -4.76996,5.50116 -8.37176,11.99548 -10.42188,18.64063 a 26.000715,26.000715 0 0 1 -25.64453,18.32226 c -12.60222,-0.38912 -27.30926,5.95517 -37.1543,17.22461 -16.53054,18.99628 -14.94338,47.42199 -0.78906,59.77149 6.58472,5.70034 15.6178,8.82096 25.71289,8.16601 a 26.000715,26.000715 0 0 1 27.49024,29.08985 c -1.64349,13.48192 3.08182,25.491362 11.4082,32.785151 6.3427,5.490918 14.94251,8.587966 24.60351,8.222657 a 26.000715,26.000715 0 0 1 22.53321,11.439453 c 1.5631,2.31678 3.39056,4.38769 5.43945,6.203125 12.99331,11.236243 37.55663,10.860981 54.58008,-4.509766 a 26.000715,26.000715 0 0 1 27.27344,-4.763672 c 14.53832,5.951671 36.48901,0.778065 49.90234,-14.582031 15.41991,-17.724967 15.31397,-44.095067 3.48242,-57.123047 a 26.000715,26.000715 0 0 1 -1.00195,-33.78516 c 15.35229,-19.06263 13.26002,-46.15214 -0.48438,-58.18164 -2.76511,-2.37521 -5.92903,-4.29387 -9.4414,-5.67578 a 26.000715,26.000715 0 0 1 -16.47461,-24.76172 c 0.25741,-11.7667 -4.32188,-21.90232 -11.74219,-28.39257 -6.31727,-5.48691 -14.88199,-8.59378 -24.50977,-8.26172 l -0.002,0 z"
         id="path16751"
         style="opacity:1;fill:#b6dd8f;fill-opacity:1;stroke:#3465a4;stroke-width:0;stroke-miterlimit:4;stroke-dasharray:none;stroke-dashoffset:0;stroke-opacity:1"
         inkscape:original="M 370.05469 -326.13477 A 64.680682 71.61075 41.047501 0 0 322.23242 -305.625 A 64.680682 71.61075 41.047501 0 0 236.58398 -287.05469 A 64.680682 71.61075 41.047501 0 0 220.92773 -259.00391 A 64.680682 71.61075 41.047501 0 0 163.37305 -232.87695 A 64.680682 71.61075 41.047501 0 0 165.12695 -136.39453 A 64.680682 71.61075 41.047501 0 0 209.57812 -121.91211 A 64.680682 71.61075 41.047501 0 0 229.72852 -66.361328 A 64.680682 71.61075 41.047501 0 0 272.37891 -51.777344 A 64.680682 71.61075 41.047501 0 0 282.27148 -40.519531 A 64.680682 71.61075 41.047501 0 0 371.37305 -45.328125 A 64.680682 71.61075 41.047501 0 0 450.73047 -66.894531 A 64.680682 71.61075 41.047501 0 0 453.85352 -158.57227 A 64.680682 71.61075 41.047501 0 0 450.17383 -252.69336 A 64.680682 71.61075 41.047501 0 0 433.19727 -262.92969 A 64.680682 71.61075 41.047501 0 0 412.54492 -311.49219 A 64.680682 71.61075 41.047501 0 0 370.05469 -326.13477 z "
         inkscape:radius="-25.998116"
         sodipodi:type="inkscape:offset" />
    </g>
    <path
       style="fill:#9abadd;fill-opacity:1;fill-rule:evenodd;stroke:none;stroke-width:1px;stroke-linecap:butt;stroke-linejoin:miter;stroke-opacity:1"
       d="m -199.36471,296.73332 c 0.0998,8.01033 1.8039,7.49899 17.85742,35.29688 16.05352,27.79789 65.15666,90.53695 79.91406,131.14844 14.757395,40.61149 35.732015,41.59383 65.394525,24.88476 29.6625104,-16.70907 65.16404,-29.76251 89.81836,-32.48242 24.65432,-2.71991 20.85349,8.02481 48.021495,21.61133 27.168,13.58652 79.64673,32.80494 116.80859,57.3125 37.16186,24.50756 40.79877,-16.74326 41.63867,-58.93555 0.8399,-42.19229 29.72924,-125.13388 34.24219,-169.0625 4.51295,-43.92862 45.79868,-82.23961 10.24805,-96.01172 -35.55063,-13.77211 -37.06783,-52.80163 -28.77316,-67.62612 8.29466,-14.82449 37.36852,-32.46631 79.98186,-79.268962 42.61334,-46.80265 47.88218,-104.41082 97.85184,-143.39984 49.96966,-38.989018 140.23509,6.4782 195.97071,-30.304688 55.73559,-36.78289 82.07409,-98.49122 107.07619,-171.7266 25.0021,-73.2354 59.054,-185.3406 26.2636,-260.6191 -32.7904,-75.2785 -119.3417,-123.5948 -183.84761,-139.4004 -64.50591,-15.8056 -152.90272,-18.8169 -165.3962,28.0801 -12.49348,46.897 59.34674,51.1886 95.28488,78.4632 35.93814,27.2746 92.77533,36.5569 120.74581,84.3021 27.97048,47.7452 51.87912,126.0267 18.18164,183.8496 -33.69745,57.82294 -141.37818,51.60199 -198.23493,87.79384 -56.85675,36.19185 -97.2346,73.31395 -141.42188,123.238288 -44.18728,49.92434 -99.4366,140.2414 -119.07924,175.92718 -19.64264,35.685782 -1.97766,30.270222 -12.7818,29.302452 -10.80414,-0.96777 -44.64359,9.36821 -49.26814,-31.364402 -4.62455,-40.73261 -19.32352,-14.77768 -4.81529,-47.91071 14.50823,-33.1330296 104.41314,-47.46502 53.52929,-78.47852 -50.88385,-31.0135 -198.5446446,-33.89818 -255.734375,-42.01562 -57.189725,-8.11744 -86.723415,-39.209558 -90.640625,-0.96484 -3.91721,38.24472 20.68701,58.48735 24.14258,89.9785104 3.45557,31.4911596 25.99321,57.6329896 21.5918,92.7636696 -4.40141,35.130682 -32.19267,73.454632 -45.875,107.289072 -13.68233,33.83444 -37.73332,72.55627 -46.69531,88.88867 -8.96199,16.3324 -2.09975,1.43107 -2,9.4414 z"
       id="path16753"
       inkscape:connector-curvature="0"
       sodipodi:nodetypes="zzzzzzzzzzzzzzzzzzzzzzzzzzzzzzzzzzz" />
    <path
       sodipodi:nodetypes="zzzzzzzzzzzzzzzzzzzzzzzzzzzzzzzzzzz"
       inkscape:connector-curvature="0"
       id="path17612"
       d="m -199.36471,296.73332 c 0.0998,8.01033 1.8039,7.49899 17.85742,35.29688 16.05352,27.79789 65.15666,90.53695 79.91406,131.14844 14.757395,40.61149 35.732015,41.59383 65.394525,24.88476 29.6625104,-16.70907 65.16404,-29.76251 89.81836,-32.48242 24.65432,-2.71991 20.85349,8.02481 48.021495,21.61133 27.168,13.58652 79.64673,32.80494 116.80859,57.3125 37.16186,24.50756 40.79877,-16.74326 41.63867,-58.93555 0.8399,-42.19229 29.72924,-125.13388 34.24219,-169.0625 4.51295,-43.92862 45.79868,-82.23961 10.24805,-96.01172 -35.55063,-13.77211 -37.06783,-52.80163 -28.77316,-67.62612 8.29466,-14.82449 37.36852,-32.46631 79.98186,-79.268962 42.61334,-46.80265 47.88218,-104.41082 97.85184,-143.39984 49.96966,-38.989018 140.23509,6.4782 195.97071,-30.304688 55.73559,-36.78289 82.07409,-98.49122 107.07619,-171.7266 25.0021,-73.2354 59.054,-185.3406 26.2636,-260.6191 -32.7904,-75.2785 -119.3417,-123.5948 -183.84761,-139.4004 -64.50591,-15.8056 -152.90272,-18.8169 -165.3962,28.0801 -12.49348,46.897 59.34674,51.1886 95.28488,78.4632 35.93814,27.2746 92.77533,36.5569 120.74581,84.3021 27.97048,47.7452 51.87912,126.0267 18.18164,183.8496 -33.69745,57.82294 -141.37818,51.60199 -198.23493,87.79384 -56.85675,36.19185 -97.2346,73.31395 -141.42188,123.238288 -44.18728,49.92434 -99.4366,140.2414 -119.07924,175.92718 -19.64264,35.685782 -1.97766,30.270222 -12.7818,29.302452 -10.80414,-0.96777 -44.64359,9.36821 -49.26814,-31.364402 -4.62455,-40.73261 -19.32352,-14.77768 -4.81529,-47.91071 14.50823,-33.1330296 104.41314,-47.46502 53.52929,-78.47852 -50.88385,-31.0135 -198.5446446,-33.89818 -255.734375,-42.01562 -57.189725,-8.11744 -86.723415,-39.209558 -90.640625,-0.96484 -3.91721,38.24472 20.68701,58.48735 24.14258,89.9785104 3.45557,31.4911596 25.99321,57.6329896 21.5918,92.7636696 -4.40141,35.130682 -32.19267,73.454632 -45.875,107.289072 -13.68233,33.83444 -37.73332,72.55627 -46.69531,88.88867 -8.96199,16.3324 -2.09975,1.43107 -2,9.4414 z"
       style="fill:url(#pattern3404);fill-opacity:1;fill-rule:evenodd;stroke:none;stroke-width:1px;stroke-linecap:butt;stroke-linejoin:miter;stroke-opacity:1" />
  </g>
</svg>
