<?xml version="1.0" encoding="UTF-8" standalone="no"?>
<!-- Created with Inkscape (http://www.inkscape.org/) -->

<svg
   xmlns:dc="http://purl.org/dc/elements/1.1/"
   xmlns:cc="http://creativecommons.org/ns#"
   xmlns:rdf="http://www.w3.org/1999/02/22-rdf-syntax-ns#"
   xmlns:svg="http://www.w3.org/2000/svg"
   xmlns="http://www.w3.org/2000/svg"
   xmlns:sodipodi="http://sodipodi.sourceforge.net/DTD/sodipodi-0.dtd"
   xmlns:inkscape="http://www.inkscape.org/namespaces/inkscape"
   sodipodi:docname="map.svg"
   inkscape:version="0.91 r13725"
   version="1.1"
   id="svg16054"
   viewBox="0 0 2125.9843 1187.0078"
   height="33.5cm"
   width="60cm">
  <defs
     id="defs16056">
    <inkscape:path-effect
       effect="spiro"
       id="path-effect5341"
       is_visible="true" />
    <inkscape:path-effect
       effect="spiro"
       id="path-effect17606"
       is_visible="true" />
    <inkscape:path-effect
       is_visible="true"
       id="path-effect16830"
       effect="spiro" />
    <inkscape:path-effect
       is_visible="true"
       id="path-effect16826"
       effect="spiro" />
    <inkscape:path-effect
       is_visible="true"
       id="path-effect16822"
       effect="spiro" />
    <inkscape:path-effect
       is_visible="true"
       id="path-effect16818"
       effect="spiro" />
    <inkscape:path-effect
       is_visible="true"
       id="path-effect16814"
       effect="spiro" />
    <inkscape:path-effect
       is_visible="true"
       id="path-effect16810"
       effect="spiro" />
    <inkscape:path-effect
       is_visible="true"
       id="path-effect16806"
       effect="spiro" />
    <inkscape:path-effect
       is_visible="true"
       id="path-effect16802"
       effect="spiro" />
    <inkscape:path-effect
       is_visible="true"
       id="path-effect16798"
       effect="spiro" />
    <inkscape:path-effect
       effect="spiro"
       id="path-effect16794"
       is_visible="true" />
    <inkscape:path-effect
       effect="spiro"
       id="path-effect16790"
       is_visible="true" />
    <inkscape:path-effect
       effect="spiro"
       id="path-effect16786"
       is_visible="true" />
    <inkscape:path-effect
       effect="spiro"
       id="path-effect16782"
       is_visible="true" />
    <inkscape:path-effect
       effect="spiro"
       id="path-effect16778"
       is_visible="true" />
    <inkscape:path-effect
       effect="spiro"
       id="path-effect16774"
       is_visible="true" />
    <pattern
       id="pattern6063"
       height="17.8516"
       width="24.8174"
       y="0"
       x="0"
       patternUnits="userSpaceOnUse"
       patternTransform="matrix(1,0,0,-1,-4171.3001,1094.5068)">
      <g
         id="g6065">
        <g
           id="g6067"
           clip-path="url(#clipPath6059)">
          <g
             id="g6069"
             transform="translate(1.834,14.3574)">
            <path
               id="path6071"
               style="fill:none;stroke:#ffffff;stroke-opacity:1;stroke-width:0.5;stroke-linecap:round;stroke-linejoin:round;stroke-miterlimit:10;stroke-dasharray:none"
               d="M 0,0 C 0,0 3,2.5 6.75,1.5" />
          </g>
          <g
             id="g6073"
             transform="translate(8.5029,10.9883)">
            <path
               id="path6075"
               style="fill:none;stroke:#ffffff;stroke-opacity:1;stroke-width:0.5;stroke-linecap:round;stroke-linejoin:round;stroke-miterlimit:10;stroke-dasharray:none"
               d="M 0,0 C 0,0 3.285,2.112 6.883,0.657" />
          </g>
          <g
             id="g6077"
             transform="translate(0.25,5.2002)">
            <path
               id="path6079"
               style="fill:none;stroke:#ffffff;stroke-opacity:1;stroke-width:0.5;stroke-linecap:round;stroke-linejoin:round;stroke-miterlimit:10;stroke-dasharray:none"
               d="M 0,0 C 0,0 3.285,2.111 6.883,0.657" />
          </g>
          <g
             id="g6081"
             transform="translate(16.8125,5.2002)">
            <path
               id="path6083"
               style="fill:none;stroke:#ffffff;stroke-opacity:1;stroke-width:0.5;stroke-linecap:round;stroke-linejoin:round;stroke-miterlimit:10;stroke-dasharray:none"
               d="M 0,0 C 0,0 3.285,2.111 6.883,0.657" />
          </g>
          <g
             id="g6085"
             transform="translate(17.6528,16.8242)">
            <path
               id="path6087"
               style="fill:none;stroke:#ffffff;stroke-opacity:1;stroke-width:0.5;stroke-linecap:round;stroke-linejoin:round;stroke-miterlimit:10;stroke-dasharray:none"
               d="M 0,0 C 0,0 3.48,1.771 6.915,-0.035" />
          </g>
          <g
             id="g6089"
             transform="translate(8.5029,0.25)">
            <path
               id="path6091"
               style="fill:none;stroke:#ffffff;stroke-opacity:1;stroke-width:0.5;stroke-linecap:round;stroke-linejoin:round;stroke-miterlimit:10;stroke-dasharray:none"
               d="M 0,0 C 0,0 3.285,2.112 6.883,0.657" />
          </g>
        </g>
      </g>
    </pattern>
    <clipPath
       id="clipPath6059"
       clipPathUnits="userSpaceOnUse">
      <path
         inkscape:connector-curvature="0"
         id="path6061"
         d="m 0,17.852 24.817,0 L 24.817,0 0,0 0,17.852 Z" />
    </clipPath>
    <pattern
       patternUnits="userSpaceOnUse"
       width="62.722197"
       height="13.940232"
       patternTransform="translate(311.76476,-798.75088)"
       id="pattern17603">
      <path
         style="fill:none;fill-rule:evenodd;stroke:#c6d8ec;stroke-width:5;stroke-linecap:round;stroke-linejoin:miter;stroke-miterlimit:4;stroke-dasharray:none;stroke-opacity:1"
         d="m 2.5190187,11.046121 c 1.9676214,-3.1412 4.9178048,-5.6570028 8.3303473,-7.1037997 3.412544,-1.446797 7.271953,-1.8180194 10.897703,-1.0482102 3.417441,0.7255816 6.54272,2.4109455 9.61403,4.076005 3.07131,1.6650595 6.196589,3.3504229 9.61403,4.0760049 3.62575,0.769809 7.485159,0.398587 10.897702,-1.0482102 3.412543,-1.446797 6.362727,-3.9625997 8.330348,-7.1037997"
         id="path16841"
         inkscape:path-effect="#path-effect17606"
         inkscape:original-d="m 2.5190187,11.046121 c 4.7295,-7.9737299 12.4985203,-20.3940399 19.2280503,-8.1520099 3.08913,6.29503 7.11407,10.7969399 19.22806,8.1520099 8.07439,-1.7629299 17.66593,-23.93629 19.22805,-8.1520099"
         inkscape:connector-curvature="0"
         sodipodi:nodetypes="ccsc" />
    </pattern>
  </defs>
  <sodipodi:namedview
     units="cm"
     fit-margin-bottom="0"
     fit-margin-right="0"
     fit-margin-left="0"
     fit-margin-top="0"
     inkscape:window-maximized="1"
     inkscape:window-y="870"
     inkscape:window-x="0"
     inkscape:window-height="1017"
     inkscape:window-width="1920"
     borderlayer="true"
     showgrid="false"
     inkscape:current-layer="layer3"
     inkscape:document-units="cm"
     inkscape:cy="878.05789"
     inkscape:cx="1338.6746"
     inkscape:zoom="0.70000002"
     inkscape:pageshadow="2"
     inkscape:pageopacity="0.0"
     borderopacity="1.0"
     bordercolor="#666666"
     pagecolor="#ffffff"
     id="base" />
  <metadata
     id="metadata16059">
    <rdf:RDF>
      <cc:Work
         rdf:about="">
        <dc:format>image/svg+xml</dc:format>
        <dc:type
           rdf:resource="http://purl.org/dc/dcmitype/StillImage" />
        <dc:title />
      </cc:Work>
    </rdf:RDF>
  </metadata>
  <g
     inkscape:groupmode="layer"
     id="layer2"
     inkscape:label="background">
    <rect
       style="opacity:1;fill:#73d216;fill-opacity:1;stroke:#3465a4;stroke-width:0;stroke-miterlimit:4;stroke-dasharray:none;stroke-dashoffset:0;stroke-opacity:1"
       id="rect16686"
       width="1614.2858"
       height="2128.5715"
       x="-1187.0078"
       y="-1.0101471"
       transform="matrix(0,-1,1,0,0,0)" />
    <g
       id="g5306"
       transform="translate(273.18636,662.85603)">
      <path
         sodipodi:nodetypes="aaaaaaaaaaaaaaaaaaaaaa"
         inkscape:connector-curvature="0"
         id="path17612"
         d="m -196.50757,303.87617 c 38.33538,79.10457 120.03395,136.16657 200.7267198,171.03505 79.5493852,34.3744 184.3397902,73.549 258.4026202,28.55565 91.78483,-55.75951 70.29848,-203.40627 116.17574,-300.50856 49.52243,-104.817537 67.15416,-251.235189 170.94803,-302.868703 68.23968,-33.946657 151.29486,18.792152 226.60999,30.482336 99.95593,15.514852 198.16758,43.000237 298.86247,52.61476 168.9836,16.13484495 351.6617,-55.040244 509.1901,8.2098531 120.565,48.4086929 187.2867,349.6110039 285.8467,264.9632039 115.3989,-99.10992 -121.7695,-306.382343 -256.1371,-377.69167 -145.7507,-77.35031 -331.8634,24.211009 -495.0119,-0.46466 -135.38606,-20.47669 -349.53569,8.89443 -392.51815,-121.11017 -10.51262,-31.79642 52.20452,-48.30712 59.42509,-81.00866 39.96111,-180.98156 42.33921,-438.87648 -109.52101,-545.12942 -102.56931,-71.76528 -330.46703,-61.67237 -371.24601,56.68216 -59.93346,173.94738 382.55003,217.77877 378.51102,401.71735 -1.99729,90.95773 -134.33899,123.08169 -195.71337,190.24182 C 403.60323,-128.00319 376.59382,65.516499 251.55533,71.289823 195.1272,73.895243 182.80887,-23.018378 133.1555,-49.952836 72.880702,-82.648884 -5.0657539,-115.99983 -68.589023,-90.175871 -142.39116,-60.173263 -181.70467,30.326658 -203.88675,106.84377 c -18.29961,63.12451 -21.28314,137.88807 7.37918,197.0324 z"
         style="fill:#3465a4;fill-opacity:1;fill-rule:evenodd;stroke:none;stroke-width:1px;stroke-linecap:butt;stroke-linejoin:miter;stroke-opacity:1" />
    </g>
  </g>
  <g
     inkscape:groupmode="layer"
     id="layer3"
     inkscape:label="terrains">
    <path
       d="m 459.5918,140.03906 a 153.196,138.37059 40.309028 0 0 -95.38282,45.50196 153.196,138.37059 40.309028 0 0 -29.75781,95.48437 153.196,138.37059 40.309028 0 0 -118.27344,44.63672 153.196,138.37059 40.309028 0 0 -30.01757,91.63281 153.196,138.37059 40.309028 0 0 -23.8125,21.47461 153.196,138.37059 40.309028 0 0 12.74218,190.4668 153.196,138.37059 40.309028 0 0 48.32422,169.1582 153.196,138.37059 40.309028 0 0 196.19336,4.15235 153.196,138.37059 40.309028 0 0 201.23438,-10.4668 153.196,138.37059 40.309028 0 0 21.42968,-36.5957 A 153.196,138.37059 40.309028 0 0 745.58203,709.96875 153.196,138.37059 40.309028 0 0 730.53906,516.93945 153.196,138.37059 40.309028 0 0 688.45703,334.24023 153.196,138.37059 40.309028 0 0 628.01953,301.52344 153.196,138.37059 40.309028 0 0 570.54492,179.12891 153.196,138.37059 40.309028 0 0 459.5918,140.03906 Z"
       id="path16717"
       style="opacity:1;fill:#eeeeec;fill-opacity:1;stroke:#3465a4;stroke-width:0;stroke-miterlimit:4;stroke-dasharray:none;stroke-dashoffset:0;stroke-opacity:1"
       inkscape:original="M 459.5918 140.03906 A 153.196 138.37059 40.309028 0 0 364.20898 185.54102 A 153.196 138.37059 40.309028 0 0 334.45117 281.02539 A 153.196 138.37059 40.309028 0 0 216.17773 325.66211 A 153.196 138.37059 40.309028 0 0 186.16016 417.29492 A 153.196 138.37059 40.309028 0 0 162.34766 438.76953 A 153.196 138.37059 40.309028 0 0 175.08984 629.23633 A 153.196 138.37059 40.309028 0 0 223.41406 798.39453 A 153.196 138.37059 40.309028 0 0 419.60742 802.54688 A 153.196 138.37059 40.309028 0 0 620.8418 792.08008 A 153.196 138.37059 40.309028 0 0 642.27148 755.48438 A 153.196 138.37059 40.309028 0 0 745.58203 709.96875 A 153.196 138.37059 40.309028 0 0 730.53906 516.93945 A 153.196 138.37059 40.309028 0 0 688.45703 334.24023 A 153.196 138.37059 40.309028 0 0 628.01953 301.52344 A 153.196 138.37059 40.309028 0 0 570.54492 179.12891 A 153.196 138.37059 40.309028 0 0 459.5918 140.03906 z "
       inkscape:radius="0"
       sodipodi:type="inkscape:offset"
       transform="matrix(0,-1,1,0,1090.698,1451.7869)" />
    <g
       id="g16729"
       transform="matrix(2.0618409,0.87069381,-1.0293747,1.7440025,827.96369,165.59654)">
      <path
         style="opacity:1;fill:#fce94f;fill-opacity:1;stroke:#3465a4;stroke-width:0;stroke-miterlimit:4;stroke-dasharray:none;stroke-dashoffset:0;stroke-opacity:1"
         d="m 163.37351,-232.87655 a 64.680682,71.61075 41.047501 0 0 1.75433,96.48107 64.680682,71.61075 41.047501 0 0 44.45016,14.48393 64.680682,71.61075 41.047501 0 0 20.15098,55.550961 64.680682,71.61075 41.047501 0 0 42.64934,14.582602 64.680682,71.61075 41.047501 0 0 9.89325,11.259013 64.680682,71.61075 41.047501 0 0 89.10227,-4.808243 64.680682,71.61075 41.047501 0 0 79.35729,-21.567534 64.680682,71.61075 41.047501 0 0 3.12293,-91.677249 64.680682,71.61075 41.047501 0 0 -3.68041,-94.12122 64.680682,71.61075 41.047501 0 0 -16.97584,-10.23688 64.680682,71.61075 41.047501 0 0 -20.65198,-48.56234 64.680682,71.61075 41.047501 0 0 -90.31395,5.86796 64.680682,71.61075 41.047501 0 0 -85.64766,18.56936 64.680682,71.61075 41.047501 0 0 -15.65618,28.05105 64.680682,71.61075 41.047501 0 0 -57.55453,26.12752 z"
         id="path16731"
         inkscape:connector-curvature="0" />
    </g>
    <g
       transform="matrix(-1.2865967,-0.28973814,0.4149408,-1.1188272,1270.6131,915.93211)"
       id="g4371">
      <path
         inkscape:connector-curvature="0"
         id="path4373"
         d="m 163.37351,-232.87655 a 64.680682,71.61075 41.047501 0 0 1.75433,96.48107 64.680682,71.61075 41.047501 0 0 44.45016,14.48393 64.680682,71.61075 41.047501 0 0 20.15098,55.550961 64.680682,71.61075 41.047501 0 0 42.64934,14.582602 64.680682,71.61075 41.047501 0 0 9.89325,11.259013 64.680682,71.61075 41.047501 0 0 89.10227,-4.808243 64.680682,71.61075 41.047501 0 0 79.35729,-21.567534 64.680682,71.61075 41.047501 0 0 3.12293,-91.677249 64.680682,71.61075 41.047501 0 0 -3.68041,-94.12122 64.680682,71.61075 41.047501 0 0 -16.97584,-10.23688 64.680682,71.61075 41.047501 0 0 -20.65198,-48.56234 64.680682,71.61075 41.047501 0 0 -90.31395,5.86796 64.680682,71.61075 41.047501 0 0 -85.64766,18.56936 64.680682,71.61075 41.047501 0 0 -15.65618,28.05105 64.680682,71.61075 41.047501 0 0 -57.55453,26.12752 z"
         style="opacity:1;fill:#fce94f;fill-opacity:1;stroke:#3465a4;stroke-width:0;stroke-miterlimit:4;stroke-dasharray:none;stroke-dashoffset:0;stroke-opacity:1" />
    </g>
    <path
       style="opacity:1;fill:#ad7fa8;fill-opacity:1;stroke:#3465a4;stroke-width:0;stroke-miterlimit:4;stroke-dasharray:none;stroke-dashoffset:0;stroke-opacity:1"
       d="m 276.90249,-274.23427 c -39.54422,-6.13914 -80.53007,2.09071 -116.07158,19.97836 -68.300949,-37.61554 -159.2429432,-23.64153 -215.511515,29.48761 -12.975878,11.62254 -24.486689,24.86787 -34.283,39.26865 -95.659625,-4.52725 -188.608445,70.24417 -203.008465,165.238482 -10.61418,61.523396 14.51808,129.636858 67.10117,164.874878 13.457,9.49105 28.32898,16.99039 44.00706,22.04091 -5.58343,67.70768 34.60683,138.07331 98.209533,163.79396 9.411781,4.12684 19.197857,7.41296 29.212925,9.724 39.71193,64.16049 125.714103,92.9078 196.709402,69.0136 11.96225,-3.4843 23.60402,-8.08305 34.69356,-13.76452 71.64905,31.08757 172.06709,-26.0886 224.6381,-82.98194 30.15575,-76.82477 93.88941,-280.078643 60.28572,-357.251365 -10.2725,-22.025925 -25.93598,-41.257804 -44.24853,-57.112015 4.98156,-73.49003 -45.80853,-147.85324 -117.53644,-166.8797 -7.93105,-2.3565 -16.02589,-4.14506 -24.19794,-5.43091 z"
       id="path4192"
       inkscape:connector-curvature="0"
       sodipodi:nodetypes="cccccccccccccccc" />
    <g
       id="g4383"
       transform="matrix(0.99897585,0.04524676,-0.04524676,0.99897585,-85.988573,239.534)">
      <path
         sodipodi:nodetypes="cc"
         inkscape:connector-curvature="0"
         id="path4374"
         d="M 506.43246,62.564446 354.10198,131.49166"
         style="fill:none;fill-rule:evenodd;stroke:#2e3436;stroke-width:35.43307495;stroke-linecap:butt;stroke-linejoin:miter;stroke-miterlimit:4;stroke-dasharray:none;stroke-opacity:1" />
    </g>
    <g
       id="g4389"
       transform="matrix(0.1341655,0.99095893,0.99095893,-0.1341655,-46.659862,50.442846)">
      <path
         style="fill:none;fill-rule:evenodd;stroke:#2e3436;stroke-width:35.43307495;stroke-linecap:butt;stroke-linejoin:miter;stroke-miterlimit:4;stroke-dasharray:none;stroke-opacity:1"
         d="m 368.60985,56.059211 2.76213,152.681879"
         id="path4395"
         inkscape:connector-curvature="0"
         sodipodi:nodetypes="cc" />
      <rect
         style="opacity:1;fill:#2e3436;fill-opacity:1;stroke:#2e3436;stroke-width:35.43307114;stroke-linecap:round;stroke-linejoin:miter;stroke-miterlimit:4;stroke-dasharray:none;stroke-opacity:1"
         id="rect4403"
         width="69.700531"
         height="69.700531"
         x="234.69977"
         y="316.79208"
         transform="matrix(0.08824209,0.99609906,0.99609906,-0.08824209,0,0)" />
      <rect
         style="opacity:1;fill:#2e3436;fill-opacity:1;stroke:#2e3436;stroke-width:35.43307114;stroke-linecap:round;stroke-linejoin:miter;stroke-miterlimit:4;stroke-dasharray:none;stroke-opacity:1"
         id="rect4405"
         width="69.700531"
         height="69.700531"
         x="30.485502"
         y="317.93106"
         transform="matrix(0.08824209,0.99609906,0.99609906,-0.08824209,0,0)" />
      <rect
         style="opacity:1;fill:#2e3436;fill-opacity:1;stroke:#2e3436;stroke-width:35.43307114;stroke-linecap:round;stroke-linejoin:miter;stroke-miterlimit:4;stroke-dasharray:none;stroke-opacity:1"
         id="rect4407"
         width="69.700531"
         height="69.700531"
         x="471.69012"
         y="-201.30139"
         transform="matrix(0.81300159,0.58226146,0.58226146,-0.81300159,0,0)" />
      <rect
         transform="matrix(0.1074132,0.99421447,0.99421447,-0.1074132,0,0)"
         y="-25.906273"
         x="478.04184"
         height="69.700531"
         width="69.700531"
         id="rect4401"
         style="opacity:1;fill:#2e3436;fill-opacity:1;stroke:#2e3436;stroke-width:35.43307114;stroke-linecap:round;stroke-linejoin:miter;stroke-miterlimit:4;stroke-dasharray:none;stroke-opacity:1" />
      <rect
         style="opacity:1;fill:#2e3436;fill-opacity:1;stroke:#2e3436;stroke-width:35.43307114;stroke-linecap:round;stroke-linejoin:miter;stroke-miterlimit:4;stroke-dasharray:none;stroke-opacity:1"
         id="rect4409"
         width="69.700531"
         height="69.700531"
         x="117.2515"
         y="12.872843"
         transform="matrix(0.1074132,0.99421447,0.99421447,-0.1074132,0,0)" />
    </g>
  </g>
  <g
     inkscape:label="paths"
     inkscape:groupmode="layer"
     id="layer1"
     transform="translate(325.7143,386.07425)">
    <g
       id="g16741"
       transform="matrix(0,-0.4819911,0.48199102,0,1400.1038,17.126232)" />
    <g
       id="g5245"
       transform="translate(-3.571429,-3.2142861)"
       style="fill:#fcaf3e;fill-opacity:1">
      <rect
         style="color:#000000;clip-rule:nonzero;display:inline;overflow:visible;visibility:visible;opacity:1;isolation:auto;mix-blend-mode:normal;color-interpolation:sRGB;color-interpolation-filters:linearRGB;solid-color:#000000;solid-opacity:1;fill:#fcaf3e;fill-opacity:1;fill-rule:evenodd;stroke:none;stroke-width:10;stroke-linecap:round;stroke-linejoin:round;stroke-miterlimit:4;stroke-dasharray:none;stroke-dashoffset:0;stroke-opacity:1;color-rendering:auto;image-rendering:auto;shape-rendering:auto;text-rendering:auto;enable-background:accumulate"
         id="rect4946"
         width="133.91089"
         height="74.965347"
         x="-42.603619"
         y="-956.27386"
         transform="matrix(-0.17950599,0.98375688,-0.98375688,-0.17950599,0,0)"
         rx="2.5624995"
         ry="2.5624995" />
    </g>
    <g
       style="fill:#fcaf3e;fill-opacity:1"
       transform="matrix(0,1,-1,0,874.80921,-1010.9682)"
       id="g4375">
      <rect
         ry="2.5624995"
         rx="2.5624995"
         transform="matrix(-0.17950599,0.98375688,-0.98375688,-0.17950599,0,0)"
         y="-956.27386"
         x="-42.603619"
         height="74.965347"
         width="133.91089"
         id="rect4377"
         style="color:#000000;clip-rule:nonzero;display:inline;overflow:visible;visibility:visible;opacity:1;isolation:auto;mix-blend-mode:normal;color-interpolation:sRGB;color-interpolation-filters:linearRGB;solid-color:#000000;solid-opacity:1;fill:#fcaf3e;fill-opacity:1;fill-rule:evenodd;stroke:none;stroke-width:10;stroke-linecap:round;stroke-linejoin:round;stroke-miterlimit:4;stroke-dasharray:none;stroke-dashoffset:0;stroke-opacity:1;color-rendering:auto;image-rendering:auto;shape-rendering:auto;text-rendering:auto;enable-background:accumulate" />
    </g>
  </g>
  <g
     inkscape:groupmode="layer"
     id="layer4"
     inkscape:label="bushes"
     style="display:inline">
    <path
       style="opacity:1;fill:#2e3436;fill-opacity:1;stroke:#3465a4;stroke-width:0;stroke-miterlimit:4;stroke-dasharray:none;stroke-dashoffset:0;stroke-opacity:1"
       d="m 1296.3454,146.82726 a 34.51574,31.175511 64.596092 0 0 42.9681,17.80401 34.51574,31.175511 64.596092 0 0 14.9594,-16.85125 34.51574,31.175511 64.596092 0 0 28.4258,1.79359 34.51574,31.175511 64.596092 0 0 14.6562,-16.03655 34.51574,31.175511 64.596092 0 0 6.8799,-2.20322 34.51574,31.175511 64.596092 0 0 15.0337,-40.295906 34.51574,31.175511 64.596092 0 0 5.7521,-39.217384 34.51574,31.175511 64.596092 0 0 -39.9064,-19.03397 34.51574,31.175511 64.596092 0 0 -42.2964,-16.49853 34.51574,31.175511 64.596092 0 0 -7.7921,5.52951 34.51574,31.175511 64.596092 0 0 -25.4343,-0.22643 34.51574,31.175511 64.596092 0 0 -14.7988,41.03536 34.51574,31.175511 64.596092 0 0 -8.2881,41.41944 34.51574,31.175511 64.596092 0 0 9.3795,12.31944 34.51574,31.175511 64.596092 0 0 0.4614,30.46189 z"
       id="path16743"
       inkscape:connector-curvature="0" />
    <path
       style="opacity:1;fill:#2e3436;fill-opacity:1;stroke:#3465a4;stroke-width:0;stroke-miterlimit:4;stroke-dasharray:none;stroke-dashoffset:0;stroke-opacity:1"
       d="m 636.49036,349.02774 a 30.708335,27.736554 66.711786 0 0 -37.61751,-17.24049 30.708335,27.736554 66.711786 0 0 -13.85361,14.49086 30.708335,27.736554 66.711786 0 0 -25.21402,-2.52825 30.708335,27.736554 66.711786 0 0 -13.55728,13.77649 30.708335,27.736554 66.711786 0 0 -6.18917,1.73289 30.708335,27.736554 66.711786 0 0 -14.68967,35.3327 30.708335,27.736554 66.711786 0 0 -6.40214,34.67866 30.708335,27.736554 66.711786 0 0 34.85501,18.23347 30.708335,27.736554 66.711786 0 0 37.06318,16.05773 30.708335,27.736554 66.711786 0 0 7.10944,-4.66027 30.708335,27.736554 66.711786 0 0 22.60578,1.03666 30.708335,27.736554 66.711786 0 0 14.50511,-35.99785 30.708335,27.736554 66.711786 0 0 8.72918,-36.55318 30.708335,27.736554 66.711786 0 0 -7.93455,-11.26108 30.708335,27.736554 66.711786 0 0 0.59025,-27.09834 z"
       id="path4365"
       inkscape:connector-curvature="0" />
    <path
       style="opacity:1;fill:#2e3436;fill-opacity:1;stroke:#3465a4;stroke-width:0;stroke-miterlimit:4;stroke-dasharray:none;stroke-dashoffset:0;stroke-opacity:1"
       d="m 579.89571,155.05207 a 34.51574,31.175511 64.596092 0 0 42.9681,17.80401 34.51574,31.175511 64.596092 0 0 14.9594,-16.85125 34.51574,31.175511 64.596092 0 0 28.4258,1.79359 34.51574,31.175511 64.596092 0 0 14.6562,-16.03655 34.51574,31.175511 64.596092 0 0 6.8799,-2.20322 34.51574,31.175511 64.596092 0 0 15.0337,-40.295906 34.51574,31.175511 64.596092 0 0 5.7521,-39.217391 34.51574,31.175511 64.596092 0 0 -39.9064,-19.03397 34.51574,31.175511 64.596092 0 0 -42.2964,-16.49853 34.51574,31.175511 64.596092 0 0 -7.7921,5.52951 34.51574,31.175511 64.596092 0 0 -25.4343,-0.22643 34.51574,31.175511 64.596092 0 0 -14.7988,41.03536 34.51574,31.175511 64.596092 0 0 -8.28811,41.419447 34.51574,31.175511 64.596092 0 0 9.37951,12.31944 34.51574,31.175511 64.596092 0 0 0.4614,30.46189 z"
       id="path4367"
       inkscape:connector-curvature="0" />
    <path
       inkscape:connector-curvature="0"
       id="path4361"
       d="m 438.95148,459.38408 a 27.736566,30.708322 77.265622 0 0 -23.83893,33.82333 27.736566,30.708322 77.265622 0 0 11.70826,16.27344 27.736566,30.708322 77.265622 0 0 -7.10375,24.32439 27.736566,30.708322 77.265622 0 0 11.06024,15.85128 27.736566,30.708322 77.265622 0 0 0.56996,6.40187 27.736566,30.708322 77.265622 0 0 32.04435,20.91279 27.736566,30.708322 77.265622 0 0 32.91933,12.64565 27.736566,30.708322 77.265622 0 0 24.30913,-30.92568 27.736566,30.708322 77.265622 0 0 22.57465,-33.49502 27.736566,30.708322 77.265622 0 0 -3.27925,-7.84276 27.736566,30.708322 77.265622 0 0 5.15965,-22.03349 27.736566,30.708322 77.265622 0 0 -32.73206,-20.85319 27.736566,30.708322 77.265622 0 0 -34.33592,-15.27667 27.736566,30.708322 77.265622 0 0 -12.52387,5.73773 27.736566,30.708322 77.265622 0 0 -26.53179,-5.54367 z"
       style="opacity:1;fill:#2e3436;fill-opacity:1;stroke:#3465a4;stroke-width:0;stroke-miterlimit:4;stroke-dasharray:none;stroke-dashoffset:0;stroke-opacity:1" />
  </g>
</svg>
