<?xml version="1.0" encoding="UTF-8" standalone="no"?>
<!-- Created with Inkscape (http://www.inkscape.org/) -->

<svg
   xmlns:dc="http://purl.org/dc/elements/1.1/"
   xmlns:cc="http://creativecommons.org/ns#"
   xmlns:rdf="http://www.w3.org/1999/02/22-rdf-syntax-ns#"
   xmlns:svg="http://www.w3.org/2000/svg"
   xmlns="http://www.w3.org/2000/svg"
   xmlns:sodipodi="http://sodipodi.sourceforge.net/DTD/sodipodi-0.dtd"
   xmlns:inkscape="http://www.inkscape.org/namespaces/inkscape"
   width="42.108936mm"
   height="64.340729mm"
   viewBox="0 0 149.20489 227.97897"
   id="svg2"
   version="1.1"
   inkscape:version="0.91 r13725"
   sodipodi:docname="nao_head.svg">
  <defs
     id="defs4" />
  <sodipodi:namedview
     id="base"
     pagecolor="#ffffff"
     bordercolor="#666666"
     borderopacity="1.0"
     inkscape:pageopacity="0.0"
     inkscape:pageshadow="2"
     inkscape:zoom="0.98994949"
     inkscape:cx="183.0585"
     inkscape:cy="140.90671"
     inkscape:document-units="px"
     inkscape:current-layer="g3356"
     showgrid="false"
     fit-margin-top="0"
     fit-margin-left="0"
     fit-margin-right="0"
     fit-margin-bottom="0"
     inkscape:window-width="1920"
     inkscape:window-height="1016"
     inkscape:window-x="0"
     inkscape:window-y="27"
     inkscape:window-maximized="1" />
  <metadata
     id="metadata7">
    <rdf:RDF>
      <cc:Work
         rdf:about="">
        <dc:format>image/svg+xml</dc:format>
        <dc:type
           rdf:resource="http://purl.org/dc/dcmitype/StillImage" />
        <dc:title></dc:title>
      </cc:Work>
    </rdf:RDF>
  </metadata>
  <g
     inkscape:label="Layer 1"
     inkscape:groupmode="layer"
     id="layer1"
     transform="translate(271.57899,-81.699927)">
    <g
       id="g3356">
      <g
         id="g3406"
         transform="matrix(0,1,-1,0,-91.190709,736.11782)">
        <path
           sodipodi:nodetypes="sssssssss"
           inkscape:connector-curvature="0"
           id="path3384"
           d="m -428.74564,102.67883 c 0,19.1078 0.82791,36.40666 -20.46849,48.92857 -21.29639,12.52192 -58.71708,20.26688 -91.21428,20.26688 -32.4972,0 -69.91789,-7.74496 -91.21428,-20.26688 -21.2964,-12.52191 -20.46849,-29.82077 -20.46849,-48.92857 0,-19.107795 -0.82791,-36.406657 20.46849,-48.92857 21.29639,-12.521913 58.71708,-20.266877 91.21428,-20.266877 32.4972,0 69.91789,7.744964 91.21428,20.266877 21.2964,12.521913 20.46849,29.820775 20.46849,48.92857 z"
           style="fill:#eeeeec;fill-opacity:1;stroke:#888a85;stroke-width:4.5999999;stroke-miterlimit:4;stroke-dasharray:none;stroke-opacity:1" />
        <path
           sodipodi:nodetypes="sssssss"
           inkscape:connector-curvature="0"
           id="path3387"
           d="m -541.29219,58.775187 c 37.09521,0 66.95894,17.270837 66.95894,38.723864 l 0,53.865329 c 0,21.45304 -29.86373,26.7239 -66.95894,26.7239 -37.09527,0 -66.95897,-5.27086 -66.95897,-26.7239 l 0,-53.865329 c 0,-21.453027 29.8637,-38.723864 66.95897,-38.723864 z"
           style="fill:#f57900;fill-opacity:1;stroke:#888a85;stroke-width:4.5999999;stroke-miterlimit:4;stroke-dasharray:none" />
        <path
           style="fill:#babdb6;fill-opacity:1;stroke:#888a85;stroke-width:4.5999999;stroke-miterlimit:4;stroke-dasharray:none;stroke-opacity:1"
           d="m -522.44001,34.75744 c 18.36244,1.679557 37.54314,5.708499 54.02312,11.407667 a 32.324883,25.253811 2.9920396 0 1 -24.44549,7.147818 32.324883,25.253811 2.9920396 0 1 -29.57763,-18.555485 z"
           id="path3394"
           inkscape:connector-curvature="0" />
        <path
           inkscape:connector-curvature="0"
           id="path3396"
           d="m -559.1729,34.75744 c -18.36244,1.679557 -37.54314,5.708499 -54.02312,11.407667 a 25.253811,32.324883 87.00796 0 0 24.44549,7.147818 25.253811,32.324883 87.00796 0 0 29.57763,-18.555485 z"
           style="fill:#babdb6;fill-opacity:1;stroke:#888a85;stroke-width:4.5999999;stroke-miterlimit:4;stroke-dasharray:none;stroke-opacity:1" />
        <path
           inkscape:connector-curvature="0"
           id="path3398"
           d="m -509.30803,46.121653 c 7.39815,0.676687 15.12598,2.299931 21.76569,4.596102 a 13.023561,10.174656 2.9920396 0 1 -9.84899,2.879826 13.023561,10.174656 2.9920396 0 1 -11.9167,-7.475928 z"
           style="fill:#2e3436;fill-opacity:1;stroke:none;stroke-width:4.5999999;stroke-miterlimit:4;stroke-dasharray:none;stroke-opacity:1" />
        <path
           inkscape:connector-curvature="0"
           id="path3400"
           d="m -522.44001,34.75744 c 18.36244,1.679557 37.54314,5.708499 54.02312,11.407667 a 32.324883,25.253811 2.9920396 0 1 -24.44549,7.147818 32.324883,25.253811 2.9920396 0 1 -29.57763,-18.555485 z"
           style="fill:none;fill-opacity:1;stroke:#888a85;stroke-width:4.5999999;stroke-miterlimit:4;stroke-dasharray:none;stroke-opacity:1" />
        <path
           style="fill:#2e3436;fill-opacity:1;stroke:none;stroke-width:4.5999999;stroke-miterlimit:4;stroke-dasharray:none;stroke-opacity:1"
           d="m -571.96967,46.121653 c -7.39815,0.676687 -15.12598,2.299931 -21.76569,4.596102 a 10.174656,13.023561 87.00796 0 0 9.84899,2.879826 10.174656,13.023561 87.00796 0 0 11.9167,-7.475928 z"
           id="path3402"
           inkscape:connector-curvature="0" />
        <path
           style="fill:none;fill-opacity:1;stroke:#888a85;stroke-width:4.5999999;stroke-miterlimit:4;stroke-dasharray:none;stroke-opacity:1"
           d="m -558.83769,34.75744 c -18.36244,1.679557 -37.54314,5.708499 -54.02312,11.407667 a 25.253811,32.324883 87.00796 0 0 24.44549,7.147818 25.253811,32.324883 87.00796 0 0 29.57763,-18.555485 z"
           id="path3404"
           inkscape:connector-curvature="0" />
      </g>
    </g>
  </g>
</svg>
