<?xml version="1.0" encoding="UTF-8" standalone="no"?>
<svg
   xmlns:dc="http://purl.org/dc/elements/1.1/"
   xmlns:cc="http://creativecommons.org/ns#"
   xmlns:rdf="http://www.w3.org/1999/02/22-rdf-syntax-ns#"
   xmlns:svg="http://www.w3.org/2000/svg"
   xmlns="http://www.w3.org/2000/svg"
   xmlns:sodipodi="http://sodipodi.sourceforge.net/DTD/sodipodi-0.dtd"
   xmlns:inkscape="http://www.inkscape.org/namespaces/inkscape"
   width="1792"
   height="1792"
   viewBox="0 0 1792 1792"
   id="svg2"
   version="1.1"
   inkscape:version="0.91 r13725"
   sodipodi:docname="paint-brush.svg">
  <metadata
     id="metadata10">
    <rdf:RDF>
      <cc:Work
         rdf:about="">
        <dc:format>image/svg+xml</dc:format>
        <dc:type
           rdf:resource="http://purl.org/dc/dcmitype/StillImage" />
      </cc:Work>
    </rdf:RDF>
  </metadata>
  <defs
     id="defs8" />
  <sodipodi:namedview
     pagecolor="#ffffff"
     bordercolor="#666666"
     borderopacity="1"
     objecttolerance="10"
     gridtolerance="10"
     guidetolerance="10"
     inkscape:pageopacity="0"
     inkscape:pageshadow="2"
     inkscape:window-width="1920"
     inkscape:window-height="1017"
     id="namedview6"
     showgrid="false"
     inkscape:zoom="0.26339286"
     inkscape:cx="615.22156"
     inkscape:cy="1229.9148"
     inkscape:window-x="0"
     inkscape:window-y="870"
     inkscape:window-maximized="1"
     inkscape:current-layer="g4214" />
  <g
     id="g4214"
     transform="matrix(1.0543818,0,0,1.0543818,-1826.1428,-409.07409)">
    <path
       d="m 2609.1836,508.36246 c -23.3543,0 -46.4024,0.96983 -69.1479,2.89899 20.6716,21.32342 39.2035,44.76216 55.0864,70.12217 30.039,46.53298 48.3091,98.62497 57.6778,152.61461 82.0105,6.17418 158.4745,29.95264 229.3832,71.36328 83.3332,48.66667 149.3332,114.66669 198,197.99999 48.6665,83.3334 73.0007,174.3347 73.0007,273.0013 0,68.532 -11.7517,133.3608 -35.2305,194.4953 31.6163,68.4321 62.0742,137.39 90.6632,207.1508 7.9739,17.5208 14.3243,36.0401 18.8296,55.0511 16.6677,-22.6434 32.2509,-46.374 46.7376,-71.1984 68.6666,-117.6666 103.0002,-246.1654 103.0002,-385.4988 0,-139.3333 -34.3336,-267.8339 -103.0002,-385.50059 C 3205.517,773.19554 3112.3489,680.02935 2994.6823,611.36268 2877.0157,542.69601 2748.5169,508.36246 2609.1836,508.36246 Z M 1945.6727,907.4874 c -1.3788,-0.0622 -3.1382,0.87613 -5.4701,3.30651 -3.4973,1.92703 -6.9758,3.90289 -10.4456,5.90357 -59.0459,110.57332 -88.5738,230.46112 -88.5738,359.66532 0,139.3334 34.3335,267.8322 103.0002,385.4988 68.6666,117.6668 161.8328,210.8348 279.4995,279.5014 117.6666,68.6667 246.1673,103.0003 385.5007,103.0003 98.8692,0 192.2807,-17.2942 280.2405,-51.8688 -3.2697,-1.9716 -6.4925,-4.0371 -9.6603,-6.2019 -59.884,-56.2576 -117.5312,-114.7072 -174.2171,-174.1004 -31.266,5.4372 -63.3841,8.1709 -96.3631,8.1709 -98.6668,0 -189.6681,-24.3341 -273.0014,-73.0008 -83.3334,-48.6666 -149.3334,-114.6665 -198,-198 -48.6667,-83.3333 -72.9989,-174.3328 -72.9989,-272.9995 0,-65.2808 10.6626,-127.2037 31.9666,-185.7723 -64.7876,-41.0999 -117.1512,-101.96489 -145.833,-173.38732 -1.4166,-4.59878 -2.6108,-9.5789 -5.6442,-9.71578 z"
       id="path4140"
       inkscape:connector-curvature="0" />
    <path
       inkscape:connector-curvature="0"
       d="m 2996.5892,1931.7346 q 54.7247,4.2204 98.5719,-28.9669 43.8471,-33.1875 48.0675,-87.9122 3.7984,-49.2521 -26.0758,-120.7624 -221.627,-511.7582 -318.1879,-615.9362 -70.3463,-76.9909 -164.9418,-84.28633 -98.5046,-7.5969 -174.8328,59.26113 -76.3286,66.8587 -83.9859,166.1448 -7.7176,100.0682 59.1417,171.2847 l 463.8671,491.119 q 42.8694,45.7735 98.376,50.0544 z"
       id="path4208"
       style="fill:#8f5902;stroke:none;stroke-width:47.42115238;stroke-miterlimit:4;stroke-dasharray:none" />
    <path
       inkscape:connector-curvature="0"
       d="m 2348.2925,1068.5655 q 35.0719,-57.0642 91.0979,-95.21063 56.0261,-38.14633 122.2406,-50.3412 l 5.0625,-55.44627 q 15.9697,-166.27816 -80.3189,-279.08608 -96.2886,-112.80814 -264.3716,-125.77128 -96.1592,-7.41591 -173.2321,23.20906 -77.0731,30.62498 -126.9094,90.48244 -49.8361,59.85745 -78.6578,137.85084 -28.8214,77.99298 -35.9362,170.2436 5.774,-3.48696 33.8617,-20.98179 28.0881,-17.49421 51.1539,-31.05092 23.0655,-13.55671 48.3258,-24.97767 25.26,-11.42137 36.987,-10.51695 32.0529,2.47204 40.7671,32.242 15.5653,53.10496 38.1693,91.4175 22.6044,38.31213 49.7518,63.60562 27.147,25.29363 65.9328,42.44043 38.7854,17.1473 78.9858,26.1459 40.2008,8.9983 97.0898,15.7454 z"
       id="path4"
       style="fill:#555753;stroke-width:47.42115238;stroke-miterlimit:4;stroke-dasharray:none;stroke:#2e3436;stroke-opacity:1" />
    <path
       style="fill:#ef2929"
       d="m 487.17578,68.808594 c -2.25585,-0.0094 -4.5117,-0.0041 -6.76758,0.01758 C 370.26759,68.37245 257.78547,115.09619 189.67578,203.42773 c -3.2e-4,4e-4 3.2e-4,0.002 0,0.002 220.22766,-217.411949 547.39507,65.84942 498.23633,105.71875 29.62674,13.58417 60.48241,27.62677 93.49414,27.01953 18.36174,-1.10482 28.23177,-18.83483 43.66992,-26.5625 14.65812,-9.16428 34.36404,-23.35785 27.88086,-43.47461 C 842.35248,236.05037 818.57368,212.9329 797.83789,189.52539 729.54569,117.63726 632.16076,79.20913 534.47461,71.162109 518.75313,69.693448 502.96671,68.874271 487.17578,68.808594 Z"
       id="path4210"
       transform="matrix(0.94842305,0,0,0.94842305,1731.9559,387.9753)"
       inkscape:connector-curvature="0"
       sodipodi:nodetypes="scccccccccs" />
    <path
       style="fill:#73d216"
       d="m 1911.8481,580.91203 c -72.0926,90.20772 -105.4881,205.63308 -113.0077,319.50119 208.8129,-403.11269 556.2095,-120.20279 568.6392,-87.34828 5.6102,-43.22345 -15.9525,-85.33118 -9.9379,-128.39805 139.4738,20.07417 -214.9861,-331.51266 -445.6936,-103.75486 z"
       id="path4141"
       inkscape:connector-curvature="0"
       sodipodi:nodetypes="ccccc" />
    <path
       inkscape:connector-curvature="0"
       id="path4137"
       d="m 1798.8395,900.41321 c 54.3822,-31.97221 105.7782,-70.62153 165.6496,-91.66467 23.1024,-8.28335 49.884,7.80912 53.3206,32.15044 9.6771,32.15899 22.2377,63.61264 39.4275,92.53452 18.687,1.38412 41.0094,7.44219 57.3849,-4.6521 11.7735,-13.33256 -0.5025,-31.7214 -3.9032,-45.8469 -7.6586,-18.10933 -5.9457,-42.45342 12.6886,-53.22656 21.2625,-12.9316 46.5415,-20.62504 71.2742,-19.18972 47.1899,6.3331 90.0119,34.9506 138.5069,33.45124 17.237,-0.22405 33.0942,-13.29508 34.2912,-30.90446 -12.4298,-32.85451 -359.8274,-315.76447 -568.6403,87.34821 z"
       style="fill:#3465a4"
       sodipodi:nodetypes="ccccccccccc" />
    <path
       style="fill:none;stroke-width:47.42115238;stroke-miterlimit:4;stroke-dasharray:none;stroke:#2e3436;stroke-opacity:1"
       id="path4147"
       d="m 2348.2925,1068.5655 q 35.0719,-57.0642 91.0979,-95.21063 56.0261,-38.14633 122.2406,-50.3412 l 5.0625,-55.44627 q 15.9697,-166.27816 -80.3189,-279.08608 -96.2886,-112.80814 -264.3716,-125.77128 -96.1592,-7.41591 -173.2321,23.20906 -77.0731,30.62498 -126.9094,90.48244 -49.8361,59.85745 -78.6578,137.85084 -28.8214,77.99298 -35.9362,170.2436 5.774,-3.48696 33.8617,-20.98179 28.0881,-17.49421 51.1539,-31.05092 23.0655,-13.55671 48.3258,-24.97767 25.26,-11.42137 36.987,-10.51695 32.0529,2.47204 40.7671,32.242 15.5653,53.10496 38.1693,91.4175 22.6044,38.31213 49.7518,63.60562 27.147,25.29363 65.9328,42.44043 38.7854,17.1473 78.9858,26.1459 40.2008,8.9983 97.0898,15.7454 z"
       inkscape:connector-curvature="0" />
  </g>
</svg>
