<?xml version="1.0" encoding="UTF-8" standalone="no"?>
<svg
   xmlns:dc="http://purl.org/dc/elements/1.1/"
   xmlns:cc="http://creativecommons.org/ns#"
   xmlns:rdf="http://www.w3.org/1999/02/22-rdf-syntax-ns#"
   xmlns:svg="http://www.w3.org/2000/svg"
   xmlns="http://www.w3.org/2000/svg"
   xmlns:sodipodi="http://sodipodi.sourceforge.net/DTD/sodipodi-0.dtd"
   xmlns:inkscape="http://www.inkscape.org/namespaces/inkscape"
   width="1792"
   height="1792"
   viewBox="0 0 1792 1792"
   id="svg2"
   version="1.1"
   inkscape:version="0.91 r13725"
   sodipodi:docname="paint-brush.svg">
  <metadata
     id="metadata10">
    <rdf:RDF>
      <cc:Work
         rdf:about="">
        <dc:format>image/svg+xml</dc:format>
        <dc:type
           rdf:resource="http://purl.org/dc/dcmitype/StillImage" />
      </cc:Work>
    </rdf:RDF>
  </metadata>
  <defs
     id="defs8" />
  <sodipodi:namedview
     pagecolor="#ffffff"
     bordercolor="#666666"
     borderopacity="1"
     objecttolerance="10"
     gridtolerance="10"
     guidetolerance="10"
     inkscape:pageopacity="0"
     inkscape:pageshadow="2"
     inkscape:window-width="1920"
     inkscape:window-height="1025"
     id="namedview6"
     showgrid="false"
     inkscape:zoom="0.26339286"
     inkscape:cx="2682.5329"
     inkscape:cy="845.90641"
     inkscape:window-x="0"
     inkscape:window-y="867"
     inkscape:window-maximized="1"
     inkscape:current-layer="g4214" />
  <g
     id="g4214"
     transform="matrix(1.0543818,0,0,1.0543818,-1826.1428,-409.07409)">
    <path
       d="m 2609.1836,508.36246 c -23.3543,0 -46.4024,0.96983 -69.1479,2.89899 20.6716,21.32342 39.2035,44.76216 55.0864,70.12217 30.039,46.53298 48.3091,98.62497 57.6778,152.61461 82.0105,6.17418 158.4745,29.95264 229.3832,71.36328 83.3332,48.66667 149.3332,114.66669 198,197.99999 48.6665,83.3334 73.0007,174.3347 73.0007,273.0013 0,68.532 -11.7517,133.3608 -35.2305,194.4953 31.6163,68.4321 62.0742,137.39 90.6632,207.1508 7.9739,17.5208 14.3243,36.0401 18.8296,55.0511 16.6677,-22.6434 32.2509,-46.374 46.7376,-71.1984 68.6666,-117.6666 103.0002,-246.1654 103.0002,-385.4988 0,-139.3333 -34.3336,-267.8339 -103.0002,-385.50059 C 3205.517,773.19554 3112.3489,680.02935 2994.6823,611.36268 2877.0157,542.69601 2748.5169,508.36246 2609.1836,508.36246 Z M 1945.6727,907.4874 c -1.3788,-0.0622 -3.1382,0.87613 -5.4701,3.30651 -3.4973,1.92703 -6.9758,3.90289 -10.4456,5.90357 -59.0459,110.57332 -88.5738,230.46112 -88.5738,359.66532 0,139.3334 34.3335,267.8322 103.0002,385.4988 68.6666,117.6668 161.8328,210.8348 279.4995,279.5014 117.6666,68.6667 246.1673,103.0003 385.5007,103.0003 98.8692,0 192.2807,-17.2942 280.2405,-51.8688 -3.2697,-1.9716 -6.4925,-4.0371 -9.6603,-6.2019 -59.884,-56.2576 -117.5312,-114.7072 -174.2171,-174.1004 -31.266,5.4372 -63.3841,8.1709 -96.3631,8.1709 -98.6668,0 -189.6681,-24.3341 -273.0014,-73.0008 -83.3334,-48.6666 -149.3334,-114.6665 -198,-198 -48.6667,-83.3333 -72.9989,-174.3328 -72.9989,-272.9995 0,-65.2808 10.6626,-127.2037 31.9666,-185.7723 -64.7876,-41.0999 -117.1512,-101.96489 -145.833,-173.38732 -1.4166,-4.59878 -2.6108,-9.5789 -5.6442,-9.71578 z"
       id="path4140"
       inkscape:connector-curvature="0" />
    <path
       inkscape:connector-curvature="0"
       d="m 2996.5892,1931.7346 q 54.7247,4.2204 98.5719,-28.9669 43.8471,-33.1875 48.0675,-87.9122 3.7984,-49.2521 -26.0758,-120.7624 -221.627,-511.7582 -318.1879,-615.9362 -70.3463,-76.9909 -164.9418,-84.28633 -98.5046,-7.5969 -174.8328,59.26113 -76.3286,66.8587 -83.9859,166.1448 -7.7176,100.0682 59.1417,171.2847 l 463.8671,491.119 q 42.8694,45.7735 98.376,50.0544 z"
       id="path4208" />
    <path
       inkscape:connector-curvature="0"
       d="m 2348.2925,1068.5655 q 35.0719,-57.0642 91.0979,-95.21063 56.0261,-38.14633 122.2406,-50.3412 l 5.0625,-55.44627 q 15.9697,-166.27816 -80.3189,-279.08608 -96.2886,-112.80814 -264.3716,-125.77128 -96.1592,-7.41591 -173.2321,23.20906 -77.0731,30.62498 -126.9094,90.48244 -49.8361,59.85745 -78.6578,137.85084 -28.8214,77.99298 -35.9362,170.2436 5.774,-3.48696 33.8617,-20.98179 28.0881,-17.49421 51.1539,-31.05092 23.0655,-13.55671 48.3258,-24.97767 25.26,-11.42137 36.987,-10.51695 32.0529,2.47204 40.7671,32.242 15.5653,53.10496 38.1693,91.4175 22.6044,38.31213 49.7518,63.60562 27.147,25.29363 65.9328,42.44043 38.7854,17.1473 78.9858,26.1459 40.2008,8.9983 97.0898,15.7454 z"
       id="path4" />
    <path
       style="fill:#f57900"
       d="m 2180.8294,457.11735 c -101.6766,-0.41885 -205.5158,42.71435 -268.3915,124.25787 -70.1718,87.8042 -102.6784,200.1547 -109.9976,310.98887 52.9332,-31.12034 102.9598,-68.73987 161.2359,-89.22233 22.4869,-8.06264 48.5549,7.60105 51.8999,31.29381 9.4193,31.30214 21.6452,61.91773 38.377,90.069 18.1891,1.34724 39.9168,7.2439 55.8559,-4.52815 11.4598,-12.97732 -0.4891,-30.8762 -3.7992,-44.62534 -7.4545,-17.62681 -5.7872,-41.32227 12.3506,-51.80837 20.6959,-12.58704 45.3014,-20.0755 69.3751,-18.67842 45.9326,6.16436 87.6136,34.01936 134.8165,32.55995 16.7777,-0.21808 32.2124,-12.94084 33.3775,-30.08103 5.4607,-42.07179 -15.5284,-83.05819 -9.6741,-124.97757 1.2639,-8.20816 10.2334,-14.81952 17.1513,-7.50076 30.0854,13.62488 61.4682,29.67198 95.2895,29.04985 16.9507,-1.01992 26.0618,-17.38871 40.3136,-24.52254 13.5317,-8.46002 31.7237,-21.56222 25.7387,-40.13306 -9.7896,-27.7689 -31.7417,-49.11012 -50.884,-70.71883 -63.0442,-66.36374 -152.9445,-101.83897 -243.1238,-109.2676 -16.5867,-1.54948 -33.2511,-2.31526 -49.9113,-2.15535 z"
       id="path4210"
       inkscape:connector-curvature="0" />
  </g>
</svg>
