<?xml version="1.0" encoding="UTF-8" standalone="no"?>
<svg
   xmlns:dc="http://purl.org/dc/elements/1.1/"
   xmlns:cc="http://creativecommons.org/ns#"
   xmlns:rdf="http://www.w3.org/1999/02/22-rdf-syntax-ns#"
   xmlns:svg="http://www.w3.org/2000/svg"
   xmlns="http://www.w3.org/2000/svg"
   xmlns:sodipodi="http://sodipodi.sourceforge.net/DTD/sodipodi-0.dtd"
   xmlns:inkscape="http://www.inkscape.org/namespaces/inkscape"
   version="1.0"
   width="600mm"
   height="330mm"
   viewBox="0 0 1700.7874 935.43309"
   preserveAspectRatio="xMidYMid meet"
   id="svg2"
   inkscape:version="0.91 r13725"
   sodipodi:docname="markers.svg"
   inkscape:export-filename="/home/slemaignan/src/freeplay_sandbox_qt/res/tags/markers.png"
   inkscape:export-xdpi="70.139999"
   inkscape:export-ydpi="70.139999">
  <defs
     id="defs12" />
  <sodipodi:namedview
     pagecolor="#ffffff"
     bordercolor="#666666"
     borderopacity="1"
     objecttolerance="10"
     gridtolerance="10"
     guidetolerance="10"
     inkscape:pageopacity="0"
     inkscape:pageshadow="2"
     inkscape:window-width="1920"
     inkscape:window-height="1025"
     id="namedview10"
     showgrid="false"
     inkscape:document-units="mm"
     units="mm"
     inkscape:zoom="0.26700352"
     inkscape:cx="152.07241"
     inkscape:cy="941.37373"
     inkscape:window-x="0"
     inkscape:window-y="867"
     inkscape:window-maximized="1"
     inkscape:current-layer="g4645" />
  <metadata
     id="metadata4">
Created by potrace 1.13, written by Peter Selinger 2001-2015
<rdf:RDF>
  <cc:Work
     rdf:about="">
    <dc:format>image/svg+xml</dc:format>
    <dc:type
       rdf:resource="http://purl.org/dc/dcmitype/StillImage" />
    <dc:title></dc:title>
  </cc:Work>
</rdf:RDF>
</metadata>
  <g
     id="g4571"
     transform="translate(-3.6500592,-637.7953)">
    <g
       id="g4645">
      <g
         transform="translate(173.72881,8.6614182e-7)"
         id="g4606">
        <g
           style="fill:#000000;stroke:none"
           id="g6"
           transform="matrix(0.00566929,0,0,-0.00566929,0,935.43307)">
          <path
             inkscape:connector-curvature="0"
             id="path8"
             d="M 0,20000 0,0 l 20000,0 20000,0 0,20000 0,20000 -20000,0 -20000,0 0,-20000 z m 32000,6000 0,-2000 -4000,0 -4000,0 0,2000 0,2000 4000,0 4000,0 0,-2000 z m -12000,-4000 0,-2000 6000,0 6000,0 0,-2000 0,-2000 -2000,0 -2000,0 0,-2000 0,-2000 2000,0 2000,0 0,-2000 0,-2000 -10000,0 -10000,0 0,2000 0,2000 4000,0 4000,0 0,4000 0,4000 -4000,0 -4000,0 0,-2000 0,-2000 -2000,0 -2000,0 0,4000 0,4000 6000,0 6000,0 0,-2000 z" />
        </g>
        <g
           style="fill:#000000;stroke:none"
           transform="matrix(0.00566929,0,0,-0.00566929,283.46457,935.43307)"
           id="g4279">
          <path
             inkscape:connector-curvature="0"
             d="M 0,20000 0,0 l 20000,0 20000,0 0,20000 0,20000 -20000,0 -20000,0 0,-20000 z m 32000,6000 0,-2000 -4000,0 -4000,0 0,2000 0,2000 4000,0 4000,0 0,-2000 z m -12000,-8000 0,-6000 4000,0 4000,0 0,2000 0,2000 -2000,0 -2000,0 0,2000 0,2000 2000,0 2000,0 0,-2000 0,-2000 2000,0 2000,0 0,-4000 0,-4000 -8000,0 -8000,0 0,4000 0,4000 -2000,0 -2000,0 0,2000 0,2000 -2000,0 -2000,0 0,2000 0,2000 6000,0 6000,0 0,-6000 z"
             id="path4281" />
        </g>
        <g
           style="fill:#000000;stroke:none"
           transform="matrix(0.00566929,0,0,-0.00566929,566.92913,935.43307)"
           id="g4293">
          <path
             inkscape:connector-curvature="0"
             d="M 0,20000 0,0 l 20000,0 20000,0 0,20000 0,20000 -20000,0 -20000,0 0,-20000 z m 32000,-2000 0,-10000 -10000,0 -10000,0 0,2000 0,2000 -2000,0 -2000,0 0,2000 0,2000 2000,0 2000,0 0,2000 0,2000 -2000,0 -2000,0 0,2000 0,2000 6000,0 6000,0 0,-2000 0,-2000 -2000,0 -2000,0 0,-2000 0,-2000 2000,0 2000,0 0,-2000 0,-2000 2000,0 2000,0 0,8000 0,8000 4000,0 4000,0 0,-10000 z"
             id="path4295" />
        </g>
        <g
           style="fill:#000000;stroke:none"
           transform="matrix(0.00566929,0,0,-0.00566929,850.3937,935.43307)"
           id="g4326">
          <path
             inkscape:connector-curvature="0"
             d="M 0,20000 0,0 l 20000,0 20000,0 0,20000 0,20000 -20000,0 -20000,0 0,-20000 z m 32000,4000 0,-4000 -2000,0 -2000,0 0,-2000 0,-2000 -2000,0 -2000,0 0,-2000 0,-2000 4000,0 4000,0 0,-2000 0,-2000 -8000,0 -8000,0 0,2000 0,2000 -4000,0 -4000,0 0,6000 0,6000 6000,0 6000,0 0,-2000 0,-2000 2000,0 2000,0 0,4000 0,4000 4000,0 4000,0 0,-4000 z"
             id="path4328" />
          <path
             inkscape:connector-curvature="0"
             d="m 12000,18000 0,-2000 2000,0 2000,0 0,-2000 0,-2000 2000,0 2000,0 0,2000 0,2000 -2000,0 -2000,0 0,2000 0,2000 -2000,0 -2000,0 0,-2000 z"
             id="path4330" />
        </g>
        <g
           style="fill:#000000;stroke:none"
           transform="matrix(0.00566929,0,0,-0.00566929,1133.8583,935.43307)"
           id="g4343">
          <path
             inkscape:connector-curvature="0"
             d="M 0,20000 0,0 l 20000,0 20000,0 0,20000 0,20000 -20000,0 -20000,0 0,-20000 z m 16000,6000 0,-2000 4000,0 4000,0 0,2000 0,2000 2000,0 2000,0 0,-4000 0,-4000 -4000,0 -4000,0 0,-2000 0,-2000 6000,0 6000,0 0,-2000 0,-2000 -2000,0 -2000,0 0,-2000 0,-2000 -2000,0 -2000,0 0,2000 0,2000 -2000,0 -2000,0 0,-2000 0,-2000 -2000,0 -2000,0 0,2000 0,2000 2000,0 2000,0 0,2000 0,2000 -4000,0 -4000,0 0,-2000 0,-2000 -2000,0 -2000,0 0,8000 0,8000 4000,0 4000,0 0,-2000 z"
             id="path4345" />
          <path
             inkscape:connector-curvature="0"
             d="m 12000,22000 0,-2000 2000,0 2000,0 0,2000 0,2000 -2000,0 -2000,0 0,-2000 z"
             id="path4347" />
        </g>
      </g>
      <g
         transform="translate(0,643.9002)"
         id="g4620">
        <g
           style="fill:#000000;stroke:none"
           transform="matrix(0.00566256,0,0,-0.00566256,173.72881,574.99744)"
           id="g4360">
          <path
             inkscape:connector-curvature="0"
             d="M 0,20000 0,0 l 20000,0 20000,0 0,20000 0,20000 -20000,0 -20000,0 0,-20000 z m 16000,6000 0,-2000 4000,0 4000,0 0,2000 0,2000 2000,0 2000,0 0,-4000 0,-4000 2000,0 2000,0 0,-2000 0,-2000 -2000,0 -2000,0 0,2000 0,2000 -2000,0 -2000,0 0,-2000 0,-2000 -2000,0 -2000,0 0,-4000 0,-4000 -4000,0 -4000,0 0,2000 0,2000 -2000,0 -2000,0 0,2000 0,2000 2000,0 2000,0 0,-2000 0,-2000 2000,0 2000,0 0,2000 0,2000 2000,0 2000,0 0,2000 0,2000 -2000,0 -2000,0 0,2000 0,2000 -2000,0 -2000,0 0,-2000 0,-2000 -2000,0 -2000,0 0,4000 0,4000 4000,0 4000,0 0,-2000 z m 12000,-16000 0,-2000 -2000,0 -2000,0 0,2000 0,2000 2000,0 2000,0 0,-2000 z"
             id="path4362" />
        </g>
        <g
           style="fill:#000000;stroke:none"
           transform="matrix(0.00566256,0,0,-0.00566256,457.19338,574.99744)"
           id="g4374">
          <path
             inkscape:connector-curvature="0"
             d="M 0,20000 0,0 l 20000,0 20000,0 0,20000 0,20000 -20000,0 -20000,0 0,-20000 z m 16000,6000 0,-2000 4000,0 4000,0 0,2000 0,2000 2000,0 2000,0 0,-2000 0,-2000 2000,0 2000,0 0,-2000 0,-2000 -2000,0 -2000,0 0,2000 0,2000 -2000,0 -2000,0 0,-4000 0,-4000 2000,0 2000,0 0,-4000 0,-4000 -2000,0 -2000,0 0,4000 0,4000 -2000,0 -2000,0 0,-4000 0,-4000 -2000,0 -2000,0 0,2000 0,2000 -2000,0 -2000,0 0,2000 0,2000 2000,0 2000,0 0,4000 0,4000 -2000,0 -2000,0 0,-2000 0,-2000 -2000,0 -2000,0 0,4000 0,4000 4000,0 4000,0 0,-2000 z"
             id="path4376" />
        </g>
        <g
           style="fill:#000000;stroke:none"
           transform="matrix(0.00566256,0,0,-0.00566256,740.65794,574.99744)"
           id="g4388">
          <path
             inkscape:connector-curvature="0"
             d="M 0,20000 0,0 l 20000,0 20000,0 0,20000 0,20000 -20000,0 -20000,0 0,-20000 z m 16000,6000 0,-2000 4000,0 4000,0 0,2000 0,2000 2000,0 2000,0 0,-2000 0,-2000 2000,0 2000,0 0,-6000 0,-6000 -2000,0 -2000,0 0,-2000 0,-2000 -2000,0 -2000,0 0,2000 0,2000 -2000,0 -2000,0 0,-2000 0,-2000 -4000,0 -4000,0 0,4000 0,4000 -2000,0 -2000,0 0,6000 0,6000 4000,0 4000,0 0,-2000 z"
             id="path4390" />
          <path
             inkscape:connector-curvature="0"
             d="m 12000,22000 0,-2000 2000,0 2000,0 0,-4000 0,-4000 2000,0 2000,0 0,2000 0,2000 2000,0 2000,0 0,-2000 0,-2000 2000,0 2000,0 0,6000 0,6000 -2000,0 -2000,0 0,-2000 0,-2000 -4000,0 -4000,0 0,2000 0,2000 -2000,0 -2000,0 0,-2000 z"
             id="path4392" />
        </g>
        <g
           style="fill:#000000;stroke:none"
           transform="matrix(0.00566256,0,0,-0.00566256,1024.1225,574.99744)"
           id="g4405">
          <path
             inkscape:connector-curvature="0"
             d="M 0,20000 0,0 l 20000,0 20000,0 0,20000 0,20000 -20000,0 -20000,0 0,-20000 z m 16000,6000 0,-2000 -2000,0 -2000,0 0,-4000 0,-4000 2000,0 2000,0 0,2000 0,2000 2000,0 2000,0 0,-2000 0,-2000 -2000,0 -2000,0 0,-2000 0,-2000 2000,0 2000,0 0,-2000 0,-2000 -2000,0 -2000,0 0,2000 0,2000 -2000,0 -2000,0 0,2000 0,2000 -2000,0 -2000,0 0,6000 0,6000 4000,0 4000,0 0,-2000 z m 12000,0 0,-2000 2000,0 2000,0 0,-6000 0,-6000 -2000,0 -2000,0 0,-2000 0,-2000 -2000,0 -2000,0 0,6000 0,6000 2000,0 2000,0 0,2000 0,2000 -2000,0 -2000,0 0,2000 0,2000 2000,0 2000,0 0,-2000 z"
             id="path4407" />
        </g>
        <g
           style="fill:#000000;stroke:none"
           transform="matrix(0.00566256,0,0,-0.00566256,1307.5871,574.99744)"
           id="g4419">
          <path
             inkscape:connector-curvature="0"
             d="M 0,20000 0,0 l 20000,0 20000,0 0,20000 0,20000 -20000,0 -20000,0 0,-20000 z m 16000,6000 0,-2000 -2000,0 -2000,0 0,-2000 0,-2000 2000,0 2000,0 0,-2000 0,-2000 2000,0 2000,0 0,2000 0,2000 4000,0 4000,0 0,2000 0,2000 -2000,0 -2000,0 0,2000 0,2000 2000,0 2000,0 0,-2000 0,-2000 2000,0 2000,0 0,-2000 0,-2000 -2000,0 -2000,0 0,-2000 0,-2000 -2000,0 -2000,0 0,-2000 0,-2000 2000,0 2000,0 0,-2000 0,-2000 -2000,0 -2000,0 0,2000 0,2000 -2000,0 -2000,0 0,-2000 0,-2000 -4000,0 -4000,0 0,6000 0,6000 -2000,0 -2000,0 0,4000 0,4000 4000,0 4000,0 0,-2000 z"
             id="path4421" />
        </g>
      </g>
      <g
         transform="translate(0,623.62204)"
         id="g4633">
        <g
           style="fill:#000000;stroke:none"
           transform="matrix(0.00566256,0,0,-0.00566256,173.72881,878.74016)"
           id="g4433">
          <path
             inkscape:connector-curvature="0"
             d="M 0,20000 0,0 l 20000,0 20000,0 0,20000 0,20000 -20000,0 -20000,0 0,-20000 z m 16000,6000 0,-2000 -2000,0 -2000,0 0,-2000 0,-2000 6000,0 6000,0 0,4000 0,4000 2000,0 2000,0 0,-4000 0,-4000 2000,0 2000,0 0,-2000 0,-2000 -2000,0 -2000,0 0,-4000 0,-4000 -2000,0 -2000,0 0,2000 0,2000 -2000,0 -2000,0 0,-2000 0,-2000 -2000,0 -2000,0 0,4000 0,4000 -2000,0 -2000,0 0,-2000 0,-2000 -2000,0 -2000,0 0,2000 0,2000 2000,0 2000,0 0,2000 0,2000 -2000,0 -2000,0 0,4000 0,4000 4000,0 4000,0 0,-2000 z"
             id="path4435" />
        </g>
        <g
           style="fill:#000000;stroke:none"
           transform="matrix(0.00566256,0,0,-0.00566256,457.19338,878.74016)"
           id="g4447">
          <path
             inkscape:connector-curvature="0"
             d="M 0,20000 0,0 l 20000,0 20000,0 0,20000 0,20000 -20000,0 -20000,0 0,-20000 z m 16000,6000 0,-2000 -2000,0 -2000,0 0,-6000 0,-6000 4000,0 4000,0 0,-2000 0,-2000 -4000,0 -4000,0 0,2000 0,2000 -2000,0 -2000,0 0,8000 0,8000 4000,0 4000,0 0,-2000 z m 12000,-4000 0,-6000 2000,0 2000,0 0,-2000 0,-2000 -2000,0 -2000,0 0,-2000 0,-2000 -2000,0 -2000,0 0,2000 0,2000 2000,0 2000,0 0,2000 0,2000 -2000,0 -2000,0 0,6000 0,6000 2000,0 2000,0 0,-6000 z"
             id="path4449" />
        </g>
        <g
           style="fill:#000000;stroke:none"
           transform="matrix(0.00566256,0,0,-0.00566256,740.65794,878.74016)"
           id="g4461">
          <path
             inkscape:connector-curvature="0"
             d="M 0,20000 0,0 l 20000,0 20000,0 0,20000 0,20000 -20000,0 -20000,0 0,-20000 z m 16000,0 0,-8000 2000,0 2000,0 0,4000 0,4000 2000,0 2000,0 0,4000 0,4000 2000,0 2000,0 0,-2000 0,-2000 2000,0 2000,0 0,-8000 0,-8000 -2000,0 -2000,0 0,2000 0,2000 -4000,0 -4000,0 0,-2000 0,-2000 -2000,0 -2000,0 0,2000 0,2000 -4000,0 -4000,0 0,4000 0,4000 2000,0 2000,0 0,2000 0,2000 -2000,0 -2000,0 0,2000 0,2000 4000,0 4000,0 0,-8000 z"
             id="path4463" />
        </g>
        <g
           style="fill:#000000;stroke:none"
           transform="matrix(0.00566256,0,0,-0.00566256,1024.1225,878.74016)"
           id="g4475">
          <path
             inkscape:connector-curvature="0"
             d="M 0,20000 0,0 l 20000,0 20000,0 0,20000 0,20000 -20000,0 -20000,0 0,-20000 z m 16000,4000 0,-4000 2000,0 2000,0 0,-6000 0,-6000 -4000,0 -4000,0 0,2000 0,2000 -2000,0 -2000,0 0,2000 0,2000 4000,0 4000,0 0,2000 0,2000 -2000,0 -2000,0 0,2000 0,2000 -2000,0 -2000,0 0,2000 0,2000 4000,0 4000,0 0,-4000 z m 12000,2000 0,-2000 2000,0 2000,0 0,-2000 0,-2000 -2000,0 -2000,0 0,-2000 0,-2000 -2000,0 -2000,0 0,6000 0,6000 2000,0 2000,0 0,-2000 z m 4000,-16000 0,-2000 -2000,0 -2000,0 0,2000 0,2000 2000,0 2000,0 0,-2000 z"
             id="path4477" />
        </g>
        <g
           style="fill:#000000;stroke:none"
           transform="matrix(0.00566256,0,0,-0.00566256,1307.5871,878.74016)"
           id="g4489">
          <path
             inkscape:connector-curvature="0"
             d="M 0,20000 0,0 l 20000,0 20000,0 0,20000 0,20000 -20000,0 -20000,0 0,-20000 z m 16000,4000 0,-4000 -2000,0 -2000,0 0,2000 0,2000 -2000,0 -2000,0 0,2000 0,2000 4000,0 4000,0 0,-4000 z m 12000,2000 0,-2000 -2000,0 -2000,0 0,2000 0,2000 2000,0 2000,0 0,-2000 z m 4000,-8000 0,-2000 -2000,0 -2000,0 0,-2000 0,-2000 2000,0 2000,0 0,-2000 0,-2000 -2000,0 -2000,0 0,2000 0,2000 -2000,0 -2000,0 0,4000 0,4000 4000,0 4000,0 0,-2000 z m -12000,-6000 0,-4000 -2000,0 -2000,0 0,4000 0,4000 2000,0 2000,0 0,-4000 z"
             id="path4491" />
        </g>
      </g>
    </g>
  </g>
</svg>
